<?xml version="1.0" encoding="utf-8"?>
<!-- Generator: Adobe Illustrator 22.1.0, SVG Export Plug-In . SVG Version: 6.00 Build 0)  -->
<svg version="1.1" id="Layer_1" xmlns="http://www.w3.org/2000/svg" xmlns:xlink="http://www.w3.org/1999/xlink" x="0px" y="0px"
	 viewBox="0 0 63.3 55.3" style="enable-background:new 0 0 63.3 55.3;" xml:space="preserve">
<style type="text/css">
	.st0{fill:#EB353B;}
	.st1{fill:#CF1F3C;}
	.st2{fill:#FCC9A6;}
	.st3{fill:#543213;}
	.st4{fill:#076DA2;}
	.st5{fill:#2F92D0;}
	.st6{fill:#CACACA;}
	.st7{fill:#E6AF88;}
	.st8{fill:#553213;}
	.st9{fill:#EAEAEA;}
	.st10{fill:#3BC3E3;}
	.st11{fill:#8DC63F;}
	.st12{fill:#8DC63F;stroke:#F6E6DB;stroke-miterlimit:10;}
	.st13{fill:#3BC3E3;stroke:#F6E6DB;stroke-miterlimit:10;}
	.st14{fill:#EB353B;stroke:#F6E6DB;stroke-miterlimit:10;}
	.st15{fill:#FFFFFF;}
	.st16{fill:#4E8157;}
	.st17{fill:#EFC41C;}
	.st18{fill:#CB8252;}
	.st19{fill:#51BA6F;}
	.st20{fill:#25AE5F;}
	.st21{fill:#A56B44;}
	.st22{fill:#95BC98;}
	.st23{fill:#5B5B5B;}
	.st24{fill:#FABE15;}
	.st25{fill:#454545;}
	.st26{fill:#292929;}
	.st27{fill:#6F6F6F;}
</style>
<path class="st0" d="M600.4,73.3H314.1c-6.6,0-12-5.4-12-12V17.2c0-6.6,5.4-12,12-12h286.2c6.6,0,12,5.4,12,12v44.1
	C612.4,67.9,607,73.3,600.4,73.3z"/>
<g>
	<text transform="matrix(1 0 0 1 383.9379 49.916)" class="st15" style="font-family:'Montserrat-Light'; font-size:31.1428px;">University</text>
</g>
<text transform="matrix(1 0 0 1 411.0434 -190.4014)" style="font-family:'Montserrat-Light'; font-size:16.7692px;">Daniel Lorem Ipsum</text>
<text transform="matrix(1 0 0 1 411.0434 -210.4864)" style="font-family:'Montserrat-Light'; font-size:16.7692px;">Welcome,</text>
<g>
	<path class="st1" d="M356.4-190.4C356.4-190.4,356.5-190.5,356.4-190.4C356.5-190.5,356.5-190.5,356.4-190.4
		c0.1-0.1,0.1-0.1,0.1-0.1c0-0.5,0-1,0-1.5v0c0-0.6,0-1.3,0-1.9c-2.6-1.8-3.6-4.6-4.3-7.5c-0.2-0.7-0.3-1.5-0.4-2.2
		c0-0.4-0.2-0.5-0.6-0.5c-0.6,0-1.1,0.1-1.7-0.1c-1.1-0.3-1.8-1.3-1.9-2.4c0-0.3,0-0.7,0-1c-0.1-1.1,0.1-2.1,1-2.9c0,0,0,0,0,0
		c0,0,0,0,0,0c-0.2-1.7-0.4-3.3-0.7-5c-0.5-3.2,1.8-6,5-6.2c0.3,0,0.5,0,0.7-0.4c1.4-2.4,3.4-3.9,6.1-4.6c1.7-0.4,3.4-0.8,5.2-0.6
		c2.3,0.3,4.3,1.2,5.9,2.7c2.6,2.5,4,5.5,3.9,9.2c-0.1,1.6-0.6,3.1-1,4.6c1.5,1.3,1.2,3,1,4.7c-0.2,1-1.2,1.7-2.3,1.8
		c-0.5,0-1.1-0.2-1.5,0.2c-0.3,0.3-0.2,1-0.3,1.5c-0.4,2-0.9,3.9-1.9,5.7c-0.6,1.2-1.6,2.1-2.6,2.9l0,0c0,0,0,0,0,0
		c0,0.6,0,1.3,0,1.9c0,0.5,0,1,0,1.5c0,0,0,0,0,0v0c0,0,0,0,0,0l0,0c0,0,0,0,0,0c0,0,0.1,0.1,0.1,0.1c0,0,0,0,0,0
		c0.7,0.3,1.5,0.7,2.2,1.1c4.9,2.4,9.8,5,14.7,7.3c0.1,0,0.1,0.1,0.2,0.1c6-5.6,9.7-13.5,9.7-22.4c0-16.9-13.7-30.6-30.6-30.6
		S332-221.2,332-204.3c0,8.5,3.4,16.1,9,21.6c5.1-2.6,10.2-5.1,15.3-7.7C356.3-190.4,356.3-190.4,356.4-190.4z"/>
	<path class="st2" d="M360.3-192.5c1.9,0.2,3.6-0.1,5.2-1c0.2-0.1,0.5-0.3,0.7-0.4l0,0c1-0.8,2-1.7,2.6-2.9c1-1.8,1.5-3.7,1.9-5.7
		c0.1-0.5,0-1.1,0.3-1.5c0.4-0.4,1-0.1,1.5-0.2c1.1-0.1,2.2-0.8,2.3-1.8c0.3-1.6,0.6-3.4-1-4.7c-0.7-0.3-1.5-0.4-2.3-0.4
		c-0.4,0-0.5-0.1-0.5-0.5c0-0.6,0-1.3,0-1.9c0-0.4-0.1-0.5-0.5-0.5c-1.4,0-2.8,0-4.1,0c-4.4,0-8.3-1.5-11.5-4.6
		c-0.4-0.4-0.5-0.3-0.8,0.1c-0.7,1.3-1.5,2.5-2.2,3.8c-0.3,0.5-0.4,0.9-0.4,1.4c0,0.1,0,0.2,0,0.3c0,0.6,0.2,1.3-0.1,1.7
		c-0.3,0.5-1,0.1-1.6,0.2c-0.5,0.1-0.8,0.3-1.3,0.4c0,0,0,0,0,0c-0.9,0.8-1.1,1.8-1,2.9c0,0.3,0,0.6,0,1c0,1.1,0.8,2.1,1.9,2.4
		c0.6,0.2,1.1,0.1,1.7,0.1c0.4,0,0.6,0.1,0.6,0.5c0,0.7,0.2,1.5,0.4,2.2c0.7,2.9,1.6,5.7,4.3,7.5l0,0
		C357.7-193.3,358.9-192.7,360.3-192.5z M363.2-198.3c-0.6,0-1.3,0-1.9,0c-0.6,0-1.3,0-1.9,0c-0.6,0-1-0.4-1-1c0-0.6,0.4-1,1-1
		c1.3,0,2.5,0,3.8,0c0.6,0,1,0.4,1,1C364.3-198.7,363.9-198.3,363.2-198.3z M365.5-206.6c-0.7,0-1.2-0.6-1.2-1.2
		c0-0.7,0.6-1.2,1.2-1.2c0.6,0,1.2,0.6,1.2,1.2C366.7-207.1,366.2-206.5,365.5-206.6z M364.4-211.9c0.9,0,1.9,0,2.8,0
		c0.6,0,1,0.4,1,1c0,0.5-0.4,0.9-1,0.9c-0.5,0-1,0-1.5,0c-0.5,0-0.9,0-1.4,0c-0.6,0-1-0.4-1-1C363.3-211.5,363.7-211.9,364.4-211.9z
		 M359.4-205.9c0-0.7,0.4-1.1,1-1.1c0.6,0,0.9,0.4,1,1.1c0,0.4,0,0.9,0,1.3c0,0.4,0.1,0.5,0.5,0.5c0.2,0,0.4,0,0.6,0
		c0.5,0.1,0.9,0.5,0.9,1c0,0.5-0.3,0.9-0.9,0.9c-0.7,0-1.5,0-2.2,0c-0.5,0-0.8-0.4-0.8-0.9c0-0.5,0-1,0-1.5
		C359.4-205.1,359.4-205.5,359.4-205.9z M355.6-210c-0.6,0-1-0.4-1-1c0-0.6,0.4-1,1-1c0.9,0,1.9,0,2.8,0c0.6,0,1,0.4,1,1
		c0,0.5-0.4,0.9-1,1c0,0,0,0-0.1,0c-0.4,0-0.9,0-1.3,0C356.5-210,356.1-210,355.6-210z M356-207.8c0-0.6,0.6-1.2,1.2-1.2
		c0.6,0,1.2,0.6,1.2,1.2c0,0.7-0.6,1.2-1.2,1.2C356.6-206.6,356-207.2,356-207.8z"/>
	<path class="st3" d="M350.4-211.1c1.1,0,1.1,0.1,1.1-1.1c-0.1-1.2,0.2-2.2,0.9-3.2c0.6-0.9,1.1-1.9,1.7-2.9
		c0.4-0.7,0.5-0.7,1.1-0.2c1.1,0.9,2.1,1.7,3.4,2.4c1.9,1,3.9,1.7,6,1.9c1.9,0.2,3.8,0.1,5.6,0.1c1,0,1.1,0.1,1.1,1.1
		c0,0.4,0,0.9,0,1.3c0,0.4,0.2,0.6,0.6,0.6c0.5,0,1,0,1.4,0.1c0.2,0.1,0.4,0.2,0.6,0.4c0.4-1.5,0.9-3,1-4.6c0.2-3.7-1.3-6.7-3.9-9.2
		c-1.6-1.6-3.6-2.5-5.9-2.7c-1.8-0.2-3.5,0.2-5.2,0.6c-2.7,0.6-4.8,2.1-6.1,4.6c-0.2,0.3-0.4,0.3-0.7,0.4c-3.2,0.1-5.5,3-5,6.2
		c0.2,1.7,0.5,3.3,0.7,5c0,0,0,0,0,0C349.2-211,349.8-211.1,350.4-211.1z"/>
	<path class="st3" d="M351.6-211.1c0.3-0.4,0.1-1.1,0.1-1.7c0-0.1,0-0.2,0-0.3c-0.1-0.5,0.1-1,0.4-1.4c0.8-1.2,1.5-2.5,2.2-3.8
		c0.2-0.4,0.3-0.5,0.8-0.1c3.2,3,7.1,4.5,11.5,4.6c1.4,0,2.8,0,4.1,0c0.4,0,0.5,0.1,0.5,0.5c0,0.6,0,1.3,0,1.9
		c0,0.4,0.1,0.6,0.5,0.5c0.8-0.1,1.6,0,2.3,0.4c-0.2-0.2-0.4-0.3-0.6-0.4c-0.5-0.2-1-0.1-1.4-0.1c-0.4,0-0.6-0.1-0.6-0.6
		c0-0.4,0-0.9,0-1.3c0-1-0.1-1.1-1.1-1.1c-1.9,0-3.8,0.1-5.6-0.1c-2.1-0.2-4.1-0.9-6-1.9c-1.2-0.7-2.3-1.5-3.4-2.4
		c-0.6-0.5-0.7-0.5-1.1,0.2c-0.6,0.9-1.1,1.9-1.7,2.9c-0.7,1-1,2-0.9,3.2c0.1,1.2,0,1.1-1.1,1.1c-0.6,0-1.2,0.1-1.6,0.6
		c0.4-0.2,0.8-0.4,1.3-0.4C350.6-211,351.3-210.7,351.6-211.1z"/>
	<path class="st4" d="M368.6-189.4c-0.7-0.4-1.5-0.7-2.2-1.1c1.1,1.2,2.2,2.5,3.3,3.7c1.4,1.6,2.8,3.1,4.2,4.7
		c0.2,0.3,0.1,0.5,0,0.7c-0.7,2-1.4,4.1-2,6.1c4.4-1.4,8.3-3.7,11.6-6.8c-0.1,0-0.1-0.1-0.2-0.1
		C378.3-184.4,373.5-186.9,368.6-189.4z"/>
	<path class="st4" d="M348.8-181.4c-0.1-0.3-0.1-0.4,0.1-0.6c1.8-2,3.6-4,5.4-6c0.7-0.8,1.4-1.6,2.1-2.4c-0.1,0-0.1,0-0.2,0
		c-5.1,2.6-10.2,5.1-15.3,7.7c2.8,2.8,6,5,9.7,6.5C350-177.9,349.4-179.7,348.8-181.4z"/>
	<path class="st5" d="M356.5-184.2c0-2.1,0-4.2,0-6.3c0,0-0.1,0.1-0.1,0.1c0.1,0.3-0.2,0.4-0.3,0.6c-2.3,2.6-4.6,5.2-6.9,7.7
		c-0.3,0.3-0.2,0.6-0.1,1c0.6,1.7,1.1,3.3,1.7,5c1.8,0.8,3.8,1.4,5.7,1.8c0-3,0-6.1,0-9.1C356.5-183.7,356.5-184,356.5-184.2z"/>
	<path class="st5" d="M349.2-182.1c2.3-2.6,4.6-5.2,6.9-7.7c0.2-0.2,0.4-0.3,0.3-0.6c-0.7,0.8-1.4,1.6-2.1,2.4c-1.8,2-3.6,4-5.4,6
		c-0.2,0.2-0.2,0.4-0.1,0.6c0.6,1.7,1.2,3.5,1.8,5.2c0.1,0,0.1,0,0.2,0.1c-0.6-1.7-1.1-3.3-1.7-5C349-181.4,348.9-181.7,349.2-182.1
		z"/>
	<path class="st5" d="M373.4-182.3c-1.8-2-3.6-4-5.4-6.1c-0.4-0.5-0.9-1-1.3-1.5c-0.1-0.2-0.4-0.3-0.3-0.6c0,0,0,0,0,0c0,0,0,0,0,0
		c0,0-0.1-0.1-0.1-0.1c0,2.1,0,4.2,0,6.3c0,3.3,0,6.6,0,9.9c0,0.1,0,0.2,0,0.3c1.8-0.2,3.6-0.6,5.4-1.1c0.7-2,1.3-4,2-6
		C373.8-181.6,373.7-181.9,373.4-182.3z"/>
	<path class="st5" d="M373.8-182c-1.4-1.5-2.8-3.1-4.2-4.7c-1.1-1.2-2.2-2.5-3.3-3.7c0,0,0,0,0,0c-0.1,0.3,0.1,0.4,0.3,0.6
		c0.4,0.5,0.9,1,1.3,1.5c1.8,2,3.6,4.1,5.4,6.1c0.3,0.4,0.4,0.7,0.3,1.2c-0.7,2-1.3,4-2,6c0.1,0,0.1,0,0.2-0.1c0.7-2,1.4-4.1,2-6.1
		C373.9-181.5,374.1-181.7,373.8-182z"/>
	<path class="st4" d="M363.3-181.8c-1.3,0-2.6,0-3.9,0c-0.3,2.6-0.6,5.2-0.9,7.8c1.3,0.2,2.6,0.3,4,0.3c0.5,0,1.1,0,1.6,0
		c-0.2-2.1-0.5-4.2-0.7-6.4C363.5-180.7,363.4-181.2,363.3-181.8z"/>
	<path class="st6" d="M366.1-184.3c-0.5-0.3-1.1-0.6-1.6-0.8c0,0,0,0,0,0c0,0,0,0,0,0c-0.4,1.1-0.7,2.2-1.1,3.3
		c0.2,0.2,0.3,0.5,0.3,0.8c0.2,2.4,0.5,4.8,0.8,7.1c0.6,0,1.1-0.1,1.7-0.1c0-3.4,0-6.8,0-10.2C366.1-184.2,366.1-184.2,366.1-184.3z
		"/>
	<path class="st6" d="M366.2-184.2L366.2-184.2c-0.1,0-0.1-0.1-0.2-0.1c0,0,0,0.1,0,0.1c0,3.4,0,6.8,0,10.2c0.1,0,0.1,0,0.2,0
		c0-0.1,0-0.2,0-0.3C366.2-177.6,366.2-180.9,366.2-184.2z"/>
	<path class="st6" d="M363.3-181.8C363.3-181.8,363.3-181.8,363.3-181.8c0.1,0.6,0.1,1.1,0.2,1.7c0.2,2.1,0.5,4.2,0.7,6.4
		c0.1,0,0.1,0,0.2,0c-0.2-2.4-0.5-4.8-0.8-7.1C363.6-181.3,363.6-181.6,363.3-181.8z"/>
	<path class="st6" d="M359.4-181.8c-0.4-1.1-0.7-2.2-1.1-3.2c-0.6,0.2-1.1,0.5-1.6,0.8c0,0,0,0.1,0,0.1c0,3.3,0,6.6,0,9.9
		c0.6,0.1,1.1,0.2,1.7,0.3c0.2-2.3,0.5-4.6,0.8-7C359.2-181.3,359.2-181.6,359.4-181.8z"/>
	<path class="st6" d="M356.7-184.2c0,0,0-0.1,0-0.1c-0.1,0-0.1,0.1-0.2,0.1c0,0.2,0,0.5,0,0.7c0,3,0,6.1,0,9.1c0.1,0,0.1,0,0.2,0
		C356.7-177.6,356.7-180.9,356.7-184.2z"/>
	<path class="st6" d="M359.4-181.8c-0.2,0.2-0.3,0.5-0.3,0.8c-0.2,2.3-0.5,4.6-0.8,7c0.1,0,0.1,0,0.2,0
		C358.9-176.6,359.2-179.2,359.4-181.8C359.5-181.8,359.4-181.8,359.4-181.8z"/>
	<path class="st2" d="M361.3-186.6C361.3-186.6,361.3-186.6,361.3-186.6c0.1,0,0.1,0,0.2,0c0.6-0.7,1.3-1.1,2-1.7
		c0.9-0.8,1.8-1.5,2.8-2.2c0-0.5,0-1,0-1.5c-1.5,1-3.2,1.5-5,1.5c-1.7,0-3.2-0.6-4.7-1.5c0,0.5,0,1,0,1.5c1.5,1.2,3,2.4,4.6,3.6
		C361.2-186.8,361.2-186.7,361.3-186.6z"/>
	<polygon class="st2" points="366.3,-190.5 366.3,-190.5 366.3,-190.5 	"/>
	<path class="st7" d="M357.4-191.7c2.7,1.4,5.4,1.4,8.1,0c0.2-0.1,0.4-0.3,0.7-0.2c0-0.6,0-1.3,0-1.9c0,0,0,0,0,0
		c-0.6,0.7-1.5,1-2.4,1.3c-2.4,0.7-4.6,0.4-6.8-0.8c-0.2-0.1-0.4-0.2-0.5-0.4l0,0c0,0.6,0,1.3,0,1.9v0v0
		C356.9-192.1,357.1-191.8,357.4-191.7z"/>
	<path class="st7" d="M357-193.5c2.1,1.2,4.4,1.5,6.8,0.8c0.9-0.3,1.8-0.5,2.4-1.3c-0.2,0.1-0.5,0.3-0.7,0.4c-1.6,0.9-3.4,1.2-5.2,1
		c-1.4-0.2-2.6-0.7-3.8-1.4l0,0l0,0C356.6-193.7,356.8-193.6,357-193.5z"/>
	<path class="st7" d="M366.2-192c-0.3-0.1-0.5,0.1-0.7,0.2c-2.7,1.4-5.4,1.4-8.1,0c-0.3-0.1-0.5-0.3-0.8-0.3v0
		c1.4,0.9,3,1.4,4.7,1.5C363-190.5,364.7-191,366.2-192z"/>
	<path class="st7" d="M360.3-202.2c0.7,0,1.5,0,2.2,0c0.5,0,0.8-0.4,0.9-0.9c0-0.5-0.3-0.9-0.9-1c-0.2,0-0.4,0-0.6,0
		c-0.4,0-0.5-0.1-0.5-0.5c0-0.4,0-0.9,0-1.3c0-0.7-0.4-1.1-1-1.1c-0.6,0-1,0.4-1,1.1c0,0.4,0,0.9,0,1.3c0,0.5,0,1,0,1.5
		C359.5-202.6,359.8-202.2,360.3-202.2z"/>
	<path class="st7" d="M363.3-200.2c-1.3,0-2.5,0-3.8,0c-0.6,0-1,0.4-1,1c0,0.6,0.4,0.9,1,1c0.6,0,1.3,0,1.9,0c0.6,0,1.3,0,1.9,0
		c0.7,0,1.1-0.4,1.1-1C364.3-199.9,363.9-200.2,363.3-200.2z"/>
	<path class="st3" d="M358.3-210C358.4-210,358.4-210,358.3-210c0.7,0,1.1-0.4,1.1-1c0-0.6-0.4-1-1-1c-0.9,0-1.9,0-2.8,0
		c-0.6,0-1,0.4-1,1c0,0.6,0.4,0.9,1,1c0.5,0,0.9,0,1.4,0C357.5-210,357.9-210,358.3-210z"/>
	<path class="st3" d="M364.4-210c0.5,0,0.9,0,1.4,0c0.5,0,1,0,1.5,0c0.6,0,1-0.4,1-0.9c0-0.6-0.4-1-1-1c-0.9,0-1.9,0-2.8,0
		c-0.6,0-1,0.4-1,1C363.3-210.4,363.7-210,364.4-210z"/>
	<path class="st8" d="M358.5-207.8c0-0.6-0.5-1.2-1.2-1.2c-0.6,0-1.2,0.5-1.2,1.2c0,0.7,0.5,1.3,1.2,1.3
		C357.9-206.6,358.5-207.1,358.5-207.8z"/>
	<path class="st8" d="M365.6-209c-0.7,0-1.2,0.5-1.2,1.2c0,0.7,0.5,1.2,1.2,1.2c0.7,0,1.2-0.5,1.2-1.2
		C366.7-208.4,366.2-209,365.6-209z"/>
	<polygon class="st9" points="356.5,-190.5 356.5,-190.5 356.5,-190.5 	"/>
	<path class="st9" d="M361.2-186.6c-1.5-1.1-2.9-2.3-4.4-3.5c-0.1-0.1-0.2-0.2-0.3-0.4c0.1,0.3,0.1,0.6,0.1,0.9c0,1.7,0,3.5,0,5.2
		c0.5-0.4,1-0.7,1.6-0.7C359.3-185.6,360.3-186.1,361.2-186.6z"/>
	<path class="st9" d="M356.5-190.5C356.5-190.5,356.5-190.5,356.5-190.5C356.5-190.5,356.5-190.5,356.5-190.5
		C356.5-190.5,356.5-190.5,356.5-190.5z"/>
	<polygon class="st9" points="356.5,-190.5 356.5,-190.5 356.5,-190.5 	"/>
	<path class="st9" d="M356.7-184.4c0-1.7,0-3.5,0-5.2c0-0.3,0-0.6-0.1-0.9c0,0,0-0.1-0.1-0.1c0,0,0,0,0,0c0,0,0,0,0,0
		c0,2.1,0,4.2,0,6.3C356.6-184.3,356.7-184.3,356.7-184.4z"/>
	<path class="st9" d="M358.4-185.1c-0.7,0-1.2,0.3-1.6,0.7c0,0,0,0,0,0.1C357.3-184.5,357.8-184.9,358.4-185.1L358.4-185.1
		C358.4-185.1,358.4-185.1,358.4-185.1z"/>
	<path class="st9" d="M356.5-184.2c0.1,0,0.1-0.1,0.2-0.1c0,0,0,0,0-0.1C356.7-184.3,356.6-184.3,356.5-184.2z"/>
	<polygon class="st9" points="356.5,-190.5 356.5,-190.5 356.5,-190.5 	"/>
	<path class="st9" d="M356.5-190.5C356.6-190.5,356.6-190.4,356.5-190.5C356.6-190.4,356.6-190.4,356.5-190.5
		c0.2,0.2,0.2,0.3,0.3,0.4c1.5,1.1,2.9,2.3,4.4,3.5c0,0,0,0,0,0h0c0,0,0,0,0,0c-0.1-0.1-0.1-0.2-0.2-0.3
		C359.6-188.1,358-189.3,356.5-190.5C356.5-190.5,356.5-190.5,356.5-190.5C356.5-190.5,356.5-190.5,356.5-190.5z"/>
	<path class="st9" d="M356.5-190.5C356.6-190.5,356.6-190.4,356.5-190.5C356.6-190.4,356.6-190.4,356.5-190.5
		C356.6-190.4,356.6-190.5,356.5-190.5z"/>
	<path class="st9" d="M366.3-190.5c-0.5,0.7-1.2,1.1-1.8,1.6c-1,0.8-1.9,1.6-3,2.4c1,0.5,1.9,1,2.9,1.5c0.7,0,1.2,0.3,1.7,0.7
		c0-1.7,0-3.4,0-5.1c0-0.3,0-0.6,0.1-0.9C366.2-190.4,366.2-190.5,366.3-190.5C366.3-190.5,366.3-190.5,366.3-190.5
		C366.3-190.5,366.3-190.5,366.3-190.5C366.3-190.5,366.3-190.5,366.3-190.5C366.3-190.5,366.3-190.5,366.3-190.5z"/>
	<polygon class="st9" points="366.3,-190.5 366.3,-190.5 366.3,-190.5 366.3,-190.5 	"/>
	<path class="st9" d="M366.1-190.3c-0.1,0.3-0.1,0.6-0.1,0.9c0,1.7,0,3.4,0,5.1c0.1,0.1,0.1,0.1,0.2,0.1v0c0-2.1,0-4.2,0-6.3
		c0,0,0,0,0,0C366.2-190.5,366.2-190.4,366.1-190.3z"/>
	<path class="st9" d="M364.4-185.1C364.4-185.1,364.4-185.1,364.4-185.1C364.4-185.1,364.4-185.1,364.4-185.1
		c0.6,0.2,1.1,0.5,1.7,0.8c0,0,0,0,0-0.1C365.6-184.8,365.1-185.1,364.4-185.1z"/>
	<path class="st9" d="M366.1-184.4C366.1-184.3,366.1-184.3,366.1-184.4c0.1,0.1,0.1,0.1,0.2,0.1l0,0v0
		C366.2-184.3,366.1-184.3,366.1-184.4z"/>
	<polygon class="st9" points="366.3,-190.5 366.3,-190.5 366.3,-190.5 366.3,-190.5 	"/>
	<path class="st9" d="M361.5-186.6C361.5-186.6,361.5-186.6,361.5-186.6c1.1-0.7,2-1.5,3-2.3c0.6-0.5,1.3-0.9,1.8-1.6c0,0,0,0,0,0
		c-0.9,0.7-1.9,1.5-2.8,2.2C362.8-187.7,362.1-187.3,361.5-186.6z"/>
	<path class="st5" d="M361.5-186.6c-0.1,0-0.2,0-0.2,0c0,0.1,0,0.1-0.1,0.1c-0.9,0.5-1.8,1.1-2.9,1.4c0,0,0,0,0,0
		c0.5,1,0.9,2.1,1.1,3.2c0,0,0,0,0,0c0.4-0.2,0.8-0.1,1.1-0.1c0.9,0,1.8-0.1,2.7,0.1c0,0,0-0.1,0-0.1c0.3-1.1,0.5-2.2,1.1-3.1
		c0,0,0,0,0,0C363.4-185.4,362.4-185.8,361.5-186.6C361.5-186.6,361.5-186.6,361.5-186.6z"/>
	<path class="st5" d="M360.6-182c-0.4,0-0.8-0.1-1.1,0.1c0,0,0,0,0,0c0,0,0,0,0,0.1c1.3,0,2.6,0,3.9,0c0,0,0-0.1,0-0.1
		C362.4-182.1,361.5-181.9,360.6-182z"/>
	<path class="st5" d="M364.4-185.1c-0.6,1-0.8,2.1-1.1,3.1c0,0,0,0.1,0,0.1c0,0,0,0,0,0c0,0,0,0,0,0
		C363.7-182.9,364.1-184,364.4-185.1C364.4-185.1,364.4-185.1,364.4-185.1C364.4-185.1,364.4-185.1,364.4-185.1
		C364.4-185.1,364.4-185.1,364.4-185.1z"/>
	<path class="st5" d="M363.3-181.8C363.3-181.8,363.3-181.8,363.3-181.8C363.3-181.8,363.3-181.8,363.3-181.8
		C363.3-181.8,363.3-181.8,363.3-181.8C363.3-181.8,363.3-181.8,363.3-181.8z"/>
	<path class="st5" d="M358.4-185.1C358.4-185.1,358.4-185.1,358.4-185.1C358.4-185.1,358.4-185.1,358.4-185.1L358.4-185.1
		c0.3,1.1,0.7,2.2,1,3.3c0,0,0,0,0,0C359.3-183,358.9-184,358.4-185.1z"/>
	<path class="st5" d="M359.4-181.8C359.4-181.8,359.5-181.8,359.4-181.8C359.5-181.8,359.5-181.8,359.4-181.8
		C359.4-181.8,359.4-181.8,359.4-181.8z"/>
	<path class="st5" d="M361.5-186.6C361.5-186.6,361.5-186.6,361.5-186.6C361.5-186.6,361.5-186.6,361.5-186.6c-0.1,0-0.2,0-0.2,0
		c0,0,0,0,0,0C361.4-186.5,361.4-186.5,361.5-186.6z"/>
	<path class="st5" d="M358.4-185.1c1-0.3,1.9-0.9,2.9-1.4c0,0,0.1-0.1,0.1-0.1c0,0,0,0,0,0c0,0,0,0,0,0
		C360.3-186.1,359.3-185.6,358.4-185.1C358.4-185.1,358.4-185.1,358.4-185.1z"/>
	<path class="st5" d="M358.4-185.1C358.4-185.1,358.4-185.1,358.4-185.1C358.4-185.1,358.4-185.1,358.4-185.1L358.4-185.1
		L358.4-185.1C358.4-185.1,358.4-185.1,358.4-185.1z"/>
	<path class="st5" d="M361.3-186.6C361.3-186.6,361.3-186.6,361.3-186.6L361.3-186.6C361.3-186.6,361.3-186.6,361.3-186.6
		C361.3-186.6,361.3-186.6,361.3-186.6C361.3-186.6,361.3-186.6,361.3-186.6z"/>
	<path class="st5" d="M364.4-185.1C364.4-185.1,364.4-185.1,364.4-185.1c-0.9-0.5-1.9-1-2.8-1.5c0,0,0,0,0,0
		C362.4-185.8,363.4-185.4,364.4-185.1z"/>
	<path class="st5" d="M364.4-185.1C364.4-185.1,364.4-185.1,364.4-185.1C364.4-185.1,364.4-185.1,364.4-185.1
		C364.4-185.1,364.4-185.1,364.4-185.1z"/>
	<path class="st5" d="M361.5-186.6C361.5-186.6,361.5-186.6,361.5-186.6C361.5-186.6,361.5-186.6,361.5-186.6
		C361.5-186.6,361.5-186.6,361.5-186.6z"/>
</g>
<path class="st10" d="M600.4,202.3H314c-6.6,0-12-5.4-12-12v-44.1c0-6.6,5.4-12,12-12h286.3c6.6,0,12,5.4,12,12v44.1
	C612.4,196.9,607,202.3,600.4,202.3z"/>
<g>
	<text transform="matrix(1 0 0 1 383.1664 179.7314)" class="st15" style="font-family:'Montserrat-Light'; font-size:31.1428px;">Recreation</text>
</g>
<path class="st11" d="M600.4,331.3H313.9c-6.6,0-12-5.4-12-12v-44.1c0-6.6,5.4-12,12-12h286.5c6.6,0,12,5.4,12,12v44.1
	C612.4,325.9,607,331.3,600.4,331.3z"/>
<text transform="matrix(1 0 0 1 386.2036 307.7226)" class="st15" style="font-family:'Montserrat-Light'; font-size:31.1428px;">Technology</text>
<circle class="st12" cx="306" cy="297.1" r="47.3"/>
<circle class="st13" cx="306.2" cy="166.8" r="47.3"/>
<circle class="st14" cx="306.3" cy="39.1" r="47.3"/>
<g>
	<path class="st15" d="M338.7,294.2c-1.6-0.4-3.3,0.3-4.1,1.7c-0.3,0.5-0.6,0.6-1.1,0.6c-2.2,0-4.4,0-6.6,0c-2.3,0-4.5,0-6.8,0
		c-0.5,0-0.7-0.1-0.7-0.7c0-1.2,0-2.4,0-3.6c0-0.5,0.1-0.6,0.6-0.6c1.2,0,2.5,0,3.7,0c0.5,0,0.8,0.1,1,0.6c0.9,1.7,2.9,2.3,4.6,1.5
		c1.7-0.8,2.6-2.7,2-4.5c-0.5-1.4-1.5-2.3-3-2.5c-1.5-0.2-3,0.5-3.7,1.9c-0.2,0.5-0.5,0.6-1,0.6c-1.3,0-2.5,0-3.8,0
		c-0.4,0-0.6-0.1-0.6-0.5c0-1,0-2,0-3c0-0.9-0.4-1.4-1.4-1.4c-1,0-2,0-3,0c-0.4,0-0.5-0.1-0.5-0.5c0-1.3,0-2.6,0-3.9
		c0-0.4,0.1-0.7,0.5-0.9c1.5-0.8,2.2-2.5,1.8-4.1c-0.5-1.7-1.9-2.8-3.6-2.7c-1.7,0-3.1,1.2-3.5,2.8c-0.4,1.6,0.4,3.2,1.9,4
		c0.4,0.2,0.5,0.4,0.5,0.9c0,1.3,0,2.5,0,3.8c0,0.6-0.2,0.7-0.7,0.6c-1.2,0-2.4,0-3.6,0c-0.5,0-0.6-0.1-0.6-0.6c0-4.5,0-9.1,0-13.6
		c0-0.5,0.2-0.6,0.5-0.9c1.5-0.8,2.2-2.5,1.8-4c-0.4-1.7-1.8-2.8-3.6-2.8c-1.7,0-3.1,1.1-3.5,2.8c-0.4,1.6,0.3,3.3,1.9,4.1
		c0.3,0.2,0.5,0.3,0.5,0.7c0,4.6,0,9.2,0,13.7c0,0.4-0.1,0.6-0.5,0.5c-1.3,0-2.5,0-3.8,0c-0.4,0-0.5-0.1-0.5-0.5c0-1.3,0-2.6,0-3.9
		c0-0.4,0.1-0.6,0.5-0.8c1.5-0.8,2.3-2.5,1.9-4c-0.4-1.7-1.8-2.8-3.5-2.8c-1.8,0-3.2,1.1-3.7,2.8c-0.4,1.6,0.3,3.3,1.9,4.1
		c0.3,0.2,0.5,0.3,0.5,0.7c0,1.3,0,2.7,0,4c0,0.5-0.2,0.5-0.6,0.5c-1,0-2,0-3,0c-0.9,0-1.3,0.4-1.3,1.4c0,1,0,2,0,3
		c0,0.4-0.1,0.6-0.5,0.6c-1.3,0-2.6,0-3.9,0c-0.4,0-0.6-0.1-0.8-0.5c-0.8-1.5-2.5-2.3-4.1-1.9c-1.7,0.4-2.8,1.8-2.8,3.6
		c0,1.7,1.1,3.1,2.8,3.5c1.6,0.4,3.2-0.3,4.1-1.9c0.1-0.3,0.2-0.5,0.7-0.5c1.4,0,2.8,0,4.2,0c0.4,0,0.5,0.1,0.5,0.5
		c0,1.3,0,2.5,0,3.8c0,0.5-0.2,0.6-0.6,0.6c-4.5,0-9,0-13.4,0c-0.5,0-0.7-0.1-1-0.6c-0.8-1.4-2.4-2.2-3.9-1.8
		c-1.6,0.4-2.9,1.8-2.9,3.4c-0.1,1.9,1,3.3,2.7,3.8c1.6,0.4,3.3-0.3,4.1-1.8c0.2-0.3,0.3-0.5,0.8-0.5c4.6,0,9.2,0,13.7,0
		c0.4,0,0.5,0.1,0.5,0.5c0,1.3,0,2.6,0,3.9c0,0.4-0.1,0.5-0.5,0.5c-1.3,0-2.6,0-3.9,0c-0.4,0-0.7-0.1-0.9-0.5
		c-0.8-1.5-2.5-2.3-4.1-1.8c-1.7,0.5-2.8,1.9-2.7,3.6c0,1.7,1.1,3.1,2.8,3.5c1.6,0.4,3.2-0.3,4-1.9c0.2-0.4,0.4-0.5,0.9-0.5
		c1.3,0,2.5,0,3.8,0c0.6,0,0.7,0.2,0.6,0.7c0,1,0,1.9,0,2.9c0,0.9,0.5,1.3,1.3,1.3c1,0,2,0,3,0c0.4,0,0.6,0.1,0.6,0.6
		c0,1.3,0,2.6,0,3.9c0,0.4-0.1,0.7-0.5,0.9c-1.7,0.9-2.4,2.8-1.7,4.5c0.6,1.5,2.1,2.4,3.8,2.3c1.5-0.1,2.9-1.3,3.2-2.9
		c0.3-1.5-0.4-3.2-1.8-3.9c-0.4-0.2-0.6-0.5-0.6-1c0-1.3,0-2.5,0-3.8c0-0.5,0.1-0.6,0.6-0.6c1.2,0,2.4,0,3.6,0
		c0.6,0,0.7,0.2,0.7,0.7c0,4.5,0,9,0,13.4c0,0.4-0.1,0.7-0.5,0.9c-1.5,0.8-2.2,2.4-1.9,4c0.4,1.7,1.8,2.9,3.5,2.9
		c1.8,0,3.2-1,3.7-2.8c0.4-1.6-0.3-3.3-1.8-4.1c-0.4-0.2-0.5-0.4-0.5-0.8c0-4.6,0-9.1,0-13.7c0-0.4,0.1-0.6,0.5-0.6
		c1.3,0,2.5,0,3.8,0c0.4,0,0.6,0.1,0.6,0.5c0,1.3,0,2.6,0,3.9c0,0.4-0.1,0.6-0.5,0.8c-1.5,0.8-2.3,2.5-1.9,4.1
		c0.5,1.7,1.9,2.8,3.6,2.8c1.7,0,3.1-1.1,3.5-2.8c0.4-1.6-0.3-3.2-1.9-4.1c-0.3-0.1-0.5-0.2-0.5-0.6c0-1.4,0-2.8,0-4.2
		c0-0.4,0.1-0.5,0.5-0.5c1,0,2,0,3,0c0.9,0,1.3-0.4,1.4-1.3c0-1,0-2,0-3c0-0.4,0.1-0.6,0.5-0.6c1.3,0,2.7,0,4,0
		c0.4,0,0.6,0.1,0.7,0.5c0.8,1.5,2.5,2.3,4.1,1.9c1.7-0.4,2.8-1.8,2.8-3.6c0-1.7-1.1-3.1-2.8-3.5c-1.6-0.4-3.3,0.3-4.1,1.9
		c-0.2,0.4-0.4,0.5-0.8,0.5c-1.3,0-2.6,0-3.9,0c-0.4,0-0.5-0.1-0.5-0.5c0-1.2,0-2.5,0-3.7c0-0.5,0.1-0.6,0.6-0.6c4.5,0,9.1,0,13.6,0
		c0.4,0,0.6,0.1,0.8,0.5c0.8,1.5,2.5,2.3,4,1.9c1.7-0.4,2.8-1.8,2.8-3.5C341.4,296.1,340.4,294.7,338.7,294.2z M328.1,289.2
		c0.6,0,1.2,0.6,1.2,1.2c0,0.6-0.6,1.2-1.2,1.2c-0.6,0-1.2-0.6-1.2-1.2C326.8,289.8,327.4,289.2,328.1,289.2z M284.3,291.6
		c-0.6,0-1.2-0.6-1.2-1.2c0-0.6,0.6-1.2,1.2-1.2c0.6,0,1.2,0.6,1.2,1.2C285.5,291,284.9,291.6,284.3,291.6z M274.6,298.9
		c-0.6,0-1.2-0.6-1.2-1.2c0-0.6,0.6-1.2,1.2-1.2c0.6,0,1.2,0.6,1.2,1.2C275.8,298.4,275.2,298.9,274.6,298.9z M284.3,306.2
		c-0.6,0-1.2-0.6-1.2-1.2c0-0.6,0.6-1.2,1.2-1.2c0.6,0,1.2,0.6,1.2,1.2C285.5,305.6,284.9,306.2,284.3,306.2z M312.3,275.9
		c0-0.6,0.5-1.2,1.2-1.2c0.6,0,1.2,0.5,1.2,1.2c0,0.6-0.5,1.2-1.2,1.2C312.9,277.1,312.3,276.5,312.3,275.9z M305,266.1
		c0-0.6,0.6-1.2,1.2-1.2c0.6,0,1.2,0.6,1.2,1.2c0,0.6-0.6,1.2-1.2,1.2C305.6,267.4,305,266.8,305,266.1z M297.7,275.9
		c0-0.6,0.6-1.2,1.2-1.2c0.6,0,1.2,0.6,1.2,1.2c0,0.6-0.6,1.2-1.2,1.2C298.3,277.1,297.7,276.5,297.7,275.9z M300.1,319.6
		c0,0.6-0.6,1.2-1.2,1.2c-0.6,0-1.2-0.6-1.2-1.2c0-0.6,0.6-1.2,1.2-1.2C299.5,318.4,300.1,319,300.1,319.6z M307.4,329.3
		c0,0.6-0.6,1.2-1.2,1.2c-0.6,0-1.2-0.6-1.2-1.2c0-0.6,0.6-1.2,1.2-1.2C306.7,328.1,307.4,328.7,307.4,329.3z M314.7,319.6
		c0,0.6-0.6,1.2-1.2,1.2c-0.6,0-1.2-0.6-1.2-1.2c0-0.6,0.6-1.2,1.2-1.2C314.1,318.4,314.7,319,314.7,319.6z M316.4,308.7
		c-3.4,0-6.9,0-10.3,0c-3.4,0-6.8,0-10.2,0c-0.6,0-0.7-0.1-0.7-0.7c0-6.8,0-13.7,0-20.5c0-0.6,0.1-0.7,0.7-0.7c6.8,0,13.7,0,20.5,0
		c0.6,0,0.7,0.1,0.7,0.7c0,6.8,0,13.7,0,20.5C317.1,308.5,317,308.7,316.4,308.7z M328.1,303.8c0.6,0,1.2,0.6,1.2,1.2
		c0,0.6-0.6,1.2-1.2,1.2c-0.6,0-1.2-0.6-1.2-1.2C326.9,304.4,327.5,303.8,328.1,303.8z M337.8,298.9c-0.6,0-1.2-0.6-1.2-1.2
		c0-0.6,0.6-1.2,1.2-1.2c0.6,0,1.2,0.6,1.2,1.2C339,298.3,338.4,298.9,337.8,298.9z"/>
</g>
<g>
	<path class="st10" d="M334.3,184.6c1.7-0.2,3.1,0.5,4.2,1.7c0.8,0.8,1.7,1.6,2.5,2.4c0.4,0.4,0.6,0.8,0.6,1.3c0,1.1,0,2.3,0,3.4
		c0,0.7-0.2,1.2-0.8,1.6c-22,0-44,0-66,0c-0.4-0.1-0.7-0.4-0.8-0.8c0-1.6,0-3.3,0-4.9c0.4-0.9,1.2-1.4,1.8-2.1
		c0.4-0.4,0.8-0.7,1.2-1.1c1.2-1.3,2.6-1.9,4.4-1.7c1,0.2,2,0.6,2.7,1.4c1.9,2.1,4.8,2.2,6.9,0c1.7-1.7,4.3-1.8,6.1-0.4
		c0.4,0.3,0.7,0.6,1.1,0.9c1.8,1.6,4.2,1.6,6-0.1c1-0.9,2.1-1.6,3.5-1.7c1.6-0.1,2.8,0.6,3.9,1.6c1.2,1.2,2.6,1.6,4.2,1.2
		c1-0.2,1.8-0.8,2.4-1.5c1.8-1.8,4.9-1.8,6.7,0.1c1.4,1.5,3.1,1.9,5.1,1.2c0.6-0.2,1.1-0.7,1.6-1.1c0.6-0.6,1.2-0.9,1.9-1.2
		C333.6,184.5,333.9,184.4,334.3,184.6z"/>
	<path class="st16" d="M286.7,152.1c-2.9-0.4-5.8-0.8-8.7-1.1c-1.3-0.2-2.6-0.4-4-0.5c0,0,0-0.1,0-0.1c1.3-1.6,2.8-3,4.7-3.8
		c4.6-2,9.8-0.6,13.1,3.5c0.2,0.2,0.3,0.5,0.6,0.6c0.1,0,0.1,0,0.2,0.1c0.3,0.8,0.9,1.4,1.1,2.2c0,0,0,0.1-0.1,0.1c0,0-0.1,0-0.1,0
		c-1-0.2-1.9-0.5-2.9-0.7c-0.9-0.1-1.8-0.2-2.8,0c-0.2,0-0.4,0-0.5,0C287.1,152.3,286.9,152.2,286.7,152.1z"/>
	<path class="st17" d="M281.3,184.6c1.5-2,3.4-3.5,5.5-4.8c3.7-2.4,7.8-3.9,12.1-4.8c0.2,0,0.4-0.1,0.6-0.1c0.2-0.3,0.5-0.3,0.8-0.3
		c2.5-0.4,5.1-0.7,7.6-0.6c0.3,0,0.6,0,0.8,0.2c1.7,0.1,3.5,0.3,5.2,0.4c0.2-0.2,0.5-0.1,0.7,0c1.8,0.3,3.6,0.7,5.4,1.2
		c0.2,0.1,0.5,0.1,0.6,0.4c4.5,1.4,8.6,3.6,12,6.8c0.6,0.5,1.1,1.1,1.6,1.8c-1.1,0.2-2.1,0.8-2.9,1.6c-2,1.9-4.5,1.9-6.5,0
		c-0.9-0.8-1.8-1.5-3-1.6c-1.4-0.1-2.6,0.3-3.6,1.3c-0.8,0.8-1.6,1.4-2.7,1.6c-1.6,0.3-3-0.2-4.2-1.3c-0.9-0.9-1.9-1.5-3.2-1.6
		c-1.5-0.1-2.7,0.4-3.7,1.5c-0.7,0.7-1.6,1.3-2.6,1.5c-1.5,0.3-2.8-0.2-3.9-1.2c-0.7-0.7-1.4-1.3-2.4-1.6c-1.7-0.4-3.1-0.1-4.4,1.1
		c-0.8,0.8-1.6,1.4-2.7,1.6c-1.6,0.3-2.9-0.1-4.1-1.2C283.5,185.4,282.5,184.8,281.3,184.6z"/>
	<path class="st18" d="M308.8,174c-3.1,0-6.2,0.2-9.2,0.8c-0.4-3.3-1.1-6.6-2-9.9c0.1-0.1,0.2-0.1,0.3-0.2c2.3-0.3,4.2-1.2,5.5-3.2
		c0-0.1,0.1-0.1,0.2-0.1C306,165.4,307.7,169.6,308.8,174z"/>
	<path class="st19" d="M293.5,153c0,0,0-0.1,0-0.1c0.1-1.2,0.6-2.2,1.2-3.1c0.4-0.7,0.9-1.5,1.6-2c0.6-0.5,1.2-1,1.9-1.4
		c3.9-2.6,8.7-2.3,12.7,0.6c0.5,0.4,1.1,0.8,1.5,1.4c-2.4,0.6-4.8,1.2-7.1,1.8c-3.2,0.8-6.3,1.6-9.5,2.4
		C295.1,153,294.4,153.2,293.5,153z"/>
	<path class="st20" d="M296.3,147.7c-0.6,0.9-1.4,1.8-1.9,2.8c-0.4,0.8-0.6,1.6-0.9,2.4c-0.5-0.7-0.8-1.5-1.2-2.2
		c-0.9-2.7-1.1-5.3-0.1-8c1.4-4.1,5.5-7,9.7-7.1c0.1,0,0.3,0,0.4,0c0,0.3-0.2,0.5-0.3,0.8c-1.8,3.6-3.6,7.1-5.4,10.7
		C296.5,147.2,296.4,147.5,296.3,147.7z"/>
	<path class="st19" d="M323.1,161.7c-2.4-0.6-4.8-1.2-7.3-1.9c-2.3-0.6-4.5-1.1-6.8-1.7c0.4-0.6,0.9-0.9,1.4-1.3
		c4-2.9,8.5-2.6,12.1,0.8c0,0,0.1,0.1,0.2,0.1c0.3,0,0.4,0.2,0.6,0.4c0.7,0.9,1.3,1.9,1.6,3.1c0.1,0.3,0.3,0.6,0,0.9
		C324.3,162.3,323.7,162.1,323.1,161.7z"/>
	<path class="st19" d="M330.2,161.5c1,0.3,1.9,0.5,2.8,1c3.6,1.9,5.1,5.7,4.7,9.4c0,0.3-0.1,0.6-0.1,0.9c-0.5-0.3-0.9-0.7-1.4-1.1
		c-3.3-2.8-6.6-5.6-9.8-8.4c-0.1-0.1-0.2-0.1-0.3-0.2c-0.5-0.2-0.9-0.4-1-1c0-0.1,0.1-0.1,0.1-0.2c1-0.5,2.1-0.7,3.2-0.7
		C328.9,161.3,329.6,161.1,330.2,161.5z"/>
	<path class="st16" d="M325.1,162.1c0,0,0,0.1,0,0.1c-0.1,0-0.1,0-0.1-0.1c-0.3-1.7-1.2-3.1-2.3-4.4c-1-2-2-4-3-6
		c-0.7-1.5-1.5-3-2.3-4.5c2.5,0,4.6,0.8,6.3,2.4c2.7,2.6,3.4,5.9,2.6,9.5c-0.1,0.3-0.1,0.5-0.2,0.8c0.2,0.2,0,0.4-0.1,0.6
		C325.7,161,325.5,161.6,325.1,162.1z"/>
	<path class="st20" d="M325.1,162.1c0.1-0.6,0.4-1.1,0.8-1.6c0.1-0.2,0.3-0.4,0.3-0.6c0.3,0,0.4-0.3,0.5-0.5
		c3.4-3.9,8.7-4.6,12.7-1.8c0.9,0.6,1.6,1.4,2.2,2.3c-3.9,0.5-7.6,1-11.4,1.5C328.4,161.4,326.7,161.4,325.1,162.1z"/>
	<path class="st18" d="M293.5,153c0.7-0.2,1.5-0.3,2.2-0.5c1.9,1.5,3.7,3.2,5.2,5.1c0.4,0.5,0.8,1.1,1.2,1.6c0,0.9-0.5,1.7-1.1,2.2
		c-1.2,0.9-2.5,1.5-4,1.4c-1-2.8-2.1-5.5-3.9-7.8c-0.2-0.3-0.5-0.6-0.7-0.9C292.5,153.5,293,153.3,293.5,153L293.5,153z"/>
	<path class="st18" d="M325,162.2C325,162.2,325.1,162.2,325,162.2c0.4,0.4,0.7,0.7,1.1,1c-1.7,2.2-3,4.6-3.9,7.2
		c-0.4,0.3-0.8,0.1-1.2,0c-1.3-0.3-2.4-0.9-3-2.1c-0.1-0.3-0.2-0.6-0.2-0.9c1.4-2.1,3.3-3.9,5.3-5.5
		C323.7,161.9,324.4,162,325,162.2z"/>
	<path class="st18" d="M320.7,176c-2-0.6-4-1.1-6.1-1.4c-0.2,0-0.4-0.1-0.6-0.1c0.6-1.7,1.5-3.3,2.4-4.9c0.7,0.8,1.4,1.6,2.3,2.1
		c0.7,0.3,1.4,0.6,2.1,0.7c0.2,0,0.5,0,0.7,0.2C321.2,173.7,321,174.8,320.7,176z"/>
	<path class="st21" d="M297,162.8c0.2-0.2,0.4-0.1,0.6-0.2c1.8-0.3,3.5-0.9,4.3-2.7c0.1-0.2,0.1-0.5,0.3-0.7c0.6,0.7,1,1.4,1.5,2.2
		c-0.5,1.3-1.5,2-2.7,2.6c-1,0.5-2.1,0.9-3.3,0.9C297.4,164.2,297.2,163.5,297,162.8z"/>
	<path class="st21" d="M321.5,172.6c-2-0.1-3.6-1-4.9-2.5c-0.1-0.1-0.2-0.4-0.2-0.5c0.4-0.8,0.9-1.5,1.5-2.2
		c0.4,1.5,1.3,2.4,2.8,2.8c0.5,0.1,1,0.2,1.5,0.2C322,171.1,321.7,171.8,321.5,172.6z"/>
	<path class="st19" d="M293.6,153c-0.4,0.4-0.8,0.7-1.2,1.1c-2.9,2.4-5.7,4.8-8.6,7.2c-1.6,1.4-3.3,2.7-4.9,4.1
		c-1.4-5.4,1.8-11.8,8.1-13.1c0.1-0.1,0.2-0.1,0.3-0.1c1.8-0.3,3.5-0.1,5.2,0.4C292.8,152.7,293.2,152.9,293.6,153z"/>
	<path class="st22" d="M287.3,152.2c-0.1,0.1-0.2,0.2-0.3,0.1c-0.1-0.1-0.2-0.1-0.2-0.2C286.9,152.1,287.1,152.1,287.3,152.2z"/>
</g>
<g>
	<path class="st23" d="M31.8,0.6c0.4-0.1,0.7,0.1,1,0.2c9.5,3.5,18.9,7.1,28.4,10.6c0.7,0.3,1.1,0.7,1.4,1.3c0,0.4,0,0.7,0,1.1
		c-0.4,0.8-1.2,1.1-2,1.4c-2.9,1.1-5.8,2.2-8.7,3.2c-0.1,0-0.2,0.1-0.3,0.1c-0.2,0.3-0.5,0.3-0.8,0.5c-3.7,1.4-7.5,2.8-11.2,4.2
		c-2.2,0.8-4.4,1.6-6.6,2.4c-0.4,0.1-0.8,0.4-1.2,0.1c0-0.1-0.1-0.1-0.1-0.2c0-0.2-0.1-0.4-0.1-0.5c0-3.1,0-6.3,0-9.4
		c0-0.2,0-0.4,0.1-0.5c0.1-0.3,0.3-0.3,0.6-0.4c0.8-0.3,1.2-0.9,1.2-1.6c0-0.7-0.4-1.3-1.2-1.6c-0.2-0.1-0.5-0.1-0.6-0.4
		c-0.1-0.2-0.1-0.4-0.1-0.7c0-3,0-6.1,0-9.1C31.6,1.1,31.5,0.8,31.8,0.6z"/>
	<path class="st24" d="M31.8,11.3c1.2,0.2,1.8,0.8,1.8,1.9c0,1-0.7,1.6-1.8,1.8c-0.3,0.2-0.7,0.2-1.1,0.2c-8.1,0-16.3,0-24.4,0
		c-0.2,0-0.4,0-0.5,0c-0.5-0.1-0.9,0.1-1.1,0.6c0,0.2,0,0.4,0,0.7c0,8.2,0,16.5,0,24.7c0,0.4,0.1,0.8,0.2,1.2
		C5.9,45.5,6.9,48.8,8,52c0.4,1.3-0.2,2.4-1.4,2.6c-0.8,0.1-1.4-0.3-2-1.3c-0.2,0.3-0.3,0.5-0.5,0.8c-0.8,0.9-2.3,0.8-2.9-0.3
		c-0.1-0.1-0.2-0.3-0.2-0.4c0-13.5,0-27.1,0-40.6c0.3-0.7,0.8-1.2,1.6-1.3c0.6-0.1,1.2-0.2,1.8-0.2c8.8,0,17.5,0,26.3,0
		C31,11.2,31.4,11.1,31.8,11.3z"/>
	<path class="st25" d="M31.8,40.2c-5,0-9.9-0.7-14.6-2.8c-1.9-0.8-3.5-1.9-4.6-3.8c-0.4-0.8-0.7-1.6-0.7-2.5c0-4.2,0-8.4,0-12.6
		c0.2-0.2,0.5,0,0.7,0c3.3,1.2,6.6,2.5,9.8,3.7c3,1.1,5.9,2.3,8.9,3.3c0.1,0,0.3,0.1,0.4,0.2l0,0C32,26,32,26.3,32,26.6
		c0,4.3,0,8.5,0,12.8C32,39.7,32,40,31.8,40.2z"/>
	<path class="st26" d="M31.8,40.2c0-4.8,0-9.6,0-14.4c1-0.1,1.9-0.6,2.9-0.9c4.3-1.6,8.6-3.2,12.8-4.8c1.4-0.5,2.7-1,4.1-1.5
		c0,4.3,0,8.5,0,12.8c0,1.6-0.8,2.9-1.9,3.9c-1.9,1.8-4.3,2.8-6.8,3.5c-2.6,0.8-5.2,1.2-7.9,1.3C33.9,40.2,32.8,40.2,31.8,40.2z"/>
	<path class="st27" d="M31.8,25.8c-1.1-0.1-2.1-0.6-3.1-1c-3.8-1.4-7.6-2.8-11.4-4.3c-1.6-0.6-3.3-1.2-4.9-1.8
		c-0.1,0-0.3-0.1-0.4-0.1c-1.6-0.7-3.3-1.3-5-1.9c-0.8-0.3-1.6-0.6-2.4-0.9c0-0.8,0-0.8,0.8-0.8c8.5,0,17.1,0,25.6,0
		c0.2,0,0.5,0,0.7,0C31.8,18.6,31.8,22.2,31.8,25.8z"/>
	<path class="st27" d="M31.8,11.3C31.7,11.3,31.7,11.3,31.8,11.3c-9.8,0-19.5,0-29.2,0c2.8-1.1,5.7-2.2,8.5-3.2
		c6.5-2.4,13-4.8,19.5-7.3c0.4-0.1,0.8-0.3,1.2-0.3C31.8,4.1,31.8,7.7,31.8,11.3z"/>
</g>
<rect x="286.5" y="-104.3" style="fill:none;" width="318.9" height="56"/>
<text transform="matrix(1 0 0 1 286.5278 -88.2833)" style="font-family:'Montserrat-Light'; font-size:21.5604px;">Subjects available to interact:</text>
</svg>
