<?xml version="1.0" encoding="utf-8"?>
<!-- Generator: Adobe Illustrator 22.1.0, SVG Export Plug-In . SVG Version: 6.00 Build 0)  -->
<svg version="1.1" id="Layer_1" xmlns="http://www.w3.org/2000/svg" xmlns:xlink="http://www.w3.org/1999/xlink" x="0px" y="0px"
	 viewBox="0 0 69.7 60.6" style="enable-background:new 0 0 69.7 60.6;" xml:space="preserve">
<style type="text/css">
	.st0{fill:#EB353B;}
	.st1{fill:#CF1F3C;}
	.st2{fill:#FCC9A6;}
	.st3{fill:#543213;}
	.st4{fill:#076DA2;}
	.st5{fill:#2F92D0;}
	.st6{fill:#CACACA;}
	.st7{fill:#E6AF88;}
	.st8{fill:#553213;}
	.st9{fill:#EAEAEA;}
	.st10{fill:#3BC3E3;}
	.st11{fill:#8DC63F;}
	.st12{fill:#8DC63F;stroke:#F6E6DB;stroke-miterlimit:10;}
	.st13{fill:#3BC3E3;stroke:#F6E6DB;stroke-miterlimit:10;}
	.st14{fill:#EB353B;stroke:#F6E6DB;stroke-miterlimit:10;}
	.st15{fill:#FFFFFF;}
	.st16{fill:#4E8157;}
	.st17{fill:#EFC41C;}
	.st18{fill:#CB8252;}
	.st19{fill:#51BA6F;}
	.st20{fill:#25AE5F;}
	.st21{fill:#A56B44;}
	.st22{fill:#95BC98;}
</style>
<path class="st0" d="M603.5,77.8H317.2c-6.6,0-12-5.4-12-12V21.7c0-6.6,5.4-12,12-12h286.2c6.6,0,12,5.4,12,12v44.1
	C615.5,72.4,610.1,77.8,603.5,77.8z"/>
<g>
	<text transform="matrix(1 0 0 1 387.0213 54.416)" class="st15" style="font-family:'Montserrat-Light'; font-size:31.1428px;">University</text>
</g>
<text transform="matrix(1 0 0 1 414.1267 -185.9014)" style="font-family:'Montserrat-Light'; font-size:16.7692px;">Daniel Lorem Ipsum</text>
<text transform="matrix(1 0 0 1 414.1267 -205.9864)" style="font-family:'Montserrat-Light'; font-size:16.7692px;">Welcome,</text>
<g>
	<path class="st1" d="M359.5-185.9C359.5-185.9,359.6-186,359.5-185.9C359.6-186,359.6-186,359.5-185.9c0.1-0.1,0.1-0.1,0.1-0.1
		c0-0.5,0-1,0-1.5v0c0-0.6,0-1.3,0-1.9c-2.6-1.8-3.6-4.6-4.3-7.5c-0.2-0.7-0.3-1.5-0.4-2.2c0-0.4-0.2-0.5-0.6-0.5
		c-0.6,0-1.1,0.1-1.7-0.1c-1.1-0.3-1.8-1.3-1.9-2.4c0-0.3,0-0.7,0-1c-0.1-1.1,0.1-2.1,1-2.9c0,0,0,0,0,0c0,0,0,0,0,0
		c-0.2-1.7-0.4-3.3-0.7-5c-0.5-3.2,1.8-6,5-6.2c0.3,0,0.5,0,0.7-0.4c1.4-2.4,3.4-3.9,6.1-4.6c1.7-0.4,3.4-0.8,5.2-0.6
		c2.3,0.3,4.3,1.2,5.9,2.7c2.6,2.5,4,5.5,3.9,9.2c-0.1,1.6-0.6,3.1-1,4.6c1.5,1.3,1.2,3,1,4.7c-0.2,1-1.2,1.7-2.3,1.8
		c-0.5,0-1.1-0.2-1.5,0.2c-0.3,0.3-0.2,1-0.3,1.5c-0.4,2-0.9,3.9-1.9,5.7c-0.6,1.2-1.6,2.1-2.6,2.9l0,0c0,0,0,0,0,0
		c0,0.6,0,1.3,0,1.9c0,0.5,0,1,0,1.5c0,0,0,0,0,0v0c0,0,0,0,0,0l0,0c0,0,0,0,0,0c0,0,0.1,0.1,0.1,0.1c0,0,0,0,0,0
		c0.7,0.3,1.5,0.7,2.2,1.1c4.9,2.4,9.8,5,14.7,7.3c0.1,0,0.1,0.1,0.2,0.1c6-5.6,9.7-13.5,9.7-22.4c0-16.9-13.7-30.6-30.6-30.6
		s-30.6,13.7-30.6,30.6c0,8.5,3.4,16.1,9,21.6c5.1-2.6,10.2-5.1,15.3-7.7C359.4-185.9,359.4-185.9,359.5-185.9z"/>
	<path class="st2" d="M363.4-188c1.9,0.2,3.6-0.1,5.2-1c0.2-0.1,0.5-0.3,0.7-0.4l0,0c1-0.8,2-1.7,2.6-2.9c1-1.8,1.5-3.7,1.9-5.7
		c0.1-0.5,0-1.1,0.3-1.5c0.4-0.4,1-0.1,1.5-0.2c1.1-0.1,2.2-0.8,2.3-1.8c0.3-1.6,0.6-3.4-1-4.7c-0.7-0.3-1.5-0.4-2.3-0.4
		c-0.4,0-0.5-0.1-0.5-0.5c0-0.6,0-1.3,0-1.9c0-0.4-0.1-0.5-0.5-0.5c-1.4,0-2.8,0-4.1,0c-4.4,0-8.3-1.5-11.5-4.6
		c-0.4-0.4-0.5-0.3-0.8,0.1c-0.7,1.3-1.5,2.5-2.2,3.8c-0.3,0.5-0.4,0.9-0.4,1.4c0,0.1,0,0.2,0,0.3c0,0.6,0.2,1.3-0.1,1.7
		c-0.3,0.5-1,0.1-1.6,0.2c-0.5,0.1-0.8,0.3-1.3,0.4c0,0,0,0,0,0c-0.9,0.8-1.1,1.8-1,2.9c0,0.3,0,0.6,0,1c0,1.1,0.8,2.1,1.9,2.4
		c0.6,0.2,1.1,0.1,1.7,0.1c0.4,0,0.6,0.1,0.6,0.5c0,0.7,0.2,1.5,0.4,2.2c0.7,2.9,1.6,5.7,4.3,7.5l0,0
		C360.8-188.8,362-188.2,363.4-188z M366.3-193.8c-0.6,0-1.3,0-1.9,0c-0.6,0-1.3,0-1.9,0c-0.6,0-1-0.4-1-1c0-0.6,0.4-1,1-1
		c1.3,0,2.5,0,3.8,0c0.6,0,1,0.4,1,1C367.4-194.2,367-193.8,366.3-193.8z M368.6-202.1c-0.7,0-1.2-0.6-1.2-1.2
		c0-0.7,0.6-1.2,1.2-1.2c0.6,0,1.2,0.6,1.2,1.2C369.8-202.6,369.2-202,368.6-202.1z M367.4-207.4c0.9,0,1.9,0,2.8,0c0.6,0,1,0.4,1,1
		c0,0.5-0.4,0.9-1,0.9c-0.5,0-1,0-1.5,0c-0.5,0-0.9,0-1.4,0c-0.6,0-1-0.4-1-1C366.4-207,366.8-207.4,367.4-207.4z M362.5-201.4
		c0-0.7,0.4-1.1,1-1.1c0.6,0,0.9,0.4,1,1.1c0,0.4,0,0.9,0,1.3c0,0.4,0.1,0.5,0.5,0.5c0.2,0,0.4,0,0.6,0c0.5,0.1,0.9,0.5,0.9,1
		c0,0.5-0.3,0.9-0.9,0.9c-0.7,0-1.5,0-2.2,0c-0.5,0-0.8-0.4-0.8-0.9c0-0.5,0-1,0-1.5C362.5-200.6,362.5-201,362.5-201.4z
		 M358.7-205.5c-0.6,0-1-0.4-1-1c0-0.6,0.4-1,1-1c0.9,0,1.9,0,2.8,0c0.6,0,1,0.4,1,1c0,0.5-0.4,0.9-1,1c0,0,0,0-0.1,0
		c-0.4,0-0.9,0-1.3,0C359.6-205.5,359.2-205.5,358.7-205.5z M359.1-203.3c0-0.6,0.6-1.2,1.2-1.2c0.6,0,1.2,0.6,1.2,1.2
		c0,0.7-0.6,1.2-1.2,1.2C359.6-202.1,359.1-202.7,359.1-203.3z"/>
	<path class="st3" d="M353.5-206.6c1.1,0,1.1,0.1,1.1-1.1c-0.1-1.2,0.2-2.2,0.9-3.2c0.6-0.9,1.1-1.9,1.7-2.9
		c0.4-0.7,0.5-0.7,1.1-0.2c1.1,0.9,2.1,1.7,3.4,2.4c1.9,1,3.9,1.7,6,1.9c1.9,0.2,3.8,0.1,5.6,0.1c1,0,1.1,0.1,1.1,1.1
		c0,0.4,0,0.9,0,1.3c0,0.4,0.2,0.6,0.6,0.6c0.5,0,1,0,1.4,0.1c0.2,0.1,0.4,0.2,0.6,0.4c0.4-1.5,0.9-3,1-4.6c0.2-3.7-1.3-6.7-3.9-9.2
		c-1.6-1.6-3.6-2.5-5.9-2.7c-1.8-0.2-3.5,0.2-5.2,0.6c-2.7,0.6-4.8,2.1-6.1,4.6c-0.2,0.3-0.4,0.3-0.7,0.4c-3.2,0.1-5.5,3-5,6.2
		c0.2,1.7,0.5,3.3,0.7,5c0,0,0,0,0,0C352.3-206.5,352.9-206.6,353.5-206.6z"/>
	<path class="st3" d="M354.7-206.6c0.3-0.4,0.1-1.1,0.1-1.7c0-0.1,0-0.2,0-0.3c-0.1-0.5,0.1-1,0.4-1.4c0.8-1.2,1.5-2.5,2.2-3.8
		c0.2-0.4,0.3-0.5,0.8-0.1c3.2,3,7.1,4.5,11.5,4.6c1.4,0,2.8,0,4.1,0c0.4,0,0.5,0.1,0.5,0.5c0,0.6,0,1.3,0,1.9
		c0,0.4,0.1,0.6,0.5,0.5c0.8-0.1,1.6,0,2.3,0.4c-0.2-0.2-0.4-0.3-0.6-0.4c-0.5-0.2-1-0.1-1.4-0.1c-0.4,0-0.6-0.1-0.6-0.6
		c0-0.4,0-0.9,0-1.3c0-1-0.1-1.1-1.1-1.1c-1.9,0-3.8,0.1-5.6-0.1c-2.1-0.2-4.1-0.9-6-1.9c-1.2-0.7-2.3-1.5-3.4-2.4
		c-0.6-0.5-0.7-0.5-1.1,0.2c-0.6,0.9-1.1,1.9-1.7,2.9c-0.7,1-1,2-0.9,3.2c0.1,1.2,0,1.1-1.1,1.1c-0.6,0-1.2,0.1-1.6,0.6
		c0.4-0.2,0.8-0.4,1.3-0.4C353.6-206.5,354.4-206.2,354.7-206.6z"/>
	<path class="st4" d="M371.6-184.9c-0.7-0.4-1.5-0.7-2.2-1.1c1.1,1.2,2.2,2.5,3.3,3.7c1.4,1.6,2.8,3.1,4.2,4.7
		c0.2,0.3,0.1,0.5,0,0.7c-0.7,2-1.4,4.1-2,6.1c4.4-1.4,8.3-3.7,11.6-6.8c-0.1,0-0.1-0.1-0.2-0.1
		C381.4-179.9,376.5-182.4,371.6-184.9z"/>
	<path class="st4" d="M351.9-176.9c-0.1-0.3-0.1-0.4,0.1-0.6c1.8-2,3.6-4,5.4-6c0.7-0.8,1.4-1.6,2.1-2.4c-0.1,0-0.1,0-0.2,0
		c-5.1,2.6-10.2,5.1-15.3,7.7c2.8,2.8,6,5,9.7,6.5C353.1-173.4,352.5-175.2,351.9-176.9z"/>
	<path class="st5" d="M359.6-179.7c0-2.1,0-4.2,0-6.3c0,0-0.1,0.1-0.1,0.1c0.1,0.3-0.2,0.4-0.3,0.6c-2.3,2.6-4.6,5.2-6.9,7.7
		c-0.3,0.3-0.2,0.6-0.1,1c0.6,1.7,1.1,3.3,1.7,5c1.8,0.8,3.8,1.4,5.7,1.8c0-3,0-6.1,0-9.1C359.6-179.2,359.6-179.5,359.6-179.7z"/>
	<path class="st5" d="M352.3-177.6c2.3-2.6,4.6-5.2,6.9-7.7c0.2-0.2,0.4-0.3,0.3-0.6c-0.7,0.8-1.4,1.6-2.1,2.4c-1.8,2-3.6,4-5.4,6
		c-0.2,0.2-0.2,0.4-0.1,0.6c0.6,1.7,1.2,3.5,1.8,5.2c0.1,0,0.1,0,0.2,0.1c-0.6-1.7-1.1-3.3-1.7-5C352.1-176.9,352-177.2,352.3-177.6
		z"/>
	<path class="st5" d="M376.5-177.8c-1.8-2-3.6-4-5.4-6.1c-0.4-0.5-0.9-1-1.3-1.5c-0.1-0.2-0.4-0.3-0.3-0.6c0,0,0,0,0,0c0,0,0,0,0,0
		c0,0-0.1-0.1-0.1-0.1c0,2.1,0,4.2,0,6.3c0,3.3,0,6.6,0,9.9c0,0.1,0,0.2,0,0.3c1.8-0.2,3.6-0.6,5.4-1.1c0.7-2,1.3-4,2-6
		C376.9-177.1,376.8-177.4,376.5-177.8z"/>
	<path class="st5" d="M376.9-177.5c-1.4-1.5-2.8-3.1-4.2-4.7c-1.1-1.2-2.2-2.5-3.3-3.7c0,0,0,0,0,0c-0.1,0.3,0.1,0.4,0.3,0.6
		c0.4,0.5,0.9,1,1.3,1.5c1.8,2,3.6,4.1,5.4,6.1c0.3,0.4,0.4,0.7,0.3,1.2c-0.7,2-1.3,4-2,6c0.1,0,0.1,0,0.2-0.1c0.7-2,1.4-4.1,2-6.1
		C377-177,377.2-177.2,376.9-177.5z"/>
	<path class="st4" d="M366.4-177.3c-1.3,0-2.6,0-3.9,0c-0.3,2.6-0.6,5.2-0.9,7.8c1.3,0.2,2.6,0.3,4,0.3c0.5,0,1.1,0,1.6,0
		c-0.2-2.1-0.5-4.2-0.7-6.4C366.5-176.2,366.5-176.7,366.4-177.3z"/>
	<path class="st6" d="M369.1-179.8c-0.5-0.3-1.1-0.6-1.6-0.8c0,0,0,0,0,0c0,0,0,0,0,0c-0.4,1.1-0.7,2.2-1.1,3.3
		c0.2,0.2,0.3,0.5,0.3,0.8c0.2,2.4,0.5,4.8,0.8,7.1c0.6,0,1.1-0.1,1.7-0.1c0-3.4,0-6.8,0-10.2C369.1-179.7,369.1-179.7,369.1-179.8z
		"/>
	<path class="st6" d="M369.3-179.7L369.3-179.7c-0.1,0-0.1-0.1-0.2-0.1c0,0,0,0.1,0,0.1c0,3.4,0,6.8,0,10.2c0.1,0,0.1,0,0.2,0
		c0-0.1,0-0.2,0-0.3C369.3-173.1,369.3-176.4,369.3-179.7z"/>
	<path class="st6" d="M366.4-177.3C366.4-177.3,366.4-177.3,366.4-177.3c0.1,0.6,0.1,1.1,0.2,1.7c0.2,2.1,0.5,4.2,0.7,6.4
		c0.1,0,0.1,0,0.2,0c-0.2-2.4-0.5-4.8-0.8-7.1C366.7-176.8,366.6-177.1,366.4-177.3z"/>
	<path class="st6" d="M362.5-177.3c-0.4-1.1-0.7-2.2-1.1-3.2c-0.6,0.2-1.1,0.5-1.6,0.8c0,0,0,0.1,0,0.1c0,3.3,0,6.6,0,9.9
		c0.6,0.1,1.1,0.2,1.7,0.3c0.2-2.3,0.5-4.6,0.8-7C362.3-176.8,362.3-177.1,362.5-177.3z"/>
	<path class="st6" d="M359.8-179.7c0,0,0-0.1,0-0.1c-0.1,0-0.1,0.1-0.2,0.1c0,0.2,0,0.5,0,0.7c0,3,0,6.1,0,9.1c0.1,0,0.1,0,0.2,0
		C359.8-173.1,359.8-176.4,359.8-179.7z"/>
	<path class="st6" d="M362.5-177.3c-0.2,0.2-0.3,0.5-0.3,0.8c-0.2,2.3-0.5,4.6-0.8,7c0.1,0,0.1,0,0.2,0
		C362-172.1,362.3-174.7,362.5-177.3C362.5-177.3,362.5-177.3,362.5-177.3z"/>
	<path class="st2" d="M364.4-182.1C364.4-182.1,364.4-182.1,364.4-182.1c0.1,0,0.1,0,0.2,0c0.6-0.7,1.3-1.1,2-1.7
		c0.9-0.8,1.8-1.5,2.8-2.2c0-0.5,0-1,0-1.5c-1.5,1-3.2,1.5-5,1.5c-1.7,0-3.2-0.6-4.7-1.5c0,0.5,0,1,0,1.5c1.5,1.2,3,2.4,4.6,3.6
		C364.2-182.3,364.3-182.2,364.4-182.1z"/>
	<polygon class="st2" points="369.4,-186 369.4,-186 369.4,-186 	"/>
	<path class="st7" d="M360.5-187.2c2.7,1.4,5.4,1.4,8.1,0c0.2-0.1,0.4-0.3,0.7-0.2c0-0.6,0-1.3,0-1.9c0,0,0,0,0,0
		c-0.6,0.7-1.5,1-2.4,1.3c-2.4,0.7-4.6,0.4-6.8-0.8c-0.2-0.1-0.4-0.2-0.5-0.4l0,0c0,0.6,0,1.3,0,1.9v0v0
		C360-187.6,360.2-187.3,360.5-187.2z"/>
	<path class="st7" d="M360.1-189c2.1,1.2,4.4,1.5,6.8,0.8c0.9-0.3,1.8-0.5,2.4-1.3c-0.2,0.1-0.5,0.3-0.7,0.4c-1.6,0.9-3.4,1.2-5.2,1
		c-1.4-0.2-2.6-0.7-3.8-1.4l0,0l0,0C359.7-189.2,359.9-189.1,360.1-189z"/>
	<path class="st7" d="M369.3-187.5c-0.3-0.1-0.5,0.1-0.7,0.2c-2.7,1.4-5.4,1.4-8.1,0c-0.3-0.1-0.5-0.3-0.8-0.3v0
		c1.4,0.9,3,1.4,4.7,1.5C366.1-186,367.8-186.5,369.3-187.5z"/>
	<path class="st7" d="M363.4-197.7c0.7,0,1.5,0,2.2,0c0.5,0,0.8-0.4,0.9-0.9c0-0.5-0.3-0.9-0.9-1c-0.2,0-0.4,0-0.6,0
		c-0.4,0-0.5-0.1-0.5-0.5c0-0.4,0-0.9,0-1.3c0-0.7-0.4-1.1-1-1.1c-0.6,0-1,0.4-1,1.1c0,0.4,0,0.9,0,1.3c0,0.5,0,1,0,1.5
		C362.5-198.1,362.8-197.7,363.4-197.7z"/>
	<path class="st7" d="M366.4-195.7c-1.3,0-2.5,0-3.8,0c-0.6,0-1,0.4-1,1c0,0.6,0.4,0.9,1,1c0.6,0,1.3,0,1.9,0c0.6,0,1.3,0,1.9,0
		c0.7,0,1.1-0.4,1.1-1C367.4-195.4,367-195.7,366.4-195.7z"/>
	<path class="st3" d="M361.4-205.5C361.4-205.5,361.5-205.5,361.4-205.5c0.7,0,1.1-0.4,1.1-1c0-0.6-0.4-1-1-1c-0.9,0-1.9,0-2.8,0
		c-0.6,0-1,0.4-1,1c0,0.6,0.4,0.9,1,1c0.5,0,0.9,0,1.4,0C360.5-205.5,361-205.5,361.4-205.5z"/>
	<path class="st3" d="M367.4-205.5c0.5,0,0.9,0,1.4,0c0.5,0,1,0,1.5,0c0.6,0,1-0.4,1-0.9c0-0.6-0.4-1-1-1c-0.9,0-1.9,0-2.8,0
		c-0.6,0-1,0.4-1,1C366.4-205.9,366.8-205.5,367.4-205.5z"/>
	<path class="st8" d="M361.6-203.3c0-0.6-0.5-1.2-1.2-1.2c-0.6,0-1.2,0.5-1.2,1.2c0,0.7,0.5,1.3,1.2,1.3
		C361-202.1,361.6-202.6,361.6-203.3z"/>
	<path class="st8" d="M368.6-204.5c-0.7,0-1.2,0.5-1.2,1.2c0,0.7,0.5,1.2,1.2,1.2c0.7,0,1.2-0.5,1.2-1.2
		C369.8-203.9,369.3-204.5,368.6-204.5z"/>
	<polygon class="st9" points="359.6,-186 359.6,-186 359.6,-186 	"/>
	<path class="st9" d="M364.3-182.1c-1.5-1.1-2.9-2.3-4.4-3.5c-0.1-0.1-0.2-0.2-0.3-0.4c0.1,0.3,0.1,0.6,0.1,0.9c0,1.7,0,3.5,0,5.2
		c0.5-0.4,1-0.7,1.6-0.7C362.4-181.1,363.4-181.6,364.3-182.1z"/>
	<path class="st9" d="M359.6-186C359.6-186,359.6-186,359.6-186C359.6-186,359.6-186,359.6-186C359.6-186,359.6-186,359.6-186z"/>
	<polygon class="st9" points="359.6,-186 359.6,-186 359.6,-186 	"/>
	<path class="st9" d="M359.8-179.9c0-1.7,0-3.5,0-5.2c0-0.3,0-0.6-0.1-0.9c0,0,0-0.1-0.1-0.1c0,0,0,0,0,0c0,0,0,0,0,0
		c0,2.1,0,4.2,0,6.3C359.7-179.8,359.7-179.8,359.8-179.9z"/>
	<path class="st9" d="M361.4-180.6c-0.7,0-1.2,0.3-1.6,0.7c0,0,0,0,0,0.1C360.3-180,360.8-180.4,361.4-180.6L361.4-180.6
		C361.4-180.6,361.4-180.6,361.4-180.6z"/>
	<path class="st9" d="M359.6-179.7c0.1,0,0.1-0.1,0.2-0.1c0,0,0,0,0-0.1C359.7-179.8,359.7-179.8,359.6-179.7z"/>
	<polygon class="st9" points="359.6,-186 359.6,-186 359.6,-186 	"/>
	<path class="st9" d="M359.6-186C359.6-186,359.7-185.9,359.6-186C359.7-185.9,359.7-185.9,359.6-186c0.2,0.2,0.2,0.3,0.3,0.4
		c1.5,1.1,2.9,2.3,4.4,3.5c0,0,0,0,0,0h0c0,0,0,0,0,0c-0.1-0.1-0.1-0.2-0.2-0.3C362.6-183.6,361.1-184.8,359.6-186
		C359.6-186,359.6-186,359.6-186C359.6-186,359.6-186,359.6-186z"/>
	<path class="st9" d="M359.6-186C359.6-186,359.7-185.9,359.6-186C359.7-185.9,359.7-185.9,359.6-186
		C359.7-185.9,359.6-186,359.6-186z"/>
	<path class="st9" d="M369.4-186c-0.5,0.7-1.2,1.1-1.8,1.6c-1,0.8-1.9,1.6-3,2.4c1,0.5,1.9,1,2.9,1.5c0.7,0,1.2,0.3,1.7,0.7
		c0-1.7,0-3.4,0-5.1c0-0.3,0-0.6,0.1-0.9C369.2-185.9,369.3-186,369.4-186C369.4-186,369.4-186,369.4-186
		C369.4-186,369.4-186,369.4-186C369.4-186,369.4-186,369.4-186C369.4-186,369.4-186,369.4-186z"/>
	<polygon class="st9" points="369.4,-186 369.4,-186 369.4,-186 369.4,-186 	"/>
	<path class="st9" d="M369.2-185.8c-0.1,0.3-0.1,0.6-0.1,0.9c0,1.7,0,3.4,0,5.1c0.1,0.1,0.1,0.1,0.2,0.1v0c0-2.1,0-4.2,0-6.3
		c0,0,0,0,0,0C369.3-186,369.2-185.9,369.2-185.8z"/>
	<path class="st9" d="M367.5-180.6C367.5-180.6,367.5-180.6,367.5-180.6C367.5-180.6,367.5-180.6,367.5-180.6
		c0.6,0.2,1.1,0.5,1.7,0.8c0,0,0,0,0-0.1C368.7-180.3,368.1-180.6,367.5-180.6z"/>
	<path class="st9" d="M369.1-179.9C369.1-179.8,369.1-179.8,369.1-179.9c0.1,0.1,0.1,0.1,0.2,0.1l0,0v0
		C369.3-179.8,369.2-179.8,369.1-179.9z"/>
	<polygon class="st9" points="369.4,-186 369.4,-186 369.4,-186 369.4,-186 	"/>
	<path class="st9" d="M364.6-182.1C364.6-182.1,364.6-182.1,364.6-182.1c1.1-0.7,2-1.5,3-2.3c0.6-0.5,1.3-0.9,1.8-1.6c0,0,0,0,0,0
		c-0.9,0.7-1.9,1.5-2.8,2.2C365.9-183.2,365.1-182.8,364.6-182.1z"/>
	<path class="st5" d="M364.6-182.1c-0.1,0-0.2,0-0.2,0c0,0.1,0,0.1-0.1,0.1c-0.9,0.5-1.8,1.1-2.9,1.4c0,0,0,0,0,0
		c0.5,1,0.9,2.1,1.1,3.2c0,0,0,0,0,0c0.4-0.2,0.8-0.1,1.1-0.1c0.9,0,1.8-0.1,2.7,0.1c0,0,0-0.1,0-0.1c0.3-1.1,0.5-2.2,1.1-3.1
		c0,0,0,0,0,0C366.4-180.9,365.4-181.3,364.6-182.1C364.6-182.1,364.6-182.1,364.6-182.1z"/>
	<path class="st5" d="M363.7-177.5c-0.4,0-0.8-0.1-1.1,0.1c0,0,0,0,0,0c0,0,0,0,0,0.1c1.3,0,2.6,0,3.9,0c0,0,0-0.1,0-0.1
		C365.5-177.6,364.6-177.4,363.7-177.5z"/>
	<path class="st5" d="M367.5-180.6c-0.6,1-0.8,2.1-1.1,3.1c0,0,0,0.1,0,0.1c0,0,0,0,0,0c0,0,0,0,0,0
		C366.8-178.4,367.1-179.5,367.5-180.6C367.5-180.6,367.5-180.6,367.5-180.6C367.5-180.6,367.5-180.6,367.5-180.6
		C367.5-180.6,367.5-180.6,367.5-180.6z"/>
	<path class="st5" d="M366.4-177.3C366.4-177.3,366.4-177.3,366.4-177.3C366.4-177.3,366.4-177.3,366.4-177.3
		C366.4-177.3,366.4-177.3,366.4-177.3C366.4-177.3,366.4-177.3,366.4-177.3z"/>
	<path class="st5" d="M361.5-180.6C361.5-180.6,361.5-180.6,361.5-180.6C361.4-180.6,361.4-180.6,361.5-180.6L361.5-180.6
		c0.3,1.1,0.7,2.2,1,3.3c0,0,0,0,0,0C362.4-178.5,362-179.5,361.5-180.6z"/>
	<path class="st5" d="M362.5-177.3C362.5-177.3,362.5-177.3,362.5-177.3C362.5-177.3,362.5-177.3,362.5-177.3
		C362.5-177.3,362.5-177.3,362.5-177.3z"/>
	<path class="st5" d="M364.6-182.1C364.6-182.1,364.6-182.1,364.6-182.1C364.6-182.1,364.6-182.1,364.6-182.1c-0.1,0-0.2,0-0.2,0
		c0,0,0,0,0,0C364.4-182,364.5-182,364.6-182.1z"/>
	<path class="st5" d="M361.5-180.6c1-0.3,1.9-0.9,2.9-1.4c0,0,0.1-0.1,0.1-0.1c0,0,0,0,0,0c0,0,0,0,0,0
		C363.4-181.6,362.4-181.1,361.5-180.6C361.4-180.6,361.5-180.6,361.5-180.6z"/>
	<path class="st5" d="M361.5-180.6C361.5-180.6,361.4-180.6,361.5-180.6C361.4-180.6,361.4-180.6,361.5-180.6L361.5-180.6
		L361.5-180.6C361.4-180.6,361.4-180.6,361.5-180.6z"/>
	<path class="st5" d="M364.4-182.1C364.4-182.1,364.4-182.1,364.4-182.1L364.4-182.1C364.4-182.1,364.3-182.1,364.4-182.1
		C364.3-182.1,364.3-182.1,364.4-182.1C364.4-182.1,364.4-182.1,364.4-182.1z"/>
	<path class="st5" d="M367.5-180.6C367.5-180.6,367.5-180.6,367.5-180.6c-0.9-0.5-1.9-1-2.8-1.5c0,0,0,0,0,0
		C365.4-181.3,366.4-180.9,367.5-180.6z"/>
	<path class="st5" d="M367.5-180.6C367.5-180.6,367.5-180.6,367.5-180.6C367.5-180.6,367.5-180.6,367.5-180.6
		C367.5-180.6,367.5-180.6,367.5-180.6z"/>
	<path class="st5" d="M364.6-182.1C364.6-182.1,364.6-182.1,364.6-182.1C364.6-182.1,364.6-182.1,364.6-182.1
		C364.6-182.1,364.6-182.1,364.6-182.1z"/>
</g>
<path class="st10" d="M603.4,206.8H317.1c-6.6,0-12-5.4-12-12v-44.1c0-6.6,5.4-12,12-12h286.3c6.6,0,12,5.4,12,12v44.1
	C615.4,201.4,610,206.8,603.4,206.8z"/>
<g>
	<text transform="matrix(1 0 0 1 386.2498 184.2314)" class="st15" style="font-family:'Montserrat-Light'; font-size:31.1428px;">Recreation</text>
</g>
<path class="st11" d="M603.4,335.8H317c-6.6,0-12-5.4-12-12v-44.1c0-6.6,5.4-12,12-12h286.5c6.6,0,12,5.4,12,12v44.1
	C615.4,330.4,610,335.8,603.4,335.8z"/>
<text transform="matrix(1 0 0 1 389.2869 312.2226)" class="st15" style="font-family:'Montserrat-Light'; font-size:31.1428px;">Technology</text>
<circle class="st12" cx="309.1" cy="301.6" r="47.3"/>
<circle class="st13" cx="309.3" cy="171.3" r="47.3"/>
<circle class="st14" cx="309.4" cy="43.6" r="47.3"/>
<g>
	<path class="st15" d="M341.7,298.7c-1.6-0.4-3.3,0.3-4.1,1.7c-0.3,0.5-0.6,0.6-1.1,0.6c-2.2,0-4.4,0-6.6,0c-2.3,0-4.5,0-6.8,0
		c-0.5,0-0.7-0.1-0.7-0.7c0-1.2,0-2.4,0-3.6c0-0.5,0.1-0.6,0.6-0.6c1.2,0,2.5,0,3.7,0c0.5,0,0.8,0.1,1,0.6c0.9,1.7,2.9,2.3,4.6,1.5
		c1.7-0.8,2.6-2.7,2-4.5c-0.5-1.4-1.5-2.3-3-2.5c-1.5-0.2-3,0.5-3.7,1.9c-0.2,0.5-0.5,0.6-1,0.6c-1.3,0-2.5,0-3.8,0
		c-0.4,0-0.6-0.1-0.6-0.5c0-1,0-2,0-3c0-0.9-0.4-1.4-1.4-1.4c-1,0-2,0-3,0c-0.4,0-0.5-0.1-0.5-0.5c0-1.3,0-2.6,0-3.9
		c0-0.4,0.1-0.7,0.5-0.9c1.5-0.8,2.2-2.5,1.8-4.1c-0.5-1.7-1.9-2.8-3.6-2.7c-1.7,0-3.1,1.2-3.5,2.8c-0.4,1.6,0.4,3.2,1.9,4
		c0.4,0.2,0.5,0.4,0.5,0.9c0,1.3,0,2.5,0,3.8c0,0.6-0.2,0.7-0.7,0.6c-1.2,0-2.4,0-3.6,0c-0.5,0-0.6-0.1-0.6-0.6c0-4.5,0-9.1,0-13.6
		c0-0.5,0.2-0.6,0.5-0.9c1.5-0.8,2.2-2.5,1.8-4c-0.4-1.7-1.8-2.8-3.6-2.8c-1.7,0-3.1,1.1-3.5,2.8c-0.4,1.6,0.3,3.3,1.9,4.1
		c0.3,0.2,0.5,0.3,0.5,0.7c0,4.6,0,9.2,0,13.7c0,0.4-0.1,0.6-0.5,0.5c-1.3,0-2.5,0-3.8,0c-0.4,0-0.5-0.1-0.5-0.5c0-1.3,0-2.6,0-3.9
		c0-0.4,0.1-0.6,0.5-0.8c1.5-0.8,2.3-2.5,1.9-4c-0.4-1.7-1.8-2.8-3.5-2.8c-1.8,0-3.2,1.1-3.7,2.8c-0.4,1.6,0.3,3.3,1.9,4.1
		c0.3,0.2,0.5,0.3,0.5,0.7c0,1.3,0,2.7,0,4c0,0.5-0.2,0.5-0.6,0.5c-1,0-2,0-3,0c-0.9,0-1.3,0.4-1.3,1.4c0,1,0,2,0,3
		c0,0.4-0.1,0.6-0.5,0.6c-1.3,0-2.6,0-3.9,0c-0.4,0-0.6-0.1-0.8-0.5c-0.8-1.5-2.5-2.3-4.1-1.9c-1.7,0.4-2.8,1.8-2.8,3.6
		c0,1.7,1.1,3.1,2.8,3.5c1.6,0.4,3.2-0.3,4.1-1.9c0.1-0.3,0.2-0.5,0.7-0.5c1.4,0,2.8,0,4.2,0c0.4,0,0.5,0.1,0.5,0.5
		c0,1.3,0,2.5,0,3.8c0,0.5-0.2,0.6-0.6,0.6c-4.5,0-9,0-13.4,0c-0.5,0-0.7-0.1-1-0.6c-0.8-1.4-2.4-2.2-3.9-1.8
		c-1.6,0.4-2.9,1.8-2.9,3.4c-0.1,1.9,1,3.3,2.7,3.8c1.6,0.4,3.3-0.3,4.1-1.8c0.2-0.3,0.3-0.5,0.8-0.5c4.6,0,9.2,0,13.7,0
		c0.4,0,0.5,0.1,0.5,0.5c0,1.3,0,2.6,0,3.9c0,0.4-0.1,0.5-0.5,0.5c-1.3,0-2.6,0-3.9,0c-0.4,0-0.7-0.1-0.9-0.5
		c-0.8-1.5-2.5-2.3-4.1-1.8c-1.7,0.5-2.8,1.9-2.7,3.6c0,1.7,1.1,3.1,2.8,3.5c1.6,0.4,3.2-0.3,4-1.9c0.2-0.4,0.4-0.5,0.9-0.5
		c1.3,0,2.5,0,3.8,0c0.6,0,0.7,0.2,0.6,0.7c0,1,0,1.9,0,2.9c0,0.9,0.5,1.3,1.3,1.3c1,0,2,0,3,0c0.4,0,0.6,0.1,0.6,0.6
		c0,1.3,0,2.6,0,3.9c0,0.4-0.1,0.7-0.5,0.9c-1.7,0.9-2.4,2.8-1.7,4.5c0.6,1.5,2.1,2.4,3.8,2.3c1.5-0.1,2.9-1.3,3.2-2.9
		c0.3-1.5-0.4-3.2-1.8-3.9c-0.4-0.2-0.6-0.5-0.6-1c0-1.3,0-2.5,0-3.8c0-0.5,0.1-0.6,0.6-0.6c1.2,0,2.4,0,3.6,0
		c0.6,0,0.7,0.2,0.7,0.7c0,4.5,0,9,0,13.4c0,0.4-0.1,0.7-0.5,0.9c-1.5,0.8-2.2,2.4-1.9,4c0.4,1.7,1.8,2.9,3.5,2.9
		c1.8,0,3.2-1,3.7-2.8c0.4-1.6-0.3-3.3-1.8-4.1c-0.4-0.2-0.5-0.4-0.5-0.8c0-4.6,0-9.1,0-13.7c0-0.4,0.1-0.6,0.5-0.6
		c1.3,0,2.5,0,3.8,0c0.4,0,0.6,0.1,0.6,0.5c0,1.3,0,2.6,0,3.9c0,0.4-0.1,0.6-0.5,0.8c-1.5,0.8-2.3,2.5-1.9,4.1
		c0.5,1.7,1.9,2.8,3.6,2.8c1.7,0,3.1-1.1,3.5-2.8c0.4-1.6-0.3-3.2-1.9-4.1c-0.3-0.1-0.5-0.2-0.5-0.6c0-1.4,0-2.8,0-4.2
		c0-0.4,0.1-0.5,0.5-0.5c1,0,2,0,3,0c0.9,0,1.3-0.4,1.4-1.3c0-1,0-2,0-3c0-0.4,0.1-0.6,0.5-0.6c1.3,0,2.7,0,4,0
		c0.4,0,0.6,0.1,0.7,0.5c0.8,1.5,2.5,2.3,4.1,1.9c1.7-0.4,2.8-1.8,2.8-3.6c0-1.7-1.1-3.1-2.8-3.5c-1.6-0.4-3.3,0.3-4.1,1.9
		c-0.2,0.4-0.4,0.5-0.8,0.5c-1.3,0-2.6,0-3.9,0c-0.4,0-0.5-0.1-0.5-0.5c0-1.2,0-2.5,0-3.7c0-0.5,0.1-0.6,0.6-0.6c4.5,0,9.1,0,13.6,0
		c0.4,0,0.6,0.1,0.8,0.5c0.8,1.5,2.5,2.3,4,1.9c1.7-0.4,2.8-1.8,2.8-3.5C344.5,300.6,343.4,299.2,341.7,298.7z M331.1,293.7
		c0.6,0,1.2,0.6,1.2,1.2c0,0.6-0.6,1.2-1.2,1.2c-0.6,0-1.2-0.6-1.2-1.2C329.9,294.3,330.5,293.7,331.1,293.7z M287.4,296.1
		c-0.6,0-1.2-0.6-1.2-1.2c0-0.6,0.6-1.2,1.2-1.2c0.6,0,1.2,0.6,1.2,1.2C288.6,295.5,288,296.1,287.4,296.1z M277.6,303.4
		c-0.6,0-1.2-0.6-1.2-1.2c0-0.6,0.6-1.2,1.2-1.2c0.6,0,1.2,0.6,1.2,1.2C278.9,302.9,278.3,303.4,277.6,303.4z M287.4,310.7
		c-0.6,0-1.2-0.6-1.2-1.2c0-0.6,0.6-1.2,1.2-1.2c0.6,0,1.2,0.6,1.2,1.2C288.6,310.1,288,310.7,287.4,310.7z M315.3,280.4
		c0-0.6,0.5-1.2,1.2-1.2c0.6,0,1.2,0.5,1.2,1.2c0,0.6-0.5,1.2-1.2,1.2C316,281.6,315.4,281,315.3,280.4z M308,270.6
		c0-0.6,0.6-1.2,1.2-1.2c0.6,0,1.2,0.6,1.2,1.2c0,0.6-0.6,1.2-1.2,1.2C308.6,271.9,308.1,271.3,308,270.6z M300.8,280.4
		c0-0.6,0.6-1.2,1.2-1.2c0.6,0,1.2,0.6,1.2,1.2c0,0.6-0.6,1.2-1.2,1.2C301.4,281.6,300.8,281,300.8,280.4z M303.2,324.1
		c0,0.6-0.6,1.2-1.2,1.2c-0.6,0-1.2-0.6-1.2-1.2c0-0.6,0.6-1.2,1.2-1.2C302.6,322.9,303.2,323.5,303.2,324.1z M310.5,333.8
		c0,0.6-0.6,1.2-1.2,1.2c-0.6,0-1.2-0.6-1.2-1.2c0-0.6,0.6-1.2,1.2-1.2C309.8,332.6,310.4,333.2,310.5,333.8z M317.8,324.1
		c0,0.6-0.6,1.2-1.2,1.2c-0.6,0-1.2-0.6-1.2-1.2c0-0.6,0.6-1.2,1.2-1.2C317.2,322.9,317.8,323.5,317.8,324.1z M319.5,313.2
		c-3.4,0-6.9,0-10.3,0c-3.4,0-6.8,0-10.2,0c-0.6,0-0.7-0.1-0.7-0.7c0-6.8,0-13.7,0-20.5c0-0.6,0.1-0.7,0.7-0.7c6.8,0,13.7,0,20.5,0
		c0.6,0,0.7,0.1,0.7,0.7c0,6.8,0,13.7,0,20.5C320.2,313,320.1,313.2,319.5,313.2z M331.2,308.3c0.6,0,1.2,0.6,1.2,1.2
		c0,0.6-0.6,1.2-1.2,1.2c-0.6,0-1.2-0.6-1.2-1.2C329.9,308.9,330.5,308.3,331.2,308.3z M340.9,303.4c-0.6,0-1.2-0.6-1.2-1.2
		c0-0.6,0.6-1.2,1.2-1.2c0.6,0,1.2,0.6,1.2,1.2C342.1,302.8,341.5,303.4,340.9,303.4z"/>
</g>
<g>
	<path class="st10" d="M61.2,49.3c1.7-0.2,3.1,0.5,4.2,1.7c0.8,0.8,1.7,1.6,2.5,2.4c0.4,0.4,0.6,0.8,0.6,1.3c0,1.1,0,2.3,0,3.4
		c0,0.7-0.2,1.2-0.8,1.6c-22,0-44,0-66,0C1.3,59.6,1,59.4,0.9,59c0-1.6,0-3.3,0-4.9c0.4-0.9,1.2-1.4,1.8-2.1
		c0.4-0.4,0.8-0.7,1.2-1.1c1.2-1.3,2.6-1.9,4.4-1.7c1,0.2,2,0.6,2.7,1.4c1.9,2.1,4.8,2.2,6.9,0c1.7-1.7,4.3-1.8,6.1-0.4
		c0.4,0.3,0.7,0.6,1.1,0.9c1.8,1.6,4.2,1.6,6-0.1c1-0.9,2.1-1.6,3.5-1.7c1.6-0.1,2.8,0.6,3.9,1.6c1.2,1.2,2.6,1.6,4.2,1.2
		c1-0.2,1.8-0.8,2.4-1.5c1.8-1.8,4.9-1.8,6.7,0.1c1.4,1.5,3.1,1.9,5.1,1.2c0.6-0.2,1.1-0.7,1.6-1.1c0.6-0.6,1.2-0.9,1.9-1.2
		C60.6,49.3,60.9,49.1,61.2,49.3z"/>
	<path class="st16" d="M13.6,16.9c-2.9-0.4-5.8-0.8-8.7-1.1c-1.3-0.2-2.6-0.4-4-0.5c0,0,0-0.1,0-0.1c1.3-1.6,2.8-3,4.7-3.8
		c4.6-2,9.8-0.6,13.1,3.5c0.2,0.2,0.3,0.5,0.6,0.6c0.1,0,0.1,0,0.2,0.1c0.3,0.8,0.9,1.4,1.1,2.2c0,0,0,0.1-0.1,0.1c0,0-0.1,0-0.1,0
		c-1-0.2-1.9-0.5-2.9-0.7c-0.9-0.1-1.8-0.2-2.8,0c-0.2,0-0.4,0-0.5,0C14,17,13.8,16.9,13.6,16.9z"/>
	<path class="st17" d="M8.3,49.3c1.5-2,3.4-3.5,5.5-4.8c3.7-2.4,7.8-3.9,12.1-4.8c0.2,0,0.4-0.1,0.6-0.1c0.2-0.3,0.5-0.3,0.8-0.3
		c2.5-0.4,5.1-0.7,7.6-0.6c0.3,0,0.6,0,0.8,0.2c1.7,0.1,3.5,0.3,5.2,0.4c0.2-0.2,0.5-0.1,0.7,0c1.8,0.3,3.6,0.7,5.4,1.2
		c0.2,0.1,0.5,0.1,0.6,0.4c4.5,1.4,8.6,3.6,12,6.8c0.6,0.5,1.1,1.1,1.6,1.8c-1.1,0.2-2.1,0.8-2.9,1.6c-2,1.9-4.5,1.9-6.5,0
		c-0.9-0.8-1.8-1.5-3-1.6c-1.4-0.1-2.6,0.3-3.6,1.3c-0.8,0.8-1.6,1.4-2.7,1.6c-1.6,0.3-3-0.2-4.2-1.3c-0.9-0.9-1.9-1.5-3.2-1.6
		c-1.5-0.1-2.7,0.4-3.7,1.5c-0.7,0.7-1.6,1.3-2.6,1.5c-1.5,0.3-2.8-0.2-3.9-1.2c-0.7-0.7-1.4-1.3-2.4-1.6c-1.7-0.4-3.1-0.1-4.4,1.1
		c-0.8,0.8-1.6,1.4-2.7,1.6c-1.6,0.3-2.9-0.1-4.1-1.2C10.4,50.1,9.5,49.5,8.3,49.3z"/>
	<path class="st18" d="M35.8,38.8c-3.1,0-6.2,0.2-9.2,0.8c-0.4-3.3-1.1-6.6-2-9.9c0.1-0.1,0.2-0.1,0.3-0.2c2.3-0.3,4.2-1.2,5.5-3.2
		c0-0.1,0.1-0.1,0.2-0.1C32.9,30.1,34.6,34.3,35.8,38.8z"/>
	<path class="st19" d="M20.5,17.8c0,0,0-0.1,0-0.1c0.1-1.2,0.6-2.2,1.2-3.1c0.4-0.7,0.9-1.5,1.6-2c0.6-0.5,1.2-1,1.9-1.4
		c3.9-2.6,8.7-2.3,12.7,0.6c0.5,0.4,1.1,0.8,1.5,1.4c-2.4,0.6-4.8,1.2-7.1,1.8c-3.2,0.8-6.3,1.6-9.5,2.4
		C22,17.7,21.3,17.9,20.5,17.8z"/>
	<path class="st20" d="M23.3,12.5c-0.6,0.9-1.4,1.8-1.9,2.8c-0.4,0.8-0.6,1.6-0.9,2.4c-0.5-0.7-0.8-1.5-1.2-2.2
		c-0.9-2.7-1.1-5.3-0.1-8c1.4-4.1,5.5-7,9.7-7.1c0.1,0,0.3,0,0.4,0c0,0.3-0.2,0.5-0.3,0.8c-1.8,3.6-3.6,7.1-5.4,10.7
		C23.5,12,23.4,12.2,23.3,12.5z"/>
	<path class="st19" d="M50.1,26.5c-2.4-0.6-4.8-1.2-7.3-1.9c-2.3-0.6-4.5-1.1-6.8-1.7c0.4-0.6,0.9-0.9,1.4-1.3
		c4-2.9,8.5-2.6,12.1,0.8c0,0,0.1,0.1,0.2,0.1c0.3,0,0.4,0.2,0.6,0.4c0.7,0.9,1.3,1.9,1.6,3.1c0.1,0.3,0.3,0.6,0,0.9
		C51.2,27,50.6,26.8,50.1,26.5z"/>
	<path class="st19" d="M57.1,26.2c1,0.3,1.9,0.5,2.8,1c3.6,1.9,5.1,5.7,4.7,9.4c0,0.3-0.1,0.6-0.1,0.9c-0.5-0.3-0.9-0.7-1.4-1.1
		c-3.3-2.8-6.6-5.6-9.8-8.4C53.2,28,53.1,28,53,27.9c-0.5-0.2-0.9-0.4-1-1c0-0.1,0.1-0.1,0.1-0.2c1-0.5,2.1-0.7,3.2-0.7
		C55.9,26,56.5,25.8,57.1,26.2z"/>
	<path class="st16" d="M52,26.9c0,0,0,0.1,0,0.1c-0.1,0-0.1,0-0.1-0.1c-0.3-1.7-1.2-3.1-2.3-4.4c-1-2-2-4-3-6
		c-0.7-1.5-1.5-3-2.3-4.5c2.5,0,4.6,0.8,6.3,2.4c2.7,2.6,3.4,5.9,2.6,9.5c-0.1,0.3-0.1,0.5-0.2,0.8c0.2,0.2,0,0.4-0.1,0.6
		C52.6,25.8,52.4,26.3,52,26.9z"/>
	<path class="st20" d="M52,26.9c0.1-0.6,0.5-1.1,0.8-1.6c0.1-0.2,0.3-0.4,0.3-0.6c0.3,0,0.4-0.3,0.5-0.5c3.4-3.9,8.7-4.6,12.7-1.8
		c0.9,0.6,1.6,1.4,2.2,2.3c-3.9,0.5-7.6,1-11.4,1.5C55.4,26.1,53.7,26.2,52,26.9z"/>
	<path class="st18" d="M20.5,17.8c0.7-0.2,1.5-0.3,2.2-0.5c1.9,1.5,3.7,3.2,5.2,5.1c0.4,0.5,0.8,1.1,1.2,1.6c0,0.9-0.5,1.7-1.1,2.2
		c-1.2,0.9-2.5,1.5-4,1.4c-1-2.8-2.1-5.5-3.9-7.8c-0.2-0.3-0.5-0.6-0.7-0.9C19.5,18.3,20,18,20.5,17.8L20.5,17.8z"/>
	<path class="st18" d="M51.9,26.9C52,26.9,52,26.9,51.9,26.9c0.4,0.4,0.7,0.7,1.1,1c-1.7,2.2-3,4.6-3.9,7.2c-0.4,0.3-0.8,0.1-1.2,0
		c-1.3-0.3-2.4-0.9-3-2.1c-0.1-0.3-0.2-0.6-0.2-0.9c1.4-2.1,3.3-3.9,5.3-5.5C50.7,26.6,51.3,26.8,51.9,26.9z"/>
	<path class="st18" d="M47.6,40.7c-2-0.6-4-1.1-6.1-1.4c-0.2,0-0.4-0.1-0.6-0.1c0.6-1.7,1.5-3.3,2.4-4.9c0.7,0.8,1.4,1.6,2.3,2.1
		c0.7,0.3,1.4,0.6,2.1,0.7c0.2,0,0.5,0,0.7,0.2C48.2,38.4,47.9,39.6,47.6,40.7z"/>
	<path class="st21" d="M23.9,27.6c0.2-0.2,0.4-0.1,0.6-0.2c1.8-0.3,3.5-0.9,4.3-2.7c0.1-0.2,0.1-0.5,0.3-0.7c0.6,0.7,1,1.4,1.5,2.2
		c-0.5,1.3-1.5,2-2.7,2.6c-1,0.5-2.1,0.9-3.3,0.9C24.3,29,24.1,28.3,23.9,27.6z"/>
	<path class="st21" d="M48.5,37.3c-2-0.1-3.6-1-4.9-2.5c-0.1-0.1-0.2-0.4-0.2-0.5c0.4-0.8,0.9-1.5,1.5-2.2c0.4,1.5,1.3,2.4,2.8,2.8
		c0.5,0.1,1,0.2,1.5,0.2C48.9,35.8,48.7,36.6,48.5,37.3z"/>
	<path class="st19" d="M20.5,17.8c-0.4,0.4-0.8,0.7-1.2,1.1c-2.9,2.4-5.7,4.8-8.6,7.2c-1.6,1.4-3.3,2.7-4.9,4.1
		c-1.4-5.4,1.8-11.8,8.1-13.1C14,17,14.1,17,14.2,17c1.8-0.3,3.5-0.1,5.2,0.4C19.8,17.5,20.1,17.6,20.5,17.8z"/>
	<path class="st22" d="M14.2,17c-0.1,0.1-0.2,0.2-0.3,0.1c-0.1-0.1-0.2-0.1-0.2-0.2C13.8,16.8,14,16.8,14.2,17z"/>
</g>
<rect x="289.6" y="-99.8" style="fill:none;" width="318.9" height="56"/>
<text transform="matrix(1 0 0 1 289.6111 -83.7833)" style="font-family:'Montserrat-Light'; font-size:21.5604px;">Subjects available to interact:</text>
</svg>
