<?xml version="1.0" encoding="utf-8"?>
<!-- Generator: Adobe Illustrator 22.1.0, SVG Export Plug-In . SVG Version: 6.00 Build 0)  -->
<svg version="1.1" id="Layer_1" xmlns="http://www.w3.org/2000/svg" xmlns:xlink="http://www.w3.org/1999/xlink" x="0px" y="0px"
	 viewBox="0 0 15.8 19.6" style="enable-background:new 0 0 15.8 19.6;" xml:space="preserve">
<g>
	<path d="M13.9,6.6h-1.2V5.1c0-2.7-2.2-4.8-4.8-4.8S3.1,2.4,3.1,5.1v1.4H1.9C1,6.6,0.2,7.3,0.2,8.2v9.4c0,0.9,0.7,1.7,1.6,1.7h12
		c0.9,0,1.7-0.7,1.7-1.7V8.2C15.6,7.3,14.8,6.6,13.9,6.6z M5.2,5.1c0-1.5,1.2-2.7,2.7-2.7c1.5,0,2.7,1.2,2.7,2.7v1.4H5.2V5.1z
		 M8.8,14.9v2.4c0,0.1-0.1,0.2-0.2,0.2H7.4c-0.1,0-0.2-0.1-0.2-0.2v-2.4c-0.8-0.3-1.4-1.1-1.4-2c0-1.2,0.9-2.1,2.1-2.1
		c1.2,0,2.1,0.9,2.1,2.1C10.1,13.9,9.6,14.6,8.8,14.9z"/>
</g>
</svg>
