<?xml version="1.0" encoding="utf-8"?>
<!-- Generator: Adobe Illustrator 22.1.0, SVG Export Plug-In . SVG Version: 6.00 Build 0)  -->
<svg version="1.1" id="Layer_1" xmlns="http://www.w3.org/2000/svg" xmlns:xlink="http://www.w3.org/1999/xlink" x="0px" y="0px"
	 viewBox="0 0 16.3 28.4" style="enable-background:new 0 0 16.3 28.4;" xml:space="preserve">
<style type="text/css">
	.st0{fill:#EB353B;}
	.st1{fill:#CF1F3C;}
	.st2{fill:#FCC9A6;}
	.st3{fill:#543213;}
	.st4{fill:#076DA2;}
	.st5{fill:#2F92D0;}
	.st6{fill:#CACACA;}
	.st7{fill:#E6AF88;}
	.st8{fill:#553213;}
	.st9{fill:#EAEAEA;}
	.st10{fill:#3BC3E3;}
	.st11{fill:#8DC63F;}
	.st12{fill:#8DC63F;stroke:#F6E6DB;stroke-miterlimit:10;}
	.st13{fill:#3BC3E3;stroke:#F6E6DB;stroke-miterlimit:10;}
	.st14{fill:#EB353B;stroke:#F6E6DB;stroke-miterlimit:10;}
	.st15{fill:#FFFFFF;}
</style>
<path class="st0" d="M572.7,61.7H286.5c-6.6,0-12-5.4-12-12V5.6c0-6.6,5.4-12,12-12h286.2c6.6,0,12,5.4,12,12v44.1
	C584.7,56.3,579.3,61.7,572.7,61.7z"/>
<g>
	<text transform="matrix(1 0 0 1 356.3129 38.3118)" class="st15" style="font-family:'Montserrat-Light'; font-size:31.1428px;">University</text>
</g>
<text transform="matrix(1 0 0 1 383.4184 -202.0056)" style="font-family:'Montserrat-Light'; font-size:16.7692px;">Daniel Lorem Ipsum</text>
<text transform="matrix(1 0 0 1 383.4184 -222.0906)" style="font-family:'Montserrat-Light'; font-size:16.7692px;">Welcome,</text>
<g>
	<path class="st1" d="M328.8-202C328.8-202,328.8-202.1,328.8-202C328.9-202.1,328.9-202.1,328.8-202c0.1-0.1,0.1-0.1,0.1-0.1
		c0-0.5,0-1,0-1.5v0c0-0.6,0-1.3,0-1.9c-2.6-1.8-3.6-4.6-4.3-7.5c-0.2-0.7-0.3-1.5-0.4-2.2c0-0.4-0.2-0.5-0.6-0.5
		c-0.6,0-1.1,0.1-1.7-0.1c-1.1-0.3-1.8-1.3-1.9-2.4c0-0.3,0-0.7,0-1c-0.1-1.1,0.1-2.1,1-2.9c0,0,0,0,0,0c0,0,0,0,0,0
		c-0.2-1.7-0.4-3.3-0.7-5c-0.5-3.2,1.8-6,5-6.2c0.3,0,0.5,0,0.7-0.4c1.4-2.4,3.4-3.9,6.1-4.6c1.7-0.4,3.4-0.8,5.2-0.6
		c2.3,0.3,4.3,1.2,5.9,2.7c2.6,2.5,4,5.5,3.9,9.2c-0.1,1.6-0.6,3.1-1,4.6c1.5,1.3,1.2,3,1,4.7c-0.2,1-1.2,1.7-2.3,1.8
		c-0.5,0-1.1-0.2-1.5,0.2c-0.3,0.3-0.2,1-0.3,1.5c-0.4,2-0.9,3.9-1.9,5.7c-0.6,1.2-1.6,2.1-2.6,2.9l0,0c0,0,0,0,0,0
		c0,0.6,0,1.3,0,1.9c0,0.5,0,1,0,1.5c0,0,0,0,0,0v0c0,0,0,0,0,0l0,0c0,0,0,0,0,0c0,0,0.1,0.1,0.1,0.1c0,0,0,0,0,0
		c0.7,0.3,1.5,0.7,2.2,1.1c4.9,2.4,9.8,5,14.7,7.3c0.1,0,0.1,0.1,0.2,0.1c6-5.6,9.7-13.5,9.7-22.4c0-16.9-13.7-30.6-30.6-30.6
		s-30.6,13.7-30.6,30.6c0,8.5,3.4,16.1,9,21.6c5.1-2.6,10.2-5.1,15.3-7.7C328.7-202,328.7-202,328.8-202z"/>
	<path class="st2" d="M332.7-204.1c1.9,0.2,3.6-0.1,5.2-1c0.2-0.1,0.5-0.3,0.7-0.4l0,0c1-0.8,2-1.7,2.6-2.9c1-1.8,1.5-3.7,1.9-5.7
		c0.1-0.5,0-1.1,0.3-1.5c0.4-0.4,1-0.1,1.5-0.2c1.1-0.1,2.2-0.8,2.3-1.8c0.3-1.6,0.6-3.4-1-4.7c-0.7-0.3-1.5-0.4-2.3-0.4
		c-0.4,0-0.5-0.1-0.5-0.5c0-0.6,0-1.3,0-1.9c0-0.4-0.1-0.5-0.5-0.5c-1.4,0-2.8,0-4.1,0c-4.4,0-8.3-1.5-11.5-4.6
		c-0.4-0.4-0.5-0.3-0.8,0.1c-0.7,1.3-1.5,2.5-2.2,3.8c-0.3,0.5-0.4,0.9-0.4,1.4c0,0.1,0,0.2,0,0.3c0,0.6,0.2,1.3-0.1,1.7
		c-0.3,0.5-1,0.1-1.6,0.2c-0.5,0.1-0.8,0.3-1.3,0.4c0,0,0,0,0,0c-0.9,0.8-1.1,1.8-1,2.9c0,0.3,0,0.6,0,1c0,1.1,0.8,2.1,1.9,2.4
		c0.6,0.2,1.1,0.1,1.7,0.1c0.4,0,0.6,0.1,0.6,0.5c0,0.7,0.2,1.5,0.4,2.2c0.7,2.9,1.6,5.7,4.3,7.5l0,0
		C330.1-204.9,331.3-204.3,332.7-204.1z M335.6-209.9c-0.6,0-1.3,0-1.9,0c-0.6,0-1.3,0-1.9,0c-0.6,0-1-0.4-1-1c0-0.6,0.4-1,1-1
		c1.3,0,2.5,0,3.8,0c0.6,0,1,0.4,1,1C336.7-210.3,336.3-209.9,335.6-209.9z M337.9-218.2c-0.7,0-1.2-0.6-1.2-1.2
		c0-0.7,0.6-1.2,1.2-1.2c0.6,0,1.2,0.6,1.2,1.2C339.1-218.7,338.5-218.2,337.9-218.2z M336.7-223.5c0.9,0,1.9,0,2.8,0
		c0.6,0,1,0.4,1,1c0,0.5-0.4,0.9-1,0.9c-0.5,0-1,0-1.5,0c-0.5,0-0.9,0-1.4,0c-0.6,0-1-0.4-1-1C335.7-223.1,336.1-223.5,336.7-223.5z
		 M331.8-217.5c0-0.7,0.4-1.1,1-1.1c0.6,0,0.9,0.4,1,1.1c0,0.4,0,0.9,0,1.3c0,0.4,0.1,0.5,0.5,0.5c0.2,0,0.4,0,0.6,0
		c0.5,0.1,0.9,0.5,0.9,1c0,0.5-0.3,0.9-0.9,0.9c-0.7,0-1.5,0-2.2,0c-0.5,0-0.8-0.4-0.8-0.9c0-0.5,0-1,0-1.5
		C331.8-216.7,331.8-217.1,331.8-217.5z M328-221.6c-0.6,0-1-0.4-1-1c0-0.6,0.4-1,1-1c0.9,0,1.9,0,2.8,0c0.6,0,1,0.4,1,1
		c0,0.5-0.4,0.9-1,1c0,0,0,0-0.1,0c-0.4,0-0.9,0-1.3,0C328.9-221.6,328.5-221.6,328-221.6z M328.4-219.4c0-0.6,0.6-1.2,1.2-1.2
		c0.6,0,1.2,0.6,1.2,1.2c0,0.7-0.6,1.2-1.2,1.2C328.9-218.2,328.4-218.8,328.4-219.4z"/>
	<path class="st3" d="M322.8-222.7c1.1,0,1.1,0.1,1.1-1.1c-0.1-1.2,0.2-2.2,0.9-3.2c0.6-0.9,1.1-1.9,1.7-2.9
		c0.4-0.7,0.5-0.7,1.1-0.2c1.1,0.9,2.1,1.7,3.4,2.4c1.9,1,3.9,1.7,6,1.9c1.9,0.2,3.8,0.1,5.6,0.1c1,0,1.1,0.1,1.1,1.1
		c0,0.4,0,0.9,0,1.3c0,0.4,0.2,0.6,0.6,0.6c0.5,0,1,0,1.4,0.1c0.2,0.1,0.4,0.2,0.6,0.4c0.4-1.5,0.9-3,1-4.6c0.2-3.7-1.3-6.7-3.9-9.2
		c-1.6-1.6-3.6-2.5-5.9-2.7c-1.8-0.2-3.5,0.2-5.2,0.6c-2.7,0.6-4.8,2.1-6.1,4.6c-0.2,0.3-0.4,0.3-0.7,0.4c-3.2,0.1-5.5,3-5,6.2
		c0.2,1.7,0.5,3.3,0.7,5c0,0,0,0,0,0C321.6-222.6,322.2-222.7,322.8-222.7z"/>
	<path class="st3" d="M324-222.7c0.3-0.4,0.1-1.1,0.1-1.7c0-0.1,0-0.2,0-0.3c-0.1-0.5,0.1-1,0.4-1.4c0.8-1.2,1.5-2.5,2.2-3.8
		c0.2-0.4,0.3-0.5,0.8-0.1c3.2,3,7.1,4.5,11.5,4.6c1.4,0,2.8,0,4.1,0c0.4,0,0.5,0.1,0.5,0.5c0,0.6,0,1.3,0,1.9
		c0,0.4,0.1,0.6,0.5,0.5c0.8-0.1,1.6,0,2.3,0.4c-0.2-0.2-0.4-0.3-0.6-0.4c-0.5-0.2-1-0.1-1.4-0.1c-0.4,0-0.6-0.1-0.6-0.6
		c0-0.4,0-0.9,0-1.3c0-1-0.1-1.1-1.1-1.1c-1.9,0-3.8,0.1-5.6-0.1c-2.1-0.2-4.1-0.9-6-1.9c-1.2-0.7-2.3-1.5-3.4-2.4
		c-0.6-0.5-0.7-0.5-1.1,0.2c-0.6,0.9-1.1,1.9-1.7,2.9c-0.7,1-1,2-0.9,3.2c0.1,1.2,0,1.1-1.1,1.1c-0.6,0-1.2,0.1-1.6,0.6
		c0.4-0.2,0.8-0.4,1.3-0.4C322.9-222.6,323.7-222.3,324-222.7z"/>
	<path class="st4" d="M340.9-201c-0.7-0.4-1.5-0.7-2.2-1.1c1.1,1.2,2.2,2.5,3.3,3.7c1.4,1.6,2.8,3.1,4.2,4.7c0.2,0.3,0.1,0.5,0,0.7
		c-0.7,2-1.4,4.1-2,6.1c4.4-1.4,8.3-3.7,11.6-6.8c-0.1,0-0.1-0.1-0.2-0.1C350.7-196,345.8-198.5,340.9-201z"/>
	<path class="st4" d="M321.2-193c-0.1-0.3-0.1-0.4,0.1-0.6c1.8-2,3.6-4,5.4-6c0.7-0.8,1.4-1.6,2.1-2.4c-0.1,0-0.1,0-0.2,0
		c-5.1,2.6-10.2,5.1-15.3,7.7c2.8,2.8,6,5,9.7,6.5C322.4-189.5,321.8-191.3,321.2-193z"/>
	<path class="st5" d="M328.9-195.8c0-2.1,0-4.2,0-6.3c0,0-0.1,0.1-0.1,0.1c0.1,0.3-0.2,0.4-0.3,0.6c-2.3,2.6-4.6,5.2-6.9,7.7
		c-0.3,0.3-0.2,0.6-0.1,1c0.6,1.7,1.1,3.3,1.7,5c1.8,0.8,3.8,1.4,5.7,1.8c0-3,0-6.1,0-9.1C328.9-195.3,328.9-195.6,328.9-195.8z"/>
	<path class="st5" d="M321.6-193.7c2.3-2.6,4.6-5.2,6.9-7.7c0.2-0.2,0.4-0.3,0.3-0.6c-0.7,0.8-1.4,1.6-2.1,2.4c-1.8,2-3.6,4-5.4,6
		c-0.2,0.2-0.2,0.4-0.1,0.6c0.6,1.7,1.2,3.5,1.8,5.2c0.1,0,0.1,0,0.2,0.1c-0.6-1.7-1.1-3.3-1.7-5C321.4-193,321.3-193.3,321.6-193.7
		z"/>
	<path class="st5" d="M345.8-193.9c-1.8-2-3.6-4-5.4-6.1c-0.4-0.5-0.9-1-1.3-1.5c-0.1-0.2-0.4-0.3-0.3-0.6c0,0,0,0,0,0c0,0,0,0,0,0
		c0,0-0.1-0.1-0.1-0.1c0,2.1,0,4.2,0,6.3c0,3.3,0,6.6,0,9.9c0,0.1,0,0.2,0,0.3c1.8-0.2,3.6-0.6,5.4-1.1c0.7-2,1.3-4,2-6
		C346.2-193.2,346.1-193.5,345.8-193.9z"/>
	<path class="st5" d="M346.2-193.6c-1.4-1.5-2.8-3.1-4.2-4.7c-1.1-1.2-2.2-2.5-3.3-3.7c0,0,0,0,0,0c-0.1,0.3,0.1,0.4,0.3,0.6
		c0.4,0.5,0.9,1,1.3,1.5c1.8,2,3.6,4.1,5.4,6.1c0.3,0.4,0.4,0.7,0.3,1.2c-0.7,2-1.3,4-2,6c0.1,0,0.1,0,0.2-0.1c0.7-2,1.4-4.1,2-6.1
		C346.3-193.1,346.5-193.4,346.2-193.6z"/>
	<path class="st4" d="M335.7-193.4c-1.3,0-2.6,0-3.9,0c-0.3,2.6-0.6,5.2-0.9,7.8c1.3,0.2,2.6,0.3,4,0.3c0.5,0,1.1,0,1.6,0
		c-0.2-2.1-0.5-4.2-0.7-6.4C335.8-192.3,335.8-192.8,335.7-193.4z"/>
	<path class="st6" d="M338.4-195.9c-0.5-0.3-1.1-0.6-1.6-0.8c0,0,0,0,0,0c0,0,0,0,0,0c-0.4,1.1-0.7,2.2-1.1,3.3
		c0.2,0.2,0.3,0.5,0.3,0.8c0.2,2.4,0.5,4.8,0.8,7.1c0.6,0,1.1-0.1,1.7-0.1c0-3.4,0-6.8,0-10.2C338.4-195.8,338.4-195.9,338.4-195.9z
		"/>
	<path class="st6" d="M338.6-195.8L338.6-195.8c-0.1,0-0.1-0.1-0.2-0.1c0,0,0,0.1,0,0.1c0,3.4,0,6.8,0,10.2c0.1,0,0.1,0,0.2,0
		c0-0.1,0-0.2,0-0.3C338.6-189.2,338.6-192.5,338.6-195.8z"/>
	<path class="st6" d="M335.7-193.4C335.7-193.4,335.7-193.4,335.7-193.4c0.1,0.6,0.1,1.1,0.2,1.7c0.2,2.1,0.5,4.2,0.7,6.4
		c0.1,0,0.1,0,0.2,0c-0.2-2.4-0.5-4.8-0.8-7.1C336-192.9,335.9-193.2,335.7-193.4z"/>
	<path class="st6" d="M331.8-193.4c-0.4-1.1-0.7-2.2-1.1-3.2c-0.6,0.2-1.1,0.5-1.6,0.8c0,0,0,0.1,0,0.1c0,3.3,0,6.6,0,9.9
		c0.6,0.1,1.1,0.2,1.7,0.3c0.2-2.3,0.5-4.6,0.8-7C331.6-192.9,331.6-193.2,331.8-193.4z"/>
	<path class="st6" d="M329.1-195.8c0,0,0-0.1,0-0.1c-0.1,0-0.1,0.1-0.2,0.1c0,0.2,0,0.5,0,0.7c0,3,0,6.1,0,9.1c0.1,0,0.1,0,0.2,0
		C329.1-189.2,329.1-192.5,329.1-195.8z"/>
	<path class="st6" d="M331.8-193.4c-0.2,0.2-0.3,0.5-0.3,0.8c-0.2,2.3-0.5,4.6-0.8,7c0.1,0,0.1,0,0.2,0
		C331.3-188.2,331.5-190.8,331.8-193.4C331.8-193.4,331.8-193.4,331.8-193.4z"/>
	<path class="st2" d="M333.7-198.2C333.7-198.2,333.7-198.2,333.7-198.2c0.1,0,0.1,0,0.2,0c0.6-0.7,1.3-1.1,2-1.7
		c0.9-0.8,1.8-1.5,2.8-2.2c0-0.5,0-1,0-1.5c-1.5,1-3.2,1.5-5,1.5c-1.7,0-3.2-0.6-4.7-1.5c0,0.5,0,1,0,1.5c1.5,1.2,3,2.4,4.6,3.6
		C333.5-198.4,333.6-198.3,333.7-198.2z"/>
	<polygon class="st2" points="338.7,-202.1 338.7,-202.1 338.7,-202.1 	"/>
	<path class="st7" d="M329.8-203.3c2.7,1.4,5.4,1.4,8.1,0c0.2-0.1,0.4-0.3,0.7-0.2c0-0.6,0-1.3,0-1.9c0,0,0,0,0,0
		c-0.6,0.7-1.5,1-2.4,1.3c-2.4,0.7-4.6,0.4-6.8-0.8c-0.2-0.1-0.4-0.2-0.5-0.4l0,0c0,0.6,0,1.3,0,1.9v0v0
		C329.3-203.7,329.5-203.5,329.8-203.3z"/>
	<path class="st7" d="M329.4-205.1c2.1,1.2,4.4,1.5,6.8,0.8c0.9-0.3,1.8-0.5,2.4-1.3c-0.2,0.1-0.5,0.3-0.7,0.4
		c-1.6,0.9-3.4,1.2-5.2,1c-1.4-0.2-2.6-0.7-3.8-1.4l0,0l0,0C329-205.3,329.2-205.2,329.4-205.1z"/>
	<path class="st7" d="M338.6-203.6c-0.3-0.1-0.5,0.1-0.7,0.2c-2.7,1.4-5.4,1.4-8.1,0c-0.3-0.1-0.5-0.3-0.8-0.3v0
		c1.4,0.9,3,1.4,4.7,1.5C335.4-202.1,337.1-202.6,338.6-203.6z"/>
	<path class="st7" d="M332.7-213.8c0.7,0,1.5,0,2.2,0c0.5,0,0.8-0.4,0.9-0.9c0-0.5-0.3-0.9-0.9-1c-0.2,0-0.4,0-0.6,0
		c-0.4,0-0.5-0.1-0.5-0.5c0-0.4,0-0.9,0-1.3c0-0.7-0.4-1.1-1-1.1c-0.6,0-1,0.4-1,1.1c0,0.4,0,0.9,0,1.3c0,0.5,0,1,0,1.5
		C331.8-214.2,332.1-213.8,332.7-213.8z"/>
	<path class="st7" d="M335.7-211.8c-1.3,0-2.5,0-3.8,0c-0.6,0-1,0.4-1,1c0,0.6,0.4,0.9,1,1c0.6,0,1.3,0,1.9,0c0.6,0,1.3,0,1.9,0
		c0.7,0,1.1-0.4,1.1-1C336.7-211.5,336.3-211.8,335.7-211.8z"/>
	<path class="st3" d="M330.7-221.6C330.7-221.6,330.8-221.6,330.7-221.6c0.7,0,1.1-0.4,1.1-1c0-0.6-0.4-1-1-1c-0.9,0-1.9,0-2.8,0
		c-0.6,0-1,0.4-1,1c0,0.6,0.4,0.9,1,1c0.5,0,0.9,0,1.4,0C329.8-221.6,330.3-221.6,330.7-221.6z"/>
	<path class="st3" d="M336.7-221.6c0.5,0,0.9,0,1.4,0c0.5,0,1,0,1.5,0c0.6,0,1-0.4,1-0.9c0-0.6-0.4-1-1-1c-0.9,0-1.9,0-2.8,0
		c-0.6,0-1,0.4-1,1C335.7-222,336.1-221.6,336.7-221.6z"/>
	<path class="st8" d="M330.8-219.4c0-0.6-0.5-1.2-1.2-1.2c-0.6,0-1.2,0.5-1.2,1.2c0,0.7,0.5,1.3,1.2,1.3
		C330.3-218.2,330.8-218.7,330.8-219.4z"/>
	<path class="st8" d="M337.9-220.6c-0.7,0-1.2,0.5-1.2,1.2c0,0.7,0.5,1.2,1.2,1.2c0.7,0,1.2-0.5,1.2-1.2
		C339.1-220,338.6-220.6,337.9-220.6z"/>
	<polygon class="st9" points="328.9,-202.1 328.9,-202.1 328.9,-202.1 	"/>
	<path class="st9" d="M333.6-198.2c-1.5-1.1-2.9-2.3-4.4-3.5c-0.1-0.1-0.2-0.2-0.3-0.4c0.1,0.3,0.1,0.6,0.1,0.9c0,1.7,0,3.5,0,5.2
		c0.5-0.4,1-0.7,1.6-0.7C331.7-197.2,332.7-197.7,333.6-198.2z"/>
	<path class="st9" d="M328.9-202.1C328.9-202.1,328.9-202.1,328.9-202.1C328.9-202.1,328.9-202.1,328.9-202.1
		C328.9-202.1,328.9-202.1,328.9-202.1z"/>
	<polygon class="st9" points="328.9,-202.1 328.9,-202.1 328.9,-202.1 	"/>
	<path class="st9" d="M329.1-196c0-1.7,0-3.5,0-5.2c0-0.3,0-0.6-0.1-0.9c0,0,0-0.1-0.1-0.1c0,0,0,0,0,0c0,0,0,0,0,0
		c0,2.1,0,4.2,0,6.3C329-195.9,329-195.9,329.1-196z"/>
	<path class="st9" d="M330.7-196.7c-0.7,0-1.2,0.3-1.6,0.7c0,0,0,0,0,0.1C329.6-196.2,330.1-196.5,330.7-196.7L330.7-196.7
		C330.7-196.7,330.7-196.7,330.7-196.7z"/>
	<path class="st9" d="M328.9-195.8c0.1,0,0.1-0.1,0.2-0.1c0,0,0,0,0-0.1C329-195.9,329-195.9,328.9-195.8z"/>
	<polygon class="st9" points="328.9,-202.1 328.9,-202.1 328.9,-202.1 	"/>
	<path class="st9" d="M328.9-202.1C328.9-202.1,328.9-202,328.9-202.1C329-202,329-202,328.9-202.1c0.2,0.2,0.2,0.3,0.3,0.4
		c1.5,1.1,2.9,2.3,4.4,3.5c0,0,0,0,0,0h0c0,0,0,0,0,0c-0.1-0.1-0.1-0.2-0.2-0.3C331.9-199.7,330.4-200.9,328.9-202.1
		C328.9-202.1,328.9-202.1,328.9-202.1C328.9-202.1,328.9-202.1,328.9-202.1z"/>
	<path class="st9" d="M328.9-202.1C328.9-202.1,329-202,328.9-202.1C329-202,329-202,328.9-202.1C328.9-202,328.9-202.1,328.9-202.1
		z"/>
	<path class="st9" d="M338.6-202.1c-0.5,0.7-1.2,1.1-1.8,1.6c-1,0.8-1.9,1.6-3,2.4c1,0.5,1.9,1,2.9,1.5c0.7,0,1.2,0.3,1.7,0.7
		c0-1.7,0-3.4,0-5.1c0-0.3,0-0.6,0.1-0.9C338.5-202,338.6-202.1,338.6-202.1C338.7-202.1,338.7-202.1,338.6-202.1
		C338.7-202.1,338.7-202.1,338.6-202.1C338.7-202.1,338.6-202.1,338.6-202.1C338.6-202.1,338.6-202.1,338.6-202.1z"/>
	<polygon class="st9" points="338.7,-202.1 338.7,-202.1 338.6,-202.1 338.6,-202.1 	"/>
	<path class="st9" d="M338.5-201.9c-0.1,0.3-0.1,0.6-0.1,0.9c0,1.7,0,3.4,0,5.1c0.1,0.1,0.1,0.1,0.2,0.1v0c0-2.1,0-4.2,0-6.3
		c0,0,0,0,0,0C338.6-202.1,338.5-202,338.5-201.9z"/>
	<path class="st9" d="M336.8-196.7C336.8-196.7,336.8-196.7,336.8-196.7C336.8-196.7,336.8-196.7,336.8-196.7
		c0.6,0.2,1.1,0.5,1.7,0.8c0,0,0,0,0-0.1C338-196.4,337.4-196.7,336.8-196.7z"/>
	<path class="st9" d="M338.4-196C338.4-195.9,338.4-195.9,338.4-196c0.1,0.1,0.1,0.1,0.2,0.1l0,0v0
		C338.6-195.9,338.5-195.9,338.4-196z"/>
	<polygon class="st9" points="338.6,-202.1 338.7,-202.1 338.7,-202.1 338.6,-202.1 	"/>
	<path class="st9" d="M333.9-198.2C333.9-198.2,333.9-198.2,333.9-198.2c1.1-0.7,2-1.5,3-2.3c0.6-0.5,1.3-0.9,1.8-1.6c0,0,0,0,0,0
		c-0.9,0.7-1.9,1.5-2.8,2.2C335.2-199.4,334.4-198.9,333.9-198.2z"/>
	<path class="st5" d="M333.9-198.2c-0.1,0-0.2,0-0.2,0c0,0.1,0,0.1-0.1,0.1c-0.9,0.5-1.8,1.1-2.9,1.4c0,0,0,0,0,0
		c0.5,1,0.9,2.1,1.1,3.2c0,0,0,0,0,0c0.4-0.2,0.8-0.1,1.1-0.1c0.9,0,1.8-0.1,2.7,0.1c0,0,0-0.1,0-0.1c0.3-1.1,0.5-2.2,1.1-3.1
		c0,0,0,0,0,0C335.7-197.1,334.7-197.4,333.9-198.2C333.9-198.2,333.9-198.2,333.9-198.2z"/>
	<path class="st5" d="M333-193.6c-0.4,0-0.8-0.1-1.1,0.1c0,0,0,0,0,0c0,0,0,0,0,0.1c1.3,0,2.6,0,3.9,0c0,0,0-0.1,0-0.1
		C334.8-193.7,333.9-193.5,333-193.6z"/>
	<path class="st5" d="M336.7-196.7c-0.6,1-0.8,2.1-1.1,3.1c0,0,0,0.1,0,0.1c0,0,0,0,0,0c0,0,0,0,0,0
		C336.1-194.5,336.4-195.6,336.7-196.7C336.8-196.7,336.8-196.7,336.7-196.7C336.8-196.7,336.8-196.7,336.7-196.7
		C336.7-196.7,336.7-196.7,336.7-196.7z"/>
	<path class="st5" d="M335.6-193.4C335.7-193.4,335.7-193.4,335.6-193.4C335.7-193.4,335.7-193.4,335.6-193.4
		C335.7-193.4,335.7-193.4,335.6-193.4C335.7-193.4,335.7-193.4,335.6-193.4z"/>
	<path class="st5" d="M330.8-196.7C330.8-196.7,330.8-196.7,330.8-196.7C330.7-196.7,330.7-196.7,330.8-196.7L330.8-196.7
		c0.3,1.1,0.7,2.2,1,3.3c0,0,0,0,0,0C331.7-194.6,331.2-195.6,330.8-196.7z"/>
	<path class="st5" d="M331.8-193.4C331.8-193.4,331.8-193.4,331.8-193.4C331.8-193.4,331.8-193.4,331.8-193.4
		C331.8-193.4,331.8-193.4,331.8-193.4z"/>
	<path class="st5" d="M333.9-198.2C333.9-198.2,333.9-198.2,333.9-198.2C333.9-198.2,333.9-198.2,333.9-198.2c-0.1,0-0.2,0-0.2,0
		c0,0,0,0,0,0C333.7-198.1,333.8-198.1,333.9-198.2z"/>
	<path class="st5" d="M330.7-196.7c1-0.3,1.9-0.9,2.9-1.4c0,0,0.1-0.1,0.1-0.1c0,0,0,0,0,0c0,0,0,0,0,0
		C332.7-197.7,331.7-197.2,330.7-196.7C330.7-196.7,330.7-196.7,330.7-196.7z"/>
	<path class="st5" d="M330.7-196.7C330.7-196.7,330.7-196.7,330.7-196.7C330.7-196.7,330.7-196.7,330.7-196.7L330.7-196.7
		L330.7-196.7C330.7-196.7,330.7-196.7,330.7-196.7z"/>
	<path class="st5" d="M333.7-198.2C333.7-198.2,333.7-198.2,333.7-198.2L333.7-198.2C333.7-198.2,333.6-198.2,333.7-198.2
		C333.6-198.2,333.6-198.2,333.7-198.2C333.6-198.2,333.7-198.2,333.7-198.2z"/>
	<path class="st5" d="M336.7-196.7C336.8-196.7,336.8-196.7,336.7-196.7c-0.9-0.5-1.9-1-2.8-1.5c0,0,0,0,0,0
		C334.7-197.4,335.7-197.1,336.7-196.7z"/>
	<path class="st5" d="M336.7-196.7C336.8-196.7,336.8-196.7,336.7-196.7C336.8-196.7,336.8-196.7,336.7-196.7
		C336.8-196.7,336.8-196.7,336.7-196.7z"/>
	<path class="st5" d="M333.9-198.2C333.9-198.2,333.9-198.2,333.9-198.2C333.9-198.2,333.9-198.2,333.9-198.2
		C333.9-198.2,333.9-198.2,333.9-198.2z"/>
</g>
<path class="st10" d="M572.7,190.7H286.4c-6.6,0-12-5.4-12-12v-44.1c0-6.6,5.4-12,12-12h286.3c6.6,0,12,5.4,12,12v44.1
	C584.7,185.3,579.3,190.7,572.7,190.7z"/>
<g>
	<text transform="matrix(1 0 0 1 355.5414 168.1272)" class="st15" style="font-family:'Montserrat-Light'; font-size:31.1428px;">Recreation</text>
</g>
<path class="st11" d="M572.7,319.7H286.2c-6.6,0-12-5.4-12-12v-44.1c0-6.6,5.4-12,12-12h286.5c6.6,0,12,5.4,12,12v44.1
	C584.7,314.3,579.3,319.7,572.7,319.7z"/>
<text transform="matrix(1 0 0 1 358.5786 296.1184)" class="st15" style="font-family:'Montserrat-Light'; font-size:31.1428px;">Technology</text>
<circle class="st12" cx="278.4" cy="285.5" r="47.3"/>
<circle class="st13" cx="278.6" cy="155.2" r="47.3"/>
<circle class="st14" cx="278.6" cy="27.5" r="47.3"/>
<g>
	<path class="st15" d="M311,282.6c-1.6-0.4-3.3,0.3-4.1,1.7c-0.3,0.5-0.6,0.6-1.1,0.6c-2.2,0-4.4,0-6.6,0c-2.3,0-4.5,0-6.8,0
		c-0.5,0-0.7-0.1-0.7-0.7c0-1.2,0-2.4,0-3.6c0-0.5,0.1-0.6,0.6-0.6c1.2,0,2.5,0,3.7,0c0.5,0,0.8,0.1,1,0.6c0.9,1.7,2.9,2.3,4.6,1.5
		c1.7-0.8,2.6-2.7,2-4.5c-0.5-1.4-1.5-2.3-3-2.5c-1.5-0.2-3,0.5-3.7,1.9c-0.2,0.5-0.5,0.6-1,0.6c-1.3,0-2.5,0-3.8,0
		c-0.4,0-0.6-0.1-0.6-0.5c0-1,0-2,0-3c0-0.9-0.4-1.4-1.4-1.4c-1,0-2,0-3,0c-0.4,0-0.5-0.1-0.5-0.5c0-1.3,0-2.6,0-3.9
		c0-0.4,0.1-0.7,0.5-0.9c1.5-0.8,2.2-2.5,1.8-4.1c-0.5-1.7-1.9-2.8-3.6-2.7c-1.7,0-3.1,1.2-3.5,2.8c-0.4,1.6,0.4,3.2,1.9,4
		c0.4,0.2,0.5,0.4,0.5,0.9c0,1.3,0,2.5,0,3.8c0,0.6-0.2,0.7-0.7,0.6c-1.2,0-2.4,0-3.6,0c-0.5,0-0.6-0.1-0.6-0.6c0-4.5,0-9.1,0-13.6
		c0-0.5,0.2-0.6,0.5-0.9c1.5-0.8,2.2-2.5,1.8-4c-0.4-1.7-1.8-2.8-3.6-2.8c-1.7,0-3.1,1.1-3.5,2.8c-0.4,1.6,0.3,3.3,1.9,4.1
		c0.3,0.2,0.5,0.3,0.5,0.7c0,4.6,0,9.2,0,13.7c0,0.4-0.1,0.6-0.5,0.5c-1.3,0-2.5,0-3.8,0c-0.4,0-0.5-0.1-0.5-0.5c0-1.3,0-2.6,0-3.9
		c0-0.4,0.1-0.6,0.5-0.8c1.5-0.8,2.3-2.5,1.9-4c-0.4-1.7-1.8-2.8-3.5-2.8c-1.8,0-3.2,1.1-3.7,2.8c-0.4,1.6,0.3,3.3,1.9,4.1
		c0.3,0.2,0.5,0.3,0.5,0.7c0,1.3,0,2.7,0,4c0,0.5-0.2,0.5-0.6,0.5c-1,0-2,0-3,0c-0.9,0-1.3,0.4-1.3,1.4c0,1,0,2,0,3
		c0,0.4-0.1,0.6-0.5,0.6c-1.3,0-2.6,0-3.9,0c-0.4,0-0.6-0.1-0.8-0.5c-0.8-1.5-2.5-2.3-4.1-1.9c-1.7,0.4-2.8,1.8-2.8,3.6
		c0,1.7,1.1,3.1,2.8,3.5c1.6,0.4,3.2-0.3,4.1-1.9c0.1-0.3,0.2-0.5,0.7-0.5c1.4,0,2.8,0,4.2,0c0.4,0,0.5,0.1,0.5,0.5
		c0,1.3,0,2.5,0,3.8c0,0.5-0.2,0.6-0.6,0.6c-4.5,0-9,0-13.4,0c-0.5,0-0.7-0.1-1-0.6c-0.8-1.4-2.4-2.2-3.9-1.8
		c-1.6,0.4-2.9,1.8-2.9,3.4c-0.1,1.9,1,3.3,2.7,3.8c1.6,0.4,3.3-0.3,4.1-1.8c0.2-0.3,0.3-0.5,0.8-0.5c4.6,0,9.2,0,13.7,0
		c0.4,0,0.5,0.1,0.5,0.5c0,1.3,0,2.6,0,3.9c0,0.4-0.1,0.5-0.5,0.5c-1.3,0-2.6,0-3.9,0c-0.4,0-0.7-0.1-0.9-0.5
		c-0.8-1.5-2.5-2.3-4.1-1.8c-1.7,0.5-2.8,1.9-2.7,3.6c0,1.7,1.1,3.1,2.8,3.5c1.6,0.4,3.2-0.3,4-1.9c0.2-0.4,0.4-0.5,0.9-0.5
		c1.3,0,2.5,0,3.8,0c0.6,0,0.7,0.2,0.6,0.7c0,1,0,1.9,0,2.9c0,0.9,0.5,1.3,1.3,1.3c1,0,2,0,3,0c0.4,0,0.6,0.1,0.6,0.6
		c0,1.3,0,2.6,0,3.9c0,0.4-0.1,0.7-0.5,0.9c-1.7,0.9-2.4,2.8-1.7,4.5c0.6,1.5,2.1,2.4,3.8,2.3c1.5-0.1,2.9-1.3,3.2-2.9
		c0.3-1.5-0.4-3.2-1.8-3.9c-0.4-0.2-0.6-0.5-0.6-1c0-1.3,0-2.5,0-3.8c0-0.5,0.1-0.6,0.6-0.6c1.2,0,2.4,0,3.6,0
		c0.6,0,0.7,0.2,0.7,0.7c0,4.5,0,9,0,13.4c0,0.4-0.1,0.7-0.5,0.9c-1.5,0.8-2.2,2.4-1.9,4c0.4,1.7,1.8,2.9,3.5,2.9
		c1.8,0,3.2-1,3.7-2.8c0.4-1.6-0.3-3.3-1.8-4.1c-0.4-0.2-0.5-0.4-0.5-0.8c0-4.6,0-9.1,0-13.7c0-0.4,0.1-0.6,0.5-0.6
		c1.3,0,2.5,0,3.8,0c0.4,0,0.6,0.1,0.6,0.5c0,1.3,0,2.6,0,3.9c0,0.4-0.1,0.6-0.5,0.8c-1.5,0.8-2.3,2.5-1.9,4.1
		c0.5,1.7,1.9,2.8,3.6,2.8c1.7,0,3.1-1.1,3.5-2.8c0.4-1.6-0.3-3.2-1.9-4.1c-0.3-0.1-0.5-0.2-0.5-0.6c0-1.4,0-2.8,0-4.2
		c0-0.4,0.1-0.5,0.5-0.5c1,0,2,0,3,0c0.9,0,1.3-0.4,1.4-1.3c0-1,0-2,0-3c0-0.4,0.1-0.6,0.5-0.6c1.3,0,2.7,0,4,0
		c0.4,0,0.6,0.1,0.7,0.5c0.8,1.5,2.5,2.3,4.1,1.9c1.7-0.4,2.8-1.8,2.8-3.6c0-1.7-1.1-3.1-2.8-3.5c-1.6-0.4-3.3,0.3-4.1,1.9
		c-0.2,0.4-0.4,0.5-0.8,0.5c-1.3,0-2.6,0-3.9,0c-0.4,0-0.5-0.1-0.5-0.5c0-1.2,0-2.5,0-3.7c0-0.5,0.1-0.6,0.6-0.6c4.5,0,9.1,0,13.6,0
		c0.4,0,0.6,0.1,0.8,0.5c0.8,1.5,2.5,2.3,4,1.9c1.7-0.4,2.8-1.8,2.8-3.5C313.8,284.5,312.7,283.1,311,282.6z M300.4,277.6
		c0.6,0,1.2,0.6,1.2,1.2c0,0.6-0.6,1.2-1.2,1.2c-0.6,0-1.2-0.6-1.2-1.2C299.2,278.2,299.8,277.6,300.4,277.6z M256.7,280
		c-0.6,0-1.2-0.6-1.2-1.2c0-0.6,0.6-1.2,1.2-1.2c0.6,0,1.2,0.6,1.2,1.2C257.9,279.4,257.3,280,256.7,280z M246.9,287.3
		c-0.6,0-1.2-0.6-1.2-1.2c0-0.6,0.6-1.2,1.2-1.2c0.6,0,1.2,0.6,1.2,1.2C248.1,286.8,247.5,287.3,246.9,287.3z M256.7,294.6
		c-0.6,0-1.2-0.6-1.2-1.2c0-0.6,0.6-1.2,1.2-1.2c0.6,0,1.2,0.6,1.2,1.2C257.9,294,257.3,294.6,256.7,294.6z M284.6,264.3
		c0-0.6,0.5-1.2,1.2-1.2c0.6,0,1.2,0.5,1.2,1.2c0,0.6-0.5,1.2-1.2,1.2C285.3,265.5,284.6,264.9,284.6,264.3z M277.3,254.5
		c0-0.6,0.6-1.2,1.2-1.2c0.6,0,1.2,0.6,1.2,1.2c0,0.6-0.6,1.2-1.2,1.2C277.9,255.7,277.3,255.2,277.3,254.5z M270,264.3
		c0-0.6,0.6-1.2,1.2-1.2c0.6,0,1.2,0.6,1.2,1.2c0,0.6-0.6,1.2-1.2,1.2C270.6,265.5,270,264.9,270,264.3z M272.5,308
		c0,0.6-0.6,1.2-1.2,1.2c-0.6,0-1.2-0.6-1.2-1.2c0-0.6,0.6-1.2,1.2-1.2C271.9,306.8,272.5,307.4,272.5,308z M279.8,317.7
		c0,0.6-0.6,1.2-1.2,1.2c-0.6,0-1.2-0.6-1.2-1.2c0-0.6,0.6-1.2,1.2-1.2C279.1,316.5,279.7,317.1,279.8,317.7z M287,308
		c0,0.6-0.6,1.2-1.2,1.2c-0.6,0-1.2-0.6-1.2-1.2c0-0.6,0.6-1.2,1.2-1.2C286.4,306.8,287,307.4,287,308z M288.8,297.1
		c-3.4,0-6.9,0-10.3,0c-3.4,0-6.8,0-10.2,0c-0.6,0-0.7-0.1-0.7-0.7c0-6.8,0-13.7,0-20.5c0-0.6,0.1-0.7,0.7-0.7c6.8,0,13.7,0,20.5,0
		c0.6,0,0.7,0.1,0.7,0.7c0,6.8,0,13.7,0,20.5C289.5,296.9,289.4,297.1,288.8,297.1z M300.4,292.2c0.6,0,1.2,0.6,1.2,1.2
		c0,0.6-0.6,1.2-1.2,1.2c-0.6,0-1.2-0.6-1.2-1.2C299.2,292.8,299.8,292.2,300.4,292.2z M310.2,287.3c-0.6,0-1.2-0.6-1.2-1.2
		c0-0.6,0.6-1.2,1.2-1.2c0.6,0,1.2,0.6,1.2,1.2C311.4,286.7,310.8,287.3,310.2,287.3z"/>
</g>
<rect x="258.9" y="-115.9" style="fill:none;" width="318.9" height="56"/>
<text transform="matrix(1 0 0 1 258.9028 -99.8874)" style="font-family:'Montserrat-Light'; font-size:21.5604px;">Subjects available to interact:</text>
<g>
	<path d="M16,25.8c-0.8,0.8-1.6,1.5-2.4,2.3c-0.1-0.1-0.2-0.2-0.3-0.3c-4-4-8-8-12.1-12.1c-1-1-1-1.8,0-2.8c4-4,8.1-8.1,12.1-12.1
		c0.1-0.1,0.2-0.2,0.3-0.3c0.8,0.8,1.5,1.5,2.2,2.2C12,6.5,8.2,10.4,4.4,14.2C8.2,18.1,12.1,21.9,16,25.8z"/>
</g>
</svg>
