<?xml version="1.0" encoding="utf-8"?>
<!-- Generator: Adobe Illustrator 22.1.0, SVG Export Plug-In . SVG Version: 6.00 Build 0)  -->
<svg version="1.1" id="Layer_1" xmlns="http://www.w3.org/2000/svg" xmlns:xlink="http://www.w3.org/1999/xlink" x="0px" y="0px"
	 viewBox="0 0 345.1 269.8" style="enable-background:new 0 0 345.1 269.8;" xml:space="preserve">
<style type="text/css">
	.st0{fill:#C6222F;}
	.st1{fill:#EB353B;}
	.st2{fill:#BE1E2D;}
	.st3{fill:#FFFFFF;}
	.st4{fill:#D1D3D4;}
	.st5{fill:none;stroke:#000000;stroke-miterlimit:10;}
	.st6{fill:none;}
</style>
<g>
	<g>
		<path class="st0" d="M76.7,128.1c0,0,20,2.2,27.7,19.2c0,0-11.4,9.4-11.9,15.5c0,0-17.5,1.3-15.9,17.3c0,0,2.8,7.4,13.8,14.4
			c11,7,22.9,16.3,23.3,17.8s5.3,5.4,5.9,12.1c0.5,6.6,17.8,9.3,17.8,9.3s13.8,4.9,16.2-1.5c0,0,4.9,0,7.3,0.2
			c2.4,0.2,6.1-2.7,2.2-13.6c0,0-1.5-10.7-7.4-10.2l-7.5,3.3l-3.4-1.3c0,0-1-6.9-6-8.6c-5-1.6-17.6-15-17.6-15l6.4-0.5
			c0,0,29.4,13.8,76.7,6.8c0,0,27.5,28.1,53.7,28.6c0,0,4.4,7.6,24.6,17c0,0,16.1,9.4,18.6,21.1c0,0,3.2,9.7,31.7,8.9
			c0,0,1.8-1,2-3.1v-1.4l-90.8-94l-120.3-60.3l-43.2-3.5L76.7,128.1z"/>
	</g>
	<g>
		<path class="st1" d="M82.4,113.8c13.3,1.3,22.7,12.6,22.7,12.6l-12-2c12.4,3.7,22.3,20.1,22.3,20.1c3.8-2.5,14.8-3.9,14.8-3.9
			c-18.3,5.7-24.8,19.6-24.8,19.6s20.1,1.9,19.2,1.9s-10.2,0.3-10.2,0.3c-34.6,3.2-24.6,17.9-24.6,17.9l6.9,1.5c0,0-0.1,1.7-2.5,1.2
			c-2.4-0.5-2.2,0.5-3.1,1.3C90.2,185,115,200,115,200c9.2,4.4,13.7,11.4,17.7,20c4,8.6,13,7.3,13,7.3l-0.1-0.8l0.6-0.2l0.2,1.3
			l15.6,2c-0.8-14-5.6-18.3-5.6-18.3l-7.6,3l-2,7.2l-0.1-6.8c0,0-1.4-1-2.2-1c-0.8,0-0.7,3.1-0.7,3.1s0.1-1.4-1.8-6.8
			s-5.9-6.9-9.4-8.6s-16.9-16.6-16.9-16.6l-6.3-1.6c0,0-0.3-1,27.6-1.7c27.9-0.7,22.5-10.3,22.5-10.3c-3.8-4.7-2.2-9-2.2-9
			c-0.3,3.8,7.3,9.9,7.6,11.8c0.3,1.9-2.6,5.7-2.6,5.7s12.6,5.4,18.4,2.8s36.5,0,36.5,0l-3.9-13.7c20.8,47.5,65,47.6,65,47.6
			l-6.2,0.7l29.2,20.7c9.4,4.7,13,16.2,14.5,19.8c1.5,3.6,10.2,4,10.2,4l1.2-2.3l0.9,2.8c5.2,4.1,14.8,1.4,14.8,1.4
			c3.2-3.7-1.4-17.1-4.3-19.4s-8.9,2.9-8.9,2.9s-3.9,1.1-5.4-4.3c-1.5-5.3-9.8-9.9-12.4-11.3s-7.9-9.7-7.9-9.7l-1.9,2.5l0.4-2.5
			c1.9-8.9-4.2-12.5-4.2-12.5c-19.6-13.2-17-20.2-17-20.2c3.6-19.6,3.3-42.1-16.1-54.1s-46.8-5.7-46.8-5.7
			c-11.9-7.1-31.6-11.8-31.6-11.8c-10.7-21.4-45.1-14-45.1-14C108.5,75.8,66.8,86,66.8,86c-0.7-3.3-1.6-4-1.6-4
			c-10.8-8.2-22,2.8-22,2.8h-1.5C25.5,95.5,29.9,117,29.9,117l-10.2,18.5c0,0-2.3,4.5-2.3,6.2s2.6,3.1,2.9,6.2s2.5,5.9,2.5,5.9
			c4.7,1.9,9.6-3.7,9.6-3.7l0.8-1.1l0.7,3c0,0,10.2,0.9,12.1-3.7c0,0,0.3-7,3.7-8.4l13-7.4c0,0,9.5-2.5,12.5-3.7
			C79.1,127.3,82.1,123.6,82.4,113.8z"/>
	</g>
	<g>
		<path class="st1" d="M280.7,104.8c0,0,2.1-0.5-0.5-13.2s5-17.6,5-17.6l-5.5-2.1L297,61.5l-3.6,17.4l-4.3-2.8
			c0,0-6.3,11.7,11.8,36.9c0,0-6.7-7.3-12-6.4L280.7,104.8z"/>
	</g>
	<g>
		<path class="st1" d="M179,85.1c-0.7-0.6-1.3-1.2-1.9-1.9c-7.8,11.3-25.3,13.3-25.3,13.3c13-5.6,10.5-14,10.5-14
			c-28.6,11.8-40.3-7-40.3-7c0.2-9,20.8-0.8,20.8-0.8c-25.3-27.7-54.8-8.6-54.8-8.6c7.3-9.3,5.5-17.7,5.5-17.7
			c-3,6.8-16.3,14.3-16.3,14.3c-15.3,1.1-24.2,13-24.2,13c-0.2-4.2-6.1-14-6.1-14c1.6,9.3-4.1,19.6-4.1,19.6
			c-2.6-7.3-10.7-12.7-9.2-11.5c1.4,1.2,4.9,15.4,2.1,11.1c-2.8-4.3-9.9-8.5-6.9-4.9c2.9,3.5,4.1,18.7,2.7,14.1
			c-1.3-4.7-13.5-11-8.6-7.2c4.9,3.8,7.2,22.5,7.2,22.5L37.2,92c8.1-5.9,15.9-5.8,24.9-6.1c25.4-0.6,51.4,12.9,51.4,12.9
			c35.1,20.4,49.4,6.1,49.4,6.1c11.6-4.3,16.4-11.4,18.2-18C180.4,86.4,179.7,85.7,179,85.1z"/>
	</g>
	<g>
		<path class="st0" d="M163.7,98.8c0.4-3.6-16.1,6.3-23.5,2.2c0,0,5-4.5,6.2-8.2c0,0-17.2,7.9-38.7,0.6c0,0,11.9,7.3,20.6,6
			l-3.2,1.4l8.7,1.4l-4.4,1.2c0,0,11.5,4,21.4,1.1S163.7,99.3,163.7,98.8z"/>
	</g>
	<g>
		<path class="st0" d="M131.3,89.4c0,0-28.2-3.7-19.2-15.8c0,0,6.2-5.2,12.8-6.7c0,0-20.4-7.9-42.8,9.2c0,0-10.5,5.4-11.4,5.3
			l5.2,0.2c0,0,11.8-3.5,19.5-7.1c0,0,6.1-3.3,10.4-2.2c0,0-15.1,2.9-14.6,8.2c0,0,2.1,2,7.7-0.5c0,0-1.6,4-5.3,4.4
			c0,0,1.6,1.5,5.9,1c4.3-0.5,9.3-0.9,11.8,1.4c0,0-6.6-0.6-8.2,1.5C103.2,88.3,116.7,95.6,131.3,89.4z"/>
	</g>
	<g>
		<path class="st0" d="M89.8,56.7c0,0-8.4,19-24.8,24.7l-1.8-0.2c0,0,12.9-8.7,13-9.9c0,0-18.4,8.3-20.2,11.2c0,0,0-1.1,0.8-2.2
			c0.8-1-5,3.2-5,3.2l-2-2.9l-0.8,3.7l-7.5,3.9l-5.1,1.2l-2.1,3.9l-3,2.6l-0.8,4.4l-0.8-3.4l-1.9-7.9l3.6,5.2c0,0,3.1-10.1,1.2-12.8
			c0,0,3.3,4.5,4.6,6.1c0,0,3.1-3.8,2.9-5.4l0.5-0.6l2.9,3.4l1-1.5c0,0,4.8-7.4,4-8.6c0,0,3.1,3.4,3.4,7.5c0,0,6.7-7.9,15.4-10.5
			S85.4,64.3,89.8,56.7z"/>
	</g>
	<g>
		<path class="st1" d="M28.4,123.8c0,0-6.4,3.6-13.5,0.2c-2.7-1.3-4.9-4-7.8-7.6c-2.7-3.4-2.7-6.3-4.4-9.1c-1.6-2.7-3,4.9,1.4,13
			c4.5,8.1,13.9,16.5,13.9,16.5s2.7,2.9,1,6.2S28.4,123.8,28.4,123.8z"/>
	</g>
	<g>
		<path class="st2" d="M33.6,116.9c0,0,4.6-1.7,4.3-3.7c-0.2-2.1-1.6-10,5.5-10.3c0,0,1.5,0.5,2.3,1.2c0,0-3.3,0.5-2.2,2.2
			c1,1.7,4-1.9,4-1.9l-1.1,2.9c0,0-5.3,2.9-5.4,3s-0.9,4.4-0.9,4.4l-2.4,1.9L36,117h-1.5L33.6,116.9z"/>
	</g>
	<g>
		<path class="st0" d="M33.6,116.9c1.7-0.2,3.4-0.6,4.4-1.6c0.5-0.5,0.8-1.1,0.8-1.9c0.1-0.7,0-1.5-0.1-2.2l-0.2-1.3
			c0-0.5,0-0.9,0-1.4c0.1-0.9,0.4-1.9,1-2.7c0.6-0.8,1.4-1.4,2.3-1.7c0.9-0.3,1.8-0.3,2.7-0.2c-1.7,0.4-3.2,1.3-3.8,2.6
			c-0.3,0.7-0.4,1.4-0.5,2.1c0,0.4,0,0.8,0.1,1.1l0.2,1.2c0,0.5,0.1,0.9,0.1,1.4c0,0.5,0,1-0.1,1.4c-0.2,1-0.7,2-1.5,2.6
			c-0.8,0.6-1.8,0.9-2.7,1C35.3,117.3,34.4,117.2,33.6,116.9z"/>
	</g>
	<g>
		<path class="st3" d="M40.5,110.8c0,0,2.1-2.2,4.5-2.8c2.4-0.6,2.5-2.8,2.5-2.8s-3.6,10.3-7.6,9.7C39.9,115,39.7,111.6,40.5,110.8z
			"/>
		<path class="st2" d="M40.3,115.5c-0.1,0-0.3,0-0.4,0l-0.3-0.1l0-0.4c0-0.6-0.2-3.6,0.7-4.5c0.2-0.2,2.3-2.3,4.7-2.9
			c0.8-0.2,1.2-0.5,1.6-0.9c0.2-0.6,0.4-1.1,0.6-1.5l0.9-2.7l-0.1,2.8c0,0.5-0.2,1.2-0.7,1.8C46,110,43.4,115.5,40.3,115.5z
			 M45.8,108.2c-0.2,0.1-0.4,0.2-0.7,0.2c-2.2,0.5-4.3,2.7-4.3,2.7l0,0c-0.4,0.4-0.5,2.1-0.5,3.4C42.3,114.5,44.4,111.1,45.8,108.2z
			"/>
	</g>
	<g>
		<path class="st0" d="M23.4,142.8c0,0,4.7-3.9,4.9,1.5c0,0-1.5,5.4-4.6,5.4c0,0,1.2-0.7,0.3-2.5C23.2,145.4,23.4,142.8,23.4,142.8z
			"/>
	</g>
	<g>
		<path class="st0" d="M24.1,139.5c0.5-0.5,1.1-0.8,1.8-1c0.7-0.2,1.5-0.2,2.2,0.1c0.7,0.3,1.3,0.9,1.5,1.6c0.1,0.3,0.2,0.7,0.3,1
			c0,0.3,0,0.7,0,1c-0.2-0.3-0.3-0.6-0.4-0.9c-0.2-0.3-0.3-0.6-0.5-0.8c-0.3-0.5-0.7-0.9-1.2-1.1c-0.5-0.2-1.1-0.3-1.7-0.2
			C25.4,139.2,24.8,139.3,24.1,139.5z"/>
	</g>
	<g>
		<path class="st0" d="M39.1,127.6c1.2-0.1,2.5,0,3.7,0.3c1.2,0.3,2.4,0.9,3.4,1.7c0.5,0.4,0.9,0.9,1.3,1.4c0.4,0.5,0.7,1.1,0.9,1.7
			c0.2,0.6,0.4,1.2,0.5,1.9c0,0.3-0.1,0.7-0.4,0.9c-0.3,0.2-0.6,0.3-0.9,0.2c0.3,0,0.6-0.2,0.7-0.4c0.1-0.2,0.1-0.5,0.1-0.8
			c-0.1-0.5-0.4-1.1-0.6-1.6c-0.6-1.1-1.2-2-2.1-2.7c-0.9-0.7-1.9-1.3-3-1.7C41.4,128.2,40.3,127.9,39.1,127.6z"/>
	</g>
	<g>
		<path class="st3" d="M33.3,148.3c0,0-1.1-15.9,4.6-17.8c5.7-1.9,8.6,3.8,8.5,5.2C46.3,137.2,45.5,141.2,33.3,148.3z"/>
		<path class="st0" d="M32.9,149l0-0.7c0-0.7-1-16.3,4.9-18.2c2.9-1,5,0,6.2,0.9c1.9,1.4,2.9,3.7,2.9,4.8c-0.2,3.6-4.7,8-13.3,12.9
			L32.9,149z M40.1,130.5c-0.7,0-1.4,0.1-2.1,0.4c-4.6,1.5-4.4,13.6-4.3,16.7c5.6-3.3,12-7.9,12.2-11.9c0-0.7-0.8-2.7-2.5-4
			C42.4,130.9,41.3,130.5,40.1,130.5z"/>
	</g>
	<g>
		<path class="st4" d="M36.9,140.5l1.9-3.1l-0.1-2.2l2.5-1c0,0-1-3.6-1.9-3.6c-0.5,0,1.5-0.7,3.6,0.8c1.1,0.8,2.5,2,3.1,4.5
			c0,0-1.1,4.7-9.3,9.6c0,0,8.7-7,8.1-10.5l-3.8,2l-0.5,2.5L36.9,140.5z"/>
	</g>
	<g>
		<path class="st2" d="M41.2,130.7c0.9,1.5,1.6,3,2.2,4.5l0.2,0.4l-0.5,0.1c-1,0.3-2,0.6-3.1,0.9l0.3-0.4c0,0.8-0.1,1.6-0.1,2.5
			l0,0.2l-0.1,0.1c-0.7,0.3-1.4,0.6-2.1,0.9c0.6-0.5,1.2-0.9,1.8-1.3l-0.1,0.2c-0.1-0.8-0.1-1.6-0.1-2.5l0-0.3l0.3-0.1
			c1-0.3,2-0.6,3.1-0.9l-0.3,0.6C42,133.9,41.5,132.3,41.2,130.7z"/>
	</g>
	<g>
		<path class="st0" d="M54.9,128.6c0,0,4.2-3.4,4.5-5.9c0,0-0.2,2,0.1,2c0.3,0,4.2-4.6,4-6.5c0,0,0.5-0.1,0.9,1.4c0,0,1.6-2.1,1.2-8
			c0,0,0.6-0.2,1.5,2.2c0,0,0.4-5.8-1.7-7.9c0,0,2.9-0.1,4.7,3.2l-1.3-0.7c0,0,2.4,4,2.5,6.1l-1.5-1.7c0,0,0.7,6.2-1.7,7.8
			c0,0,0.4-0.6-0.2-2.3c0,0-2.8,6-5.8,7.7c0,0,1.4-2,1.2-2.6C63.4,123.3,58.4,128,54.9,128.6z"/>
	</g>
	<g>
		<path class="st5" d="M54,132.7"/>
	</g>
	<g>
		<path class="st0" d="M54.8,132.7c3.7-1.1,7.4-2.1,10.9-3.4c3.5-1.3,6.9-2.8,9.6-5c1.3-1.1,2.5-2.3,3.2-3.7c0.8-1.4,1.1-3,1.1-4.7
			c0-0.4-0.1-0.9-0.1-1.3l-0.1-0.7l-0.1-0.7c-0.1-0.4-0.2-0.9-0.3-1.3l-0.4-1.3c-0.2-0.9-0.7-1.7-1-2.7c-0.4-0.9-0.8-1.7-1.1-2.7
			c0.7,0.7,1.3,1.4,2,2.2c0.3,0.4,0.6,0.8,0.9,1.2c0.3,0.4,0.6,0.8,0.8,1.2c1,1.7,1.8,3.6,2.1,5.7c0.3,2.1,0.1,4.4-0.9,6.4
			c-0.9,2-2.4,3.7-4,5c-3.3,2.6-7.2,4-11,4.9C62.6,132.8,58.7,133.1,54.8,132.7z"/>
	</g>
	<g>
		<path class="st0" d="M174.2,155.5c2.1,2.1,3.6,4.7,4.7,7.5c1.1,2.8,1.7,5.8,1.5,9c-0.3,3.1-1.5,6.3-3.7,8.6
			c-1.1,1.1-2.3,2.1-3.7,2.7c-1.3,0.7-2.8,1.1-4.2,1.4c2.3-1.8,4.4-3.7,5.8-5.9c1.4-2.2,2.2-4.6,2.4-7.1c0.2-2.6-0.1-5.2-0.6-7.9
			C175.8,161,175,158.3,174.2,155.5z"/>
	</g>
	<g>
		<path class="st0" d="M187.5,155.5c2.1,2.1,3.6,4.7,4.7,7.5c1.1,2.8,1.7,5.8,1.5,9c-0.3,3.1-1.5,6.3-3.7,8.6
			c-1.1,1.1-2.3,2.1-3.7,2.7c-1.3,0.7-2.8,1.1-4.2,1.4c2.3-1.8,4.4-3.7,5.8-5.9c1.4-2.2,2.2-4.6,2.4-7.1c0.2-2.6-0.1-5.2-0.6-7.9
			C189.1,161,188.3,158.3,187.5,155.5z"/>
	</g>
	<g>
		<path class="st1" d="M147.7,122l1.6-14.5l10.7-8.8l15.2-14.6l11.1-14.3l6.1-11.4l4.6-9.4l3.8-11.1l2.3-11.6c0,0,16.3-0.9,21.7-1.6
			c6.7-0.9,27.7-9.5,27.7-9.5l34.3-13.3c0,0-16.4,23.5-19.4,32.5c-1.5,4.5-2.2,19-2.2,19l1.6,10.7l-6.8,8.8l-7.3,13.9l-4.4,12.8
			l-2.4,11.2c0,0-4.5,1.5-5,1.5c-0.5,0-8.3,4.8-8.3,4.8l-7.5,7.2c0,0-8.5,11.4-8.9,12.2c-0.5,0.8-5.5,9.6-5.5,9.6l-2.7,2.8l-9.7,0.9
			l-8.2,2.8l-11.3-4.3l-10,6l3.5,16.2l-5.4-2.8l-8.6-11.6l-12.3,12.7l-12.2,8L147.7,122z"/>
	</g>
	<g>
		<path class="st0" d="M286.9,1.9l-20.2,15.6l-20.8,14.1l-16,9.4c0,0-14.3,6.2,6.3,11.6s26.7,7.6,28.8,10c2.1,2.4-51-13.2-46.9,8.7
			l25.5,35c0,0-25.6-22.5-37.5-17c-6.1,2.8-3,21.3,0.3,37.3c0,0-10.8-27.4-20.4-29.5c-5.5-1.2-11.6,11.9-12.3,27.9
			c0,0,3.7-30.2-18-22.1c-3,1.1-12.2,2-12.2,2s5.8,0.6,12-3.4c7.2-4.6,15.2-11.9,16.8-13.6c3-3.1,11.1-13.8,11.1-13.8l8.2-13.3
			l5-10.6l4.1-11.1c0,0,1.5-11.8,2.5-12.9c3.2-3.5,30.4-6.7,40.6-9c4.6-1.1,18.2-5.7,18.2-5.7L286.9,1.9z"/>
	</g>
	<g>
		<path class="st6" d="M156.1,119.2c0,0-0.3-11.9,1.5-13.8c1.8-1.9,31-19.5,39.7-62.2c0,0,19.2-6.9,27.4-4.2c0,0,13.1-2.3,28.2-13.9
			c0.6-0.4,1.1-0.9,1.7-1.3c0,0-9.1,30.5-3.4,41.8c0,0-12.4,13.7-14.9,39c0,0-14,0.5-27.7,31.7c0,0-28.7,3.7-29.8,22.4
			c0,0-8.3-16.2-32.2,6.1"/>
	</g>
	<g>
		<path class="st0" d="M327.6,246.7l0.3,5l1.8-4.9c0,0-0.8,0.1-1.1,0.1C328.4,246.9,327.6,246.7,327.6,246.7z"/>
	</g>
	<g>
		<path class="st1" d="M58.5,86.2c0,0-0.4-11-27.9-10.8c0,0-2.8,3.5,15.3,16.8"/>
	</g>
	<g>
		<path class="st0" d="M52.5,87.2c0.3-0.2-2.8,2.2-8.4-4.7c0,0-4.5-3.6-8.4-3.3l5.9,6.2C41.7,85.4,47.7,91.2,52.5,87.2z"/>
	</g>
	<g>
		<g>
			<path class="st6" d="M270.4,120.8c0,0,0.1-0.1,0.2-0.2C270.6,120.7,270.5,120.8,270.4,120.8z"/>
		</g>
		<g>
			<path class="st6" d="M271,120.3C271,120.3,271,120.3,271,120.3C271,120.3,271,120.3,271,120.3z"/>
		</g>
		<g>
			<polygon class="st1" points="279.1,121.4 279.1,121.4 279.1,121.4 			"/>
		</g>
		<g>
			<path class="st1" d="M279.1,124.2C279.1,124.3,279.1,124.3,279.1,124.2L279.1,124.2L279.1,124.2z"/>
		</g>
		<g>
			<path class="st1" d="M284.8,100.4c0,0-36.8-6.9-35.6,43.7l17.8-7.8c0,0-0.5-10.8,3.4-15.3c0,0,0,0,0,0s0,0,0.1-0.1
				c0.1-0.1,0.1-0.1,0.2-0.2c0.1-0.1,0.2-0.2,0.3-0.3c0,0,0,0,0,0c1.7-1.6,6.5-5.4,10.4-1.9c4.9,4.4-5.5,14.5-5.5,14.5l-3.5,1.8l0,0
				c-2.2,2.4-4,4.2-4,4.2l14.2,33.6C282.6,172.4,336.2,121.3,284.8,100.4z"/>
		</g>
		<g>
			<path class="st0" d="M270.4,120.9C270.4,120.9,270.4,120.9,270.4,120.9C270.4,120.9,270.4,120.9,270.4,120.9
				C270.4,120.9,270.4,120.9,270.4,120.9z"/>
		</g>
		<g>
			<path class="st0" d="M270.6,120.6c0.1-0.1,0.2-0.2,0.3-0.3C270.8,120.4,270.7,120.6,270.6,120.6z"/>
		</g>
	</g>
	<g>
		<path class="st0" d="M250.1,129.1c1.5,0.1,3.1,0.4,4.6,0.8c1.5,0.4,3,0.9,4.4,1.5c1.4,0.6,2.8,1.3,4.1,2.1
			c1.3,0.8,2.6,1.7,3.7,2.7c-1.4-0.7-2.7-1.5-4.1-2.1c-1.4-0.7-2.7-1.3-4.2-1.9c-1.4-0.6-2.8-1.1-4.3-1.7
			C253.1,130,251.6,129.5,250.1,129.1z"/>
	</g>
	<g>
		<path class="st0" d="M281.4,100.2c1.5,0,3,0.2,4.4,0.6c1.4,0.4,2.8,0.9,4.2,1.5c2.7,1.4,5,3.2,7.2,5.2c-1.3-0.7-2.6-1.5-3.8-2.3
			c-1.3-0.8-2.5-1.5-3.8-2.2c-1.3-0.6-2.7-1.2-4-1.7C284.3,101,282.9,100.6,281.4,100.2z"/>
	</g>
	<g>
		<path class="st0" d="M274.2,134.9c3.2-2.2,12.2-12.1,7.3-16.5c-3.9-3.6-8.7,0.2-10.4,1.9c1.3-1.1,3-1.6,5.2-1
			c1.6,0.4,2.5,1.2,2.9,2.2l0,0v0c0.3,0.8,0.3,1.8,0,2.8l0,0l0,0c-0.8,3.3-4,7.4-6.7,10.4l-3.3,3.5
			C269.1,138.2,273.4,135.5,274.2,134.9z"/>
	</g>
</g>
</svg>
