<?xml version="1.0" encoding="utf-8"?>
<!-- Generator: Adobe Illustrator 22.1.0, SVG Export Plug-In . SVG Version: 6.00 Build 0)  -->
<svg version="1.1" id="Layer_1" xmlns="http://www.w3.org/2000/svg" xmlns:xlink="http://www.w3.org/1999/xlink" x="0px" y="0px"
	 viewBox="0 0 37.6 37.4" style="enable-background:new 0 0 37.6 37.4;" xml:space="preserve">
<style type="text/css">
	.st0{fill:#EB353B;}
	.st1{fill:#CF1F3C;}
	.st2{fill:#FCC9A6;}
	.st3{fill:#543213;}
	.st4{fill:#076DA2;}
	.st5{fill:#2F92D0;}
	.st6{fill:#CACACA;}
	.st7{fill:#E6AF88;}
	.st8{fill:#553213;}
	.st9{fill:#EAEAEA;}
	.st10{fill:#3BC3E3;}
	.st11{fill:#8DC63F;}
	.st12{fill:#8DC63F;stroke:#F6E6DB;stroke-miterlimit:10;}
	.st13{fill:#3BC3E3;stroke:#F6E6DB;stroke-miterlimit:10;}
	.st14{fill:#EB353B;stroke:#F6E6DB;stroke-miterlimit:10;}
	.st15{fill:#FFFFFF;}
	.st16{fill:#010101;}
</style>
<path class="st0" d="M584.7,66.2H298.4c-6.6,0-12-5.4-12-12V10.1c0-6.6,5.4-12,12-12h286.2c6.6,0,12,5.4,12,12v44.1
	C596.7,60.8,591.3,66.2,584.7,66.2z"/>
<g>
	<text transform="matrix(1 0 0 1 368.2504 42.8118)" class="st15" style="font-family:'Montserrat-Light'; font-size:31.1428px;">University</text>
</g>
<text transform="matrix(1 0 0 1 395.3559 -197.5056)" style="font-family:'Montserrat-Light'; font-size:16.7692px;">Daniel Lorem Ipsum</text>
<text transform="matrix(1 0 0 1 395.3559 -217.5906)" style="font-family:'Montserrat-Light'; font-size:16.7692px;">Welcome,</text>
<g>
	<path class="st1" d="M340.7-197.5C340.7-197.5,340.8-197.6,340.7-197.5C340.8-197.6,340.8-197.6,340.7-197.5
		c0.1-0.1,0.1-0.1,0.1-0.1c0-0.5,0-1,0-1.5v0c0-0.6,0-1.3,0-1.9c-2.6-1.8-3.6-4.6-4.3-7.5c-0.2-0.7-0.3-1.5-0.4-2.2
		c0-0.4-0.2-0.5-0.6-0.5c-0.6,0-1.1,0.1-1.7-0.1c-1.1-0.3-1.8-1.3-1.9-2.4c0-0.3,0-0.7,0-1c-0.1-1.1,0.1-2.1,1-2.9c0,0,0,0,0,0
		c0,0,0,0,0,0c-0.2-1.7-0.4-3.3-0.7-5c-0.5-3.2,1.8-6,5-6.2c0.3,0,0.5,0,0.7-0.4c1.4-2.4,3.4-3.9,6.1-4.6c1.7-0.4,3.4-0.8,5.2-0.6
		c2.3,0.3,4.3,1.2,5.9,2.7c2.6,2.5,4,5.5,3.9,9.2c-0.1,1.6-0.6,3.1-1,4.6c1.5,1.3,1.2,3,1,4.7c-0.2,1-1.2,1.7-2.3,1.8
		c-0.5,0-1.1-0.2-1.5,0.2c-0.3,0.3-0.2,1-0.3,1.5c-0.4,2-0.9,3.9-1.9,5.7c-0.6,1.2-1.6,2.1-2.6,2.9l0,0c0,0,0,0,0,0
		c0,0.6,0,1.3,0,1.9c0,0.5,0,1,0,1.5c0,0,0,0,0,0v0c0,0,0,0,0,0l0,0c0,0,0,0,0,0c0,0,0.1,0.1,0.1,0.1c0,0,0,0,0,0
		c0.7,0.3,1.5,0.7,2.2,1.1c4.9,2.4,9.8,5,14.7,7.3c0.1,0,0.1,0.1,0.2,0.1c6-5.6,9.7-13.5,9.7-22.4c0-16.9-13.7-30.6-30.6-30.6
		s-30.6,13.7-30.6,30.6c0,8.5,3.4,16.1,9,21.6c5.1-2.6,10.2-5.1,15.3-7.7C340.6-197.5,340.7-197.5,340.7-197.5z"/>
	<path class="st2" d="M344.6-199.6c1.9,0.2,3.6-0.1,5.2-1c0.2-0.1,0.5-0.3,0.7-0.4l0,0c1-0.8,2-1.7,2.6-2.9c1-1.8,1.5-3.7,1.9-5.7
		c0.1-0.5,0-1.1,0.3-1.5c0.4-0.4,1-0.1,1.5-0.2c1.1-0.1,2.2-0.8,2.3-1.8c0.3-1.6,0.6-3.4-1-4.7c-0.7-0.3-1.5-0.4-2.3-0.4
		c-0.4,0-0.5-0.1-0.5-0.5c0-0.6,0-1.3,0-1.9c0-0.4-0.1-0.5-0.5-0.5c-1.4,0-2.8,0-4.1,0c-4.4,0-8.3-1.5-11.5-4.6
		c-0.4-0.4-0.5-0.3-0.8,0.1c-0.7,1.3-1.5,2.5-2.2,3.8c-0.3,0.5-0.4,0.9-0.4,1.4c0,0.1,0,0.2,0,0.3c0,0.6,0.2,1.3-0.1,1.7
		c-0.3,0.5-1,0.1-1.6,0.2c-0.5,0.1-0.8,0.3-1.3,0.4c0,0,0,0,0,0c-0.9,0.8-1.1,1.8-1,2.9c0,0.3,0,0.6,0,1c0,1.1,0.8,2.1,1.9,2.4
		c0.6,0.2,1.1,0.1,1.7,0.1c0.4,0,0.6,0.1,0.6,0.5c0,0.7,0.2,1.5,0.4,2.2c0.7,2.9,1.6,5.7,4.3,7.5l0,0
		C342-200.4,343.2-199.8,344.6-199.6z M347.6-205.4c-0.6,0-1.3,0-1.9,0c-0.6,0-1.3,0-1.9,0c-0.6,0-1-0.4-1-1c0-0.6,0.4-1,1-1
		c1.3,0,2.5,0,3.8,0c0.6,0,1,0.4,1,1C348.6-205.8,348.2-205.4,347.6-205.4z M349.8-213.7c-0.7,0-1.2-0.6-1.2-1.2
		c0-0.7,0.6-1.2,1.2-1.2c0.6,0,1.2,0.6,1.2,1.2C351-214.2,350.5-213.7,349.8-213.7z M348.7-219c0.9,0,1.9,0,2.8,0c0.6,0,1,0.4,1,1
		c0,0.5-0.4,0.9-1,0.9c-0.5,0-1,0-1.5,0c-0.5,0-0.9,0-1.4,0c-0.6,0-1-0.4-1-1C347.6-218.6,348.1-219,348.7-219z M343.8-213
		c0-0.7,0.4-1.1,1-1.1c0.6,0,0.9,0.4,1,1.1c0,0.4,0,0.9,0,1.3c0,0.4,0.1,0.5,0.5,0.5c0.2,0,0.4,0,0.6,0c0.5,0.1,0.9,0.5,0.9,1
		c0,0.5-0.3,0.9-0.9,0.9c-0.7,0-1.5,0-2.2,0c-0.5,0-0.8-0.4-0.8-0.9c0-0.5,0-1,0-1.5C343.8-212.2,343.8-212.6,343.8-213z
		 M339.9-217.1c-0.6,0-1-0.4-1-1c0-0.6,0.4-1,1-1c0.9,0,1.9,0,2.8,0c0.6,0,1,0.4,1,1c0,0.5-0.4,0.9-1,1c0,0,0,0-0.1,0
		c-0.4,0-0.9,0-1.3,0C340.9-217.1,340.4-217.1,339.9-217.1z M340.4-214.9c0-0.6,0.6-1.2,1.2-1.2c0.6,0,1.2,0.6,1.2,1.2
		c0,0.7-0.6,1.2-1.2,1.2C340.9-213.7,340.3-214.3,340.4-214.9z"/>
	<path class="st3" d="M334.7-218.2c1.1,0,1.1,0.1,1.1-1.1c-0.1-1.2,0.2-2.2,0.9-3.2c0.6-0.9,1.1-1.9,1.7-2.9
		c0.4-0.7,0.5-0.7,1.1-0.2c1.1,0.9,2.1,1.7,3.4,2.4c1.9,1,3.9,1.7,6,1.9c1.9,0.2,3.8,0.1,5.6,0.1c1,0,1.1,0.1,1.1,1.1
		c0,0.4,0,0.9,0,1.3c0,0.4,0.2,0.6,0.6,0.6c0.5,0,1,0,1.4,0.1c0.2,0.1,0.4,0.2,0.6,0.4c0.4-1.5,0.9-3,1-4.6c0.2-3.7-1.3-6.7-3.9-9.2
		c-1.6-1.6-3.6-2.5-5.9-2.7c-1.8-0.2-3.5,0.2-5.2,0.6c-2.7,0.6-4.8,2.1-6.1,4.6c-0.2,0.3-0.4,0.3-0.7,0.4c-3.2,0.1-5.5,3-5,6.2
		c0.2,1.7,0.5,3.3,0.7,5c0,0,0,0,0,0C333.5-218.1,334.1-218.2,334.7-218.2z"/>
	<path class="st3" d="M335.9-218.2c0.3-0.4,0.1-1.1,0.1-1.7c0-0.1,0-0.2,0-0.3c-0.1-0.5,0.1-1,0.4-1.4c0.8-1.2,1.5-2.5,2.2-3.8
		c0.2-0.4,0.3-0.5,0.8-0.1c3.2,3,7.1,4.5,11.5,4.6c1.4,0,2.8,0,4.1,0c0.4,0,0.5,0.1,0.5,0.5c0,0.6,0,1.3,0,1.9
		c0,0.4,0.1,0.6,0.5,0.5c0.8-0.1,1.6,0,2.3,0.4c-0.2-0.2-0.4-0.3-0.6-0.4c-0.5-0.2-1-0.1-1.4-0.1c-0.4,0-0.6-0.1-0.6-0.6
		c0-0.4,0-0.9,0-1.3c0-1-0.1-1.1-1.1-1.1c-1.9,0-3.8,0.1-5.6-0.1c-2.1-0.2-4.1-0.9-6-1.9c-1.2-0.7-2.3-1.5-3.4-2.4
		c-0.6-0.5-0.7-0.5-1.1,0.2c-0.6,0.9-1.1,1.9-1.7,2.9c-0.7,1-1,2-0.9,3.2c0.1,1.2,0,1.1-1.1,1.1c-0.6,0-1.2,0.1-1.6,0.6
		c0.4-0.2,0.8-0.4,1.3-0.4C334.9-218.1,335.6-217.8,335.9-218.2z"/>
	<path class="st4" d="M352.9-196.5c-0.7-0.4-1.5-0.7-2.2-1.1c1.1,1.2,2.2,2.5,3.3,3.7c1.4,1.6,2.8,3.1,4.2,4.7
		c0.2,0.3,0.1,0.5,0,0.7c-0.7,2-1.4,4.1-2,6.1c4.4-1.4,8.3-3.7,11.6-6.8c-0.1,0-0.1-0.1-0.2-0.1C362.6-191.5,357.8-194,352.9-196.5z
		"/>
	<path class="st4" d="M333.2-188.5c-0.1-0.3-0.1-0.4,0.1-0.6c1.8-2,3.6-4,5.4-6c0.7-0.8,1.4-1.6,2.1-2.4c-0.1,0-0.1,0-0.2,0
		c-5.1,2.6-10.2,5.1-15.3,7.7c2.8,2.8,6,5,9.7,6.5C334.3-185,333.7-186.8,333.2-188.5z"/>
	<path class="st5" d="M340.9-191.3c0-2.1,0-4.2,0-6.3c0,0-0.1,0.1-0.1,0.1c0.1,0.3-0.2,0.4-0.3,0.6c-2.3,2.6-4.6,5.2-6.9,7.7
		c-0.3,0.3-0.2,0.6-0.1,1c0.6,1.7,1.1,3.3,1.7,5c1.8,0.8,3.8,1.4,5.7,1.8c0-3,0-6.1,0-9.1C340.8-190.8,340.9-191.1,340.9-191.3z"/>
	<path class="st5" d="M333.5-189.2c2.3-2.6,4.6-5.2,6.9-7.7c0.2-0.2,0.4-0.3,0.3-0.6c-0.7,0.8-1.4,1.6-2.1,2.4c-1.8,2-3.6,4-5.4,6
		c-0.2,0.2-0.2,0.4-0.1,0.6c0.6,1.7,1.2,3.5,1.8,5.2c0.1,0,0.1,0,0.2,0.1c-0.6-1.7-1.1-3.3-1.7-5
		C333.3-188.5,333.2-188.8,333.5-189.2z"/>
	<path class="st5" d="M357.7-189.4c-1.8-2-3.6-4-5.4-6.1c-0.4-0.5-0.9-1-1.3-1.5c-0.1-0.2-0.4-0.3-0.3-0.6c0,0,0,0,0,0c0,0,0,0,0,0
		c0,0-0.1-0.1-0.1-0.1c0,2.1,0,4.2,0,6.3c0,3.3,0,6.6,0,9.9c0,0.1,0,0.2,0,0.3c1.8-0.2,3.6-0.6,5.4-1.1c0.7-2,1.3-4,2-6
		C358.1-188.7,358-189,357.7-189.4z"/>
	<path class="st5" d="M358.2-189.1c-1.4-1.5-2.8-3.1-4.2-4.7c-1.1-1.2-2.2-2.5-3.3-3.7c0,0,0,0,0,0c-0.1,0.3,0.1,0.4,0.3,0.6
		c0.4,0.5,0.9,1,1.3,1.5c1.8,2,3.6,4.1,5.4,6.1c0.3,0.4,0.4,0.7,0.3,1.2c-0.7,2-1.3,4-2,6c0.1,0,0.1,0,0.2-0.1c0.7-2,1.4-4.1,2-6.1
		C358.2-188.6,358.4-188.9,358.2-189.1z"/>
	<path class="st4" d="M347.6-188.9c-1.3,0-2.6,0-3.9,0c-0.3,2.6-0.6,5.2-0.9,7.8c1.3,0.2,2.6,0.3,4,0.3c0.5,0,1.1,0,1.6,0
		c-0.2-2.1-0.5-4.2-0.7-6.4C347.8-187.8,347.7-188.3,347.6-188.9z"/>
	<path class="st6" d="M350.4-191.4c-0.5-0.3-1.1-0.6-1.6-0.8c0,0,0,0,0,0c0,0,0,0,0,0c-0.4,1.1-0.7,2.2-1.1,3.3
		c0.2,0.2,0.3,0.5,0.3,0.8c0.2,2.4,0.5,4.8,0.8,7.1c0.6,0,1.1-0.1,1.7-0.1c0-3.4,0-6.8,0-10.2C350.4-191.3,350.4-191.4,350.4-191.4z
		"/>
	<path class="st6" d="M350.5-191.3L350.5-191.3c-0.1,0-0.1-0.1-0.2-0.1c0,0,0,0.1,0,0.1c0,3.4,0,6.8,0,10.2c0.1,0,0.1,0,0.2,0
		c0-0.1,0-0.2,0-0.3C350.6-184.7,350.5-188,350.5-191.3z"/>
	<path class="st6" d="M347.6-188.9C347.6-188.9,347.6-188.9,347.6-188.9c0.1,0.6,0.1,1.1,0.2,1.7c0.2,2.1,0.5,4.2,0.7,6.4
		c0.1,0,0.1,0,0.2,0c-0.2-2.4-0.5-4.8-0.8-7.1C347.9-188.4,347.9-188.7,347.6-188.9z"/>
	<path class="st6" d="M343.8-188.9c-0.4-1.1-0.7-2.2-1.1-3.2c-0.6,0.2-1.1,0.5-1.6,0.8c0,0,0,0.1,0,0.1c0,3.3,0,6.6,0,9.9
		c0.6,0.1,1.1,0.2,1.7,0.3c0.2-2.3,0.5-4.6,0.8-7C343.5-188.4,343.5-188.7,343.8-188.9z"/>
	<path class="st6" d="M341-191.3c0,0,0-0.1,0-0.1c-0.1,0-0.1,0.1-0.2,0.1c0,0.2,0,0.5,0,0.7c0,3,0,6.1,0,9.1c0.1,0,0.1,0,0.2,0
		C341-184.7,341-188,341-191.3z"/>
	<path class="st6" d="M343.8-188.9c-0.2,0.2-0.3,0.5-0.3,0.8c-0.2,2.3-0.5,4.6-0.8,7c0.1,0,0.1,0,0.2,0
		C343.2-183.7,343.5-186.3,343.8-188.9C343.8-188.9,343.8-188.9,343.8-188.9z"/>
	<path class="st2" d="M345.6-193.7C345.6-193.7,345.6-193.7,345.6-193.7c0.1,0,0.1,0,0.2,0c0.6-0.7,1.3-1.1,2-1.7
		c0.9-0.8,1.8-1.5,2.8-2.2c0-0.5,0-1,0-1.5c-1.5,1-3.2,1.5-5,1.5c-1.7,0-3.2-0.6-4.7-1.5c0,0.5,0,1,0,1.5c1.5,1.2,3,2.4,4.6,3.6
		C345.5-193.9,345.5-193.8,345.6-193.7z"/>
	<polygon class="st2" points="350.6,-197.6 350.6,-197.6 350.6,-197.6 	"/>
	<path class="st7" d="M341.7-198.8c2.7,1.4,5.4,1.4,8.1,0c0.2-0.1,0.4-0.3,0.7-0.2c0-0.6,0-1.3,0-1.9c0,0,0,0,0,0
		c-0.6,0.7-1.5,1-2.4,1.3c-2.4,0.7-4.6,0.4-6.8-0.8c-0.2-0.1-0.4-0.2-0.5-0.4l0,0c0,0.6,0,1.3,0,1.9v0v0
		C341.2-199.2,341.4-199,341.7-198.8z"/>
	<path class="st7" d="M341.3-200.6c2.1,1.2,4.4,1.5,6.8,0.8c0.9-0.3,1.8-0.5,2.4-1.3c-0.2,0.1-0.5,0.3-0.7,0.4
		c-1.6,0.9-3.4,1.2-5.2,1c-1.4-0.2-2.6-0.7-3.8-1.4l0,0l0,0C341-200.8,341.1-200.7,341.3-200.6z"/>
	<path class="st7" d="M350.5-199.1c-0.3-0.1-0.5,0.1-0.7,0.2c-2.7,1.4-5.4,1.4-8.1,0c-0.3-0.1-0.5-0.3-0.8-0.3v0
		c1.4,0.9,3,1.4,4.7,1.5C347.3-197.6,349-198.1,350.5-199.1z"/>
	<path class="st7" d="M344.6-209.3c0.7,0,1.5,0,2.2,0c0.5,0,0.8-0.4,0.9-0.9c0-0.5-0.3-0.9-0.9-1c-0.2,0-0.4,0-0.6,0
		c-0.4,0-0.5-0.1-0.5-0.5c0-0.4,0-0.9,0-1.3c0-0.7-0.4-1.1-1-1.1c-0.6,0-1,0.4-1,1.1c0,0.4,0,0.9,0,1.3c0,0.5,0,1,0,1.5
		C343.8-209.7,344.1-209.3,344.6-209.3z"/>
	<path class="st7" d="M347.6-207.3c-1.3,0-2.5,0-3.8,0c-0.6,0-1,0.4-1,1c0,0.6,0.4,0.9,1,1c0.6,0,1.3,0,1.9,0c0.6,0,1.3,0,1.9,0
		c0.7,0,1.1-0.4,1.1-1C348.6-207,348.2-207.3,347.6-207.3z"/>
	<path class="st3" d="M342.7-217.1C342.7-217.1,342.7-217.1,342.7-217.1c0.7,0,1.1-0.4,1.1-1c0-0.6-0.4-1-1-1c-0.9,0-1.9,0-2.8,0
		c-0.6,0-1,0.4-1,1c0,0.6,0.4,0.9,1,1c0.5,0,0.9,0,1.4,0C341.8-217.1,342.2-217.1,342.7-217.1z"/>
	<path class="st3" d="M348.7-217.1c0.5,0,0.9,0,1.4,0c0.5,0,1,0,1.5,0c0.6,0,1-0.4,1-0.9c0-0.6-0.4-1-1-1c-0.9,0-1.9,0-2.8,0
		c-0.6,0-1,0.4-1,1C347.7-217.5,348.1-217.1,348.7-217.1z"/>
	<path class="st8" d="M342.8-214.9c0-0.6-0.5-1.2-1.2-1.2c-0.6,0-1.2,0.5-1.2,1.2c0,0.7,0.5,1.3,1.2,1.3
		C342.2-213.7,342.8-214.2,342.8-214.9z"/>
	<path class="st8" d="M349.9-216.1c-0.7,0-1.2,0.5-1.2,1.2c0,0.7,0.5,1.2,1.2,1.2c0.7,0,1.2-0.5,1.2-1.2
		C351-215.5,350.5-216.1,349.9-216.1z"/>
	<polygon class="st9" points="340.8,-197.6 340.8,-197.6 340.8,-197.6 	"/>
	<path class="st9" d="M345.6-193.7c-1.5-1.1-2.9-2.3-4.4-3.5c-0.1-0.1-0.2-0.2-0.3-0.4c0.1,0.3,0.1,0.6,0.1,0.9c0,1.7,0,3.5,0,5.2
		c0.5-0.4,1-0.7,1.6-0.7C343.6-192.7,344.6-193.2,345.6-193.7z"/>
	<path class="st9" d="M340.8-197.6C340.8-197.6,340.8-197.6,340.8-197.6C340.8-197.6,340.8-197.6,340.8-197.6
		C340.8-197.6,340.8-197.6,340.8-197.6z"/>
	<polygon class="st9" points="340.8,-197.6 340.8,-197.6 340.8,-197.6 	"/>
	<path class="st9" d="M341-191.5c0-1.7,0-3.5,0-5.2c0-0.3,0-0.6-0.1-0.9c0,0,0-0.1-0.1-0.1c0,0,0,0,0,0c0,0,0,0,0,0
		c0,2.1,0,4.2,0,6.3C340.9-191.4,341-191.4,341-191.5z"/>
	<path class="st9" d="M342.7-192.2c-0.7,0-1.2,0.3-1.6,0.7c0,0,0,0,0,0.1C341.6-191.7,342.1-192,342.7-192.2L342.7-192.2
		C342.7-192.2,342.7-192.2,342.7-192.2z"/>
	<path class="st9" d="M340.9-191.3c0.1,0,0.1-0.1,0.2-0.1c0,0,0,0,0-0.1C341-191.4,340.9-191.4,340.9-191.3z"/>
	<polygon class="st9" points="340.8,-197.6 340.8,-197.6 340.8,-197.6 	"/>
	<path class="st9" d="M340.8-197.6C340.9-197.6,340.9-197.5,340.8-197.6C340.9-197.5,340.9-197.5,340.8-197.6
		c0.2,0.2,0.2,0.3,0.3,0.4c1.5,1.1,2.9,2.3,4.4,3.5c0,0,0,0,0,0h0c0,0,0,0,0,0c-0.1-0.1-0.1-0.2-0.2-0.3
		C343.9-195.2,342.3-196.4,340.8-197.6C340.8-197.6,340.8-197.6,340.8-197.6C340.8-197.6,340.8-197.6,340.8-197.6z"/>
	<path class="st9" d="M340.8-197.6C340.9-197.6,340.9-197.5,340.8-197.6C340.9-197.5,340.9-197.5,340.8-197.6
		C340.9-197.5,340.9-197.6,340.8-197.6z"/>
	<path class="st9" d="M350.6-197.6c-0.5,0.7-1.2,1.1-1.8,1.6c-1,0.8-1.9,1.6-3,2.4c1,0.5,1.9,1,2.9,1.5c0.7,0,1.2,0.3,1.7,0.7
		c0-1.7,0-3.4,0-5.1c0-0.3,0-0.6,0.1-0.9C350.5-197.5,350.5-197.6,350.6-197.6C350.6-197.6,350.6-197.6,350.6-197.6
		C350.6-197.6,350.6-197.6,350.6-197.6C350.6-197.6,350.6-197.6,350.6-197.6C350.6-197.6,350.6-197.6,350.6-197.6z"/>
	<polygon class="st9" points="350.6,-197.6 350.6,-197.6 350.6,-197.6 350.6,-197.6 	"/>
	<path class="st9" d="M350.4-197.4c-0.1,0.3-0.1,0.6-0.1,0.9c0,1.7,0,3.4,0,5.1c0.1,0.1,0.1,0.1,0.2,0.1v0c0-2.1,0-4.2,0-6.3
		c0,0,0,0,0,0C350.5-197.6,350.5-197.5,350.4-197.4z"/>
	<path class="st9" d="M348.7-192.2C348.7-192.2,348.7-192.2,348.7-192.2C348.7-192.2,348.7-192.2,348.7-192.2
		c0.6,0.2,1.1,0.5,1.7,0.8c0,0,0,0,0-0.1C349.9-191.9,349.4-192.2,348.7-192.2z"/>
	<path class="st9" d="M350.4-191.5C350.4-191.4,350.4-191.4,350.4-191.5c0.1,0.1,0.1,0.1,0.2,0.1l0,0v0
		C350.5-191.4,350.4-191.4,350.4-191.5z"/>
	<polygon class="st9" points="350.6,-197.6 350.6,-197.6 350.6,-197.6 350.6,-197.6 	"/>
	<path class="st9" d="M345.8-193.7C345.8-193.7,345.8-193.7,345.8-193.7c1.1-0.7,2-1.5,3-2.3c0.6-0.5,1.3-0.9,1.8-1.6c0,0,0,0,0,0
		c-0.9,0.7-1.9,1.5-2.8,2.2C347.1-194.9,346.4-194.4,345.8-193.7z"/>
	<path class="st5" d="M345.8-193.7c-0.1,0-0.2,0-0.2,0c0,0.1,0,0.1-0.1,0.1c-0.9,0.5-1.8,1.1-2.9,1.4c0,0,0,0,0,0
		c0.5,1,0.9,2.1,1.1,3.2c0,0,0,0,0,0c0.4-0.2,0.8-0.1,1.1-0.1c0.9,0,1.8-0.1,2.7,0.1c0,0,0-0.1,0-0.1c0.3-1.1,0.5-2.2,1.1-3.1
		c0,0,0,0,0,0C347.7-192.6,346.7-192.9,345.8-193.7C345.8-193.7,345.8-193.7,345.8-193.7z"/>
	<path class="st5" d="M344.9-189.1c-0.4,0-0.8-0.1-1.1,0.1c0,0,0,0,0,0c0,0,0,0,0,0.1c1.3,0,2.6,0,3.9,0c0,0,0-0.1,0-0.1
		C346.7-189.2,345.8-189,344.9-189.1z"/>
	<path class="st5" d="M348.7-192.2c-0.6,1-0.8,2.1-1.1,3.1c0,0,0,0.1,0,0.1c0,0,0,0,0,0c0,0,0,0,0,0
		C348-190,348.4-191.1,348.7-192.2C348.7-192.2,348.7-192.2,348.7-192.2C348.7-192.2,348.7-192.2,348.7-192.2
		C348.7-192.2,348.7-192.2,348.7-192.2z"/>
	<path class="st5" d="M347.6-188.9C347.6-188.9,347.6-188.9,347.6-188.9C347.6-188.9,347.6-188.9,347.6-188.9
		C347.6-188.9,347.6-188.9,347.6-188.9C347.6-188.9,347.6-188.9,347.6-188.9z"/>
	<path class="st5" d="M342.7-192.2C342.7-192.2,342.7-192.2,342.7-192.2C342.7-192.2,342.7-192.2,342.7-192.2L342.7-192.2
		c0.3,1.1,0.7,2.2,1,3.3c0,0,0,0,0,0C343.6-190.1,343.2-191.1,342.7-192.2z"/>
	<path class="st5" d="M343.8-188.9C343.8-188.9,343.8-188.9,343.8-188.9C343.8-188.9,343.8-188.9,343.8-188.9
		C343.8-188.9,343.8-188.9,343.8-188.9z"/>
	<path class="st5" d="M345.8-193.7C345.8-193.7,345.8-193.7,345.8-193.7C345.8-193.7,345.8-193.7,345.8-193.7c-0.1,0-0.2,0-0.2,0
		c0,0,0,0,0,0C345.7-193.6,345.8-193.6,345.8-193.7z"/>
	<path class="st5" d="M342.7-192.2c1-0.3,1.9-0.9,2.9-1.4c0,0,0.1-0.1,0.1-0.1c0,0,0,0,0,0c0,0,0,0,0,0
		C344.6-193.2,343.6-192.7,342.7-192.2C342.7-192.2,342.7-192.2,342.7-192.2z"/>
	<path class="st5" d="M342.7-192.2C342.7-192.2,342.7-192.2,342.7-192.2C342.7-192.2,342.7-192.2,342.7-192.2L342.7-192.2
		L342.7-192.2C342.7-192.2,342.7-192.2,342.7-192.2z"/>
	<path class="st5" d="M345.6-193.7C345.6-193.7,345.6-193.7,345.6-193.7L345.6-193.7C345.6-193.7,345.6-193.7,345.6-193.7
		C345.6-193.7,345.6-193.7,345.6-193.7C345.6-193.7,345.6-193.7,345.6-193.7z"/>
	<path class="st5" d="M348.7-192.2C348.7-192.2,348.7-192.2,348.7-192.2c-0.9-0.5-1.9-1-2.8-1.5c0,0,0,0,0,0
		C346.7-192.9,347.7-192.6,348.7-192.2z"/>
	<path class="st5" d="M348.7-192.2C348.7-192.2,348.7-192.2,348.7-192.2C348.7-192.2,348.7-192.2,348.7-192.2
		C348.7-192.2,348.7-192.2,348.7-192.2z"/>
	<path class="st5" d="M345.8-193.7C345.8-193.7,345.8-193.7,345.8-193.7C345.8-193.7,345.8-193.7,345.8-193.7
		C345.8-193.7,345.8-193.7,345.8-193.7z"/>
</g>
<path class="st10" d="M584.7,195.2H298.3c-6.6,0-12-5.4-12-12v-44.1c0-6.6,5.4-12,12-12h286.3c6.6,0,12,5.4,12,12v44.1
	C596.7,189.8,591.3,195.2,584.7,195.2z"/>
<g>
	<text transform="matrix(1 0 0 1 367.4789 172.6272)" class="st15" style="font-family:'Montserrat-Light'; font-size:31.1428px;">Recreation</text>
</g>
<path class="st11" d="M584.7,324.2H298.2c-6.6,0-12-5.4-12-12V268c0-6.6,5.4-12,12-12h286.5c6.6,0,12,5.4,12,12v44.1
	C596.7,318.8,591.3,324.2,584.7,324.2z"/>
<text transform="matrix(1 0 0 1 370.5161 300.6184)" class="st15" style="font-family:'Montserrat-Light'; font-size:31.1428px;">Technology</text>
<circle class="st12" cx="290.3" cy="290" r="47.3"/>
<circle class="st13" cx="290.5" cy="159.7" r="47.3"/>
<circle class="st14" cx="290.6" cy="32" r="47.3"/>
<g>
	<path class="st15" d="M323,287.1c-1.6-0.4-3.3,0.3-4.1,1.7c-0.3,0.5-0.6,0.6-1.1,0.6c-2.2,0-4.4,0-6.6,0c-2.3,0-4.5,0-6.8,0
		c-0.5,0-0.7-0.1-0.7-0.7c0-1.2,0-2.4,0-3.6c0-0.5,0.1-0.6,0.6-0.6c1.2,0,2.5,0,3.7,0c0.5,0,0.8,0.1,1,0.6c0.9,1.7,2.9,2.3,4.6,1.5
		c1.7-0.8,2.6-2.7,2-4.5c-0.5-1.4-1.5-2.3-3-2.5c-1.5-0.2-3,0.5-3.7,1.9c-0.2,0.5-0.5,0.6-1,0.6c-1.3,0-2.5,0-3.8,0
		c-0.4,0-0.6-0.1-0.6-0.5c0-1,0-2,0-3c0-0.9-0.4-1.4-1.4-1.4c-1,0-2,0-3,0c-0.4,0-0.5-0.1-0.5-0.5c0-1.3,0-2.6,0-3.9
		c0-0.4,0.1-0.7,0.5-0.9c1.5-0.8,2.2-2.5,1.8-4.1c-0.5-1.7-1.9-2.8-3.6-2.7c-1.7,0-3.1,1.2-3.5,2.8c-0.4,1.6,0.4,3.2,1.9,4
		c0.4,0.2,0.5,0.4,0.5,0.9c0,1.3,0,2.5,0,3.8c0,0.6-0.2,0.7-0.7,0.6c-1.2,0-2.4,0-3.6,0c-0.5,0-0.6-0.1-0.6-0.6c0-4.5,0-9.1,0-13.6
		c0-0.5,0.2-0.6,0.5-0.9c1.5-0.8,2.2-2.5,1.8-4c-0.4-1.7-1.8-2.8-3.6-2.8c-1.7,0-3.1,1.1-3.5,2.8c-0.4,1.6,0.3,3.3,1.9,4.1
		c0.3,0.2,0.5,0.3,0.5,0.7c0,4.6,0,9.2,0,13.7c0,0.4-0.1,0.6-0.5,0.5c-1.3,0-2.5,0-3.8,0c-0.4,0-0.5-0.1-0.5-0.5c0-1.3,0-2.6,0-3.9
		c0-0.4,0.1-0.6,0.5-0.8c1.5-0.8,2.3-2.5,1.9-4c-0.4-1.7-1.8-2.8-3.5-2.8c-1.8,0-3.2,1.1-3.7,2.8c-0.4,1.6,0.3,3.3,1.9,4.1
		c0.3,0.2,0.5,0.3,0.5,0.7c0,1.3,0,2.7,0,4c0,0.5-0.2,0.5-0.6,0.5c-1,0-2,0-3,0c-0.9,0-1.3,0.4-1.3,1.4c0,1,0,2,0,3
		c0,0.4-0.1,0.6-0.5,0.6c-1.3,0-2.6,0-3.9,0c-0.4,0-0.6-0.1-0.8-0.5c-0.8-1.5-2.5-2.3-4.1-1.9c-1.7,0.4-2.8,1.8-2.8,3.6
		c0,1.7,1.1,3.1,2.8,3.5c1.6,0.4,3.2-0.3,4.1-1.9c0.1-0.3,0.2-0.5,0.7-0.5c1.4,0,2.8,0,4.2,0c0.4,0,0.5,0.1,0.5,0.5
		c0,1.3,0,2.5,0,3.8c0,0.5-0.2,0.6-0.6,0.6c-4.5,0-9,0-13.4,0c-0.5,0-0.7-0.1-1-0.6c-0.8-1.4-2.4-2.2-3.9-1.8
		c-1.6,0.4-2.9,1.8-2.9,3.4c-0.1,1.9,1,3.3,2.7,3.8c1.6,0.4,3.3-0.3,4.1-1.8c0.2-0.3,0.3-0.5,0.8-0.5c4.6,0,9.2,0,13.7,0
		c0.4,0,0.5,0.1,0.5,0.5c0,1.3,0,2.6,0,3.9c0,0.4-0.1,0.5-0.5,0.5c-1.3,0-2.6,0-3.9,0c-0.4,0-0.7-0.1-0.9-0.5
		c-0.8-1.5-2.5-2.3-4.1-1.8c-1.7,0.5-2.8,1.9-2.7,3.6c0,1.7,1.1,3.1,2.8,3.5c1.6,0.4,3.2-0.3,4-1.9c0.2-0.4,0.4-0.5,0.9-0.5
		c1.3,0,2.5,0,3.8,0c0.6,0,0.7,0.2,0.6,0.7c0,1,0,1.9,0,2.9c0,0.9,0.5,1.3,1.3,1.3c1,0,2,0,3,0c0.4,0,0.6,0.1,0.6,0.6
		c0,1.3,0,2.6,0,3.9c0,0.4-0.1,0.7-0.5,0.9c-1.7,0.9-2.4,2.8-1.7,4.5c0.6,1.5,2.1,2.4,3.8,2.3c1.5-0.1,2.9-1.3,3.2-2.9
		c0.3-1.5-0.4-3.2-1.8-3.9c-0.4-0.2-0.6-0.5-0.6-1c0-1.3,0-2.5,0-3.8c0-0.5,0.1-0.6,0.6-0.6c1.2,0,2.4,0,3.6,0
		c0.6,0,0.7,0.2,0.7,0.7c0,4.5,0,9,0,13.4c0,0.4-0.1,0.7-0.5,0.9c-1.5,0.8-2.2,2.4-1.9,4c0.4,1.7,1.8,2.9,3.5,2.9
		c1.8,0,3.2-1,3.7-2.8c0.4-1.6-0.3-3.3-1.8-4.1c-0.4-0.2-0.5-0.4-0.5-0.8c0-4.6,0-9.1,0-13.7c0-0.4,0.1-0.6,0.5-0.6
		c1.3,0,2.5,0,3.8,0c0.4,0,0.6,0.1,0.6,0.5c0,1.3,0,2.6,0,3.9c0,0.4-0.1,0.6-0.5,0.8c-1.5,0.8-2.3,2.5-1.9,4.1
		c0.5,1.7,1.9,2.8,3.6,2.8c1.7,0,3.1-1.1,3.5-2.8c0.4-1.6-0.3-3.2-1.9-4.1c-0.3-0.1-0.5-0.2-0.5-0.6c0-1.4,0-2.8,0-4.2
		c0-0.4,0.1-0.5,0.5-0.5c1,0,2,0,3,0c0.9,0,1.3-0.4,1.4-1.3c0-1,0-2,0-3c0-0.4,0.1-0.6,0.5-0.6c1.3,0,2.7,0,4,0
		c0.4,0,0.6,0.1,0.7,0.5c0.8,1.5,2.5,2.3,4.1,1.9c1.7-0.4,2.8-1.8,2.8-3.6c0-1.7-1.1-3.1-2.8-3.5c-1.6-0.4-3.3,0.3-4.1,1.9
		c-0.2,0.4-0.4,0.5-0.8,0.5c-1.3,0-2.6,0-3.9,0c-0.4,0-0.5-0.1-0.5-0.5c0-1.2,0-2.5,0-3.7c0-0.5,0.1-0.6,0.6-0.6c4.5,0,9.1,0,13.6,0
		c0.4,0,0.6,0.1,0.8,0.5c0.8,1.5,2.5,2.3,4,1.9c1.7-0.4,2.8-1.8,2.8-3.5C325.7,289,324.7,287.6,323,287.1z M312.4,282.1
		c0.6,0,1.2,0.6,1.2,1.2c0,0.6-0.6,1.2-1.2,1.2c-0.6,0-1.2-0.6-1.2-1.2C311.2,282.7,311.8,282.1,312.4,282.1z M268.6,284.5
		c-0.6,0-1.2-0.6-1.2-1.2c0-0.6,0.6-1.2,1.2-1.2c0.6,0,1.2,0.6,1.2,1.2C269.8,283.9,269.3,284.5,268.6,284.5z M258.9,291.8
		c-0.6,0-1.2-0.6-1.2-1.2c0-0.6,0.6-1.2,1.2-1.2c0.6,0,1.2,0.6,1.2,1.2C260.1,291.3,259.5,291.8,258.9,291.8z M268.6,299.1
		c-0.6,0-1.2-0.6-1.2-1.2c0-0.6,0.6-1.2,1.2-1.2c0.6,0,1.2,0.6,1.2,1.2C269.8,298.5,269.2,299.1,268.6,299.1z M296.6,268.8
		c0-0.6,0.5-1.2,1.2-1.2c0.6,0,1.2,0.5,1.2,1.2c0,0.6-0.5,1.2-1.2,1.2C297.2,270,296.6,269.4,296.6,268.8z M289.3,259
		c0-0.6,0.6-1.2,1.2-1.2c0.6,0,1.2,0.6,1.2,1.2c0,0.6-0.6,1.2-1.2,1.2C289.9,260.2,289.3,259.7,289.3,259z M282,268.8
		c0-0.6,0.6-1.2,1.2-1.2c0.6,0,1.2,0.6,1.2,1.2c0,0.6-0.6,1.2-1.2,1.2C282.6,270,282,269.4,282,268.8z M284.4,312.5
		c0,0.6-0.6,1.2-1.2,1.2c-0.6,0-1.2-0.6-1.2-1.2c0-0.6,0.6-1.2,1.2-1.2C283.8,311.3,284.4,311.9,284.4,312.5z M291.7,322.2
		c0,0.6-0.6,1.2-1.2,1.2c-0.6,0-1.2-0.6-1.2-1.2c0-0.6,0.6-1.2,1.2-1.2C291.1,321,291.7,321.6,291.7,322.2z M299,312.5
		c0,0.6-0.6,1.2-1.2,1.2c-0.6,0-1.2-0.6-1.2-1.2c0-0.6,0.6-1.2,1.2-1.2C298.4,311.3,299,311.9,299,312.5z M300.7,301.6
		c-3.4,0-6.9,0-10.3,0c-3.4,0-6.8,0-10.2,0c-0.6,0-0.7-0.1-0.7-0.7c0-6.8,0-13.7,0-20.5c0-0.6,0.1-0.7,0.7-0.7c6.8,0,13.7,0,20.5,0
		c0.6,0,0.7,0.1,0.7,0.7c0,6.8,0,13.7,0,20.5C301.4,301.4,301.3,301.6,300.7,301.6z M312.4,296.7c0.6,0,1.2,0.6,1.2,1.2
		c0,0.6-0.6,1.2-1.2,1.2c-0.6,0-1.2-0.6-1.2-1.2C311.2,297.3,311.8,296.7,312.4,296.7z M322.1,291.8c-0.6,0-1.2-0.6-1.2-1.2
		c0-0.6,0.6-1.2,1.2-1.2c0.6,0,1.2,0.6,1.2,1.2C323.3,291.2,322.7,291.8,322.1,291.8z"/>
</g>
<rect x="270.8" y="-111.4" style="fill:none;" width="318.9" height="56"/>
<text transform="matrix(1 0 0 1 270.8403 -95.3874)" style="font-family:'Montserrat-Light'; font-size:21.5604px;">Subjects available to interact:</text>
<g>
	<path class="st16" d="M37,16.1c-0.2-1.7-0.8-3.4-1.5-5c-0.9-2-2.2-3.8-3.8-5.4c-0.8-0.8-1.6-1.5-2.6-2.1c-2.1-1.5-4.5-2.4-7-2.9
		c-0.6-0.1-1.3-0.1-1.9-0.2c-0.9,0-1.9,0-2.8,0c-0.4,0.1-0.8,0-1.2,0.1c-1.9,0.2-3.6,0.8-5.3,1.6C8.4,3.4,6.4,5,4.7,7
		c-2.2,2.6-3.5,5.7-4,9.1c-0.1,0.4,0,0.8-0.1,1.2c0,1,0,2,0,3c0.1,0.4,0,0.8,0.1,1.2c0.2,1.9,0.8,3.6,1.6,5.3
		c1.2,2.4,2.8,4.5,4.9,6.2c1.8,1.5,3.8,2.5,6,3.3c2.5,0.8,5,0.9,7.5,0.7c2.1-0.1,4.1-0.8,6-1.7c2.4-1.2,4.4-2.8,6.1-4.8
		c2.2-2.6,3.5-5.6,4-9c0.1-0.4,0-0.8,0.1-1.2c0-1,0-1.9,0-2.9C37,16.9,37,16.5,37,16.1z M18.8,35.1c-9.1,0-16.4-7.3-16.4-16.4
		c0-9.1,7.4-16.4,16.4-16.4c9.1,0,16.4,7.3,16.4,16.4C35.2,27.8,27.9,35.2,18.8,35.1z"/>
	<path class="st16" d="M25.1,17.8c-1.7,0-3.4,0-5.1,0c-0.3,0-0.4-0.1-0.3-0.3c0-1.7,0-3.3,0-5c0-0.5-0.3-0.9-0.7-1
		c-0.6-0.1-1.1,0.3-1.1,1c0,1.7,0,3.4,0,5.1c0,0.3-0.1,0.3-0.4,0.3c-0.8,0-1.7,0-2.5,0c-0.8,0-1.7,0-2.5,0c-0.2,0-0.4,0-0.6,0.2
		c-0.3,0.2-0.4,0.6-0.3,1c0.1,0.4,0.5,0.6,0.9,0.6c1.7,0,3.4,0,5.1,0c0.3,0,0.3,0.1,0.3,0.3c0,1.7,0,3.3,0,5c0,0.6,0.4,1.1,0.9,1.1
		c0.6,0,0.9-0.4,0.9-1.1c0-1.6,0-3.3,0-4.9c0-0.3,0.1-0.4,0.4-0.4c1.7,0,3.3,0,5,0c0.5,0,0.9-0.3,1-0.7
		C26.2,18.4,25.8,17.8,25.1,17.8z"/>
</g>
</svg>
