<?xml version="1.0" encoding="utf-8"?>
<!-- Generator: Adobe Illustrator 22.1.0, SVG Export Plug-In . SVG Version: 6.00 Build 0)  -->
<svg version="1.1" id="Layer_1" xmlns="http://www.w3.org/2000/svg" xmlns:xlink="http://www.w3.org/1999/xlink" x="0px" y="0px"
	 viewBox="0 0 22.4 22.4" style="enable-background:new 0 0 22.4 22.4;" xml:space="preserve">
<style type="text/css">
	.st0{fill:#E2584D;}
</style>
<g>
	<path class="st0" d="M22.2,10c0-0.3,0-0.6-0.1-0.9c-0.2-1.2-0.6-2.3-1.2-3.3c-0.6-1.2-1.5-2.1-2.4-3c-0.8-0.7-1.7-1.3-2.7-1.7
		c-0.9-0.4-1.8-0.7-2.7-0.8c-1-0.1-2-0.1-3-0.1c-0.3,0-0.6,0-0.9,0.1C8,0.5,7,0.9,6,1.4C4.8,2,3.7,2.9,2.8,3.9c-0.9,1-1.6,2.2-2,3.5
		C0.5,8,0.3,8.7,0.3,9.4c0,0.3,0,0.6-0.1,0.9c0,0.2,0,0.3,0,0.5c0,0.1,0,0.2,0,0.3c0,0.1,0,0.2,0,0.3c0,0.1,0,0.2,0,0.3
		c0,0.2,0,0.3,0,0.5c0,0,0,0.1,0,0.1c0,0.4,0,0.9,0.1,1.3c0.2,1,0.6,2,1.1,2.9c0.6,1.2,1.5,2.2,2.5,3.1c1,0.9,2.2,1.6,3.4,2
		c0.7,0.2,1.3,0.5,2,0.5c0.3,0,0.6,0,0.9,0.1c0.2,0,0.3,0,0.5,0c0.1,0,0.2,0,0.3,0c0.1,0,0.2,0,0.3,0c0.1,0,0.1,0,0.2,0
		c0.2,0,0.3,0,0.5,0c0.1,0,0.1,0,0.2,0c0.5,0,0.9,0,1.4-0.1c1-0.2,2-0.6,2.9-1.1c1.2-0.6,2.2-1.5,3.1-2.5c0.7-0.8,1.3-1.7,1.7-2.7
		c0.4-0.9,0.7-1.8,0.8-2.7C22.3,12,22.3,11,22.2,10z M11.2,20.1c-4.9,0-8.9-4-8.9-8.9c0-4.9,4-9,9-8.9c4.9,0,8.9,4,8.9,8.9
		C20.1,16.1,16.1,20.1,11.2,20.1z"/>
	<path class="st0" d="M11.9,5.1C11.5,5,11.2,5,10.8,5.1c-0.7,0.1-1,0.5-1,1.2c0,1.4,0,2.9,0,4.3c0,0.5,0,1.1,0,1.6
		c0,0.5,0.2,0.8,0.7,1c0.3,0.1,0.7,0.2,1,0.1c0.8-0.1,1.1-0.5,1.1-1.3c0-0.9,0-1.9,0-2.8c0-1,0-2,0-3C12.6,5.7,12.3,5.3,11.9,5.1z"
		/>
	<path class="st0" d="M11.2,14.6c-0.7,0-1.4,0.6-1.4,1.4c0,0.7,0.6,1.4,1.4,1.4c0.7,0,1.4-0.6,1.4-1.4C12.6,15.3,12,14.6,11.2,14.6z
		"/>
</g>
</svg>
