<?xml version="1.0" encoding="utf-8"?>
<!-- Generator: Adobe Illustrator 22.1.0, SVG Export Plug-In . SVG Version: 6.00 Build 0)  -->
<svg version="1.1" id="Layer_1" xmlns="http://www.w3.org/2000/svg" xmlns:xlink="http://www.w3.org/1999/xlink" x="0px" y="0px"
	 viewBox="0 0 138.7 17.5" style="enable-background:new 0 0 138.7 17.5;" xml:space="preserve">
<style type="text/css">
	.st0{fill:#EB353B;}
	.st1{fill:#CF1F3C;}
	.st2{fill:#FCC9A6;}
	.st3{fill:#543213;}
	.st4{fill:#076DA2;}
	.st5{fill:#2F92D0;}
	.st6{fill:#CACACA;}
	.st7{fill:#E6AF88;}
	.st8{fill:#553213;}
	.st9{fill:#EAEAEA;}
	.st10{fill:#3BC3E3;}
	.st11{fill:#8DC63F;}
	.st12{fill:#8DC63F;stroke:#F6E6DB;stroke-miterlimit:10;}
	.st13{fill:#3BC3E3;stroke:#F6E6DB;stroke-miterlimit:10;}
	.st14{fill:#EB353B;stroke:#F6E6DB;stroke-miterlimit:10;}
	.st15{fill:#FFFFFF;}
	.st16{fill:#383838;}
</style>
<path class="st0" d="M635,56.1H348.8c-6.6,0-12-5.4-12-12V-0.1c0-6.6,5.4-12,12-12H635c6.6,0,12,5.4,12,12v44.1
	C647,50.7,641.6,56.1,635,56.1z"/>
<g>
	<text transform="matrix(1 0 0 1 418.6046 32.666)" class="st15" style="font-family:'Montserrat-Light'; font-size:31.1428px;">University</text>
</g>
<text transform="matrix(1 0 0 1 445.7101 -207.6514)" style="font-family:'Montserrat-Light'; font-size:16.7692px;">Daniel Lorem Ipsum</text>
<text transform="matrix(1 0 0 1 445.7101 -227.7364)" style="font-family:'Montserrat-Light'; font-size:16.7692px;">Welcome,</text>
<g>
	<path class="st1" d="M391.1-207.7C391.1-207.7,391.1-207.7,391.1-207.7C391.2-207.8,391.2-207.8,391.1-207.7
		c0.1-0.1,0.1-0.1,0.1-0.1c0-0.5,0-1,0-1.5v0c0-0.6,0-1.3,0-1.9c-2.6-1.8-3.6-4.6-4.3-7.5c-0.2-0.7-0.3-1.5-0.4-2.2
		c0-0.4-0.2-0.5-0.6-0.5c-0.6,0-1.1,0.1-1.7-0.1c-1.1-0.3-1.8-1.3-1.9-2.4c0-0.3,0-0.7,0-1c-0.1-1.1,0.1-2.1,1-2.9c0,0,0,0,0,0
		c0,0,0,0,0,0c-0.2-1.7-0.4-3.3-0.7-5c-0.5-3.2,1.8-6,5-6.2c0.3,0,0.5,0,0.7-0.4c1.4-2.4,3.4-3.9,6.1-4.6c1.7-0.4,3.4-0.8,5.2-0.6
		c2.3,0.3,4.3,1.2,5.9,2.7c2.6,2.5,4,5.5,3.9,9.2c-0.1,1.6-0.6,3.1-1,4.6c1.5,1.3,1.2,3,1,4.7c-0.2,1-1.2,1.7-2.3,1.8
		c-0.5,0-1.1-0.2-1.5,0.2c-0.3,0.3-0.2,1-0.3,1.5c-0.4,2-0.9,3.9-1.9,5.7c-0.6,1.2-1.6,2.1-2.6,2.9l0,0c0,0,0,0,0,0
		c0,0.6,0,1.3,0,1.9c0,0.5,0,1,0,1.5c0,0,0,0,0,0v0c0,0,0,0,0,0l0,0c0,0,0,0,0,0c0,0,0.1,0.1,0.1,0.1c0,0,0,0,0,0
		c0.7,0.3,1.5,0.7,2.2,1.1c4.9,2.4,9.8,5,14.7,7.3c0.1,0,0.1,0.1,0.2,0.1c6-5.6,9.7-13.5,9.7-22.4c0-16.9-13.7-30.6-30.6-30.6
		s-30.6,13.7-30.6,30.6c0,8.5,3.4,16.1,9,21.6c5.1-2.6,10.2-5.1,15.3-7.7C390.9-207.6,391-207.6,391.1-207.7z"/>
	<path class="st2" d="M395-209.8c1.9,0.2,3.6-0.1,5.2-1c0.2-0.1,0.5-0.3,0.7-0.4l0,0c1-0.8,2-1.7,2.6-2.9c1-1.8,1.5-3.7,1.9-5.7
		c0.1-0.5,0-1.1,0.3-1.5c0.4-0.4,1-0.1,1.5-0.2c1.1-0.1,2.2-0.8,2.3-1.8c0.3-1.6,0.6-3.4-1-4.7c-0.7-0.3-1.5-0.4-2.3-0.4
		c-0.4,0-0.5-0.1-0.5-0.5c0-0.6,0-1.3,0-1.9c0-0.4-0.1-0.5-0.5-0.5c-1.4,0-2.8,0-4.1,0c-4.4,0-8.3-1.5-11.5-4.6
		c-0.4-0.4-0.5-0.3-0.8,0.1c-0.7,1.3-1.5,2.5-2.2,3.8c-0.3,0.5-0.4,0.9-0.4,1.4c0,0.1,0,0.2,0,0.3c0,0.6,0.2,1.3-0.1,1.7
		c-0.3,0.5-1,0.1-1.6,0.2c-0.5,0.1-0.8,0.3-1.3,0.4c0,0,0,0,0,0c-0.9,0.8-1.1,1.8-1,2.9c0,0.3,0,0.6,0,1c0,1.1,0.8,2.1,1.9,2.4
		c0.6,0.2,1.1,0.1,1.7,0.1c0.4,0,0.6,0.1,0.6,0.5c0,0.7,0.2,1.5,0.4,2.2c0.7,2.9,1.6,5.7,4.3,7.5l0,0
		C392.4-210.5,393.6-210,395-209.8z M397.9-215.6c-0.6,0-1.3,0-1.9,0c-0.6,0-1.3,0-1.9,0c-0.6,0-1-0.4-1-1c0-0.6,0.4-1,1-1
		c1.3,0,2.5,0,3.8,0c0.6,0,1,0.4,1,1C399-215.9,398.6-215.6,397.9-215.6z M400.2-223.8c-0.7,0-1.2-0.6-1.2-1.2
		c0-0.7,0.6-1.2,1.2-1.2c0.6,0,1.2,0.6,1.2,1.2C401.4-224.4,400.8-223.8,400.2-223.8z M399-229.2c0.9,0,1.9,0,2.8,0c0.6,0,1,0.4,1,1
		c0,0.5-0.4,0.9-1,0.9c-0.5,0-1,0-1.5,0c-0.5,0-0.9,0-1.4,0c-0.6,0-1-0.4-1-1C398-228.7,398.4-229.1,399-229.2z M394.1-223.2
		c0-0.7,0.4-1.1,1-1.1c0.6,0,0.9,0.4,1,1.1c0,0.4,0,0.9,0,1.3c0,0.4,0.1,0.5,0.5,0.5c0.2,0,0.4,0,0.6,0c0.5,0.1,0.9,0.5,0.9,1
		c0,0.5-0.3,0.9-0.9,0.9c-0.7,0-1.5,0-2.2,0c-0.5,0-0.8-0.4-0.8-0.9c0-0.5,0-1,0-1.5C394.1-222.3,394.1-222.8,394.1-223.2z
		 M390.3-227.2c-0.6,0-1-0.4-1-1c0-0.6,0.4-1,1-1c0.9,0,1.9,0,2.8,0c0.6,0,1,0.4,1,1c0,0.5-0.4,0.9-1,1c0,0,0,0-0.1,0
		c-0.4,0-0.9,0-1.3,0C391.2-227.2,390.7-227.2,390.3-227.2z M390.7-225.1c0-0.6,0.6-1.2,1.2-1.2c0.6,0,1.2,0.6,1.2,1.2
		c0,0.7-0.6,1.2-1.2,1.2C391.2-223.8,390.7-224.4,390.7-225.1z"/>
	<path class="st3" d="M385.1-228.4c1.1,0,1.1,0.1,1.1-1.1c-0.1-1.2,0.2-2.2,0.9-3.2c0.6-0.9,1.1-1.9,1.7-2.9
		c0.4-0.7,0.5-0.7,1.1-0.2c1.1,0.9,2.1,1.7,3.4,2.4c1.9,1,3.9,1.7,6,1.9c1.9,0.2,3.8,0.1,5.6,0.1c1,0,1.1,0.1,1.1,1.1
		c0,0.4,0,0.9,0,1.3c0,0.4,0.2,0.6,0.6,0.6c0.5,0,1,0,1.4,0.1c0.2,0.1,0.4,0.2,0.6,0.4c0.4-1.5,0.9-3,1-4.6c0.2-3.7-1.3-6.7-3.9-9.2
		c-1.6-1.6-3.6-2.5-5.9-2.7c-1.8-0.2-3.5,0.2-5.2,0.6c-2.7,0.6-4.8,2.1-6.1,4.6c-0.2,0.3-0.4,0.3-0.7,0.4c-3.2,0.1-5.5,3-5,6.2
		c0.2,1.7,0.5,3.3,0.7,5c0,0,0,0,0,0C383.9-228.3,384.5-228.4,385.1-228.4z"/>
	<path class="st3" d="M386.3-228.4c0.3-0.4,0.1-1.1,0.1-1.7c0-0.1,0-0.2,0-0.3c-0.1-0.5,0.1-1,0.4-1.4c0.8-1.2,1.5-2.5,2.2-3.8
		c0.2-0.4,0.3-0.5,0.8-0.1c3.2,3,7.1,4.5,11.5,4.6c1.4,0,2.8,0,4.1,0c0.4,0,0.5,0.1,0.5,0.5c0,0.6,0,1.3,0,1.9
		c0,0.4,0.1,0.6,0.5,0.5c0.8-0.1,1.6,0,2.3,0.4c-0.2-0.2-0.4-0.3-0.6-0.4c-0.5-0.2-1-0.1-1.4-0.1c-0.4,0-0.6-0.1-0.6-0.6
		c0-0.4,0-0.9,0-1.3c0-1-0.1-1.1-1.1-1.1c-1.9,0-3.8,0.1-5.6-0.1c-2.1-0.2-4.1-0.9-6-1.9c-1.2-0.7-2.3-1.5-3.4-2.4
		c-0.6-0.5-0.7-0.5-1.1,0.2c-0.6,0.9-1.1,1.9-1.7,2.9c-0.7,1-1,2-0.9,3.2c0.1,1.2,0,1.1-1.1,1.1c-0.6,0-1.2,0.1-1.6,0.6
		c0.4-0.2,0.8-0.4,1.3-0.4C385.2-228.3,386-227.9,386.3-228.4z"/>
	<path class="st4" d="M403.2-206.6c-0.7-0.4-1.5-0.7-2.2-1.1c1.1,1.2,2.2,2.5,3.3,3.7c1.4,1.6,2.8,3.1,4.2,4.7
		c0.2,0.3,0.1,0.5,0,0.7c-0.7,2-1.4,4.1-2,6.1c4.4-1.4,8.3-3.7,11.6-6.8c-0.1,0-0.1-0.1-0.2-0.1C413-201.6,408.1-204.2,403.2-206.6z
		"/>
	<path class="st4" d="M383.5-198.7c-0.1-0.3-0.1-0.4,0.1-0.6c1.8-2,3.6-4,5.4-6c0.7-0.8,1.4-1.6,2.1-2.4c-0.1,0-0.1,0-0.2,0
		c-5.1,2.6-10.2,5.1-15.3,7.7c2.8,2.8,6,5,9.7,6.5C384.7-195.2,384.1-196.9,383.5-198.7z"/>
	<path class="st5" d="M391.2-201.5c0-2.1,0-4.2,0-6.3c0,0-0.1,0.1-0.1,0.1c0.1,0.3-0.2,0.4-0.3,0.6c-2.3,2.6-4.6,5.2-6.9,7.7
		c-0.3,0.3-0.2,0.6-0.1,1c0.6,1.7,1.1,3.3,1.7,5c1.8,0.8,3.8,1.4,5.7,1.8c0-3,0-6.1,0-9.1C391.2-201,391.2-201.2,391.2-201.5z"/>
	<path class="st5" d="M383.9-199.3c2.3-2.6,4.6-5.2,6.9-7.7c0.2-0.2,0.4-0.3,0.3-0.6c-0.7,0.8-1.4,1.6-2.1,2.4c-1.8,2-3.6,4-5.4,6
		c-0.2,0.2-0.2,0.4-0.1,0.6c0.6,1.7,1.2,3.5,1.8,5.2c0.1,0,0.1,0,0.2,0.1c-0.6-1.7-1.1-3.3-1.7-5C383.7-198.7,383.6-199,383.9-199.3
		z"/>
	<path class="st5" d="M408-199.5c-1.8-2-3.6-4-5.4-6.1c-0.4-0.5-0.9-1-1.3-1.5c-0.1-0.2-0.4-0.3-0.3-0.6c0,0,0,0,0,0c0,0,0,0,0,0
		c0,0-0.1-0.1-0.1-0.1c0,2.1,0,4.2,0,6.3c0,3.3,0,6.6,0,9.9c0,0.1,0,0.2,0,0.3c1.8-0.2,3.6-0.6,5.4-1.1c0.7-2,1.3-4,2-6
		C408.5-198.8,408.4-199.1,408-199.5z"/>
	<path class="st5" d="M408.5-199.3c-1.4-1.5-2.8-3.1-4.2-4.7c-1.1-1.2-2.2-2.5-3.3-3.7c0,0,0,0,0,0c-0.1,0.3,0.1,0.4,0.3,0.6
		c0.4,0.5,0.9,1,1.3,1.5c1.8,2,3.6,4.1,5.4,6.1c0.3,0.4,0.4,0.7,0.3,1.2c-0.7,2-1.3,4-2,6c0.1,0,0.1,0,0.2-0.1c0.7-2,1.4-4.1,2-6.1
		C408.6-198.8,408.8-199,408.5-199.3z"/>
	<path class="st4" d="M398-199c-1.3,0-2.6,0-3.9,0c-0.3,2.6-0.6,5.2-0.9,7.8c1.3,0.2,2.6,0.3,4,0.3c0.5,0,1.1,0,1.6,0
		c-0.2-2.1-0.5-4.2-0.7-6.4C398.1-197.9,398.1-198.5,398-199z"/>
	<path class="st6" d="M400.7-201.5c-0.5-0.3-1.1-0.6-1.6-0.8c0,0,0,0,0,0c0,0,0,0,0,0c-0.4,1.1-0.7,2.2-1.1,3.3
		c0.2,0.2,0.3,0.5,0.3,0.8c0.2,2.4,0.5,4.8,0.8,7.1c0.6,0,1.1-0.1,1.7-0.1c0-3.4,0-6.8,0-10.2C400.7-201.5,400.7-201.5,400.7-201.5z
		"/>
	<path class="st6" d="M400.9-201.5L400.9-201.5c-0.1,0-0.1-0.1-0.2-0.1c0,0,0,0.1,0,0.1c0,3.4,0,6.8,0,10.2c0.1,0,0.1,0,0.2,0
		c0-0.1,0-0.2,0-0.3C400.9-194.9,400.9-198.2,400.9-201.5z"/>
	<path class="st6" d="M398-199.1C398-199,398-199,398-199.1c0.1,0.6,0.1,1.1,0.2,1.7c0.2,2.1,0.5,4.2,0.7,6.4c0.1,0,0.1,0,0.2,0
		c-0.2-2.4-0.5-4.8-0.8-7.1C398.3-198.5,398.2-198.8,398-199.1z"/>
	<path class="st6" d="M394.1-199.1c-0.4-1.1-0.7-2.2-1.1-3.2c-0.6,0.2-1.1,0.5-1.6,0.8c0,0,0,0.1,0,0.1c0,3.3,0,6.6,0,9.9
		c0.6,0.1,1.1,0.2,1.7,0.3c0.2-2.3,0.5-4.6,0.8-7C393.9-198.5,393.9-198.8,394.1-199.1z"/>
	<path class="st6" d="M391.4-201.4c0,0,0-0.1,0-0.1c-0.1,0-0.1,0.1-0.2,0.1c0,0.2,0,0.5,0,0.7c0,3,0,6.1,0,9.1c0.1,0,0.1,0,0.2,0
		C391.4-194.8,391.4-198.1,391.4-201.4z"/>
	<path class="st6" d="M394.1-199.1c-0.2,0.2-0.3,0.5-0.3,0.8c-0.2,2.3-0.5,4.6-0.8,7c0.1,0,0.1,0,0.2,0
		C393.6-193.8,393.8-196.4,394.1-199.1C394.1-199,394.1-199,394.1-199.1z"/>
	<path class="st2" d="M396-203.8C396-203.8,396-203.8,396-203.8c0.1,0,0.1,0,0.2,0c0.6-0.7,1.3-1.1,2-1.7c0.9-0.8,1.8-1.5,2.8-2.2
		c0-0.5,0-1,0-1.5c-1.5,1-3.2,1.5-5,1.5c-1.7,0-3.2-0.6-4.7-1.5c0,0.5,0,1,0,1.5c1.5,1.2,3,2.4,4.6,3.6
		C395.8-204.1,395.9-203.9,396-203.8z"/>
	<polygon class="st2" points="400.9,-207.8 400.9,-207.8 400.9,-207.8 	"/>
	<path class="st7" d="M392.1-209c2.7,1.4,5.4,1.4,8.1,0c0.2-0.1,0.4-0.3,0.7-0.2c0-0.6,0-1.3,0-1.9c0,0,0,0,0,0
		c-0.6,0.7-1.5,1-2.4,1.3c-2.4,0.7-4.6,0.4-6.8-0.8c-0.2-0.1-0.4-0.2-0.5-0.4l0,0c0,0.6,0,1.3,0,1.9v0v0
		C391.5-209.3,391.8-209.1,392.1-209z"/>
	<path class="st7" d="M391.7-210.7c2.1,1.2,4.4,1.5,6.8,0.8c0.9-0.3,1.8-0.5,2.4-1.3c-0.2,0.1-0.5,0.3-0.7,0.4
		c-1.6,0.9-3.4,1.2-5.2,1c-1.4-0.2-2.6-0.7-3.8-1.4l0,0l0,0C391.3-210.9,391.5-210.8,391.7-210.7z"/>
	<path class="st7" d="M400.9-209.2c-0.3-0.1-0.5,0.1-0.7,0.2c-2.7,1.4-5.4,1.4-8.1,0c-0.3-0.1-0.5-0.3-0.8-0.3v0
		c1.4,0.9,3,1.4,4.7,1.5C397.7-207.7,399.4-208.3,400.9-209.2z"/>
	<path class="st7" d="M395-219.5c0.7,0,1.5,0,2.2,0c0.5,0,0.8-0.4,0.9-0.9c0-0.5-0.3-0.9-0.9-1c-0.2,0-0.4,0-0.6,0
		c-0.4,0-0.5-0.1-0.5-0.5c0-0.4,0-0.9,0-1.3c0-0.7-0.4-1.1-1-1.1c-0.6,0-1,0.4-1,1.1c0,0.4,0,0.9,0,1.3c0,0.5,0,1,0,1.5
		C394.1-219.9,394.4-219.5,395-219.5z"/>
	<path class="st7" d="M398-217.5c-1.3,0-2.5,0-3.8,0c-0.6,0-1,0.4-1,1c0,0.6,0.4,0.9,1,1c0.6,0,1.3,0,1.9,0c0.6,0,1.3,0,1.9,0
		c0.7,0,1.1-0.4,1.1-1C399-217.1,398.6-217.5,398-217.5z"/>
	<path class="st3" d="M393-227.2C393-227.2,393-227.2,393-227.2c0.7,0,1.1-0.4,1.1-1c0-0.6-0.4-1-1-1c-0.9,0-1.9,0-2.8,0
		c-0.6,0-1,0.4-1,1c0,0.6,0.4,0.9,1,1c0.5,0,0.9,0,1.4,0C392.1-227.2,392.6-227.2,393-227.2z"/>
	<path class="st3" d="M399-227.2c0.5,0,0.9,0,1.4,0c0.5,0,1,0,1.5,0c0.6,0,1-0.4,1-0.9c0-0.6-0.4-1-1-1c-0.9,0-1.9,0-2.8,0
		c-0.6,0-1,0.4-1,1C398-227.6,398.4-227.2,399-227.2z"/>
	<path class="st8" d="M393.1-225c0-0.6-0.5-1.2-1.2-1.2c-0.6,0-1.2,0.5-1.2,1.2c0,0.7,0.5,1.3,1.2,1.3
		C392.6-223.8,393.1-224.4,393.1-225z"/>
	<path class="st8" d="M400.2-226.2c-0.7,0-1.2,0.5-1.2,1.2c0,0.7,0.5,1.2,1.2,1.2c0.7,0,1.2-0.5,1.2-1.2
		C401.4-225.7,400.9-226.2,400.2-226.2z"/>
	<polygon class="st9" points="391.2,-207.8 391.2,-207.7 391.2,-207.8 	"/>
	<path class="st9" d="M395.9-203.8c-1.5-1.1-2.9-2.3-4.4-3.5c-0.1-0.1-0.2-0.2-0.3-0.4c0.1,0.3,0.1,0.6,0.1,0.9c0,1.7,0,3.5,0,5.2
		c0.5-0.4,1-0.7,1.6-0.7C394-202.8,395-203.3,395.9-203.8z"/>
	<path class="st9" d="M391.2-207.8C391.2-207.7,391.2-207.7,391.2-207.8C391.2-207.7,391.2-207.7,391.2-207.8
		C391.2-207.8,391.2-207.8,391.2-207.8z"/>
	<polygon class="st9" points="391.2,-207.8 391.2,-207.8 391.2,-207.8 	"/>
	<path class="st9" d="M391.4-201.6c0-1.7,0-3.5,0-5.2c0-0.3,0-0.6-0.1-0.9c0,0,0-0.1-0.1-0.1c0,0,0,0,0,0c0,0,0,0,0,0
		c0,2.1,0,4.2,0,6.3C391.3-201.5,391.3-201.6,391.4-201.6z"/>
	<path class="st9" d="M393-202.3c-0.7,0-1.2,0.3-1.6,0.7c0,0,0,0,0,0.1C391.9-201.8,392.4-202.1,393-202.3L393-202.3
		C393-202.3,393-202.3,393-202.3z"/>
	<path class="st9" d="M391.2-201.5c0.1,0,0.1-0.1,0.2-0.1c0,0,0,0,0-0.1C391.3-201.6,391.3-201.5,391.2-201.5z"/>
	<polygon class="st9" points="391.2,-207.8 391.2,-207.8 391.2,-207.8 	"/>
	<path class="st9" d="M391.2-207.7C391.2-207.7,391.2-207.7,391.2-207.7C391.3-207.7,391.3-207.7,391.2-207.7
		c0.2,0.2,0.2,0.3,0.3,0.4c1.5,1.1,2.9,2.3,4.4,3.5c0,0,0,0,0,0h0c0,0,0,0,0,0c-0.1-0.1-0.1-0.2-0.2-0.3
		C394.2-205.3,392.7-206.5,391.2-207.7C391.2-207.8,391.2-207.8,391.2-207.7C391.2-207.7,391.2-207.7,391.2-207.7z"/>
	<path class="st9" d="M391.2-207.7C391.2-207.7,391.2-207.7,391.2-207.7C391.3-207.7,391.3-207.7,391.2-207.7
		C391.2-207.7,391.2-207.7,391.2-207.7z"/>
	<path class="st9" d="M400.9-207.8c-0.5,0.7-1.2,1.1-1.8,1.6c-1,0.8-1.9,1.6-3,2.4c1,0.5,1.9,1,2.9,1.5c0.7,0,1.2,0.3,1.7,0.7
		c0-1.7,0-3.4,0-5.1c0-0.3,0-0.6,0.1-0.9C400.8-207.6,400.9-207.7,400.9-207.8C400.9-207.8,400.9-207.8,400.9-207.8
		C400.9-207.8,400.9-207.8,400.9-207.8C400.9-207.8,400.9-207.8,400.9-207.8C400.9-207.8,400.9-207.8,400.9-207.8z"/>
	<polygon class="st9" points="400.9,-207.8 400.9,-207.8 400.9,-207.8 400.9,-207.8 	"/>
	<path class="st9" d="M400.8-207.6c-0.1,0.3-0.1,0.6-0.1,0.9c0,1.7,0,3.4,0,5.1c0.1,0.1,0.1,0.1,0.2,0.1v0c0-2.1,0-4.2,0-6.3
		c0,0,0,0,0,0C400.9-207.7,400.8-207.6,400.8-207.6z"/>
	<path class="st9" d="M399.1-202.3C399.1-202.3,399.1-202.3,399.1-202.3C399.1-202.3,399.1-202.3,399.1-202.3
		c0.6,0.2,1.1,0.5,1.7,0.8c0,0,0,0,0-0.1C400.3-202,399.7-202.3,399.1-202.3z"/>
	<path class="st9" d="M400.7-201.6C400.7-201.6,400.7-201.6,400.7-201.6c0.1,0.1,0.1,0.1,0.2,0.1l0,0v0
		C400.8-201.5,400.8-201.6,400.7-201.6z"/>
	<polygon class="st9" points="400.9,-207.8 400.9,-207.8 400.9,-207.8 400.9,-207.8 	"/>
	<path class="st9" d="M396.2-203.9C396.2-203.8,396.2-203.8,396.2-203.9c1.1-0.7,2-1.5,3-2.3c0.6-0.5,1.3-0.9,1.8-1.6c0,0,0,0,0,0
		c-0.9,0.7-1.9,1.5-2.8,2.2C397.5-205,396.7-204.5,396.2-203.9z"/>
	<path class="st5" d="M396.2-203.8c-0.1,0-0.2,0-0.2,0c0,0.1,0,0.1-0.1,0.1c-0.9,0.5-1.8,1.1-2.9,1.4c0,0,0,0,0,0
		c0.5,1,0.9,2.1,1.1,3.2c0,0,0,0,0,0c0.4-0.2,0.8-0.1,1.1-0.1c0.9,0,1.8-0.1,2.7,0.1c0,0,0-0.1,0-0.1c0.3-1.1,0.5-2.2,1.1-3.1
		c0,0,0,0,0,0C398-202.7,397-203.1,396.2-203.8C396.2-203.8,396.2-203.8,396.2-203.8z"/>
	<path class="st5" d="M395.3-199.2c-0.4,0-0.8-0.1-1.1,0.1c0,0,0,0,0,0c0,0,0,0,0,0.1c1.3,0,2.6,0,3.9,0c0,0,0-0.1,0-0.1
		C397.1-199.3,396.2-199.2,395.3-199.2z"/>
	<path class="st5" d="M399-202.3c-0.6,1-0.8,2.1-1.1,3.1c0,0,0,0.1,0,0.1c0,0,0,0,0,0c0,0,0,0,0,0
		C398.4-200.1,398.7-201.2,399-202.3C399.1-202.3,399.1-202.3,399-202.3C399.1-202.3,399.1-202.3,399-202.3
		C399-202.3,399-202.3,399-202.3z"/>
	<path class="st5" d="M397.9-199.1C398-199.1,398-199,397.9-199.1C398-199,398-199,397.9-199.1C398-199.1,398-199.1,397.9-199.1
		C398-199.1,397.9-199.1,397.9-199.1z"/>
	<path class="st5" d="M393.1-202.3C393.1-202.3,393-202.3,393.1-202.3C393-202.3,393-202.3,393.1-202.3L393.1-202.3
		c0.3,1.1,0.7,2.2,1,3.3c0,0,0,0,0,0C394-200.2,393.5-201.3,393.1-202.3z"/>
	<path class="st5" d="M394.1-199.1C394.1-199,394.1-199,394.1-199.1C394.1-199,394.1-199,394.1-199.1
		C394.1-199.1,394.1-199.1,394.1-199.1z"/>
	<path class="st5" d="M396.2-203.8C396.2-203.8,396.2-203.8,396.2-203.8C396.2-203.8,396.2-203.8,396.2-203.8c-0.1,0-0.2,0-0.2,0
		c0,0,0,0,0,0C396-203.8,396.1-203.8,396.2-203.8z"/>
	<path class="st5" d="M393-202.3c1-0.3,1.9-0.9,2.9-1.4c0,0,0.1-0.1,0.1-0.1c0,0,0,0,0,0c0,0,0,0,0,0C395-203.3,394-202.8,393-202.3
		C393-202.3,393-202.3,393-202.3z"/>
	<path class="st5" d="M393-202.3C393-202.3,393-202.3,393-202.3C393-202.3,393-202.3,393-202.3L393-202.3L393-202.3
		C393-202.3,393-202.3,393-202.3z"/>
	<path class="st5" d="M396-203.8C396-203.8,396-203.8,396-203.8L396-203.8C395.9-203.8,395.9-203.8,396-203.8
		C395.9-203.8,395.9-203.8,396-203.8C395.9-203.8,395.9-203.8,396-203.8z"/>
	<path class="st5" d="M399-202.3C399-202.3,399.1-202.3,399-202.3c-0.9-0.5-1.9-1-2.8-1.5c0,0,0,0,0,0
		C397-203.1,398-202.7,399-202.3z"/>
	<path class="st5" d="M399-202.3C399.1-202.3,399.1-202.3,399-202.3C399.1-202.3,399.1-202.3,399-202.3
		C399.1-202.3,399-202.3,399-202.3z"/>
	<path class="st5" d="M396.2-203.8C396.2-203.8,396.2-203.8,396.2-203.8C396.2-203.8,396.2-203.8,396.2-203.8
		C396.2-203.8,396.2-203.8,396.2-203.8z"/>
</g>
<path class="st10" d="M635,185.1H348.7c-6.6,0-12-5.4-12-12v-44.1c0-6.6,5.4-12,12-12H635c6.6,0,12,5.4,12,12v44.1
	C647,179.7,641.6,185.1,635,185.1z"/>
<g>
	<text transform="matrix(1 0 0 1 417.8331 162.4814)" class="st15" style="font-family:'Montserrat-Light'; font-size:31.1428px;">Recreation</text>
</g>
<path class="st11" d="M635,314H348.5c-6.6,0-12-5.4-12-12v-44.1c0-6.6,5.4-12,12-12H635c6.6,0,12,5.4,12,12V302
	C647,308.6,641.6,314,635,314z"/>
<text transform="matrix(1 0 0 1 420.8702 290.4726)" class="st15" style="font-family:'Montserrat-Light'; font-size:31.1428px;">Technology</text>
<circle class="st12" cx="340.7" cy="279.8" r="47.3"/>
<circle class="st13" cx="340.9" cy="149.5" r="47.3"/>
<circle class="st14" cx="340.9" cy="21.9" r="47.3"/>
<g>
	<path class="st15" d="M373.3,276.9c-1.6-0.4-3.3,0.3-4.1,1.7c-0.3,0.5-0.6,0.6-1.1,0.6c-2.2,0-4.4,0-6.6,0c-2.3,0-4.5,0-6.8,0
		c-0.5,0-0.7-0.1-0.7-0.7c0-1.2,0-2.4,0-3.6c0-0.5,0.1-0.6,0.6-0.6c1.2,0,2.5,0,3.7,0c0.5,0,0.8,0.1,1,0.6c0.9,1.7,2.9,2.3,4.6,1.5
		c1.7-0.8,2.6-2.7,2-4.5c-0.5-1.4-1.5-2.3-3-2.5c-1.5-0.2-3,0.5-3.7,1.9c-0.2,0.5-0.5,0.6-1,0.6c-1.3,0-2.5,0-3.8,0
		c-0.4,0-0.6-0.1-0.6-0.5c0-1,0-2,0-3c0-0.9-0.4-1.4-1.4-1.4c-1,0-2,0-3,0c-0.4,0-0.5-0.1-0.5-0.5c0-1.3,0-2.6,0-3.9
		c0-0.4,0.1-0.7,0.5-0.9c1.5-0.8,2.2-2.5,1.8-4.1c-0.5-1.7-1.9-2.8-3.6-2.7c-1.7,0-3.1,1.2-3.5,2.8c-0.4,1.6,0.4,3.2,1.9,4
		c0.4,0.2,0.5,0.4,0.5,0.9c0,1.3,0,2.5,0,3.8c0,0.6-0.2,0.7-0.7,0.6c-1.2,0-2.4,0-3.6,0c-0.5,0-0.6-0.1-0.6-0.6c0-4.5,0-9.1,0-13.6
		c0-0.5,0.2-0.6,0.5-0.9c1.5-0.8,2.2-2.5,1.8-4c-0.4-1.7-1.8-2.8-3.6-2.8c-1.7,0-3.1,1.1-3.5,2.8c-0.4,1.6,0.3,3.3,1.9,4.1
		c0.3,0.2,0.5,0.3,0.5,0.7c0,4.6,0,9.2,0,13.7c0,0.4-0.1,0.6-0.5,0.5c-1.3,0-2.5,0-3.8,0c-0.4,0-0.5-0.1-0.5-0.5c0-1.3,0-2.6,0-3.9
		c0-0.4,0.1-0.6,0.5-0.8c1.5-0.8,2.3-2.5,1.9-4c-0.4-1.7-1.8-2.8-3.5-2.8c-1.8,0-3.2,1.1-3.7,2.8c-0.4,1.6,0.3,3.3,1.9,4.1
		c0.3,0.2,0.5,0.3,0.5,0.7c0,1.3,0,2.7,0,4c0,0.5-0.2,0.5-0.6,0.5c-1,0-2,0-3,0c-0.9,0-1.3,0.4-1.3,1.4c0,1,0,2,0,3
		c0,0.4-0.1,0.6-0.5,0.6c-1.3,0-2.6,0-3.9,0c-0.4,0-0.6-0.1-0.8-0.5c-0.8-1.5-2.5-2.3-4.1-1.9c-1.7,0.4-2.8,1.8-2.8,3.6
		c0,1.7,1.1,3.1,2.8,3.5c1.6,0.4,3.2-0.3,4.1-1.9c0.1-0.3,0.2-0.5,0.7-0.5c1.4,0,2.8,0,4.2,0c0.4,0,0.5,0.1,0.5,0.5
		c0,1.3,0,2.5,0,3.8c0,0.5-0.2,0.6-0.6,0.6c-4.5,0-9,0-13.4,0c-0.5,0-0.7-0.1-1-0.6c-0.8-1.4-2.4-2.2-3.9-1.8
		c-1.6,0.4-2.9,1.8-2.9,3.4c-0.1,1.9,1,3.3,2.7,3.8c1.6,0.4,3.3-0.3,4.1-1.8c0.2-0.3,0.3-0.5,0.8-0.5c4.6,0,9.2,0,13.7,0
		c0.4,0,0.5,0.1,0.5,0.5c0,1.3,0,2.6,0,3.9c0,0.4-0.1,0.5-0.5,0.5c-1.3,0-2.6,0-3.9,0c-0.4,0-0.7-0.1-0.9-0.5
		c-0.8-1.5-2.5-2.3-4.1-1.8c-1.7,0.5-2.8,1.9-2.7,3.6c0,1.7,1.1,3.1,2.8,3.5c1.6,0.4,3.2-0.3,4-1.9c0.2-0.4,0.4-0.5,0.9-0.5
		c1.3,0,2.5,0,3.8,0c0.6,0,0.7,0.2,0.6,0.7c0,1,0,1.9,0,2.9c0,0.9,0.5,1.3,1.3,1.3c1,0,2,0,3,0c0.4,0,0.6,0.1,0.6,0.6
		c0,1.3,0,2.6,0,3.9c0,0.4-0.1,0.7-0.5,0.9c-1.7,0.9-2.4,2.8-1.7,4.5c0.6,1.5,2.1,2.4,3.8,2.3c1.5-0.1,2.9-1.3,3.2-2.9
		c0.3-1.5-0.4-3.2-1.8-3.9c-0.4-0.2-0.6-0.5-0.6-1c0-1.3,0-2.5,0-3.8c0-0.5,0.1-0.6,0.6-0.6c1.2,0,2.4,0,3.6,0
		c0.6,0,0.7,0.2,0.7,0.7c0,4.5,0,9,0,13.4c0,0.4-0.1,0.7-0.5,0.9c-1.5,0.8-2.2,2.4-1.9,4c0.4,1.7,1.8,2.9,3.5,2.9
		c1.8,0,3.2-1,3.7-2.8c0.4-1.6-0.3-3.3-1.8-4.1c-0.4-0.2-0.5-0.4-0.5-0.8c0-4.6,0-9.1,0-13.7c0-0.4,0.1-0.6,0.5-0.6
		c1.3,0,2.5,0,3.8,0c0.4,0,0.6,0.1,0.6,0.5c0,1.3,0,2.6,0,3.9c0,0.4-0.1,0.6-0.5,0.8c-1.5,0.8-2.3,2.5-1.9,4.1
		c0.5,1.7,1.9,2.8,3.6,2.8c1.7,0,3.1-1.1,3.5-2.8c0.4-1.6-0.3-3.2-1.9-4.1c-0.3-0.1-0.5-0.2-0.5-0.6c0-1.4,0-2.8,0-4.2
		c0-0.4,0.1-0.5,0.5-0.5c1,0,2,0,3,0c0.9,0,1.3-0.4,1.4-1.3c0-1,0-2,0-3c0-0.4,0.1-0.6,0.5-0.6c1.3,0,2.7,0,4,0
		c0.4,0,0.6,0.1,0.7,0.5c0.8,1.5,2.5,2.3,4.1,1.9c1.7-0.4,2.8-1.8,2.8-3.6c0-1.7-1.1-3.1-2.8-3.5c-1.6-0.4-3.3,0.3-4.1,1.9
		c-0.2,0.4-0.4,0.5-0.8,0.5c-1.3,0-2.6,0-3.9,0c-0.4,0-0.5-0.1-0.5-0.5c0-1.2,0-2.5,0-3.7c0-0.5,0.1-0.6,0.6-0.6c4.5,0,9.1,0,13.6,0
		c0.4,0,0.6,0.1,0.8,0.5c0.8,1.5,2.5,2.3,4,1.9c1.7-0.4,2.8-1.8,2.8-3.5C376.1,278.8,375,277.4,373.3,276.9z M362.7,272
		c0.6,0,1.2,0.6,1.2,1.2c0,0.6-0.6,1.2-1.2,1.2c-0.6,0-1.2-0.6-1.2-1.2C361.5,272.5,362.1,272,362.7,272z M319,274.4
		c-0.6,0-1.2-0.6-1.2-1.2c0-0.6,0.6-1.2,1.2-1.2c0.6,0,1.2,0.6,1.2,1.2C320.2,273.8,319.6,274.4,319,274.4z M309.2,281.7
		c-0.6,0-1.2-0.6-1.2-1.2c0-0.6,0.6-1.2,1.2-1.2c0.6,0,1.2,0.6,1.2,1.2C310.4,281.1,309.8,281.7,309.2,281.7z M319,289
		c-0.6,0-1.2-0.6-1.2-1.2c0-0.6,0.6-1.2,1.2-1.2c0.6,0,1.2,0.6,1.2,1.2C320.2,288.4,319.6,289,319,289z M346.9,258.6
		c0-0.6,0.5-1.2,1.2-1.2c0.6,0,1.2,0.5,1.2,1.2c0,0.6-0.5,1.2-1.2,1.2C347.5,259.8,346.9,259.3,346.9,258.6z M339.6,248.9
		c0-0.6,0.6-1.2,1.2-1.2c0.6,0,1.2,0.6,1.2,1.2c0,0.6-0.6,1.2-1.2,1.2C340.2,250.1,339.6,249.5,339.6,248.9z M332.3,258.6
		c0-0.6,0.6-1.2,1.2-1.2c0.6,0,1.2,0.6,1.2,1.2c0,0.6-0.6,1.2-1.2,1.2C332.9,259.8,332.3,259.2,332.3,258.6z M334.8,302.3
		c0,0.6-0.6,1.2-1.2,1.2c-0.6,0-1.2-0.6-1.2-1.2c0-0.6,0.6-1.2,1.2-1.2C334.2,301.1,334.8,301.7,334.8,302.3z M342,312
		c0,0.6-0.6,1.2-1.2,1.2c-0.6,0-1.2-0.6-1.2-1.2c0-0.6,0.6-1.2,1.2-1.2C341.4,310.8,342,311.4,342,312z M349.3,302.3
		c0,0.6-0.6,1.2-1.2,1.2c-0.6,0-1.2-0.6-1.2-1.2c0-0.6,0.6-1.2,1.2-1.2C348.7,301.1,349.3,301.7,349.3,302.3z M351.1,291.4
		c-3.4,0-6.9,0-10.3,0c-3.4,0-6.8,0-10.2,0c-0.6,0-0.7-0.1-0.7-0.7c0-6.8,0-13.7,0-20.5c0-0.6,0.1-0.7,0.7-0.7c6.8,0,13.7,0,20.5,0
		c0.6,0,0.7,0.1,0.7,0.7c0,6.8,0,13.7,0,20.5C351.8,291.3,351.7,291.4,351.1,291.4z M362.7,286.6c0.6,0,1.2,0.6,1.2,1.2
		c0,0.6-0.6,1.2-1.2,1.2c-0.6,0-1.2-0.6-1.2-1.2C361.5,287.1,362.1,286.5,362.7,286.6z M372.5,281.7c-0.6,0-1.2-0.6-1.2-1.2
		c0-0.6,0.6-1.2,1.2-1.2c0.6,0,1.2,0.6,1.2,1.2C373.7,281.1,373.1,281.7,372.5,281.7z"/>
</g>
<rect x="321.2" y="-121.5" style="fill:none;" width="318.9" height="56"/>
<text transform="matrix(1 0 0 1 321.1944 -105.5333)" style="font-family:'Montserrat-Light'; font-size:21.5604px;">Subjects available to interact:</text>
<g>
	<path class="st16" d="M3.1,14.9c-1.6-1.5-2.4-4.1-2.4-6.2c0-2,0.7-4.2,2.2-5.8c1.1-1.2,3.1-2.2,5.5-2.2c2,0,3.7,0.7,4.5,1.2
		c0.3,0.2,0.4,0.2,0.4,0l0.2-0.6c0-0.1,0.1-0.1,0.3-0.1c0.2,0,0.2,0,0.2,0.4c0,0.4,0.4,3.7,0.6,4.3c0,0.1,0,0.2-0.1,0.2l-0.3,0.1
		c-0.1,0-0.2,0-0.2-0.2c-0.3-0.7-0.8-1.8-1.7-2.7c-0.9-0.9-2.1-1.7-3.8-1.7C4.5,1.5,3,5,3,8.2c0,1.3,0.4,3.8,2.1,5.7
		c1.5,1.7,2.8,1.9,4.2,1.9c2.5,0,4.4-1.4,5.4-2.8c0.1-0.1,0.1-0.1,0.2-0.1l0.3,0.2c0.1,0,0.1,0.1,0,0.2c-1.3,1.9-3.5,3.7-6.6,3.7
		C6.1,17,4.5,16.2,3.1,14.9z"/>
	<path class="st16" d="M23.5,8c0-1.4,0-4.3,0-4.7c0-1.1-0.2-1.4-1-1.4h-1c-0.1,0-0.1,0-0.1-0.2V1.1C21.3,1,21.4,1,21.5,1
		C21.9,1,22.7,1,24.6,1C26.3,1,27.1,1,27.5,1c0.2,0,0.2,0,0.2,0.1v0.6c0,0.1,0,0.2-0.2,0.2h-1.1c-0.7,0-0.9,0.4-0.9,1.3
		c0,0.3,0,3.2,0,4.5v0.4c0,0.1,0.1,0.2,0.3,0.2H34c0.3,0,0.4,0,0.4-0.3V7.5c0-1.3-0.1-4.3-0.1-4.6c0-0.7-0.1-1.1-0.7-1.1h-1.1
		c-0.1,0-0.2,0-0.2-0.2V1.1c0-0.1,0-0.1,0.1-0.1C32.9,1,33.8,1,35.3,1C36.8,1,37.7,1,38.2,1c0.2,0,0.2,0,0.2,0.2v0.5
		c0,0.1,0,0.2-0.2,0.2h-1c-0.6,0-0.7,0.4-0.7,1.2c0,0.3,0,4,0,4.8v0.7c0,0.7,0,4.9,0.1,6.1c0,0.8,0.2,1.1,0.9,1.1h1
		c0.2,0,0.2,0,0.2,0.2v0.5c0,0.1,0,0.2-0.2,0.2c-0.4,0-1.2-0.1-2.8-0.1c-1.9,0-2.6,0.1-3.3,0.1c-0.1,0-0.1-0.1-0.1-0.2V16
		c0-0.1,0-0.2,0.2-0.2h1.4c0.5,0,0.6-0.4,0.6-1c0-1,0.1-4.6,0.1-5.4V9.1c0-0.2-0.1-0.3-0.5-0.3h-8.1c-0.2,0-0.3,0.1-0.3,0.2v0.5
		c0,0.6,0,4,0,5.5c0,0.5,0.2,0.7,0.7,0.7h1.1c0.1,0,0.2,0,0.2,0.2v0.6c0,0.1,0,0.2-0.2,0.2c-0.4,0-1.2-0.1-2.8-0.1
		c-1.9,0-2.6,0.1-3.1,0.1c-0.1,0-0.2,0-0.2-0.2V16c0-0.1,0.1-0.1,0.2-0.1h1.3c0.6,0,0.6-0.5,0.6-1.1c0-1,0.1-5.3,0.1-5.9V8z"/>
	<path class="st16" d="M47.1,7.4c0-0.5-0.1-4.5-0.1-4.8c0-0.5-0.3-0.7-1.1-0.7h-1.3c-0.1,0-0.2,0-0.2-0.1V1.1C44.4,1,44.5,1,44.6,1
		C44.8,1,46,1,48,1C50,1,50.7,1,51,1c0.1,0,0.2,0.1,0.2,0.2v0.6c0,0.1-0.1,0.2-0.2,0.2h-1c-0.4,0-0.8,0.2-0.8,0.6
		c0,0.2-0.1,5.1-0.1,5.4v1.7c0,0.2,0.1,5.3,0.1,5.6c0,0.7,0.3,0.8,1,0.8h0.9c0.1,0,0.2,0,0.2,0.2v0.6c0,0.1-0.1,0.1-0.2,0.1
		c-0.3,0-1.1-0.1-3.1-0.1c-2.1,0-3,0.1-3.3,0.1c-0.1,0-0.2,0-0.2-0.1V16c0-0.1,0.1-0.1,0.2-0.1H46c0.4,0,0.9-0.1,1-0.6
		c0-0.3,0.1-5.1,0.1-6.3V7.4z"/>
	<path class="st16" d="M67.3,13.1c0.3-0.3,2.5-5.6,2.7-5.9c0.2-0.3,2.6-5.5,2.6-5.9c0-0.2,0.3-0.3,0.5-0.3C76,1,76.8,1,77,1
		c0.1,0,0.1,0.1,0.1,0.2v0.5c0,0.1,0,0.2-0.2,0.2h-1c-0.7,0-0.7,0.4-0.7,0.9c0,0.6-0.1,3.8-0.1,5.3v1.5c0,1.1,0.1,4.7,0.1,5.1
		c0,0.8,0.2,1.2,0.7,1.2h1.3c0.1,0,0.2,0.1,0.2,0.2v0.5c0,0.1,0,0.2-0.2,0.2c-0.3,0-0.7-0.1-3.1-0.1c-2,0-2.9,0.1-3.2,0.1
		c-0.2,0-0.2-0.1-0.2-0.2V16c0-0.1,0-0.2,0.2-0.2h1.5c0.4,0,0.6-0.1,0.6-0.8c0-0.3,0-4.1,0-5.7V7.9c0-1.5,0-5.4-0.1-5.6h0
		c-0.2,0.3-3.3,7.2-3.5,7.4c-0.1,0.3-2.6,5.9-2.7,6.1c-0.1,0.2-0.3,0.5-0.4,0.5c-0.1,0-0.2-0.2-0.3-0.4l-3-7.4
		c-0.4-1-2.4-5.9-2.7-6.2c-0.1,0.3-0.1,5.9-0.1,6.1c0,0.3,0,4.9,0,5.7c0.1,1.3,0.3,1.6,1,1.6h1.1c0.1,0,0.2,0.1,0.2,0.2v0.6
		c0,0.1,0,0.2-0.2,0.2c-0.2,0-0.8-0.1-2.7-0.1c-1.9,0-2.6,0.1-2.8,0.1c-0.2,0-0.2,0-0.2-0.2V16c0-0.1,0-0.1,0.1-0.1H58
		c0.8,0,1-0.6,1.2-1.3c0.3-1.6,0.3-7.2,0.3-7.6c0-0.3,0-3.6,0-4.3c0-0.5,0-0.8-0.9-0.8h-1.3c-0.1,0-0.2-0.1-0.2-0.2V1.1
		c0-0.1,0-0.1,0.2-0.1C57.5,1,58.1,1,60,1C61,1,61.6,1,61.8,1c0.3,0,0.5,0.1,0.6,0.4L67.3,13.1z"/>
	<path class="st16" d="M87.8,8.2c0.2,0,2.5-0.1,2.8-0.1c0.6-0.1,0.8-0.3,1-1c0.1-0.2,0.2-0.7,0.2-1.1c0-0.1,0.1-0.2,0.2-0.2l0.6,0
		c0.1,0,0.2,0.1,0.1,0.2c-0.1,0.4-0.1,2.2-0.1,2.5c0,0.8,0.1,1.8,0.1,2.3c0,0.1,0,0.2-0.1,0.2l-0.5,0.1c-0.1,0-0.2,0-0.2-0.2
		c0-0.3-0.2-0.8-0.2-1c-0.1-0.5-0.4-0.8-0.9-0.9c-1-0.1-2.6-0.1-2.9-0.1v1.4c0,1.2,0,3.3,0,3.8c0,1.1,0.6,1.6,1.3,1.7
		c0.4,0.1,1.1,0.2,1.6,0.2c0.4,0,1.5,0,1.9-0.1c0.4,0,1.3-0.3,1.9-0.8c0.3-0.2,1.5-1.8,1.8-2.3c0.1-0.1,0.1-0.2,0.3-0.1l0.4,0.2
		c0.1,0.1,0.1,0.1,0,0.3l-1.2,3.2c-0.1,0.2-0.2,0.3-0.5,0.3c-0.1,0-0.6,0-1.9,0c-1.3,0-3.5,0-6.9,0c-0.8,0-1.4,0-1.9,0
		c-0.5,0-0.7,0-0.9,0c-0.1,0-0.2,0-0.2-0.2V16c0-0.1,0.1-0.1,0.2-0.1h0.9c1,0,1.1-0.2,1.1-1V7.5c0-1.8,0-4.6-0.1-4.8
		c-0.1-0.7-0.3-0.9-1.1-0.9h-0.8c-0.1,0-0.2,0-0.2-0.2V1.1c0-0.1,0-0.1,0.2-0.1C84.3,1,85.1,1,86.5,1h1c2.2,0,4.4,0,6.5,0
		c0.4,0,0.8,0,0.9,0c0.1,0,0.2,0,0.2,0.1l1.1,3.5c0,0.1,0,0.2-0.1,0.2L95.8,5c-0.1,0-0.2,0-0.2-0.1c0-0.1-1.7-2.2-2.2-2.5
		c-0.5-0.3-1.1-0.6-1.7-0.6l-3.9-0.1V8.2z"/>
	<path class="st16" d="M104.7,6.6c0-1.6,0-3,0-3.7c0-0.7-0.3-1.1-0.8-1.1H103c-0.1,0-0.1-0.1-0.1-0.2V1.1c0-0.1,0-0.2,0.1-0.2
		c0.2,0,0.9,0.1,2.7,0.1c1.2,0,3.3-0.1,3.7-0.1c1.8,0,3.3,0.6,4.1,1.3c0.7,0.7,1.1,1.7,1.1,2.5c0,2.8-1.3,3.8-4.1,4.4v0
		c0.5,0.2,0.8,0.6,1,0.8c0.3,0.3,1.8,2.5,2,2.8c0.1,0.2,1.5,2.2,1.9,2.5c0.5,0.3,1,0.4,1.6,0.4c0.2,0,0.2,0.1,0.2,0.2v0.5
		c0,0.1,0,0.2-0.2,0.2c-0.2,0-0.7-0.1-1.7-0.1c-0.6,0-1.5,0-1.8,0.1c-0.2-0.2-0.7-1-0.9-1.3c-0.2-0.3-1.4-2.4-1.5-2.5
		c-0.1-0.2-1.1-1.7-1.4-2c-0.6-0.7-1.1-1.3-2.4-1.3c-0.2,0-0.4,0-0.7,0.1v1.2c0,1.3,0,3.8,0,4.1c0,0.5,0.2,0.9,0.6,0.9h1.4
		c0.2,0,0.2,0.1,0.2,0.2v0.5c0,0.2,0,0.2-0.2,0.2c-0.2,0-0.8-0.1-2.9-0.1c-2,0-2.5,0.1-2.8,0.1c-0.2,0-0.2-0.1-0.2-0.2V16
		c0-0.1,0-0.2,0.1-0.2h0.9c0.5,0,0.9-0.2,0.9-0.7c0-2.2,0-4.3,0-6.3V6.6z M106.7,8.8c0.3,0.1,0.6,0.1,1,0.1c4,0,4.8-2.8,4.8-3.7
		c0-1-0.5-2-1.1-2.5c-0.9-0.7-1.8-1-3.7-1c-0.3,0-0.6,0-0.7,0.2c-0.2,0.1-0.3,0.4-0.3,0.7V8.8z"/>
	<path class="st16" d="M126,10.5c-0.2,0.6-1.4,3.9-1.5,4.4c0,0.2-0.1,0.4-0.1,0.5c0,0.3,0.3,0.5,0.7,0.5h1c0.2,0,0.2,0,0.2,0.2v0.5
		c0,0.2-0.1,0.2-0.2,0.2c-0.3,0-1.2-0.1-2.5-0.1c-1.6,0-2.1,0.1-2.4,0.1c-0.1,0-0.2,0-0.2-0.2V16c0-0.1,0.1-0.2,0.2-0.2h0.8
		c0.7,0,1-0.3,1.3-1c0.2-0.4,1.8-4.4,2.4-6.2c0.2-0.4,1.9-5.2,2.1-5.8c0.1-0.2,0.2-0.5,0-0.7c-0.1-0.1-0.2-0.2-0.2-0.3
		c0-0.1,0-0.2,0.2-0.2c0.6-0.1,1.6-0.8,1.8-1.1c0.1-0.1,0.2-0.2,0.3-0.2c0.1,0,0.2,0.1,0.2,0.4c0.4,1.4,2.1,6.3,2.6,7.7
		c0.5,1.7,1.9,5.8,2.2,6.5c0.4,0.7,0.9,1,1.5,1h0.7c0.1,0,0.2,0.1,0.2,0.2v0.6c0,0.1-0.1,0.2-0.2,0.2c-0.4,0-0.9-0.1-2.6-0.1
		c-1.8,0-2.6,0.1-3.1,0.1c-0.1,0-0.2-0.1-0.2-0.2V16c0-0.1,0.1-0.2,0.2-0.2h0.6c0.6,0,0.8-0.2,0.7-0.8c-0.2-0.8-1.1-3.6-1.4-4.5H126
		z M131.2,9.7c-0.2-0.7-2-6.2-2.1-6.5c-0.1-0.2-0.1-0.3-0.2-0.3c-0.1,0-0.2,0.2-0.2,0.3c-0.1,0.3-2.2,5.9-2.4,6.5H131.2z"/>
</g>
</svg>
