<?xml version="1.0" encoding="utf-8"?>
<!-- Generator: Adobe Illustrator 22.1.0, SVG Export Plug-In . SVG Version: 6.00 Build 0)  -->
<svg version="1.1" id="Layer_1" xmlns="http://www.w3.org/2000/svg" xmlns:xlink="http://www.w3.org/1999/xlink" x="0px" y="0px"
	 viewBox="0 0 327.3 325.3" style="enable-background:new 0 0 327.3 325.3;" xml:space="preserve">
<style type="text/css">
	.st0{fill:#383838;}
	.st1{fill:#ED1C24;}
	.st2{fill:#C6222F;}
	.st3{fill:#EB353B;}
	.st4{fill:#BE1E2D;}
	.st5{fill:#FFFFFF;}
	.st6{fill:#D1D3D4;}
	.st7{fill:none;stroke:#000000;stroke-miterlimit:10;}
	.st8{fill:none;}
</style>
<g>
	<g>
		<path class="st0" d="M49.2,319.5c-3.1-2.9-4.6-7.9-4.6-12c0-4,1.3-8.1,4.4-11.3c2.2-2.3,6-4.3,10.7-4.3c3.9,0,7.1,1.5,8.6,2.4
			c0.6,0.3,0.8,0.3,0.9,0l0.3-1.2c0.1-0.3,0.2-0.3,0.6-0.3c0.4,0,0.5,0.1,0.5,0.7c0,0.8,0.9,7.1,1.1,8.3c0,0.2,0,0.4-0.2,0.4
			l-0.6,0.2c-0.2,0-0.3,0-0.4-0.3c-0.6-1.4-1.5-3.5-3.3-5.3c-1.8-1.8-4.1-3.3-7.4-3.3c-7.7,0-10.7,6.8-10.7,13c0,2.5,0.8,7.3,4.1,11
			c2.9,3.3,5.3,3.6,8.2,3.6c4.8,0,8.6-2.7,10.6-5.4c0.1-0.2,0.2-0.3,0.3-0.1l0.6,0.4c0.1,0.1,0.2,0.2,0.1,0.4
			c-2.6,3.7-6.7,7.2-12.7,7.2C54.9,323.5,51.7,321.9,49.2,319.5z"/>
		<path class="st0" d="M88.7,306c0-2.7-0.1-8.4-0.1-9.1c0-2.2-0.3-2.8-1.9-2.8h-2c-0.2,0-0.3-0.1-0.3-0.3v-1c0-0.2,0.1-0.3,0.3-0.3
			c0.9,0,2.2,0.1,6,0.1c3.3,0,4.9-0.1,5.7-0.1c0.3,0,0.4,0,0.4,0.2v1.1c0,0.3-0.1,0.3-0.3,0.3h-2.2c-1.5,0-1.7,0.7-1.7,2.4
			c0,0.6-0.1,6.2-0.1,8.6v0.7c0,0.2,0.1,0.3,0.5,0.3H109c0.6,0,0.9-0.1,0.9-0.6v-0.4c0-2.4-0.1-8.4-0.1-8.9c0-1.4-0.2-2.2-1.4-2.2
			h-2.2c-0.2,0-0.3-0.1-0.3-0.3v-1.1c0-0.2,0-0.3,0.3-0.3c0.9,0,2.7,0.1,5.6,0.1s4.7-0.1,5.5-0.1c0.3,0,0.3,0.1,0.3,0.3v1
			c0,0.3-0.1,0.3-0.3,0.3h-1.9c-1.2,0-1.4,0.7-1.4,2.3c0,0.6-0.1,7.8-0.1,9.4v1.5c0,1.4,0.1,9.5,0.1,11.9c0,1.5,0.4,2.1,1.7,2.1h1.9
			c0.3,0,0.4,0.1,0.4,0.3v1c0,0.3-0.1,0.3-0.3,0.3c-0.8,0-2.3-0.1-5.4-0.1c-3.7,0-5.1,0.1-6.4,0.1c-0.2,0-0.3-0.1-0.3-0.3v-1.1
			c0-0.2,0.1-0.3,0.3-0.3h2.7c1,0,1.2-0.8,1.2-2c0-2,0.1-8.9,0.1-10.4v-0.6c0-0.5-0.2-0.5-0.9-0.5H93.2c-0.5,0-0.6,0.1-0.6,0.4v0.9
			c0,1.2,0,7.7,0.1,10.7c0,1,0.5,1.5,1.4,1.5h2.1c0.3,0,0.3,0.1,0.3,0.3v1.1c0,0.2-0.1,0.3-0.3,0.3c-0.8,0-2.3-0.1-5.4-0.1
			c-3.7,0-5,0.1-5.9,0.1c-0.2,0-0.3-0.1-0.3-0.3v-1.1c0-0.2,0.1-0.3,0.3-0.3h2.5c1.1,0,1.2-1,1.2-2.1c0-2,0.1-10.3,0.1-11.4V306z"/>
		<path class="st0" d="M134.4,304.9c0-1-0.1-8.7-0.2-9.4c-0.1-1-0.5-1.5-2.1-1.5h-2.5c-0.2,0-0.3-0.1-0.3-0.3v-1.2
			c0-0.2,0.1-0.3,0.3-0.3c0.5,0,2.7,0.1,6.7,0.1c3.8,0,5.2-0.1,5.8-0.1c0.2,0,0.3,0.1,0.3,0.3v1.1c0,0.2-0.1,0.3-0.3,0.3h-2
			c-0.9,0-1.5,0.3-1.5,1.2c0,0.4-0.1,9.9-0.1,10.4v3.3c0,0.4,0.1,10.3,0.1,10.8c0,1.3,0.6,1.5,2,1.5h1.8c0.2,0,0.3,0.1,0.3,0.3v1.1
			c0,0.2-0.1,0.3-0.4,0.3c-0.5,0-2.2-0.1-5.9-0.1c-4.1,0-5.9,0.1-6.4,0.1c-0.2,0-0.3-0.1-0.3-0.3v-1.2c0-0.2,0.1-0.3,0.3-0.3h2.4
			c0.9,0,1.8-0.1,1.9-1.2c0.1-0.6,0.2-9.9,0.2-12.1V304.9z"/>
		<path class="st0" d="M173.7,316c0.6-0.6,4.9-10.9,5.2-11.4c0.3-0.6,5-10.6,5.1-11.5c0.1-0.5,0.6-0.5,1-0.5c5.7,0,7.1-0.1,7.6-0.1
			c0.2,0,0.3,0.1,0.3,0.3v1c0,0.3,0,0.4-0.3,0.4h-1.9c-1.3,0-1.4,0.8-1.4,1.8c0,1.2-0.1,7.4-0.1,10.2v3c0,2.1,0.1,9.1,0.1,9.9
			c0,1.6,0.4,2.3,1.5,2.3h2.5c0.3,0,0.3,0.1,0.3,0.3v1c0,0.3,0,0.4-0.4,0.4c-0.5,0-1.3-0.1-6-0.1c-3.9,0-5.6,0.1-6.2,0.1
			c-0.3,0-0.3-0.1-0.3-0.4v-1c0-0.2,0-0.3,0.3-0.3h2.9c0.7,0,1.1-0.3,1.2-1.5c0-0.5,0.1-8,0.1-11.1v-2.7c0-2.8,0-10.4-0.1-10.8h-0.1
			c-0.4,0.6-6.5,14-6.7,14.5c-0.3,0.5-5,11.4-5.2,11.8c-0.2,0.4-0.5,1-0.9,1c-0.3,0-0.5-0.3-0.6-0.8l-5.8-14.3
			c-0.8-2-4.7-11.5-5.3-12.1c-0.2,0.6-0.3,11.4-0.3,11.9s0,9.5,0.1,11c0.2,2.4,0.6,3.1,2,3.1h2.1c0.3,0,0.3,0.1,0.3,0.3v1.1
			c0,0.2,0,0.3-0.4,0.3c-0.5,0-1.6-0.1-5.2-0.1c-3.6,0-5.1,0.1-5.5,0.1c-0.3,0-0.4,0-0.4-0.4v-1c0-0.1,0-0.3,0.3-0.3h2.3
			c1.6,0,2-1.1,2.3-2.6c0.5-3,0.6-14,0.6-14.8c0-0.6,0-7.1,0-8.3c0-1,0-1.6-1.8-1.6h-2.6c-0.3,0-0.3-0.1-0.3-0.3v-1.1
			c0-0.1,0-0.3,0.3-0.3c0.4,0,1.6,0.1,5.2,0.1c2,0,3.1-0.1,3.6-0.1c0.6,0,0.9,0.2,1.1,0.7L173.7,316z"/>
		<path class="st0" d="M213.6,306.4c0.3,0,4.9-0.2,5.4-0.3c1.2-0.2,1.6-0.6,2-1.9c0.1-0.4,0.3-1.3,0.3-2.1c0-0.2,0.1-0.3,0.3-0.3
			l1.1,0c0.2,0,0.3,0.2,0.3,0.3c-0.1,0.7-0.1,4.2-0.1,4.9c0,1.5,0.2,3.6,0.3,4.4c0,0.2-0.1,0.3-0.3,0.3l-0.9,0.1
			c-0.2,0-0.3-0.1-0.3-0.4c-0.1-0.6-0.3-1.5-0.5-2c-0.3-0.9-0.7-1.5-1.8-1.7c-2-0.2-5-0.2-5.6-0.2v2.7c0,2.3,0.1,6.5,0.1,7.3
			c0,2.2,1.1,3.1,2.4,3.3c0.9,0.2,2.1,0.3,3.2,0.3c0.7,0,2.9,0,3.8-0.1c0.7-0.1,2.6-0.6,3.7-1.5c0.5-0.4,2.9-3.5,3.5-4.5
			c0.1-0.2,0.3-0.4,0.5-0.3l0.7,0.4c0.2,0.1,0.2,0.3,0.1,0.6l-2.3,6.3c-0.1,0.4-0.4,0.6-0.9,0.6c-0.2,0-1.2,0-3.7-0.1
			c-2.6,0-6.7,0-13.4,0c-1.6,0-2.8,0-3.6,0c-0.9,0-1.5,0.1-1.8,0.1c-0.3,0-0.4-0.1-0.4-0.3v-1.2c0-0.2,0.1-0.2,0.4-0.2h1.7
			c2,0,2.1-0.3,2.1-1.9v-14.3c0-3.5-0.1-8.9-0.1-9.3c-0.2-1.4-0.6-1.7-2.2-1.7h-1.5c-0.2,0-0.3,0-0.3-0.3v-1.2
			c0-0.1,0.1-0.2,0.3-0.2c0.9,0,2.4,0.1,5.3,0.1h1.9c4.2,0,8.5,0,12.7,0c0.7,0,1.5-0.1,1.7-0.1s0.3,0.1,0.3,0.2l2.2,6.9
			c0,0.2,0,0.3-0.1,0.4l-0.6,0.3c-0.1,0.1-0.3,0-0.3-0.1c-0.1-0.2-3.3-4.2-4.3-4.9c-0.9-0.6-2.1-1.1-3.2-1.2l-7.6-0.2V306.4z"/>
		<path class="st0" d="M246.3,303.4c0-3.2,0-5.9,0-7.1c0-1.4-0.6-2.1-1.6-2.1h-1.7c-0.2,0-0.3-0.1-0.3-0.3v-1.1c0-0.2,0-0.3,0.3-0.3
			c0.4,0,1.7,0.1,5.3,0.1c2.4,0,6.4-0.1,7.1-0.1c3.6,0,6.4,1.1,8,2.6c1.4,1.4,2.2,3.3,2.2,4.9c0,5.3-2.4,7.4-7.9,8.6v0.1
			c1,0.4,1.6,1.2,2,1.6c0.5,0.6,3.5,4.9,3.9,5.5c0.2,0.4,3,4.3,3.8,4.9c0.9,0.6,1.9,0.7,3.1,0.7c0.3,0,0.3,0.2,0.3,0.3v0.9
			c0,0.3,0,0.4-0.3,0.4c-0.3,0-1.5-0.1-3.3-0.1c-1.2,0-2.8,0.1-3.5,0.1c-0.5-0.4-1.4-1.9-1.8-2.4c-0.3-0.5-2.7-4.6-2.9-4.9
			c-0.2-0.3-2.2-3.4-2.7-4c-1.1-1.3-2.1-2.5-4.6-2.5c-0.4,0-0.8,0-1.4,0.1v2.4c0,2.5,0,7.3,0.1,8c0.1,0.9,0.4,1.7,1.1,1.7h2.7
			c0.3,0,0.3,0.1,0.3,0.3v0.9c0,0.3,0,0.4-0.5,0.4c-0.5,0-1.5-0.1-5.6-0.1c-3.9,0-4.9,0.1-5.3,0.1c-0.3,0-0.3-0.1-0.3-0.3v-1
			c0-0.2,0-0.3,0.2-0.3h1.8c0.9,0,1.7-0.3,1.7-1.5c0.1-4.2,0.1-8.3,0.1-12.3V303.4z M250.2,307.6c0.6,0.1,1.1,0.2,1.9,0.2
			c7.8,0,9.3-5.3,9.3-7.1c0-2-0.9-3.8-2.1-4.9c-1.7-1.3-3.6-2-7.1-2c-0.5,0-1.1,0.1-1.5,0.3c-0.3,0.2-0.5,0.7-0.5,1.4V307.6z"/>
		<path class="st0" d="M287.7,310.9c-0.4,1.1-2.8,7.6-3,8.5c0,0.3-0.1,0.7-0.1,0.9c0,0.6,0.5,0.9,1.5,0.9h2c0.3,0,0.4,0.1,0.4,0.3v1
			c0,0.3-0.1,0.4-0.3,0.4c-0.6,0-2.4-0.1-4.9-0.1c-3.1,0-4.1,0.1-4.7,0.1c-0.2,0-0.3-0.1-0.3-0.3v-1c0-0.2,0.2-0.3,0.3-0.3h1.5
			c1.3,0,1.9-0.6,2.5-2c0.3-0.7,3.4-8.6,4.7-12.1c0.3-0.9,3.8-10.1,4.1-11.2c0.1-0.4,0.3-1,0-1.5c-0.1-0.2-0.3-0.4-0.3-0.6
			c0-0.1,0.1-0.3,0.4-0.4c1.2-0.3,3.1-1.5,3.6-2.1c0.2-0.2,0.3-0.4,0.6-0.4c0.3,0,0.3,0.3,0.5,0.7c0.8,2.7,4.1,12.3,5,15
			c1,3.3,3.8,11.3,4.4,12.5c0.7,1.4,1.8,1.9,2.9,1.9h1.4c0.3,0,0.3,0.1,0.3,0.3v1.1c0,0.2-0.1,0.3-0.4,0.3c-0.8,0-1.7-0.1-5.1-0.1
			c-3.6,0-5,0.1-6,0.1c-0.2,0-0.3-0.1-0.3-0.4v-1c0-0.3,0.1-0.3,0.4-0.3h1.1c1.2,0,1.6-0.4,1.3-1.6c-0.3-1.5-2.1-7-2.7-8.7H287.7z
			 M297.7,309.4c-0.4-1.3-3.8-12-4.1-12.6c-0.1-0.3-0.2-0.6-0.3-0.6c-0.2,0-0.3,0.3-0.5,0.6c-0.2,0.6-4.3,11.5-4.6,12.6H297.7z"/>
	</g>
	<g>
		<path class="st1" d="M93.6,272.3c14.4-0.9,28.8-1.3,43.3-1.6c7.2-0.2,14.4-0.2,21.6-0.3l21.6-0.1l21.6,0.1
			c7.2,0.1,14.4,0.2,21.6,0.3c14.4,0.3,28.8,0.7,43.3,1.6c-14.4,0.9-28.8,1.3-43.3,1.6c-7.2,0.2-14.4,0.2-21.6,0.3l-21.6,0.1
			l-21.6-0.1c-7.2-0.1-14.4-0.2-21.6-0.3C122.5,273.6,108.1,273.1,93.6,272.3z"/>
	</g>
</g>
<g>
	<g>
		<path class="st2" d="M72.4,121.1c0,0,18.9,2.1,26.2,18.2c0,0-10.7,8.9-11.2,14.6c0,0-16.6,1.2-15,16.4c0,0,2.7,7,13,13.6
			s21.6,15.4,22,16.8s5,5.1,5.6,11.4s16.8,8.8,16.8,8.8s13.1,4.6,15.3-1.4c0,0,4.6,0,6.9,0.2c2.3,0.2,5.8-2.6,2.1-12.9
			c0,0-1.4-10.1-7-9.7l-7.1,3.1l-3.2-1.2c0,0-1-6.5-5.7-8.1c-4.7-1.5-16.6-14.2-16.6-14.2l6-0.5c0,0,27.8,13.1,72.4,6.4
			c0,0,26,26.6,50.7,27c0,0,4.1,7.1,23.2,16.1c0,0,15.2,8.9,17.6,19.9c0,0,3,9.2,29.9,8.4c0,0,1.7-0.9,1.9-2.9v-1.3l-85.8-88.9
			l-113.7-57l-40.8-3.3L72.4,121.1z"/>
	</g>
	<g>
		<path class="st3" d="M77.8,107.6c12.6,1.2,21.4,11.9,21.4,11.9l-11.3-1.9c11.7,3.5,21.1,18.9,21.1,18.9c3.6-2.3,14-3.7,14-3.7
			c-17.3,5.4-23.5,18.5-23.5,18.5s18.9,1.8,18.1,1.8s-9.6,0.3-9.6,0.3c-32.7,3-23.2,16.9-23.2,16.9l6.5,1.4c0,0-0.1,1.6-2.4,1.1
			c-2.3-0.5-2.1,0.5-2.9,1.2c-0.8,0.7,22.6,14.8,22.6,14.8c8.6,4.1,12.9,10.8,16.7,18.9c3.8,8.1,12.3,6.9,12.3,6.9l-0.1-0.8l0.6-0.2
			l0.2,1.2l14.8,1.9c-0.7-13.2-5.3-17.3-5.3-17.3l-7.2,2.8l-1.9,6.8l-0.1-6.5c0,0-1.3-1-2.1-1s-0.7,2.9-0.7,2.9s0.1-1.3-1.7-6.4
			s-5.6-6.5-8.9-8.2s-15.9-15.7-15.9-15.7l-6-1.5c0,0-0.3-1,26.1-1.6c26.4-0.7,21.3-9.7,21.3-9.7c-3.6-4.4-2.1-8.5-2.1-8.5
			c-0.3,3.6,6.9,9.3,7.1,11.1c0.3,1.8-2.5,5.4-2.5,5.4s11.9,5.1,17.4,2.6s34.5,0,34.5,0l-3.7-12.9c19.6,44.9,61.4,45,61.4,45
			l-5.9,0.6l27.6,19.6c8.9,4.4,12.3,15.3,13.7,18.7c1.4,3.4,9.7,3.8,9.7,3.8l1.1-2.2l0.8,2.7c4.9,3.9,14,1.3,14,1.3
			c3-3.5-1.3-16.2-4-18.3s-8.4,2.8-8.4,2.8s-3.7,1-5.1-4c-1.4-5-9.3-9.4-11.7-10.7c-2.5-1.3-7.5-9.1-7.5-9.1l-1.8,2.4l0.4-2.3
			c1.8-8.4-4-11.8-4-11.8c-18.5-12.5-16.1-19.1-16.1-19.1c3.4-18.5,3.2-39.8-15.2-51.1s-44.2-5.4-44.2-5.4
			c-11.3-6.7-29.9-11.1-29.9-11.1c-10.1-20.2-42.6-13.2-42.6-13.2c-31.3-26.2-70.7-16.5-70.7-16.5c-0.7-3.1-1.5-3.8-1.5-3.8
			c-10.2-7.7-20.8,2.7-20.8,2.7h-1.4c-15.3,10-11.2,30.4-11.2,30.4l-9.7,17.4c0,0-2.1,4.2-2.1,5.8c0,1.6,2.5,2.9,2.7,5.9
			c0.3,3,2.3,5.6,2.3,5.6c4.5,1.8,9.1-3.5,9.1-3.5l0.7-1l0.7,2.8c0,0,9.7,0.9,11.4-3.4c0,0,0.3-6.6,3.5-8l12.3-7c0,0,9-2.4,11.8-3.5
			C74.7,120.3,77.6,116.9,77.8,107.6z"/>
	</g>
	<g>
		<path class="st3" d="M265.2,99.2c0,0,2-0.5-0.5-12.5c-2.5-12,4.7-16.6,4.7-16.6l-5.2-2l16.4-9.9l-3.4,16.4l-4-2.7
			c0,0-5.9,11,11.2,34.9c0,0-6.3-6.9-11.3-6L265.2,99.2z"/>
	</g>
	<g>
		<path class="st3" d="M169.1,80.5c-0.6-0.6-1.2-1.2-1.8-1.8c-7.3,10.7-23.9,12.6-23.9,12.6c12.2-5.2,9.9-13.3,9.9-13.3
			c-27,11.2-38.1-6.6-38.1-6.6c0.2-8.5,19.6-0.7,19.6-0.7C110.9,44.6,83,62.6,83,62.6c6.9-8.8,5.2-16.7,5.2-16.7
			c-2.8,6.4-15.4,13.5-15.4,13.5C58.4,60.5,50,71.7,50,71.7c-0.2-4-5.8-13.2-5.8-13.2c1.5,8.8-3.9,18.5-3.9,18.5
			c-2.5-6.9-10.1-12-8.7-10.8c1.4,1.1,4.6,14.6,2,10.5c-2.6-4-9.3-8-6.6-4.7c2.7,3.3,3.9,17.7,2.6,13.3c-1.3-4.4-12.7-10.4-8.1-6.8
			c4.6,3.6,6.8,21.3,6.8,21.3L35.1,87c7.6-5.6,15-5.5,23.5-5.7c24-0.6,48.6,12.2,48.6,12.2c33.1,19.3,46.6,5.8,46.6,5.8
			c10.9-4.1,15.5-10.8,17.2-17C170.4,81.7,169.7,81.1,169.1,80.5z"/>
	</g>
	<g>
		<path class="st2" d="M154.7,93.4c0.4-3.4-15.3,5.9-22.2,2c0,0,4.8-4.3,5.9-7.7c0,0-16.3,7.5-36.6,0.6c0,0,11.2,6.9,19.4,5.6
			l-3,1.3l8.2,1.4l-4.2,1.1c0,0,10.9,3.8,20.3,1.1S154.6,93.9,154.7,93.4z"/>
	</g>
	<g>
		<path class="st2" d="M124.1,84.6c0,0-26.6-3.5-18.2-14.9c0,0,5.9-4.9,12.1-6.3c0,0-19.3-7.5-40.5,8.7c0,0-9.9,5.1-10.7,5l4.9,0.2
			c0,0,11.1-3.3,18.4-6.7c0,0,5.7-3.2,9.8-2.1c0,0-14.2,2.7-13.8,7.7c0,0,2,1.9,7.3-0.5c0,0-1.5,3.8-5.1,4.1c0,0,1.5,1.4,5.6,1
			c4.1-0.5,8.8-0.9,11.2,1.3c0,0-6.2-0.6-7.8,1.5C97.4,83.6,110.3,90.4,124.1,84.6z"/>
	</g>
	<g>
		<path class="st2" d="M84.8,53.6c0,0-7.9,18-23.4,23.4l-1.7-0.2c0,0,12.2-8.2,12.2-9.3c0,0-17.4,7.8-19.1,10.5c0,0,0-1.1,0.7-2
			c0.7-1-4.7,3-4.7,3L47,76.2l-0.8,3.5l-7.1,3.7l-4.8,1.2l-2,3.7l-2.8,2.5l-0.7,4.2L28,91.6l-1.8-7.5l3.4,4.9c0,0,3-9.5,1.1-12.1
			c0,0,3.1,4.3,4.4,5.8c0,0,2.9-3.6,2.7-5.1l0.5-0.5l2.8,3.2l0.9-1.4c0,0,4.5-7,3.8-8.1c0,0,2.9,3.2,3.2,7c0,0,6.3-7.4,14.6-10
			S80.6,60.9,84.8,53.6z"/>
	</g>
	<g>
		<path class="st3" d="M26.8,117.1c0,0-6,3.4-12.8,0.2c-2.5-1.2-4.7-3.8-7.4-7.1c-2.6-3.2-2.5-6-4.1-8.6c-1.6-2.5-2.9,4.7,1.4,12.3
			c4.2,7.6,13.2,15.6,13.2,15.6s2.6,2.8,1,5.9C16.4,138.4,26.8,117.1,26.8,117.1z"/>
	</g>
	<g>
		<path class="st4" d="M31.7,110.5c0,0,4.3-1.6,4.1-3.5c-0.2-2-1.5-9.5,5.2-9.7c0,0,1.4,0.5,2.2,1.1c0,0-3.1,0.5-2.1,2.1
			c1,1.6,3.8-1.8,3.8-1.8l-1.1,2.8c0,0-5,2.7-5.1,2.8c-0.2,0.1-0.8,4.1-0.8,4.1l-2.3,1.8l-1.6,0.4h-1.4L31.7,110.5z"/>
	</g>
	<g>
		<path class="st2" d="M31.7,110.5c1.6-0.2,3.2-0.6,4.2-1.6c0.4-0.5,0.7-1.1,0.8-1.8c0.1-0.7,0-1.4-0.1-2.1l-0.2-1.3
			c0-0.4,0-0.9,0-1.3c0.1-0.9,0.4-1.8,0.9-2.6c0.5-0.8,1.4-1.3,2.2-1.6c0.8-0.3,1.7-0.3,2.5-0.2c-1.6,0.4-3,1.2-3.6,2.4
			c-0.3,0.6-0.4,1.3-0.5,2c0,0.4,0,0.7,0.1,1.1l0.2,1.1c0,0.4,0.1,0.9,0.1,1.3c0,0.5,0,0.9-0.1,1.4c-0.2,0.9-0.7,1.9-1.5,2.4
			c-0.8,0.6-1.7,0.8-2.5,0.9C33.4,110.9,32.5,110.8,31.7,110.5z"/>
	</g>
	<g>
		<path class="st5" d="M38.3,104.8c0,0,2-2.1,4.3-2.7c2.3-0.5,2.3-2.6,2.3-2.6s-3.4,9.7-7.1,9.2C37.7,108.8,37.5,105.5,38.3,104.8z"
			/>
		<path class="st4" d="M38,109.2c-0.1,0-0.2,0-0.4,0l-0.3,0l0-0.3c0-0.6-0.2-3.4,0.7-4.2c0.2-0.2,2.1-2.2,4.5-2.8
			c0.7-0.2,1.2-0.5,1.5-0.9c0.2-0.6,0.4-1.1,0.6-1.5l0.9-2.5l-0.1,2.7c0,0.4-0.2,1.1-0.6,1.7C43.5,104,40.9,109.2,38,109.2z
			 M43.2,102.4c-0.2,0.1-0.4,0.2-0.6,0.2c-2.1,0.5-4,2.5-4.1,2.5l0,0c-0.4,0.4-0.5,2-0.4,3.2C40,108.3,41.9,105.1,43.2,102.4z"/>
	</g>
	<g>
		<path class="st2" d="M22.1,135c0,0,4.4-3.6,4.7,1.4c0,0-1.4,5.1-4.3,5.1c0,0,1.1-0.7,0.3-2.3S22.1,135,22.1,135z"/>
	</g>
	<g>
		<path class="st2" d="M22.7,131.9c0.5-0.5,1-0.8,1.7-1c0.6-0.2,1.4-0.2,2.1,0.1c0.7,0.3,1.2,0.9,1.4,1.5c0.1,0.3,0.2,0.7,0.2,1
			c0,0.3,0,0.7,0,1c-0.2-0.3-0.3-0.6-0.4-0.9c-0.2-0.3-0.3-0.5-0.4-0.8c-0.3-0.5-0.7-0.9-1.2-1.1c-0.5-0.2-1-0.2-1.6-0.2
			C24,131.6,23.4,131.7,22.7,131.9z"/>
	</g>
	<g>
		<path class="st2" d="M36.9,120.7c1.2-0.1,2.3,0,3.5,0.3c1.1,0.3,2.2,0.8,3.2,1.6c0.5,0.4,0.9,0.8,1.2,1.3c0.3,0.5,0.6,1,0.8,1.6
			c0.2,0.5,0.4,1.1,0.4,1.8c0,0.3-0.1,0.7-0.3,0.9c-0.2,0.2-0.6,0.3-0.9,0.2c0.3,0,0.6-0.1,0.7-0.3c0.1-0.2,0.1-0.5,0.1-0.7
			c-0.1-0.5-0.3-1-0.6-1.5c-0.5-1-1.2-1.9-2-2.5c-0.8-0.7-1.8-1.2-2.9-1.6C39.1,121.2,38,120.9,36.9,120.7z"/>
	</g>
	<g>
		<path class="st5" d="M31.4,140.2c0,0-1-15,4.3-16.8c5.4-1.8,8.1,3.6,8,4.9C43.7,129.7,43,133.5,31.4,140.2z"/>
		<path class="st2" d="M31,140.9l0-0.7c0-0.6-1-15.4,4.6-17.2c2.7-0.9,4.7,0,5.9,0.9c1.8,1.3,2.8,3.5,2.7,4.5
			c-0.2,3.4-4.4,7.5-12.6,12.2L31,140.9z M37.8,123.4c-0.6,0-1.3,0.1-2,0.3c-4.4,1.5-4.2,12.8-4.1,15.7c5.3-3.1,11.4-7.5,11.6-11.2
			c0-0.6-0.8-2.6-2.4-3.8C40,123.8,38.9,123.4,37.8,123.4z"/>
	</g>
	<g>
		<path class="st6" d="M34.9,132.9l1.8-2.9l-0.1-2.1l2.4-1c0,0-1-3.4-1.8-3.4c-0.5,0,1.4-0.6,3.4,0.8c1,0.7,2.4,1.9,2.9,4.2
			c0,0-1,4.5-8.7,9c0,0,8.2-6.6,7.7-9.9l-3.6,1.9l-0.5,2.4L34.9,132.9z"/>
	</g>
	<g>
		<path class="st4" d="M38.9,123.6c0.8,1.4,1.5,2.8,2.1,4.3l0.2,0.4l-0.4,0.1c-1,0.3-1.9,0.6-2.9,0.8l0.3-0.4c0,0.8-0.1,1.5-0.1,2.3
			l0,0.2l-0.1,0.1c-0.6,0.3-1.3,0.6-2,0.8c0.6-0.4,1.1-0.9,1.7-1.3l-0.1,0.2c-0.1-0.8-0.1-1.5-0.1-2.3l0-0.3l0.3-0.1
			c1-0.3,1.9-0.6,2.9-0.8l-0.3,0.5C39.7,126.6,39.2,125.1,38.9,123.6z"/>
	</g>
	<g>
		<path class="st2" d="M51.9,121.6c0,0,4-3.2,4.2-5.6c0,0-0.2,1.9,0.1,1.9c0.3,0,3.9-4.4,3.8-6.1c0,0,0.5-0.1,0.8,1.3
			c0,0,1.5-2,1.1-7.5c0,0,0.6-0.2,1.4,2.1c0,0,0.4-5.5-1.6-7.5c0,0,2.8-0.1,4.5,3l-1.2-0.7c0,0,2.3,3.7,2.4,5.8l-1.4-1.6
			c0,0,0.7,5.8-1.6,7.4c0,0,0.3-0.5-0.2-2.2c0,0-2.7,5.7-5.5,7.3c0,0,1.3-1.9,1.1-2.5C59.8,116.6,55.1,121.1,51.9,121.6z"/>
	</g>
	<g>
		<path class="st7" d="M51,125.5"/>
	</g>
	<g>
		<path class="st2" d="M51.7,125.5c3.5-1,7-2,10.3-3.2c3.3-1.2,6.5-2.7,9-4.7c1.3-1,2.3-2.2,3.1-3.5c0.7-1.3,1.1-2.9,1-4.5
			c0-0.4-0.1-0.8-0.1-1.2l-0.1-0.6l-0.1-0.6c-0.1-0.4-0.2-0.8-0.3-1.3l-0.4-1.2c-0.2-0.9-0.6-1.6-0.9-2.5c-0.4-0.8-0.7-1.6-1.1-2.5
			c0.6,0.7,1.3,1.3,1.9,2c0.3,0.4,0.5,0.7,0.8,1.1c0.3,0.4,0.5,0.8,0.8,1.2c1,1.6,1.7,3.4,2,5.4c0.3,2,0.1,4.2-0.8,6.1
			c-0.9,1.9-2.3,3.5-3.8,4.7c-3.1,2.5-6.8,3.8-10.4,4.6C59.1,125.5,55.4,125.9,51.7,125.5z"/>
	</g>
	<g>
		<path class="st2" d="M164.6,147c2,2,3.4,4.4,4.5,7c1,2.6,1.6,5.5,1.4,8.5c-0.2,2.9-1.4,6-3.5,8.1c-1,1.1-2.2,2-3.5,2.6
			c-1.3,0.7-2.6,1.1-4,1.3c2.2-1.7,4.1-3.5,5.5-5.5c1.4-2,2-4.3,2.3-6.7c0.2-2.4-0.1-4.9-0.6-7.5C166,152.2,165.3,149.6,164.6,147z"
			/>
	</g>
	<g>
		<path class="st2" d="M177.1,147c2,2,3.4,4.4,4.5,7c1,2.6,1.6,5.5,1.4,8.5c-0.2,2.9-1.4,6-3.5,8.1c-1,1.1-2.2,2-3.5,2.6
			c-1.3,0.7-2.6,1.1-4,1.3c2.2-1.7,4.1-3.5,5.5-5.5c1.4-2,2-4.3,2.3-6.7c0.2-2.4-0.1-4.9-0.6-7.5C178.6,152.2,177.9,149.6,177.1,147
			z"/>
	</g>
	<g>
		<path class="st3" d="M139.6,115.3l1.6-13.7l10.1-8.3l14.3-13.7l10.5-13.5l5.8-10.8l4.4-8.8l3.6-10.5l2.2-11c0,0,15.4-0.8,20.5-1.5
			c6.3-0.9,26.1-9,26.1-9L271,1.9c0,0-15.5,22.2-18.4,30.7c-1.5,4.3-2.1,18-2.1,18l1.5,10.1l-6.4,8.4l-6.9,13.1l-4.2,12.1l-2.3,10.6
			c0,0-4.3,1.4-4.8,1.4c-0.5,0-7.8,4.5-7.8,4.5l-7.1,6.8c0,0-8,10.8-8.4,11.5c-0.4,0.7-5.2,9-5.2,9l-2.6,2.7l-9.2,0.8l-7.8,2.6
			l-10.7-4.1l-9.4,5.7l3.3,15.3l-5.1-2.7l-8.2-10.9l-11.6,12l-11.6,7.6L139.6,115.3z"/>
	</g>
	<g>
		<path class="st2" d="M271,1.9l-19.1,14.7l-19.6,13.3l-15.1,8.9c0,0-13.5,5.8,5.9,10.9s25.3,7.2,27.2,9.5c2,2.3-48.2-12.4-44.3,8.2
			l24.1,33.1c0,0-24.2-21.3-35.5-16.1c-5.8,2.7-2.8,20.1,0.3,35.2c0,0-10.2-25.9-19.3-27.9c-5.2-1.1-11,11.3-11.7,26.4
			c0,0,3.5-28.5-17-20.9c-2.9,1.1-11.5,1.9-11.5,1.9s5.4,0.5,11.4-3.2c6.8-4.3,14.3-11.2,15.9-12.9c2.8-3,10.5-13,10.5-13l7.7-12.5
			l4.7-10l3.8-10.5c0,0,1.4-11.1,2.4-12.2c3-3.3,28.8-6.3,38.3-8.5c4.4-1,17.2-5.4,17.2-5.4L271,1.9z"/>
	</g>
	<g>
		<path class="st8" d="M147.5,112.8c0,0-0.3-11.2,1.4-13.1s29.3-18.4,37.5-58.8c0,0,18.2-6.5,25.9-4c0,0,12.4-2.1,26.7-13.1
			c0.5-0.4,1.1-0.8,1.6-1.2c0,0-8.6,28.8-3.3,39.5c0,0-11.7,13-14.1,36.9c0,0-13.2,0.5-26.1,29.9c0,0-27.1,3.5-28.2,21.2
			c0,0-7.8-15.3-30.5,5.7"/>
	</g>
	<g>
		<path class="st2" d="M309.5,233.2l0.3,4.8l1.7-4.6c0,0-0.7,0.1-1,0.1S309.5,233.2,309.5,233.2z"/>
	</g>
	<g>
		<path class="st3" d="M55.3,81.5c0,0-0.4-10.4-26.4-10.2c0,0-2.7,3.3,14.4,15.9"/>
	</g>
	<g>
		<path class="st2" d="M49.6,82.5c0.3-0.2-2.7,2.1-7.9-4.4c0,0-4.2-3.4-7.9-3.2l5.6,5.9C39.4,80.8,45.1,86.3,49.6,82.5z"/>
	</g>
	<g>
		<g>
			<path class="st8" d="M255.5,114.3c0,0,0.1-0.1,0.2-0.2C255.6,114.2,255.6,114.2,255.5,114.3z"/>
		</g>
		<g>
			<path class="st8" d="M256,113.8C256,113.8,256,113.7,256,113.8C256,113.7,256,113.8,256,113.8z"/>
		</g>
		<g>
			<polygon class="st3" points="263.6,114.8 263.6,114.8 263.6,114.8 			"/>
		</g>
		<g>
			<path class="st3" d="M263.7,117.5C263.7,117.5,263.7,117.5,263.7,117.5L263.7,117.5L263.7,117.5z"/>
		</g>
		<g>
			<path class="st3" d="M269,94.9c0,0-34.8-6.5-33.6,41.3l16.8-7.4c0,0-0.5-10.2,3.2-14.5c0,0,0,0,0,0s0,0,0.1-0.1
				c0.1-0.1,0.1-0.1,0.2-0.2c0.1-0.1,0.2-0.2,0.3-0.3c0,0,0,0,0,0c1.6-1.5,6.1-5.1,9.8-1.8c4.6,4.2-5.2,13.7-5.2,13.7l-3.3,1.7l0,0
				c-2,2.3-3.8,3.9-3.8,3.9L267,163C267,163,317.7,114.7,269,94.9z"/>
		</g>
		<g>
			<path class="st2" d="M255.4,114.4C255.4,114.4,255.4,114.4,255.4,114.4C255.5,114.3,255.5,114.3,255.4,114.4
				C255.4,114.3,255.4,114.4,255.4,114.4z"/>
		</g>
		<g>
			<path class="st2" d="M255.7,114.1c0.1-0.1,0.2-0.2,0.3-0.3C255.9,113.9,255.8,114,255.7,114.1z"/>
		</g>
	</g>
	<g>
		<path class="st2" d="M236.3,122.1c1.5,0.1,2.9,0.4,4.3,0.7c1.4,0.4,2.8,0.9,4.2,1.4c1.3,0.6,2.7,1.2,3.9,2
			c1.3,0.7,2.4,1.6,3.5,2.6c-1.3-0.7-2.6-1.4-3.9-2c-1.3-0.6-2.6-1.2-3.9-1.8c-1.3-0.6-2.7-1.1-4-1.6
			C239.1,123,237.7,122.5,236.3,122.1z"/>
	</g>
	<g>
		<path class="st2" d="M265.9,94.8c1.4,0,2.8,0.2,4.2,0.6c1.4,0.4,2.7,0.9,4,1.5c2.5,1.3,4.7,3,6.8,4.9c-1.2-0.7-2.4-1.4-3.6-2.1
			c-1.2-0.7-2.4-1.4-3.6-2c-1.2-0.6-2.5-1.1-3.8-1.6C268.6,95.6,267.2,95.1,265.9,94.8z"/>
	</g>
	<g>
		<path class="st2" d="M259,127.6c3-2.1,11.5-11.4,6.9-15.6c-3.7-3.4-8.2,0.2-9.8,1.8c1.2-1,2.8-1.5,4.9-1c1.5,0.4,2.3,1.1,2.7,2.1
			l0,0v0c0.3,0.8,0.3,1.7,0,2.7l0,0l0,0c-0.8,3.1-3.8,7-6.3,9.8l-3.2,3.3C254.2,130.7,258.3,128.1,259,127.6z"/>
	</g>
</g>
</svg>
