<?xml version="1.0" encoding="utf-8"?>
<!-- Generator: Adobe Illustrator 22.1.0, SVG Export Plug-In . SVG Version: 6.00 Build 0)  -->
<svg version="1.1" id="Layer_1" xmlns="http://www.w3.org/2000/svg" xmlns:xlink="http://www.w3.org/1999/xlink" x="0px" y="0px"
	 viewBox="0 0 21.1 20.8" style="enable-background:new 0 0 21.1 20.8;" xml:space="preserve">
<style type="text/css">
	.st0{fill:#EB353B;}
	.st1{fill:#CF1F3C;}
	.st2{fill:#FCC9A6;}
	.st3{fill:#543213;}
	.st4{fill:#076DA2;}
	.st5{fill:#2F92D0;}
	.st6{fill:#CACACA;}
	.st7{fill:#E6AF88;}
	.st8{fill:#553213;}
	.st9{fill:#EAEAEA;}
	.st10{fill:#3BC3E3;}
	.st11{fill:#8DC63F;}
	.st12{fill:#8DC63F;stroke:#F6E6DB;stroke-miterlimit:10;}
	.st13{fill:#3BC3E3;stroke:#F6E6DB;stroke-miterlimit:10;}
	.st14{fill:#EB353B;stroke:#F6E6DB;stroke-miterlimit:10;}
	.st15{fill:#FFFFFF;}
	.st16{fill:none;stroke:#000000;stroke-miterlimit:10;}
</style>
<path class="st0" d="M576.2,57.9H290c-6.6,0-12-5.4-12-12V1.7c0-6.6,5.4-12,12-12h286.2c6.6,0,12,5.4,12,12v44.1
	C588.2,52.5,582.8,57.9,576.2,57.9z"/>
<g>
	<text transform="matrix(1 0 0 1 359.8129 34.4576)" class="st15" style="font-family:'Montserrat-Light'; font-size:31.1428px;">University</text>
</g>
<text transform="matrix(1 0 0 1 386.9184 -205.8598)" style="font-family:'Montserrat-Light'; font-size:16.7692px;">Daniel Lorem Ipsum</text>
<text transform="matrix(1 0 0 1 386.9184 -225.9447)" style="font-family:'Montserrat-Light'; font-size:16.7692px;">Welcome,</text>
<g>
	<path class="st1" d="M332.3-205.9C332.3-205.9,332.3-205.9,332.3-205.9C332.4-206,332.4-206,332.3-205.9c0.1-0.1,0.1-0.1,0.1-0.1
		c0-0.5,0-1,0-1.5v0c0-0.6,0-1.3,0-1.9c-2.6-1.8-3.6-4.6-4.3-7.5c-0.2-0.7-0.3-1.5-0.4-2.2c0-0.4-0.2-0.5-0.6-0.5
		c-0.6,0-1.1,0.1-1.7-0.1c-1.1-0.3-1.8-1.3-1.9-2.4c0-0.3,0-0.7,0-1c-0.1-1.1,0.1-2.1,1-2.9c0,0,0,0,0,0c0,0,0,0,0,0
		c-0.2-1.7-0.4-3.3-0.7-5c-0.5-3.2,1.8-6,5-6.2c0.3,0,0.5,0,0.7-0.4c1.4-2.4,3.4-3.9,6.1-4.6c1.7-0.4,3.4-0.8,5.2-0.6
		c2.3,0.3,4.3,1.2,5.9,2.7c2.6,2.5,4,5.5,3.9,9.2c-0.1,1.6-0.6,3.1-1,4.6c1.5,1.3,1.2,3,1,4.7c-0.2,1-1.2,1.7-2.3,1.8
		c-0.5,0-1.1-0.2-1.5,0.2c-0.3,0.3-0.2,1-0.3,1.5c-0.4,2-0.9,3.9-1.9,5.7c-0.6,1.2-1.6,2.1-2.6,2.9l0,0c0,0,0,0,0,0
		c0,0.6,0,1.3,0,1.9c0,0.5,0,1,0,1.5c0,0,0,0,0,0v0c0,0,0,0,0,0l0,0c0,0,0,0,0,0c0,0,0.1,0.1,0.1,0.1c0,0,0,0,0,0
		c0.7,0.3,1.5,0.7,2.2,1.1c4.9,2.4,9.8,5,14.7,7.3c0.1,0,0.1,0.1,0.2,0.1c6-5.6,9.7-13.5,9.7-22.4c0-16.9-13.7-30.6-30.6-30.6
		s-30.6,13.7-30.6,30.6c0,8.5,3.4,16.1,9,21.6c5.1-2.6,10.2-5.1,15.3-7.7C332.2-205.9,332.2-205.9,332.3-205.9z"/>
	<path class="st2" d="M336.2-208c1.9,0.2,3.6-0.1,5.2-1c0.2-0.1,0.5-0.3,0.7-0.4l0,0c1-0.8,2-1.7,2.6-2.9c1-1.8,1.5-3.7,1.9-5.7
		c0.1-0.5,0-1.1,0.3-1.5c0.4-0.4,1-0.1,1.5-0.2c1.1-0.1,2.2-0.8,2.3-1.8c0.3-1.6,0.6-3.4-1-4.7c-0.7-0.3-1.5-0.4-2.3-0.4
		c-0.4,0-0.5-0.1-0.5-0.5c0-0.6,0-1.3,0-1.9c0-0.4-0.1-0.5-0.5-0.5c-1.4,0-2.8,0-4.1,0c-4.4,0-8.3-1.5-11.5-4.6
		c-0.4-0.4-0.5-0.3-0.8,0.1c-0.7,1.3-1.5,2.5-2.2,3.8c-0.3,0.5-0.4,0.9-0.4,1.4c0,0.1,0,0.2,0,0.3c0,0.6,0.2,1.3-0.1,1.7
		c-0.3,0.5-1,0.1-1.6,0.2c-0.5,0.1-0.8,0.3-1.3,0.4c0,0,0,0,0,0c-0.9,0.8-1.1,1.8-1,2.9c0,0.3,0,0.6,0,1c0,1.1,0.8,2.1,1.9,2.4
		c0.6,0.2,1.1,0.1,1.7,0.1c0.4,0,0.6,0.1,0.6,0.5c0,0.7,0.2,1.5,0.4,2.2c0.7,2.9,1.6,5.7,4.3,7.5l0,0
		C333.6-208.7,334.8-208.2,336.2-208z M339.1-213.8c-0.6,0-1.3,0-1.9,0c-0.6,0-1.3,0-1.9,0c-0.6,0-1-0.4-1-1c0-0.6,0.4-1,1-1
		c1.3,0,2.5,0,3.8,0c0.6,0,1,0.4,1,1C340.2-214.1,339.8-213.8,339.1-213.8z M341.4-222c-0.7,0-1.2-0.6-1.2-1.2
		c0-0.7,0.6-1.2,1.2-1.2c0.6,0,1.2,0.6,1.2,1.2C342.6-222.6,342-222,341.4-222z M340.2-227.4c0.9,0,1.9,0,2.8,0c0.6,0,1,0.4,1,1
		c0,0.5-0.4,0.9-1,0.9c-0.5,0-1,0-1.5,0c-0.5,0-0.9,0-1.4,0c-0.6,0-1-0.4-1-1C339.2-227,339.6-227.4,340.2-227.4z M335.3-221.4
		c0-0.7,0.4-1.1,1-1.1c0.6,0,0.9,0.4,1,1.1c0,0.4,0,0.9,0,1.3c0,0.4,0.1,0.5,0.5,0.5c0.2,0,0.4,0,0.6,0c0.5,0.1,0.9,0.5,0.9,1
		c0,0.5-0.3,0.9-0.9,0.9c-0.7,0-1.5,0-2.2,0c-0.5,0-0.8-0.4-0.8-0.9c0-0.5,0-1,0-1.5C335.3-220.5,335.3-221,335.3-221.4z
		 M331.5-225.4c-0.6,0-1-0.4-1-1c0-0.6,0.4-1,1-1c0.9,0,1.9,0,2.8,0c0.6,0,1,0.4,1,1c0,0.5-0.4,0.9-1,1c0,0,0,0-0.1,0
		c-0.4,0-0.9,0-1.3,0C332.4-225.4,332-225.4,331.5-225.4z M331.9-223.3c0-0.6,0.6-1.2,1.2-1.2c0.6,0,1.2,0.6,1.2,1.2
		c0,0.7-0.6,1.2-1.2,1.2C332.4-222,331.9-222.6,331.9-223.3z"/>
	<path class="st3" d="M326.3-226.6c1.1,0,1.1,0.1,1.1-1.1c-0.1-1.2,0.2-2.2,0.9-3.2c0.6-0.9,1.1-1.9,1.7-2.9
		c0.4-0.7,0.5-0.7,1.1-0.2c1.1,0.9,2.1,1.7,3.4,2.4c1.9,1,3.9,1.7,6,1.9c1.9,0.2,3.8,0.1,5.6,0.1c1,0,1.1,0.1,1.1,1.1
		c0,0.4,0,0.9,0,1.3c0,0.4,0.2,0.6,0.6,0.6c0.5,0,1,0,1.4,0.1c0.2,0.1,0.4,0.2,0.6,0.4c0.4-1.5,0.9-3,1-4.6c0.2-3.7-1.3-6.7-3.9-9.2
		c-1.6-1.6-3.6-2.5-5.9-2.7c-1.8-0.2-3.5,0.2-5.2,0.6c-2.7,0.6-4.8,2.1-6.1,4.6c-0.2,0.3-0.4,0.3-0.7,0.4c-3.2,0.1-5.5,3-5,6.2
		c0.2,1.7,0.5,3.3,0.7,5c0,0,0,0,0,0C325.1-226.5,325.7-226.6,326.3-226.6z"/>
	<path class="st3" d="M327.5-226.6c0.3-0.4,0.1-1.1,0.1-1.7c0-0.1,0-0.2,0-0.3c-0.1-0.5,0.1-1,0.4-1.4c0.8-1.2,1.5-2.5,2.2-3.8
		c0.2-0.4,0.3-0.5,0.8-0.1c3.2,3,7.1,4.5,11.5,4.6c1.4,0,2.8,0,4.1,0c0.4,0,0.5,0.1,0.5,0.5c0,0.6,0,1.3,0,1.9
		c0,0.4,0.1,0.6,0.5,0.5c0.8-0.1,1.6,0,2.3,0.4c-0.2-0.2-0.4-0.3-0.6-0.4c-0.5-0.2-1-0.1-1.4-0.1c-0.4,0-0.6-0.1-0.6-0.6
		c0-0.4,0-0.9,0-1.3c0-1-0.1-1.1-1.1-1.1c-1.9,0-3.8,0.1-5.6-0.1c-2.1-0.2-4.1-0.9-6-1.9c-1.2-0.7-2.3-1.5-3.4-2.4
		c-0.6-0.5-0.7-0.5-1.1,0.2c-0.6,0.9-1.1,1.9-1.7,2.9c-0.7,1-1,2-0.9,3.2c0.1,1.2,0,1.1-1.1,1.1c-0.6,0-1.2,0.1-1.6,0.6
		c0.4-0.2,0.8-0.4,1.3-0.4C326.4-226.5,327.2-226.1,327.5-226.6z"/>
	<path class="st4" d="M344.4-204.8c-0.7-0.4-1.5-0.7-2.2-1.1c1.1,1.2,2.2,2.5,3.3,3.7c1.4,1.6,2.8,3.1,4.2,4.7
		c0.2,0.3,0.1,0.5,0,0.7c-0.7,2-1.4,4.1-2,6.1c4.4-1.4,8.3-3.7,11.6-6.8c-0.1,0-0.1-0.1-0.2-0.1
		C354.2-199.8,349.3-202.4,344.4-204.8z"/>
	<path class="st4" d="M324.7-196.9c-0.1-0.3-0.1-0.4,0.1-0.6c1.8-2,3.6-4,5.4-6c0.7-0.8,1.4-1.6,2.1-2.4c-0.1,0-0.1,0-0.2,0
		c-5.1,2.6-10.2,5.1-15.3,7.7c2.8,2.8,6,5,9.7,6.5C325.9-193.4,325.3-195.1,324.7-196.9z"/>
	<path class="st5" d="M332.4-199.7c0-2.1,0-4.2,0-6.3c0,0-0.1,0.1-0.1,0.1c0.1,0.3-0.2,0.4-0.3,0.6c-2.3,2.6-4.6,5.2-6.9,7.7
		c-0.3,0.3-0.2,0.6-0.1,1c0.6,1.7,1.1,3.3,1.7,5c1.8,0.8,3.8,1.4,5.7,1.8c0-3,0-6.1,0-9.1C332.4-199.2,332.4-199.4,332.4-199.7z"/>
	<path class="st5" d="M325.1-197.5c2.3-2.6,4.6-5.2,6.9-7.7c0.2-0.2,0.4-0.3,0.3-0.6c-0.7,0.8-1.4,1.6-2.1,2.4c-1.8,2-3.6,4-5.4,6
		c-0.2,0.2-0.2,0.4-0.1,0.6c0.6,1.7,1.2,3.5,1.8,5.2c0.1,0,0.1,0,0.2,0.1c-0.6-1.7-1.1-3.3-1.7-5
		C324.9-196.9,324.8-197.2,325.1-197.5z"/>
	<path class="st5" d="M349.3-197.7c-1.8-2-3.6-4-5.4-6.1c-0.4-0.5-0.9-1-1.3-1.5c-0.1-0.2-0.4-0.3-0.3-0.6c0,0,0,0,0,0c0,0,0,0,0,0
		c0,0-0.1-0.1-0.1-0.1c0,2.1,0,4.2,0,6.3c0,3.3,0,6.6,0,9.9c0,0.1,0,0.2,0,0.3c1.8-0.2,3.6-0.6,5.4-1.1c0.7-2,1.3-4,2-6
		C349.7-197,349.6-197.4,349.3-197.7z"/>
	<path class="st5" d="M349.7-197.5c-1.4-1.5-2.8-3.1-4.2-4.7c-1.1-1.2-2.2-2.5-3.3-3.7c0,0,0,0,0,0c-0.1,0.3,0.1,0.4,0.3,0.6
		c0.4,0.5,0.9,1,1.3,1.5c1.8,2,3.6,4.1,5.4,6.1c0.3,0.4,0.4,0.7,0.3,1.2c-0.7,2-1.3,4-2,6c0.1,0,0.1,0,0.2-0.1c0.7-2,1.4-4.1,2-6.1
		C349.8-197,350-197.2,349.7-197.5z"/>
	<path class="st4" d="M339.2-197.2c-1.3,0-2.6,0-3.9,0c-0.3,2.6-0.6,5.2-0.9,7.8c1.3,0.2,2.6,0.3,4,0.3c0.5,0,1.1,0,1.6,0
		c-0.2-2.1-0.5-4.2-0.7-6.4C339.3-196.1,339.3-196.7,339.2-197.2z"/>
	<path class="st6" d="M341.9-199.7c-0.5-0.3-1.1-0.6-1.6-0.8c0,0,0,0,0,0c0,0,0,0,0,0c-0.4,1.1-0.7,2.2-1.1,3.3
		c0.2,0.2,0.3,0.5,0.3,0.8c0.2,2.4,0.5,4.8,0.8,7.1c0.6,0,1.1-0.1,1.7-0.1c0-3.4,0-6.8,0-10.2C341.9-199.7,341.9-199.7,341.9-199.7z
		"/>
	<path class="st6" d="M342.1-199.7L342.1-199.7c-0.1,0-0.1-0.1-0.2-0.1c0,0,0,0.1,0,0.1c0,3.4,0,6.8,0,10.2c0.1,0,0.1,0,0.2,0
		c0-0.1,0-0.2,0-0.3C342.1-193.1,342.1-196.4,342.1-199.7z"/>
	<path class="st6" d="M339.2-197.3C339.2-197.2,339.2-197.2,339.2-197.3c0.1,0.6,0.1,1.1,0.2,1.7c0.2,2.1,0.5,4.2,0.7,6.4
		c0.1,0,0.1,0,0.2,0c-0.2-2.4-0.5-4.8-0.8-7.1C339.5-196.7,339.4-197,339.2-197.3z"/>
	<path class="st6" d="M335.3-197.3c-0.4-1.1-0.7-2.2-1.1-3.2c-0.6,0.2-1.1,0.5-1.6,0.8c0,0,0,0.1,0,0.1c0,3.3,0,6.6,0,9.9
		c0.6,0.1,1.1,0.2,1.7,0.3c0.2-2.3,0.5-4.6,0.8-7C335.1-196.7,335.1-197,335.3-197.3z"/>
	<path class="st6" d="M332.6-199.6c0,0,0-0.1,0-0.1c-0.1,0-0.1,0.1-0.2,0.1c0,0.2,0,0.5,0,0.7c0,3,0,6.1,0,9.1c0.1,0,0.1,0,0.2,0
		C332.6-193.1,332.6-196.3,332.6-199.6z"/>
	<path class="st6" d="M335.3-197.3c-0.2,0.2-0.3,0.5-0.3,0.8c-0.2,2.3-0.5,4.6-0.8,7c0.1,0,0.1,0,0.2,0
		C334.8-192.1,335-194.6,335.3-197.3C335.3-197.2,335.3-197.3,335.3-197.3z"/>
	<path class="st2" d="M337.2-202.1C337.2-202.1,337.2-202.1,337.2-202.1c0.1,0,0.1,0,0.2,0c0.6-0.7,1.3-1.1,2-1.7
		c0.9-0.8,1.8-1.5,2.8-2.2c0-0.5,0-1,0-1.5c-1.5,1-3.2,1.5-5,1.5c-1.7,0-3.2-0.6-4.7-1.5c0,0.5,0,1,0,1.5c1.5,1.2,3,2.4,4.6,3.6
		C337-202.3,337.1-202.2,337.2-202.1z"/>
	<polygon class="st2" points="342.2,-206 342.2,-206 342.2,-206 	"/>
	<path class="st7" d="M333.3-207.2c2.7,1.4,5.4,1.4,8.1,0c0.2-0.1,0.4-0.3,0.7-0.2c0-0.6,0-1.3,0-1.9c0,0,0,0,0,0
		c-0.6,0.7-1.5,1-2.4,1.3c-2.4,0.7-4.6,0.4-6.8-0.8c-0.2-0.1-0.4-0.2-0.5-0.4l0,0c0,0.6,0,1.3,0,1.9v0v0
		C332.8-207.5,333-207.3,333.3-207.2z"/>
	<path class="st7" d="M332.9-208.9c2.1,1.2,4.4,1.5,6.8,0.8c0.9-0.3,1.8-0.5,2.4-1.3c-0.2,0.1-0.5,0.3-0.7,0.4
		c-1.6,0.9-3.4,1.2-5.2,1c-1.4-0.2-2.6-0.7-3.8-1.4l0,0l0,0C332.5-209.2,332.7-209.1,332.9-208.9z"/>
	<path class="st7" d="M342.1-207.4c-0.3-0.1-0.5,0.1-0.7,0.2c-2.7,1.4-5.4,1.4-8.1,0c-0.3-0.1-0.5-0.3-0.8-0.3v0
		c1.4,0.9,3,1.4,4.7,1.5C338.9-205.9,340.6-206.5,342.1-207.4z"/>
	<path class="st7" d="M336.2-217.7c0.7,0,1.5,0,2.2,0c0.5,0,0.8-0.4,0.9-0.9c0-0.5-0.3-0.9-0.9-1c-0.2,0-0.4,0-0.6,0
		c-0.4,0-0.5-0.1-0.5-0.5c0-0.4,0-0.9,0-1.3c0-0.7-0.4-1.1-1-1.1c-0.6,0-1,0.4-1,1.1c0,0.4,0,0.9,0,1.3c0,0.5,0,1,0,1.5
		C335.3-218.1,335.6-217.7,336.2-217.7z"/>
	<path class="st7" d="M339.2-215.7c-1.3,0-2.5,0-3.8,0c-0.6,0-1,0.4-1,1c0,0.6,0.4,0.9,1,1c0.6,0,1.3,0,1.9,0c0.6,0,1.3,0,1.9,0
		c0.7,0,1.1-0.4,1.1-1C340.2-215.3,339.8-215.7,339.2-215.7z"/>
	<path class="st3" d="M334.2-225.4C334.2-225.4,334.3-225.4,334.2-225.4c0.7,0,1.1-0.4,1.1-1c0-0.6-0.4-1-1-1c-0.9,0-1.9,0-2.8,0
		c-0.6,0-1,0.4-1,1c0,0.6,0.4,0.9,1,1c0.5,0,0.9,0,1.4,0C333.3-225.4,333.8-225.4,334.2-225.4z"/>
	<path class="st3" d="M340.2-225.4c0.5,0,0.9,0,1.4,0c0.5,0,1,0,1.5,0c0.6,0,1-0.4,1-0.9c0-0.6-0.4-1-1-1c-0.9,0-1.9,0-2.8,0
		c-0.6,0-1,0.4-1,1C339.2-225.8,339.6-225.5,340.2-225.4z"/>
	<path class="st8" d="M334.3-223.3c0-0.6-0.5-1.2-1.2-1.2c-0.6,0-1.2,0.5-1.2,1.2c0,0.7,0.5,1.3,1.2,1.3
		C333.8-222,334.3-222.6,334.3-223.3z"/>
	<path class="st8" d="M341.4-224.5c-0.7,0-1.2,0.5-1.2,1.2c0,0.7,0.5,1.2,1.2,1.2c0.7,0,1.2-0.5,1.2-1.2
		C342.6-223.9,342.1-224.4,341.4-224.5z"/>
	<polygon class="st9" points="332.4,-206 332.4,-206 332.4,-206 	"/>
	<path class="st9" d="M337.1-202c-1.5-1.1-2.9-2.3-4.4-3.5c-0.1-0.1-0.2-0.2-0.3-0.4c0.1,0.3,0.1,0.6,0.1,0.9c0,1.7,0,3.5,0,5.2
		c0.5-0.4,1-0.7,1.6-0.7C335.2-201,336.2-201.5,337.1-202z"/>
	<path class="st9" d="M332.4-206C332.4-206,332.4-205.9,332.4-206C332.4-205.9,332.4-206,332.4-206C332.4-206,332.4-206,332.4-206z"
		/>
	<polygon class="st9" points="332.4,-206 332.4,-206 332.4,-206 	"/>
	<path class="st9" d="M332.6-199.8c0-1.7,0-3.5,0-5.2c0-0.3,0-0.6-0.1-0.9c0,0,0-0.1-0.1-0.1c0,0,0,0,0,0c0,0,0,0,0,0
		c0,2.1,0,4.2,0,6.3C332.5-199.7,332.5-199.8,332.6-199.8z"/>
	<path class="st9" d="M334.2-200.5c-0.7,0-1.2,0.3-1.6,0.7c0,0,0,0,0,0.1C333.1-200,333.6-200.3,334.2-200.5L334.2-200.5
		C334.2-200.5,334.2-200.5,334.2-200.5z"/>
	<path class="st9" d="M332.4-199.7c0.1,0,0.1-0.1,0.2-0.1c0,0,0,0,0-0.1C332.5-199.8,332.5-199.7,332.4-199.7z"/>
	<polygon class="st9" points="332.4,-206 332.4,-206 332.4,-206 	"/>
	<path class="st9" d="M332.4-205.9C332.4-205.9,332.4-205.9,332.4-205.9C332.5-205.9,332.5-205.9,332.4-205.9
		c0.2,0.2,0.2,0.3,0.3,0.4c1.5,1.1,2.9,2.3,4.4,3.5c0,0,0,0,0,0h0c0,0,0,0,0,0c-0.1-0.1-0.1-0.2-0.2-0.3
		C335.4-203.5,333.9-204.8,332.4-205.9C332.4-206,332.4-206,332.4-205.9C332.4-206,332.4-205.9,332.4-205.9z"/>
	<path class="st9" d="M332.4-205.9C332.4-205.9,332.5-205.9,332.4-205.9C332.5-205.9,332.5-205.9,332.4-205.9
		C332.4-205.9,332.4-205.9,332.4-205.9z"/>
	<path class="st9" d="M342.1-206c-0.5,0.7-1.2,1.1-1.8,1.6c-1,0.8-1.9,1.6-3,2.4c1,0.5,1.9,1,2.9,1.5c0.7,0,1.2,0.3,1.7,0.7
		c0-1.7,0-3.4,0-5.1c0-0.3,0-0.6,0.1-0.9C342-205.9,342.1-205.9,342.1-206C342.2-206,342.2-206,342.1-206
		C342.2-206,342.2-206,342.1-206C342.2-206,342.1-206,342.1-206C342.1-206,342.1-206,342.1-206z"/>
	<polygon class="st9" points="342.2,-206 342.2,-206 342.1,-206 342.1,-206 	"/>
	<path class="st9" d="M342-205.8c-0.1,0.3-0.1,0.6-0.1,0.9c0,1.7,0,3.4,0,5.1c0.1,0.1,0.1,0.1,0.2,0.1v0c0-2.1,0-4.2,0-6.3
		c0,0,0,0,0,0C342.1-205.9,342-205.9,342-205.8z"/>
	<path class="st9" d="M340.3-200.5C340.3-200.5,340.3-200.5,340.3-200.5C340.3-200.5,340.3-200.5,340.3-200.5
		c0.6,0.2,1.1,0.5,1.7,0.8c0,0,0,0,0-0.1C341.5-200.2,340.9-200.5,340.3-200.5z"/>
	<path class="st9" d="M341.9-199.8C341.9-199.8,341.9-199.8,341.9-199.8c0.1,0.1,0.1,0.1,0.2,0.1l0,0v0
		C342.1-199.7,342-199.8,341.9-199.8z"/>
	<polygon class="st9" points="342.1,-206 342.2,-206 342.2,-206 342.1,-206 	"/>
	<path class="st9" d="M337.4-202.1C337.4-202.1,337.4-202,337.4-202.1c1.1-0.7,2-1.5,3-2.3c0.6-0.5,1.3-0.9,1.8-1.6c0,0,0,0,0,0
		c-0.9,0.7-1.9,1.5-2.8,2.2C338.7-203.2,337.9-202.7,337.4-202.1z"/>
	<path class="st5" d="M337.4-202c-0.1,0-0.2,0-0.2,0c0,0.1,0,0.1-0.1,0.1c-0.9,0.5-1.8,1.1-2.9,1.4c0,0,0,0,0,0
		c0.5,1,0.9,2.1,1.1,3.2c0,0,0,0,0,0c0.4-0.2,0.8-0.1,1.1-0.1c0.9,0,1.8-0.1,2.7,0.1c0,0,0-0.1,0-0.1c0.3-1.1,0.5-2.2,1.1-3.1
		c0,0,0,0,0,0C339.2-200.9,338.2-201.3,337.4-202C337.4-202,337.4-202,337.4-202z"/>
	<path class="st5" d="M336.5-197.4c-0.4,0-0.8-0.1-1.1,0.1c0,0,0,0,0,0c0,0,0,0,0,0.1c1.3,0,2.6,0,3.9,0c0,0,0-0.1,0-0.1
		C338.3-197.5,337.4-197.4,336.5-197.4z"/>
	<path class="st5" d="M340.2-200.5c-0.6,1-0.8,2.1-1.1,3.1c0,0,0,0.1,0,0.1c0,0,0,0,0,0c0,0,0,0,0,0
		C339.6-198.3,339.9-199.4,340.2-200.5C340.3-200.5,340.3-200.5,340.2-200.5C340.3-200.5,340.3-200.5,340.2-200.5
		C340.2-200.5,340.2-200.5,340.2-200.5z"/>
	<path class="st5" d="M339.1-197.3C339.2-197.3,339.2-197.2,339.1-197.3C339.2-197.2,339.2-197.2,339.1-197.3
		C339.2-197.3,339.2-197.3,339.1-197.3C339.2-197.3,339.2-197.3,339.1-197.3z"/>
	<path class="st5" d="M334.3-200.5C334.3-200.5,334.3-200.5,334.3-200.5C334.2-200.5,334.2-200.5,334.3-200.5L334.3-200.5
		c0.3,1.1,0.7,2.2,1,3.3c0,0,0,0,0,0C335.2-198.4,334.7-199.5,334.3-200.5z"/>
	<path class="st5" d="M335.3-197.3C335.3-197.3,335.3-197.2,335.3-197.3C335.3-197.2,335.3-197.3,335.3-197.3
		C335.3-197.3,335.3-197.3,335.3-197.3z"/>
	<path class="st5" d="M337.4-202C337.4-202,337.4-202,337.4-202C337.4-202,337.4-202.1,337.4-202c-0.1,0-0.2,0-0.2,0c0,0,0,0,0,0
		C337.2-202,337.3-202,337.4-202z"/>
	<path class="st5" d="M334.2-200.5c1-0.3,1.9-0.9,2.9-1.4c0,0,0.1-0.1,0.1-0.1c0,0,0,0,0,0c0,0,0,0,0,0
		C336.2-201.5,335.2-201,334.2-200.5C334.2-200.5,334.2-200.5,334.2-200.5z"/>
	<path class="st5" d="M334.2-200.5C334.2-200.5,334.2-200.5,334.2-200.5C334.2-200.5,334.2-200.5,334.2-200.5L334.2-200.5
		L334.2-200.5C334.2-200.5,334.2-200.5,334.2-200.5z"/>
	<path class="st5" d="M337.2-202C337.2-202,337.2-202,337.2-202L337.2-202C337.2-202,337.1-202,337.2-202
		C337.1-202,337.1-202,337.2-202C337.1-202,337.2-202,337.2-202z"/>
	<path class="st5" d="M340.2-200.5C340.3-200.5,340.3-200.5,340.2-200.5c-0.9-0.5-1.9-1-2.8-1.5c0,0,0,0,0,0
		C338.2-201.3,339.2-200.9,340.2-200.5z"/>
	<path class="st5" d="M340.2-200.5C340.3-200.5,340.3-200.5,340.2-200.5C340.3-200.5,340.3-200.5,340.2-200.5
		C340.3-200.5,340.3-200.5,340.2-200.5z"/>
	<path class="st5" d="M337.4-202C337.4-202,337.4-202.1,337.4-202C337.4-202.1,337.4-202,337.4-202C337.4-202,337.4-202,337.4-202z"
		/>
</g>
<path class="st10" d="M576.2,186.8H289.9c-6.6,0-12-5.4-12-12v-44.1c0-6.6,5.4-12,12-12h286.3c6.6,0,12,5.4,12,12v44.1
	C588.2,181.4,582.8,186.8,576.2,186.8z"/>
<g>
	<text transform="matrix(1 0 0 1 359.0414 164.273)" class="st15" style="font-family:'Montserrat-Light'; font-size:31.1428px;">Recreation</text>
</g>
<path class="st11" d="M576.2,315.8H289.7c-6.6,0-12-5.4-12-12v-44.1c0-6.6,5.4-12,12-12h286.5c6.6,0,12,5.4,12,12v44.1
	C588.2,310.4,582.8,315.8,576.2,315.8z"/>
<text transform="matrix(1 0 0 1 362.0786 292.2643)" class="st15" style="font-family:'Montserrat-Light'; font-size:31.1428px;">Technology</text>
<circle class="st12" cx="281.9" cy="281.6" r="47.3"/>
<circle class="st13" cx="282.1" cy="151.3" r="47.3"/>
<circle class="st14" cx="282.1" cy="23.7" r="47.3"/>
<g>
	<path class="st15" d="M314.5,278.7c-1.6-0.4-3.3,0.3-4.1,1.7c-0.3,0.5-0.6,0.6-1.1,0.6c-2.2,0-4.4,0-6.6,0c-2.3,0-4.5,0-6.8,0
		c-0.5,0-0.7-0.1-0.7-0.7c0-1.2,0-2.4,0-3.6c0-0.5,0.1-0.6,0.6-0.6c1.2,0,2.5,0,3.7,0c0.5,0,0.8,0.1,1,0.6c0.9,1.7,2.9,2.3,4.6,1.5
		c1.7-0.8,2.6-2.7,2-4.5c-0.5-1.4-1.5-2.3-3-2.5c-1.5-0.2-3,0.5-3.7,1.9c-0.2,0.5-0.5,0.6-1,0.6c-1.3,0-2.5,0-3.8,0
		c-0.4,0-0.6-0.1-0.6-0.5c0-1,0-2,0-3c0-0.9-0.4-1.4-1.4-1.4c-1,0-2,0-3,0c-0.4,0-0.5-0.1-0.5-0.5c0-1.3,0-2.6,0-3.9
		c0-0.4,0.1-0.7,0.5-0.9c1.5-0.8,2.2-2.5,1.8-4.1c-0.5-1.7-1.9-2.8-3.6-2.7c-1.7,0-3.1,1.2-3.5,2.8c-0.4,1.6,0.4,3.2,1.9,4
		c0.4,0.2,0.5,0.4,0.5,0.9c0,1.3,0,2.5,0,3.8c0,0.6-0.2,0.7-0.7,0.6c-1.2,0-2.4,0-3.6,0c-0.5,0-0.6-0.1-0.6-0.6c0-4.5,0-9.1,0-13.6
		c0-0.5,0.2-0.6,0.5-0.9c1.5-0.8,2.2-2.5,1.8-4c-0.4-1.7-1.8-2.8-3.6-2.8c-1.7,0-3.1,1.1-3.5,2.8c-0.4,1.6,0.3,3.3,1.9,4.1
		c0.3,0.2,0.5,0.3,0.5,0.7c0,4.6,0,9.2,0,13.7c0,0.4-0.1,0.6-0.5,0.5c-1.3,0-2.5,0-3.8,0c-0.4,0-0.5-0.1-0.5-0.5c0-1.3,0-2.6,0-3.9
		c0-0.4,0.1-0.6,0.5-0.8c1.5-0.8,2.3-2.5,1.9-4c-0.4-1.7-1.8-2.8-3.5-2.8c-1.8,0-3.2,1.1-3.7,2.8c-0.4,1.6,0.3,3.3,1.9,4.1
		c0.3,0.2,0.5,0.3,0.5,0.7c0,1.3,0,2.7,0,4c0,0.5-0.2,0.5-0.6,0.5c-1,0-2,0-3,0c-0.9,0-1.3,0.4-1.3,1.4c0,1,0,2,0,3
		c0,0.4-0.1,0.6-0.5,0.6c-1.3,0-2.6,0-3.9,0c-0.4,0-0.6-0.1-0.8-0.5c-0.8-1.5-2.5-2.3-4.1-1.9c-1.7,0.4-2.8,1.8-2.8,3.6
		c0,1.7,1.1,3.1,2.8,3.5c1.6,0.4,3.2-0.3,4.1-1.9c0.1-0.3,0.2-0.5,0.7-0.5c1.4,0,2.8,0,4.2,0c0.4,0,0.5,0.1,0.5,0.5
		c0,1.3,0,2.5,0,3.8c0,0.5-0.2,0.6-0.6,0.6c-4.5,0-9,0-13.4,0c-0.5,0-0.7-0.1-1-0.6c-0.8-1.4-2.4-2.2-3.9-1.8
		c-1.6,0.4-2.9,1.8-2.9,3.4c-0.1,1.9,1,3.3,2.7,3.8c1.6,0.4,3.3-0.3,4.1-1.8c0.2-0.3,0.3-0.5,0.8-0.5c4.6,0,9.2,0,13.7,0
		c0.4,0,0.5,0.1,0.5,0.5c0,1.3,0,2.6,0,3.9c0,0.4-0.1,0.5-0.5,0.5c-1.3,0-2.6,0-3.9,0c-0.4,0-0.7-0.1-0.9-0.5
		c-0.8-1.5-2.5-2.3-4.1-1.8c-1.7,0.5-2.8,1.9-2.7,3.6c0,1.7,1.1,3.1,2.8,3.5c1.6,0.4,3.2-0.3,4-1.9c0.2-0.4,0.4-0.5,0.9-0.5
		c1.3,0,2.5,0,3.8,0c0.6,0,0.7,0.2,0.6,0.7c0,1,0,1.9,0,2.9c0,0.9,0.5,1.3,1.3,1.3c1,0,2,0,3,0c0.4,0,0.6,0.1,0.6,0.6
		c0,1.3,0,2.6,0,3.9c0,0.4-0.1,0.7-0.5,0.9c-1.7,0.9-2.4,2.8-1.7,4.5c0.6,1.5,2.1,2.4,3.8,2.3c1.5-0.1,2.9-1.3,3.2-2.9
		c0.3-1.5-0.4-3.2-1.8-3.9c-0.4-0.2-0.6-0.5-0.6-1c0-1.3,0-2.5,0-3.8c0-0.5,0.1-0.6,0.6-0.6c1.2,0,2.4,0,3.6,0
		c0.6,0,0.7,0.2,0.7,0.7c0,4.5,0,9,0,13.4c0,0.4-0.1,0.7-0.5,0.9c-1.5,0.8-2.2,2.4-1.9,4c0.4,1.7,1.8,2.9,3.5,2.9
		c1.8,0,3.2-1,3.7-2.8c0.4-1.6-0.3-3.3-1.8-4.1c-0.4-0.2-0.5-0.4-0.5-0.8c0-4.6,0-9.1,0-13.7c0-0.4,0.1-0.6,0.5-0.6
		c1.3,0,2.5,0,3.8,0c0.4,0,0.6,0.1,0.6,0.5c0,1.3,0,2.6,0,3.9c0,0.4-0.1,0.6-0.5,0.8c-1.5,0.8-2.3,2.5-1.9,4.1
		c0.5,1.7,1.9,2.8,3.6,2.8c1.7,0,3.1-1.1,3.5-2.8c0.4-1.6-0.3-3.2-1.9-4.1c-0.3-0.1-0.5-0.2-0.5-0.6c0-1.4,0-2.8,0-4.2
		c0-0.4,0.1-0.5,0.5-0.5c1,0,2,0,3,0c0.9,0,1.3-0.4,1.4-1.3c0-1,0-2,0-3c0-0.4,0.1-0.6,0.5-0.6c1.3,0,2.7,0,4,0
		c0.4,0,0.6,0.1,0.7,0.5c0.8,1.5,2.5,2.3,4.1,1.9c1.7-0.4,2.8-1.8,2.8-3.6c0-1.7-1.1-3.1-2.8-3.5c-1.6-0.4-3.3,0.3-4.1,1.9
		c-0.2,0.4-0.4,0.5-0.8,0.5c-1.3,0-2.6,0-3.9,0c-0.4,0-0.5-0.1-0.5-0.5c0-1.2,0-2.5,0-3.7c0-0.5,0.1-0.6,0.6-0.6c4.5,0,9.1,0,13.6,0
		c0.4,0,0.6,0.1,0.8,0.5c0.8,1.5,2.5,2.3,4,1.9c1.7-0.4,2.8-1.8,2.8-3.5C317.3,280.6,316.2,279.2,314.5,278.7z M303.9,273.8
		c0.6,0,1.2,0.6,1.2,1.2c0,0.6-0.6,1.2-1.2,1.2c-0.6,0-1.2-0.6-1.2-1.2C302.7,274.3,303.3,273.8,303.9,273.8z M260.2,276.2
		c-0.6,0-1.2-0.6-1.2-1.2c0-0.6,0.6-1.2,1.2-1.2c0.6,0,1.2,0.6,1.2,1.2C261.4,275.6,260.8,276.2,260.2,276.2z M250.4,283.5
		c-0.6,0-1.2-0.6-1.2-1.2c0-0.6,0.6-1.2,1.2-1.2c0.6,0,1.2,0.6,1.2,1.2C251.6,282.9,251,283.5,250.4,283.5z M260.2,290.8
		c-0.6,0-1.2-0.6-1.2-1.2c0-0.6,0.6-1.2,1.2-1.2c0.6,0,1.2,0.6,1.2,1.2C261.4,290.2,260.8,290.8,260.2,290.8z M288.1,260.4
		c0-0.6,0.5-1.2,1.2-1.2c0.6,0,1.2,0.5,1.2,1.2c0,0.6-0.5,1.2-1.2,1.2C288.8,261.6,288.1,261.1,288.1,260.4z M280.8,250.7
		c0-0.6,0.6-1.2,1.2-1.2c0.6,0,1.2,0.6,1.2,1.2c0,0.6-0.6,1.2-1.2,1.2C281.4,251.9,280.8,251.3,280.8,250.7z M273.5,260.4
		c0-0.6,0.6-1.2,1.2-1.2c0.6,0,1.2,0.6,1.2,1.2c0,0.6-0.6,1.2-1.2,1.2C274.1,261.6,273.5,261,273.5,260.4z M276,304.1
		c0,0.6-0.6,1.2-1.2,1.2c-0.6,0-1.2-0.6-1.2-1.2c0-0.6,0.6-1.2,1.2-1.2C275.4,302.9,276,303.5,276,304.1z M283.3,313.8
		c0,0.6-0.6,1.2-1.2,1.2c-0.6,0-1.2-0.6-1.2-1.2c0-0.6,0.6-1.2,1.2-1.2C282.6,312.6,283.2,313.2,283.3,313.8z M290.5,304.1
		c0,0.6-0.6,1.2-1.2,1.2c-0.6,0-1.2-0.6-1.2-1.2c0-0.6,0.6-1.2,1.2-1.2C289.9,302.9,290.5,303.5,290.5,304.1z M292.3,293.2
		c-3.4,0-6.9,0-10.3,0c-3.4,0-6.8,0-10.2,0c-0.6,0-0.7-0.1-0.7-0.7c0-6.8,0-13.7,0-20.5c0-0.6,0.1-0.7,0.7-0.7c6.8,0,13.7,0,20.5,0
		c0.6,0,0.7,0.1,0.7,0.7c0,6.8,0,13.7,0,20.5C293,293.1,292.9,293.2,292.3,293.2z M303.9,288.3c0.6,0,1.2,0.6,1.2,1.2
		c0,0.6-0.6,1.2-1.2,1.2c-0.6,0-1.2-0.6-1.2-1.2C302.7,288.9,303.3,288.3,303.9,288.3z M313.7,283.5c-0.6,0-1.2-0.6-1.2-1.2
		c0-0.6,0.6-1.2,1.2-1.2c0.6,0,1.2,0.6,1.2,1.2C314.9,282.8,314.3,283.5,313.7,283.5z"/>
</g>
<rect x="262.4" y="-119.7" style="fill:none;" width="318.9" height="56"/>
<text transform="matrix(1 0 0 1 262.4028 -103.7416)" style="font-family:'Montserrat-Light'; font-size:21.5604px;">Subjects available to interact:</text>
<line class="st16" x1="20.1" y1="0.6" x2="0.6" y2="20.1"/>
<line class="st16" x1="20.1" y1="20.1" x2="0.6" y2="0.6"/>
</svg>
