<?xml version="1.0" encoding="utf-8"?>
<!-- Generator: Adobe Illustrator 22.1.0, SVG Export Plug-In . SVG Version: 6.00 Build 0)  -->
<svg version="1.1" id="Layer_1" xmlns="http://www.w3.org/2000/svg" xmlns:xlink="http://www.w3.org/1999/xlink" x="0px" y="0px"
	 viewBox="0 0 72.5 73.1" style="enable-background:new 0 0 72.5 73.1;" xml:space="preserve">
<style type="text/css">
	.st0{fill:#EB353B;}
	.st1{fill:#CF1F3C;}
	.st2{fill:#FCC9A6;}
	.st3{fill:#543213;}
	.st4{fill:#076DA2;}
	.st5{fill:#2F92D0;}
	.st6{fill:#CACACA;}
	.st7{fill:#E6AF88;}
	.st8{fill:#553213;}
	.st9{fill:#EAEAEA;}
	.st10{fill:#3BC3E3;}
	.st11{fill:#8DC63F;}
	.st12{fill:#8DC63F;stroke:#F6E6DB;stroke-miterlimit:10;}
	.st13{fill:#3BC3E3;stroke:#F6E6DB;stroke-miterlimit:10;}
	.st14{fill:#EB353B;stroke:#F6E6DB;stroke-miterlimit:10;}
	.st15{fill:#FFFFFF;}
</style>
<path class="st0" d="M600.8,84H314.5c-6.6,0-12-5.4-12-12V27.9c0-6.6,5.4-12,12-12h286.2c6.6,0,12,5.4,12,12V72
	C612.8,78.6,607.4,84,600.8,84z"/>
<g>
	<text transform="matrix(1 0 0 1 384.3546 60.5766)" class="st15" style="font-family:'Montserrat-Light'; font-size:31.1428px;">University</text>
</g>
<text transform="matrix(1 0 0 1 411.4601 -179.7408)" style="font-family:'Montserrat-Light'; font-size:16.7692px;">Daniel Lorem Ipsum</text>
<text transform="matrix(1 0 0 1 411.4601 -199.8258)" style="font-family:'Montserrat-Light'; font-size:16.7692px;">Welcome,</text>
<g>
	<path class="st1" d="M356.8-179.8C356.9-179.8,356.9-179.8,356.8-179.8C356.9-179.8,356.9-179.8,356.8-179.8
		c0.1-0.1,0.1-0.1,0.1-0.1c0-0.5,0-1,0-1.5v0c0-0.6,0-1.3,0-1.9c-2.6-1.8-3.6-4.6-4.3-7.5c-0.2-0.7-0.3-1.5-0.4-2.2
		c0-0.4-0.2-0.5-0.6-0.5c-0.6,0-1.1,0.1-1.7-0.1c-1.1-0.3-1.8-1.3-1.9-2.4c0-0.3,0-0.7,0-1c-0.1-1.1,0.1-2.1,1-2.9c0,0,0,0,0,0
		c0,0,0,0,0,0c-0.2-1.7-0.4-3.3-0.7-5c-0.5-3.2,1.8-6,5-6.2c0.3,0,0.5,0,0.7-0.4c1.4-2.4,3.4-3.9,6.1-4.6c1.7-0.4,3.4-0.8,5.2-0.6
		c2.3,0.3,4.3,1.2,5.9,2.7c2.6,2.5,4,5.5,3.9,9.2c-0.1,1.6-0.6,3.1-1,4.6c1.5,1.3,1.2,3,1,4.7c-0.2,1-1.2,1.7-2.3,1.8
		c-0.5,0-1.1-0.2-1.5,0.2c-0.3,0.3-0.2,1-0.3,1.5c-0.4,2-0.9,3.9-1.9,5.7c-0.6,1.2-1.6,2.1-2.6,2.9l0,0c0,0,0,0,0,0
		c0,0.6,0,1.3,0,1.9c0,0.5,0,1,0,1.5c0,0,0,0,0,0v0c0,0,0,0,0,0l0,0c0,0,0,0,0,0c0,0,0.1,0.1,0.1,0.1c0,0,0,0,0,0
		c0.7,0.3,1.5,0.7,2.2,1.1c4.9,2.4,9.8,5,14.7,7.3c0.1,0,0.1,0.1,0.2,0.1c6-5.6,9.7-13.5,9.7-22.4c0-16.9-13.7-30.6-30.6-30.6
		s-30.6,13.7-30.6,30.6c0,8.5,3.4,16.1,9,21.6c5.1-2.6,10.2-5.1,15.3-7.7C356.7-179.7,356.8-179.7,356.8-179.8z"/>
	<path class="st2" d="M360.7-181.9c1.9,0.2,3.6-0.1,5.2-1c0.2-0.1,0.5-0.3,0.7-0.4l0,0c1-0.8,2-1.7,2.6-2.9c1-1.8,1.5-3.7,1.9-5.7
		c0.1-0.5,0-1.1,0.3-1.5c0.4-0.4,1-0.1,1.5-0.2c1.1-0.1,2.2-0.8,2.3-1.8c0.3-1.6,0.6-3.4-1-4.7c-0.7-0.3-1.5-0.4-2.3-0.4
		c-0.4,0-0.5-0.1-0.5-0.5c0-0.6,0-1.3,0-1.9c0-0.4-0.1-0.5-0.5-0.5c-1.4,0-2.8,0-4.1,0c-4.4,0-8.3-1.5-11.5-4.6
		c-0.4-0.4-0.5-0.3-0.8,0.1c-0.7,1.3-1.5,2.5-2.2,3.8c-0.3,0.5-0.4,0.9-0.4,1.4c0,0.1,0,0.2,0,0.3c0,0.6,0.2,1.3-0.1,1.7
		c-0.3,0.5-1,0.1-1.6,0.2c-0.5,0.1-0.8,0.3-1.3,0.4c0,0,0,0,0,0c-0.9,0.8-1.1,1.8-1,2.9c0,0.3,0,0.6,0,1c0,1.1,0.8,2.1,1.9,2.4
		c0.6,0.2,1.1,0.1,1.7,0.1c0.4,0,0.6,0.1,0.6,0.5c0,0.7,0.2,1.5,0.4,2.2c0.7,2.9,1.6,5.7,4.3,7.5l0,0
		C358.1-182.6,359.4-182.1,360.7-181.9z M363.7-187.6c-0.6,0-1.3,0-1.9,0c-0.6,0-1.3,0-1.9,0c-0.6,0-1-0.4-1-1c0-0.6,0.4-1,1-1
		c1.3,0,2.5,0,3.8,0c0.6,0,1,0.4,1,1C364.7-188,364.3-187.7,363.7-187.6z M365.9-195.9c-0.7,0-1.2-0.6-1.2-1.2
		c0-0.7,0.6-1.2,1.2-1.2c0.6,0,1.2,0.6,1.2,1.2C367.1-196.4,366.6-195.9,365.9-195.9z M364.8-201.2c0.9,0,1.9,0,2.8,0
		c0.6,0,1,0.4,1,1c0,0.5-0.4,0.9-1,0.9c-0.5,0-1,0-1.5,0c-0.5,0-0.9,0-1.4,0c-0.6,0-1-0.4-1-1C363.8-200.8,364.2-201.2,364.8-201.2z
		 M359.9-195.3c0-0.7,0.4-1.1,1-1.1c0.6,0,0.9,0.4,1,1.1c0,0.4,0,0.9,0,1.3c0,0.4,0.1,0.5,0.5,0.5c0.2,0,0.4,0,0.6,0
		c0.5,0.1,0.9,0.5,0.9,1c0,0.5-0.3,0.9-0.9,0.9c-0.7,0-1.5,0-2.2,0c-0.5,0-0.8-0.4-0.8-0.9c0-0.5,0-1,0-1.5
		C359.9-194.4,359.9-194.8,359.9-195.3z M356-199.3c-0.6,0-1-0.4-1-1c0-0.6,0.4-1,1-1c0.9,0,1.9,0,2.8,0c0.6,0,1,0.4,1,1
		c0,0.5-0.4,0.9-1,1c0,0,0,0-0.1,0c-0.4,0-0.9,0-1.3,0C357-199.3,356.5-199.3,356-199.3z M356.5-197.2c0-0.6,0.6-1.2,1.2-1.2
		c0.6,0,1.2,0.6,1.2,1.2c0,0.7-0.6,1.2-1.2,1.2C357-195.9,356.4-196.5,356.5-197.2z"/>
	<path class="st3" d="M350.8-200.4c1.1,0,1.1,0.1,1.1-1.1c-0.1-1.2,0.2-2.2,0.9-3.2c0.6-0.9,1.1-1.9,1.7-2.9
		c0.4-0.7,0.5-0.7,1.1-0.2c1.1,0.9,2.1,1.7,3.4,2.4c1.9,1,3.9,1.7,6,1.9c1.9,0.2,3.8,0.1,5.6,0.1c1,0,1.1,0.1,1.1,1.1
		c0,0.4,0,0.9,0,1.3c0,0.4,0.2,0.6,0.6,0.6c0.5,0,1,0,1.4,0.1c0.2,0.1,0.4,0.2,0.6,0.4c0.4-1.5,0.9-3,1-4.6c0.2-3.7-1.3-6.7-3.9-9.2
		c-1.6-1.6-3.6-2.5-5.9-2.7c-1.8-0.2-3.5,0.2-5.2,0.6c-2.7,0.6-4.8,2.1-6.1,4.6c-0.2,0.3-0.4,0.3-0.7,0.4c-3.2,0.1-5.5,3-5,6.2
		c0.2,1.7,0.5,3.3,0.7,5c0,0,0,0,0,0C349.6-200.4,350.2-200.4,350.8-200.4z"/>
	<path class="st3" d="M352-200.5c0.3-0.4,0.1-1.1,0.1-1.7c0-0.1,0-0.2,0-0.3c-0.1-0.5,0.1-1,0.4-1.4c0.8-1.2,1.5-2.5,2.2-3.8
		c0.2-0.4,0.3-0.5,0.8-0.1c3.2,3,7.1,4.5,11.5,4.6c1.4,0,2.8,0,4.1,0c0.4,0,0.5,0.1,0.5,0.5c0,0.6,0,1.3,0,1.9
		c0,0.4,0.1,0.6,0.5,0.5c0.8-0.1,1.6,0,2.3,0.4c-0.2-0.2-0.4-0.3-0.6-0.4c-0.5-0.2-1-0.1-1.4-0.1c-0.4,0-0.6-0.1-0.6-0.6
		c0-0.4,0-0.9,0-1.3c0-1-0.1-1.1-1.1-1.1c-1.9,0-3.8,0.1-5.6-0.1c-2.1-0.2-4.1-0.9-6-1.9c-1.2-0.7-2.3-1.5-3.4-2.4
		c-0.6-0.5-0.7-0.5-1.1,0.2c-0.6,0.9-1.1,1.9-1.7,2.9c-0.7,1-1,2-0.9,3.2c0.1,1.2,0,1.1-1.1,1.1c-0.6,0-1.2,0.1-1.6,0.6
		c0.4-0.2,0.8-0.4,1.3-0.4C351-200.4,351.7-200,352-200.5z"/>
	<path class="st4" d="M369-178.7c-0.7-0.4-1.5-0.7-2.2-1.1c1.1,1.2,2.2,2.5,3.3,3.7c1.4,1.6,2.8,3.1,4.2,4.7c0.2,0.3,0.1,0.5,0,0.7
		c-0.7,2-1.4,4.1-2,6.1c4.4-1.4,8.3-3.7,11.6-6.8c-0.1,0-0.1-0.1-0.2-0.1C378.7-173.7,373.9-176.3,369-178.7z"/>
	<path class="st4" d="M349.3-170.7c-0.1-0.3-0.1-0.4,0.1-0.6c1.8-2,3.6-4,5.4-6c0.7-0.8,1.4-1.6,2.1-2.4c-0.1,0-0.1,0-0.2,0
		c-5.1,2.6-10.2,5.1-15.3,7.7c2.8,2.8,6,5,9.7,6.5C350.4-167.3,349.9-169,349.3-170.7z"/>
	<path class="st5" d="M357-173.5c0-2.1,0-4.2,0-6.3c0,0-0.1,0.1-0.1,0.1c0.1,0.3-0.2,0.4-0.3,0.6c-2.3,2.6-4.6,5.2-6.9,7.7
		c-0.3,0.3-0.2,0.6-0.1,1c0.6,1.7,1.1,3.3,1.7,5c1.8,0.8,3.8,1.4,5.7,1.8c0-3,0-6.1,0-9.1C356.9-173.1,357-173.3,357-173.5z"/>
	<path class="st5" d="M349.6-171.4c2.3-2.6,4.6-5.2,6.9-7.7c0.2-0.2,0.4-0.3,0.3-0.6c-0.7,0.8-1.4,1.6-2.1,2.4c-1.8,2-3.6,4-5.4,6
		c-0.2,0.2-0.2,0.4-0.1,0.6c0.6,1.7,1.2,3.5,1.8,5.2c0.1,0,0.1,0,0.2,0.1c-0.6-1.7-1.1-3.3-1.7-5
		C349.4-170.8,349.3-171.1,349.6-171.4z"/>
	<path class="st5" d="M373.8-171.6c-1.8-2-3.6-4-5.4-6.1c-0.4-0.5-0.9-1-1.3-1.5c-0.1-0.2-0.4-0.3-0.3-0.6c0,0,0,0,0,0c0,0,0,0,0,0
		c0,0-0.1-0.1-0.1-0.1c0,2.1,0,4.2,0,6.3c0,3.3,0,6.6,0,9.9c0,0.1,0,0.2,0,0.3c1.8-0.2,3.6-0.6,5.4-1.1c0.7-2,1.3-4,2-6
		C374.2-170.9,374.1-171.2,373.8-171.6z"/>
	<path class="st5" d="M374.3-171.4c-1.4-1.5-2.8-3.1-4.2-4.7c-1.1-1.2-2.2-2.5-3.3-3.7c0,0,0,0,0,0c-0.1,0.3,0.1,0.4,0.3,0.6
		c0.4,0.5,0.9,1,1.3,1.5c1.8,2,3.6,4.1,5.4,6.1c0.3,0.4,0.4,0.7,0.3,1.2c-0.7,2-1.3,4-2,6c0.1,0,0.1,0,0.2-0.1c0.7-2,1.4-4.1,2-6.1
		C374.4-170.9,374.5-171.1,374.3-171.4z"/>
	<path class="st4" d="M363.7-171.1c-1.3,0-2.6,0-3.9,0c-0.3,2.6-0.6,5.2-0.9,7.8c1.3,0.2,2.6,0.3,4,0.3c0.5,0,1.1,0,1.6,0
		c-0.2-2.1-0.5-4.2-0.7-6.4C363.9-170,363.8-170.6,363.7-171.1z"/>
	<path class="st6" d="M366.5-173.6c-0.5-0.3-1.1-0.6-1.6-0.8c0,0,0,0,0,0c0,0,0,0,0,0c-0.4,1.1-0.7,2.2-1.1,3.3
		c0.2,0.2,0.3,0.5,0.3,0.8c0.2,2.4,0.5,4.8,0.8,7.1c0.6,0,1.1-0.1,1.7-0.1c0-3.4,0-6.8,0-10.2C366.5-173.5,366.5-173.6,366.5-173.6z
		"/>
	<path class="st6" d="M366.6-173.5L366.6-173.5c-0.1,0-0.1-0.1-0.2-0.1c0,0,0,0.1,0,0.1c0,3.4,0,6.8,0,10.2c0.1,0,0.1,0,0.2,0
		c0-0.1,0-0.2,0-0.3C366.7-166.9,366.7-170.2,366.6-173.5z"/>
	<path class="st6" d="M363.7-171.1C363.7-171.1,363.7-171.1,363.7-171.1c0.1,0.6,0.1,1.1,0.2,1.7c0.2,2.1,0.5,4.2,0.7,6.4
		c0.1,0,0.1,0,0.2,0c-0.2-2.4-0.5-4.8-0.8-7.1C364-170.6,364-170.9,363.7-171.1z"/>
	<path class="st6" d="M359.9-171.1c-0.4-1.1-0.7-2.2-1.1-3.2c-0.6,0.2-1.1,0.5-1.6,0.8c0,0,0,0.1,0,0.1c0,3.3,0,6.6,0,9.9
		c0.6,0.1,1.1,0.2,1.7,0.3c0.2-2.3,0.5-4.6,0.8-7C359.6-170.6,359.6-170.9,359.9-171.1z"/>
	<path class="st6" d="M357.1-173.5c0,0,0-0.1,0-0.1c-0.1,0-0.1,0.1-0.2,0.1c0,0.2,0,0.5,0,0.7c0,3,0,6.1,0,9.1c0.1,0,0.1,0,0.2,0
		C357.1-166.9,357.2-170.2,357.1-173.5z"/>
	<path class="st6" d="M359.9-171.1c-0.2,0.2-0.3,0.5-0.3,0.8c-0.2,2.3-0.5,4.6-0.8,7c0.1,0,0.1,0,0.2,0
		C359.3-165.9,359.6-168.5,359.9-171.1C359.9-171.1,359.9-171.1,359.9-171.1z"/>
	<path class="st2" d="M361.7-175.9C361.7-175.9,361.7-175.9,361.7-175.9c0.1,0,0.1,0,0.2,0c0.6-0.7,1.3-1.1,2-1.7
		c0.9-0.8,1.8-1.5,2.8-2.2c0-0.5,0-1,0-1.5c-1.5,1-3.2,1.5-5,1.5c-1.7,0-3.2-0.6-4.7-1.5c0,0.5,0,1,0,1.5c1.5,1.2,3,2.4,4.6,3.6
		C361.6-176.1,361.6-176,361.7-175.9z"/>
	<polygon class="st2" points="366.7,-179.8 366.7,-179.8 366.7,-179.8 	"/>
	<path class="st7" d="M357.8-181.1c2.7,1.4,5.4,1.4,8.1,0c0.2-0.1,0.4-0.3,0.7-0.2c0-0.6,0-1.3,0-1.9c0,0,0,0,0,0
		c-0.6,0.7-1.5,1-2.4,1.3c-2.4,0.7-4.6,0.4-6.8-0.8c-0.2-0.1-0.4-0.2-0.5-0.4l0,0c0,0.6,0,1.3,0,1.9v0v0
		C357.3-181.4,357.5-181.2,357.8-181.1z"/>
	<path class="st7" d="M357.4-182.8c2.1,1.2,4.4,1.5,6.8,0.8c0.9-0.3,1.8-0.5,2.4-1.3c-0.2,0.1-0.5,0.3-0.7,0.4
		c-1.6,0.9-3.4,1.2-5.2,1c-1.4-0.2-2.6-0.7-3.8-1.4l0,0l0,0C357.1-183,357.3-182.9,357.4-182.8z"/>
	<path class="st7" d="M366.7-181.3c-0.3-0.1-0.5,0.1-0.7,0.2c-2.7,1.4-5.4,1.4-8.1,0c-0.3-0.1-0.5-0.3-0.8-0.3v0
		c1.4,0.9,3,1.4,4.7,1.5C363.5-179.8,365.1-180.4,366.7-181.3z"/>
	<path class="st7" d="M360.7-191.5c0.7,0,1.5,0,2.2,0c0.5,0,0.8-0.4,0.9-0.9c0-0.5-0.3-0.9-0.9-1c-0.2,0-0.4,0-0.6,0
		c-0.4,0-0.5-0.1-0.5-0.5c0-0.4,0-0.9,0-1.3c0-0.7-0.4-1.1-1-1.1c-0.6,0-1,0.4-1,1.1c0,0.4,0,0.9,0,1.3c0,0.5,0,1,0,1.5
		C359.9-191.9,360.2-191.6,360.7-191.5z"/>
	<path class="st7" d="M363.7-189.6c-1.3,0-2.5,0-3.8,0c-0.6,0-1,0.4-1,1c0,0.6,0.4,0.9,1,1c0.6,0,1.3,0,1.9,0c0.6,0,1.3,0,1.9,0
		c0.7,0,1.1-0.4,1.1-1C364.7-189.2,364.3-189.6,363.7-189.6z"/>
	<path class="st3" d="M358.8-199.3C358.8-199.3,358.8-199.3,358.8-199.3c0.7,0,1.1-0.4,1.1-1c0-0.6-0.4-1-1-1c-0.9,0-1.9,0-2.8,0
		c-0.6,0-1,0.4-1,1c0,0.6,0.4,0.9,1,1c0.5,0,0.9,0,1.4,0C357.9-199.3,358.3-199.3,358.8-199.3z"/>
	<path class="st3" d="M364.8-199.3c0.5,0,0.9,0,1.4,0c0.5,0,1,0,1.5,0c0.6,0,1-0.4,1-0.9c0-0.6-0.4-1-1-1c-0.9,0-1.9,0-2.8,0
		c-0.6,0-1,0.4-1,1C363.8-199.7,364.2-199.3,364.8-199.3z"/>
	<path class="st8" d="M358.9-197.1c0-0.6-0.5-1.2-1.2-1.2c-0.6,0-1.2,0.5-1.2,1.2c0,0.7,0.5,1.3,1.2,1.3
		C358.3-195.9,358.9-196.5,358.9-197.1z"/>
	<path class="st8" d="M366-198.3c-0.7,0-1.2,0.5-1.2,1.2c0,0.7,0.5,1.2,1.2,1.2c0.7,0,1.2-0.5,1.2-1.2
		C367.2-197.8,366.6-198.3,366-198.3z"/>
	<polygon class="st9" points="356.9,-179.8 356.9,-179.8 356.9,-179.8 	"/>
	<path class="st9" d="M361.7-175.9c-1.5-1.1-2.9-2.3-4.4-3.5c-0.1-0.1-0.2-0.2-0.3-0.4c0.1,0.3,0.1,0.6,0.1,0.9c0,1.7,0,3.5,0,5.2
		c0.5-0.4,1-0.7,1.6-0.7C359.7-174.9,360.7-175.4,361.7-175.9z"/>
	<path class="st9" d="M356.9-179.8C356.9-179.8,356.9-179.8,356.9-179.8C356.9-179.8,356.9-179.8,356.9-179.8
		C356.9-179.8,356.9-179.8,356.9-179.8z"/>
	<polygon class="st9" points="356.9,-179.8 356.9,-179.8 356.9,-179.8 	"/>
	<path class="st9" d="M357.1-173.7c0-1.7,0-3.5,0-5.2c0-0.3,0-0.6-0.1-0.9c0,0,0-0.1-0.1-0.1c0,0,0,0,0,0c0,0,0,0,0,0
		c0,2.1,0,4.2,0,6.3C357-173.6,357.1-173.6,357.1-173.7z"/>
	<path class="st9" d="M358.8-174.4c-0.7,0-1.2,0.3-1.6,0.7c0,0,0,0,0,0.1C357.7-173.9,358.2-174.2,358.8-174.4L358.8-174.4
		C358.8-174.4,358.8-174.4,358.8-174.4z"/>
	<path class="st9" d="M357-173.5c0.1,0,0.1-0.1,0.2-0.1c0,0,0,0,0-0.1C357.1-173.6,357-173.6,357-173.5z"/>
	<polygon class="st9" points="356.9,-179.8 356.9,-179.8 356.9,-179.8 	"/>
	<path class="st9" d="M356.9-179.8C357-179.8,357-179.8,356.9-179.8C357-179.8,357-179.7,356.9-179.8c0.2,0.2,0.2,0.3,0.3,0.4
		c1.5,1.1,2.9,2.3,4.4,3.5c0,0,0,0,0,0h0c0,0,0,0,0,0c-0.1-0.1-0.1-0.2-0.2-0.3C360-177.4,358.4-178.6,356.9-179.8
		C356.9-179.8,356.9-179.8,356.9-179.8C356.9-179.8,356.9-179.8,356.9-179.8z"/>
	<path class="st9" d="M356.9-179.8C357-179.8,357-179.8,356.9-179.8C357-179.7,357-179.8,356.9-179.8
		C357-179.8,357-179.8,356.9-179.8z"/>
	<path class="st9" d="M366.7-179.8c-0.5,0.7-1.2,1.1-1.8,1.6c-1,0.8-1.9,1.6-3,2.4c1,0.5,1.9,1,2.9,1.5c0.7,0,1.2,0.3,1.7,0.7
		c0-1.7,0-3.4,0-5.1c0-0.3,0-0.6,0.1-0.9C366.6-179.7,366.6-179.8,366.7-179.8C366.7-179.8,366.7-179.8,366.7-179.8
		C366.7-179.8,366.7-179.8,366.7-179.8C366.7-179.8,366.7-179.8,366.7-179.8C366.7-179.8,366.7-179.8,366.7-179.8z"/>
	<polygon class="st9" points="366.7,-179.8 366.7,-179.8 366.7,-179.8 366.7,-179.8 	"/>
	<path class="st9" d="M366.5-179.7c-0.1,0.3-0.1,0.6-0.1,0.9c0,1.7,0,3.4,0,5.1c0.1,0.1,0.1,0.1,0.2,0.1v0c0-2.1,0-4.2,0-6.3
		c0,0,0,0,0,0C366.6-179.8,366.6-179.7,366.5-179.7z"/>
	<path class="st9" d="M364.8-174.4C364.8-174.4,364.8-174.4,364.8-174.4C364.8-174.4,364.8-174.4,364.8-174.4
		c0.6,0.2,1.1,0.5,1.7,0.8c0,0,0,0,0-0.1C366-174.1,365.5-174.4,364.8-174.4z"/>
	<path class="st9" d="M366.5-173.7C366.5-173.7,366.5-173.7,366.5-173.7c0.1,0.1,0.1,0.1,0.2,0.1l0,0v0
		C366.6-173.6,366.5-173.6,366.5-173.7z"/>
	<polygon class="st9" points="366.7,-179.8 366.7,-179.8 366.7,-179.8 366.7,-179.8 	"/>
	<path class="st9" d="M361.9-175.9C361.9-175.9,361.9-175.9,361.9-175.9c1.1-0.7,2-1.5,3-2.3c0.6-0.5,1.3-0.9,1.8-1.6c0,0,0,0,0,0
		c-0.9,0.7-1.9,1.5-2.8,2.2C363.2-177.1,362.5-176.6,361.9-175.9z"/>
	<path class="st5" d="M361.9-175.9c-0.1,0-0.2,0-0.2,0c0,0.1,0,0.1-0.1,0.1c-0.9,0.5-1.8,1.1-2.9,1.4c0,0,0,0,0,0
		c0.5,1,0.9,2.1,1.1,3.2c0,0,0,0,0,0c0.4-0.2,0.8-0.1,1.1-0.1c0.9,0,1.8-0.1,2.7,0.1c0,0,0-0.1,0-0.1c0.3-1.1,0.5-2.2,1.1-3.1
		c0,0,0,0,0,0C363.8-174.8,362.8-175.2,361.9-175.9C361.9-175.9,361.9-175.9,361.9-175.9z"/>
	<path class="st5" d="M361-171.3c-0.4,0-0.8-0.1-1.1,0.1c0,0,0,0,0,0c0,0,0,0,0,0.1c1.3,0,2.6,0,3.9,0c0,0,0-0.1,0-0.1
		C362.8-171.4,361.9-171.3,361-171.3z"/>
	<path class="st5" d="M364.8-174.4c-0.6,1-0.8,2.1-1.1,3.1c0,0,0,0.1,0,0.1c0,0,0,0,0,0c0,0,0,0,0,0
		C364.1-172.2,364.5-173.3,364.8-174.4C364.8-174.4,364.8-174.4,364.8-174.4C364.8-174.4,364.8-174.4,364.8-174.4
		C364.8-174.4,364.8-174.4,364.8-174.4z"/>
	<path class="st5" d="M363.7-171.2C363.7-171.2,363.7-171.1,363.7-171.2C363.7-171.1,363.7-171.1,363.7-171.2
		C363.7-171.2,363.7-171.2,363.7-171.2C363.7-171.2,363.7-171.2,363.7-171.2z"/>
	<path class="st5" d="M358.8-174.4C358.8-174.4,358.8-174.4,358.8-174.4C358.8-174.4,358.8-174.4,358.8-174.4L358.8-174.4
		c0.3,1.1,0.7,2.2,1,3.3c0,0,0,0,0,0C359.7-172.3,359.3-173.4,358.8-174.4z"/>
	<path class="st5" d="M359.9-171.1C359.9-171.1,359.9-171.1,359.9-171.1C359.9-171.1,359.9-171.1,359.9-171.1
		C359.9-171.2,359.9-171.1,359.9-171.1z"/>
	<path class="st5" d="M361.9-175.9C361.9-175.9,361.9-175.9,361.9-175.9C361.9-175.9,361.9-175.9,361.9-175.9c-0.1,0-0.2,0-0.2,0
		c0,0,0,0,0,0C361.8-175.9,361.9-175.9,361.9-175.9z"/>
	<path class="st5" d="M358.8-174.4c1-0.3,1.9-0.9,2.9-1.4c0,0,0.1-0.1,0.1-0.1c0,0,0,0,0,0c0,0,0,0,0,0
		C360.7-175.4,359.7-174.9,358.8-174.4C358.8-174.4,358.8-174.4,358.8-174.4z"/>
	<path class="st5" d="M358.8-174.4C358.8-174.4,358.8-174.4,358.8-174.4C358.8-174.4,358.8-174.4,358.8-174.4L358.8-174.4
		L358.8-174.4C358.8-174.4,358.8-174.4,358.8-174.4z"/>
	<path class="st5" d="M361.7-175.9C361.7-175.9,361.7-175.9,361.7-175.9L361.7-175.9C361.7-175.9,361.7-175.9,361.7-175.9
		C361.7-175.9,361.7-175.9,361.7-175.9C361.7-175.9,361.7-175.9,361.7-175.9z"/>
	<path class="st5" d="M364.8-174.4C364.8-174.4,364.8-174.4,364.8-174.4c-0.9-0.5-1.9-1-2.8-1.5c0,0,0,0,0,0
		C362.8-175.2,363.8-174.8,364.8-174.4z"/>
	<path class="st5" d="M364.8-174.4C364.8-174.4,364.8-174.4,364.8-174.4C364.8-174.4,364.8-174.4,364.8-174.4
		C364.8-174.4,364.8-174.4,364.8-174.4z"/>
	<path class="st5" d="M362-175.9C361.9-175.9,361.9-175.9,362-175.9C361.9-175.9,361.9-175.9,362-175.9
		C361.9-175.9,362-175.9,362-175.9z"/>
</g>
<path class="st10" d="M600.8,213H314.4c-6.6,0-12-5.4-12-12v-44.1c0-6.6,5.4-12,12-12h286.3c6.6,0,12,5.4,12,12V201
	C612.8,207.6,607.4,213,600.8,213z"/>
<g>
	<text transform="matrix(1 0 0 1 383.5831 190.392)" class="st15" style="font-family:'Montserrat-Light'; font-size:31.1428px;">Recreation</text>
</g>
<path class="st11" d="M600.8,341.9H314.3c-6.6,0-12-5.4-12-12v-44.1c0-6.6,5.4-12,12-12h286.5c6.6,0,12,5.4,12,12v44.1
	C612.8,336.5,607.4,341.9,600.8,341.9z"/>
<text transform="matrix(1 0 0 1 386.6202 318.3832)" class="st15" style="font-family:'Montserrat-Light'; font-size:31.1428px;">Technology</text>
<circle class="st12" cx="306.4" cy="307.8" r="47.3"/>
<circle class="st13" cx="306.6" cy="177.4" r="47.3"/>
<circle class="st14" cx="306.7" cy="49.8" r="47.3"/>
<g>
	<path class="st15" d="M339.1,304.9c-1.6-0.4-3.3,0.3-4.1,1.7c-0.3,0.5-0.6,0.6-1.1,0.6c-2.2,0-4.4,0-6.6,0c-2.3,0-4.5,0-6.8,0
		c-0.5,0-0.7-0.1-0.7-0.7c0-1.2,0-2.4,0-3.6c0-0.5,0.1-0.6,0.6-0.6c1.2,0,2.5,0,3.7,0c0.5,0,0.8,0.1,1,0.6c0.9,1.7,2.9,2.3,4.6,1.5
		c1.7-0.8,2.6-2.7,2-4.5c-0.5-1.4-1.5-2.3-3-2.5c-1.5-0.2-3,0.5-3.7,1.9c-0.2,0.5-0.5,0.6-1,0.6c-1.3,0-2.5,0-3.8,0
		c-0.4,0-0.6-0.1-0.6-0.5c0-1,0-2,0-3c0-0.9-0.4-1.4-1.4-1.4c-1,0-2,0-3,0c-0.4,0-0.5-0.1-0.5-0.5c0-1.3,0-2.6,0-3.9
		c0-0.4,0.1-0.7,0.5-0.9c1.5-0.8,2.2-2.5,1.8-4.1c-0.5-1.7-1.9-2.8-3.6-2.7c-1.7,0-3.1,1.2-3.5,2.8c-0.4,1.6,0.4,3.2,1.9,4
		c0.4,0.2,0.5,0.4,0.5,0.9c0,1.3,0,2.5,0,3.8c0,0.6-0.2,0.7-0.7,0.6c-1.2,0-2.4,0-3.6,0c-0.5,0-0.6-0.1-0.6-0.6c0-4.5,0-9.1,0-13.6
		c0-0.5,0.2-0.6,0.5-0.9c1.5-0.8,2.2-2.5,1.8-4c-0.4-1.7-1.8-2.8-3.6-2.8c-1.7,0-3.1,1.1-3.5,2.8c-0.4,1.6,0.3,3.3,1.9,4.1
		c0.3,0.2,0.5,0.3,0.5,0.7c0,4.6,0,9.2,0,13.7c0,0.4-0.1,0.6-0.5,0.5c-1.3,0-2.5,0-3.8,0c-0.4,0-0.5-0.1-0.5-0.5c0-1.3,0-2.6,0-3.9
		c0-0.4,0.1-0.6,0.5-0.8c1.5-0.8,2.3-2.5,1.9-4c-0.4-1.7-1.8-2.8-3.5-2.8c-1.8,0-3.2,1.1-3.7,2.8c-0.4,1.6,0.3,3.3,1.9,4.1
		c0.3,0.2,0.5,0.3,0.5,0.7c0,1.3,0,2.7,0,4c0,0.5-0.2,0.5-0.6,0.5c-1,0-2,0-3,0c-0.9,0-1.3,0.4-1.3,1.4c0,1,0,2,0,3
		c0,0.4-0.1,0.6-0.5,0.6c-1.3,0-2.6,0-3.9,0c-0.4,0-0.6-0.1-0.8-0.5c-0.8-1.5-2.5-2.3-4.1-1.9c-1.7,0.4-2.8,1.8-2.8,3.6
		c0,1.7,1.1,3.1,2.8,3.5c1.6,0.4,3.2-0.3,4.1-1.9c0.1-0.3,0.2-0.5,0.7-0.5c1.4,0,2.8,0,4.2,0c0.4,0,0.5,0.1,0.5,0.5
		c0,1.3,0,2.5,0,3.8c0,0.5-0.2,0.6-0.6,0.6c-4.5,0-9,0-13.4,0c-0.5,0-0.7-0.1-1-0.6c-0.8-1.4-2.4-2.2-3.9-1.8
		c-1.6,0.4-2.9,1.8-2.9,3.4c-0.1,1.9,1,3.3,2.7,3.8c1.6,0.4,3.3-0.3,4.1-1.8c0.2-0.3,0.3-0.5,0.8-0.5c4.6,0,9.2,0,13.7,0
		c0.4,0,0.5,0.1,0.5,0.5c0,1.3,0,2.6,0,3.9c0,0.4-0.1,0.5-0.5,0.5c-1.3,0-2.6,0-3.9,0c-0.4,0-0.7-0.1-0.9-0.5
		c-0.8-1.5-2.5-2.3-4.1-1.8c-1.7,0.5-2.8,1.9-2.7,3.6c0,1.7,1.1,3.1,2.8,3.5c1.6,0.4,3.2-0.3,4-1.9c0.2-0.4,0.4-0.5,0.9-0.5
		c1.3,0,2.5,0,3.8,0c0.6,0,0.7,0.2,0.6,0.7c0,1,0,1.9,0,2.9c0,0.9,0.5,1.3,1.3,1.3c1,0,2,0,3,0c0.4,0,0.6,0.1,0.6,0.6
		c0,1.3,0,2.6,0,3.9c0,0.4-0.1,0.7-0.5,0.9c-1.7,0.9-2.4,2.8-1.7,4.5c0.6,1.5,2.1,2.4,3.8,2.3c1.5-0.1,2.9-1.3,3.2-2.9
		c0.3-1.5-0.4-3.2-1.8-3.9c-0.4-0.2-0.6-0.5-0.6-1c0-1.3,0-2.5,0-3.8c0-0.5,0.1-0.6,0.6-0.6c1.2,0,2.4,0,3.6,0
		c0.6,0,0.7,0.2,0.7,0.7c0,4.5,0,9,0,13.4c0,0.4-0.1,0.7-0.5,0.9c-1.5,0.8-2.2,2.4-1.9,4c0.4,1.7,1.8,2.9,3.5,2.9
		c1.8,0,3.2-1,3.7-2.8c0.4-1.6-0.3-3.3-1.8-4.1c-0.4-0.2-0.5-0.4-0.5-0.8c0-4.6,0-9.1,0-13.7c0-0.4,0.1-0.6,0.5-0.6
		c1.3,0,2.5,0,3.8,0c0.4,0,0.6,0.1,0.6,0.5c0,1.3,0,2.6,0,3.9c0,0.4-0.1,0.6-0.5,0.8c-1.5,0.8-2.3,2.5-1.9,4.1
		c0.5,1.7,1.9,2.8,3.6,2.8c1.7,0,3.1-1.1,3.5-2.8c0.4-1.6-0.3-3.2-1.9-4.1c-0.3-0.1-0.5-0.2-0.5-0.6c0-1.4,0-2.8,0-4.2
		c0-0.4,0.1-0.5,0.5-0.5c1,0,2,0,3,0c0.9,0,1.3-0.4,1.4-1.3c0-1,0-2,0-3c0-0.4,0.1-0.6,0.5-0.6c1.3,0,2.7,0,4,0
		c0.4,0,0.6,0.1,0.7,0.5c0.8,1.5,2.5,2.3,4.1,1.9c1.7-0.4,2.8-1.8,2.8-3.6c0-1.7-1.1-3.1-2.8-3.5c-1.6-0.4-3.3,0.3-4.1,1.9
		c-0.2,0.4-0.4,0.5-0.8,0.5c-1.3,0-2.6,0-3.9,0c-0.4,0-0.5-0.1-0.5-0.5c0-1.2,0-2.5,0-3.7c0-0.5,0.1-0.6,0.6-0.6c4.5,0,9.1,0,13.6,0
		c0.4,0,0.6,0.1,0.8,0.5c0.8,1.5,2.5,2.3,4,1.9c1.7-0.4,2.8-1.8,2.8-3.5C341.8,306.7,340.8,305.3,339.1,304.9z M328.5,299.9
		c0.6,0,1.2,0.6,1.2,1.2c0,0.6-0.6,1.2-1.2,1.2c-0.6,0-1.2-0.6-1.2-1.2C327.3,300.4,327.9,299.9,328.5,299.9z M284.7,302.3
		c-0.6,0-1.2-0.6-1.2-1.2c0-0.6,0.6-1.2,1.2-1.2c0.6,0,1.2,0.6,1.2,1.2C285.9,301.7,285.4,302.3,284.7,302.3z M275,309.6
		c-0.6,0-1.2-0.6-1.2-1.2c0-0.6,0.6-1.2,1.2-1.2c0.6,0,1.2,0.6,1.2,1.2C276.2,309,275.6,309.6,275,309.6z M284.7,316.9
		c-0.6,0-1.2-0.6-1.2-1.2c0-0.6,0.6-1.2,1.2-1.2c0.6,0,1.2,0.6,1.2,1.2C285.9,316.3,285.3,316.9,284.7,316.9z M312.7,286.5
		c0-0.6,0.5-1.2,1.2-1.2c0.6,0,1.2,0.5,1.2,1.2c0,0.6-0.5,1.2-1.2,1.2C313.3,287.7,312.7,287.2,312.7,286.5z M305.4,276.8
		c0-0.6,0.6-1.2,1.2-1.2c0.6,0,1.2,0.6,1.2,1.2c0,0.6-0.6,1.2-1.2,1.2C306,278,305.4,277.4,305.4,276.8z M298.1,286.5
		c0-0.6,0.6-1.2,1.2-1.2c0.6,0,1.2,0.6,1.2,1.2c0,0.6-0.6,1.2-1.2,1.2C298.7,287.7,298.1,287.1,298.1,286.5z M300.5,330.3
		c0,0.6-0.6,1.2-1.2,1.2c-0.6,0-1.2-0.6-1.2-1.2c0-0.6,0.6-1.2,1.2-1.2C299.9,329,300.5,329.6,300.5,330.3z M307.8,339.9
		c0,0.6-0.6,1.2-1.2,1.2c-0.6,0-1.2-0.6-1.2-1.2c0-0.6,0.6-1.2,1.2-1.2C307.2,338.7,307.8,339.3,307.8,339.9z M315.1,330.3
		c0,0.6-0.6,1.2-1.2,1.2c-0.6,0-1.2-0.6-1.2-1.2c0-0.6,0.6-1.2,1.2-1.2C314.5,329,315.1,329.6,315.1,330.3z M316.8,319.3
		c-3.4,0-6.9,0-10.3,0c-3.4,0-6.8,0-10.2,0c-0.6,0-0.7-0.1-0.7-0.7c0-6.8,0-13.7,0-20.5c0-0.6,0.1-0.7,0.7-0.7c6.8,0,13.7,0,20.5,0
		c0.6,0,0.7,0.1,0.7,0.7c0,6.8,0,13.7,0,20.5C317.5,319.2,317.4,319.3,316.8,319.3z M328.5,314.5c0.6,0,1.2,0.6,1.2,1.2
		c0,0.6-0.6,1.2-1.2,1.2c-0.6,0-1.2-0.6-1.2-1.2C327.3,315,327.9,314.4,328.5,314.5z M338.2,309.6c-0.6,0-1.2-0.6-1.2-1.2
		c0-0.6,0.6-1.2,1.2-1.2c0.6,0,1.2,0.6,1.2,1.2C339.4,309,338.8,309.6,338.2,309.6z"/>
</g>
<g>
	<path class="st15" d="M68.9,32.9c-1.6-0.4-3.3,0.3-4.1,1.7c-0.3,0.5-0.6,0.6-1.1,0.6c-2.2,0-4.4,0-6.6,0c-2.3,0-4.5,0-6.8,0
		c-0.5,0-0.7-0.1-0.7-0.7c0-1.2,0-2.4,0-3.6c0-0.5,0.1-0.6,0.6-0.6c1.2,0,2.5,0,3.7,0c0.5,0,0.8,0.1,1,0.6c0.9,1.7,2.9,2.3,4.6,1.5
		c1.7-0.8,2.6-2.7,2-4.5c-0.5-1.4-1.5-2.3-3-2.5c-1.5-0.2-3,0.5-3.7,1.9c-0.2,0.5-0.5,0.6-1,0.6c-1.3,0-2.5,0-3.8,0
		c-0.4,0-0.6-0.1-0.6-0.5c0-1,0-2,0-3c0-0.9-0.4-1.4-1.4-1.4c-1,0-2,0-3,0c-0.4,0-0.5-0.1-0.5-0.5c0-1.3,0-2.6,0-3.9
		c0-0.4,0.1-0.7,0.5-0.9c1.5-0.8,2.2-2.5,1.8-4.1c-0.5-1.7-1.9-2.8-3.6-2.7c-1.7,0-3.1,1.2-3.5,2.8c-0.4,1.6,0.4,3.2,1.9,4
		c0.4,0.2,0.5,0.4,0.5,0.9c0,1.3,0,2.5,0,3.8c0,0.6-0.2,0.7-0.7,0.6c-1.2,0-2.4,0-3.6,0c-0.5,0-0.6-0.1-0.6-0.6c0-4.5,0-9.1,0-13.6
		c0-0.5,0.2-0.6,0.5-0.9c1.5-0.8,2.2-2.5,1.8-4c-0.4-1.7-1.8-2.8-3.6-2.8c-1.7,0-3.1,1.1-3.5,2.8c-0.4,1.6,0.3,3.3,1.9,4.1
		c0.3,0.2,0.5,0.3,0.5,0.7c0,4.6,0,9.2,0,13.7c0,0.4-0.1,0.6-0.5,0.5c-1.3,0-2.5,0-3.8,0c-0.4,0-0.5-0.1-0.5-0.5c0-1.3,0-2.6,0-3.9
		c0-0.4,0.1-0.6,0.5-0.8c1.5-0.8,2.3-2.5,1.9-4c-0.4-1.7-1.8-2.8-3.5-2.8c-1.8,0-3.2,1.1-3.7,2.8c-0.4,1.6,0.3,3.3,1.9,4.1
		c0.3,0.2,0.5,0.3,0.5,0.7c0,1.3,0,2.7,0,4c0,0.5-0.2,0.5-0.6,0.5c-1,0-2,0-3,0c-0.9,0-1.3,0.4-1.3,1.4c0,1,0,2,0,3
		c0,0.4-0.1,0.6-0.5,0.6c-1.3,0-2.6,0-3.9,0c-0.4,0-0.6-0.1-0.8-0.5c-0.8-1.5-2.5-2.3-4.1-1.9c-1.7,0.4-2.8,1.8-2.8,3.6
		c0,1.7,1.1,3.1,2.8,3.5c1.6,0.4,3.2-0.3,4.1-1.9c0.1-0.3,0.2-0.5,0.7-0.5c1.4,0,2.8,0,4.2,0c0.4,0,0.5,0.1,0.5,0.5
		c0,1.3,0,2.5,0,3.8c0,0.5-0.2,0.6-0.6,0.6c-4.5,0-9,0-13.4,0c-0.5,0-0.7-0.1-1-0.6c-0.8-1.4-2.4-2.2-3.9-1.8
		c-1.6,0.4-2.9,1.8-2.9,3.4c-0.1,1.9,1,3.3,2.7,3.8c1.6,0.4,3.3-0.3,4.1-1.8c0.2-0.3,0.3-0.5,0.8-0.5c4.6,0,9.2,0,13.7,0
		c0.4,0,0.5,0.1,0.5,0.5c0,1.3,0,2.6,0,3.9c0,0.4-0.1,0.5-0.5,0.5c-1.3,0-2.6,0-3.9,0c-0.4,0-0.7-0.1-0.9-0.5
		c-0.8-1.5-2.5-2.3-4.1-1.8c-1.7,0.5-2.8,1.9-2.7,3.6c0,1.7,1.1,3.1,2.8,3.5c1.6,0.4,3.2-0.3,4-1.9c0.2-0.4,0.4-0.5,0.9-0.5
		c1.3,0,2.5,0,3.8,0c0.6,0,0.7,0.2,0.6,0.7c0,1,0,1.9,0,2.9c0,0.9,0.5,1.3,1.3,1.3c1,0,2,0,3,0c0.4,0,0.6,0.1,0.6,0.6
		c0,1.3,0,2.6,0,3.9c0,0.4-0.1,0.7-0.5,0.9c-1.7,0.9-2.4,2.8-1.7,4.5c0.6,1.5,2.1,2.4,3.8,2.3c1.5-0.1,2.9-1.3,3.2-2.9
		c0.3-1.5-0.4-3.2-1.8-3.9c-0.4-0.2-0.6-0.5-0.6-1c0-1.3,0-2.5,0-3.8c0-0.5,0.1-0.6,0.6-0.6c1.2,0,2.4,0,3.6,0
		c0.6,0,0.7,0.2,0.7,0.7c0,4.5,0,9,0,13.4c0,0.4-0.1,0.7-0.5,0.9c-1.5,0.8-2.2,2.4-1.9,4c0.4,1.7,1.8,2.9,3.5,2.9
		c1.8,0,3.2-1,3.7-2.8c0.4-1.6-0.3-3.3-1.8-4.1c-0.4-0.2-0.5-0.4-0.5-0.8c0-4.6,0-9.1,0-13.7c0-0.4,0.1-0.6,0.5-0.6
		c1.3,0,2.5,0,3.8,0c0.4,0,0.6,0.1,0.6,0.5c0,1.3,0,2.6,0,3.9c0,0.4-0.1,0.6-0.5,0.8c-1.5,0.8-2.3,2.5-1.9,4.1
		c0.5,1.7,1.9,2.8,3.6,2.8c1.7,0,3.1-1.1,3.5-2.8c0.4-1.6-0.3-3.2-1.9-4.1c-0.3-0.1-0.5-0.2-0.5-0.6c0-1.4,0-2.8,0-4.2
		c0-0.4,0.1-0.5,0.5-0.5c1,0,2,0,3,0c0.9,0,1.3-0.4,1.4-1.3c0-1,0-2,0-3c0-0.4,0.1-0.6,0.5-0.6c1.3,0,2.7,0,4,0
		c0.4,0,0.6,0.1,0.7,0.5c0.8,1.5,2.5,2.3,4.1,1.9c1.7-0.4,2.8-1.8,2.8-3.6c0-1.7-1.1-3.1-2.8-3.5c-1.6-0.4-3.3,0.3-4.1,1.9
		c-0.2,0.4-0.4,0.5-0.8,0.5c-1.3,0-2.6,0-3.9,0c-0.4,0-0.5-0.1-0.5-0.5c0-1.2,0-2.5,0-3.7c0-0.5,0.1-0.6,0.6-0.6c4.5,0,9.1,0,13.6,0
		c0.4,0,0.6,0.1,0.8,0.5c0.8,1.5,2.5,2.3,4,1.9c1.7-0.4,2.8-1.8,2.8-3.5C71.6,34.8,70.6,33.4,68.9,32.9z M58.3,28
		c0.6,0,1.2,0.6,1.2,1.2c0,0.6-0.6,1.2-1.2,1.2c-0.6,0-1.2-0.6-1.2-1.2C57,28.5,57.6,27.9,58.3,28z M14.5,30.4
		c-0.6,0-1.2-0.6-1.2-1.2c0-0.6,0.6-1.2,1.2-1.2c0.6,0,1.2,0.6,1.2,1.2C15.7,29.8,15.1,30.4,14.5,30.4z M4.7,37.7
		c-0.6,0-1.2-0.6-1.2-1.2c0-0.6,0.6-1.2,1.2-1.2c0.6,0,1.2,0.6,1.2,1.2C6,37.1,5.4,37.7,4.7,37.7z M14.5,45c-0.6,0-1.2-0.6-1.2-1.2
		c0-0.6,0.6-1.2,1.2-1.2c0.6,0,1.2,0.6,1.2,1.2C15.7,44.4,15.1,44.9,14.5,45z M42.4,14.6c0-0.6,0.5-1.2,1.2-1.2
		c0.6,0,1.2,0.5,1.2,1.2c0,0.6-0.5,1.2-1.2,1.2C43.1,15.8,42.5,15.2,42.4,14.6z M35.2,4.9c0-0.6,0.6-1.2,1.2-1.2
		c0.6,0,1.2,0.6,1.2,1.2c0,0.6-0.6,1.2-1.2,1.2C35.8,6.1,35.2,5.5,35.2,4.9z M27.9,14.6c0-0.6,0.6-1.2,1.2-1.2
		c0.6,0,1.2,0.6,1.2,1.2c0,0.6-0.6,1.2-1.2,1.2C28.5,15.8,27.9,15.2,27.9,14.6z M30.3,58.3c0,0.6-0.6,1.2-1.2,1.2
		c-0.6,0-1.2-0.6-1.2-1.2c0-0.6,0.6-1.2,1.2-1.2C29.7,57.1,30.3,57.7,30.3,58.3z M37.6,68c0,0.6-0.6,1.2-1.2,1.2
		c-0.6,0-1.2-0.6-1.2-1.2c0-0.6,0.6-1.2,1.2-1.2C36.9,66.8,37.6,67.4,37.6,68z M44.9,58.3c0,0.6-0.6,1.2-1.2,1.2
		c-0.6,0-1.2-0.6-1.2-1.2c0-0.6,0.6-1.2,1.2-1.2C44.3,57.1,44.9,57.7,44.9,58.3z M46.6,47.4c-3.4,0-6.9,0-10.3,0
		c-3.4,0-6.8,0-10.2,0c-0.6,0-0.7-0.1-0.7-0.7c0-6.8,0-13.7,0-20.5c0-0.6,0.1-0.7,0.7-0.7c6.8,0,13.7,0,20.5,0
		c0.6,0,0.7,0.1,0.7,0.7c0,6.8,0,13.7,0,20.5C47.3,47.3,47.2,47.4,46.6,47.4z M58.3,42.5c0.6,0,1.2,0.6,1.2,1.2
		c0,0.6-0.6,1.2-1.2,1.2c-0.6,0-1.2-0.6-1.2-1.2C57,43.1,57.6,42.5,58.3,42.5z M68,37.7c-0.6,0-1.2-0.6-1.2-1.2
		c0-0.6,0.6-1.2,1.2-1.2c0.6,0,1.2,0.6,1.2,1.2C69.2,37,68.6,37.6,68,37.7z"/>
</g>
<rect x="286.9" y="-93.6" style="fill:none;" width="318.9" height="56"/>
<text transform="matrix(1 0 0 1 286.9444 -77.6226)" style="font-family:'Montserrat-Light'; font-size:21.5604px;">Subjects available to interact:</text>
</svg>
