<?xml version="1.0" encoding="utf-8"?>
<!-- Generator: Adobe Illustrator 22.1.0, SVG Export Plug-In . SVG Version: 6.00 Build 0)  -->
<svg version="1.1" id="Layer_1" xmlns="http://www.w3.org/2000/svg" xmlns:xlink="http://www.w3.org/1999/xlink" x="0px" y="0px"
	 viewBox="0 0 268 268" style="enable-background:new 0 0 268 268;" xml:space="preserve">
<style type="text/css">
	.st0{fill:#3DC7F4;}
	.st1{fill:#686564;}
	.st2{fill:#DF1F26;}
	.st3{fill:#A51E22;}
	.st4{opacity:0.54;}
	.st5{fill:#BF2026;}
	.st6{fill:#EF4339;}
	.st7{fill:#A71E22;}
	.st8{fill:#590D11;}
</style>
<circle class="st0" cx="134.5" cy="133.1" r="129.7"/>
<g>
	<path class="st1" d="M134.4,169.4c0.7,1.9,0.7,3.7,0,5.6C134.4,173.2,134.4,171.3,134.4,169.4z"/>
	<g>
		<path class="st2" d="M121.5,78.1c-36.7,8.3-39.2,45.3-39.2,45.3v53.2h77.4v-50C158.5,87.2,121.5,78.1,121.5,78.1z"/>
		<path class="st3" d="M132,76.7c-3.8,0.2-7.3,0.7-10.5,1.5c0,0,37,9.1,38.2,48.5v50h0.4h24.2v-54.5C176.2,74,132,76.7,132,76.7z"/>
	</g>
	<g class="st4">
		<path class="st5" d="M121.9,176.6v-14c0,0,0.6-9.8,9.2-12c0.8-0.2,1.6-0.3,2.5-0.4c0,0,10.3-0.7,12.2,12v14.4h-5.7H121.9z"/>
	</g>
	<path class="st6" d="M89.7,172.2h-0.6c-1.5,0-2.7-1.2-2.7-2.7v-43.1c0-1.5,1.2-2.7,2.7-2.7h0.6c1.5,0,2.7,1.2,2.7,2.7v43.1
		C92.3,171,91.1,172.2,89.7,172.2z"/>
	<path class="st6" d="M101.6,100.7l5.3-5.3c1.1-1.1,1.1-2.9,0-4l0,0c-1.1-1.1-2.9-1.1-4,0l-5.3,5.3c-1.1,1.1-1.1,2.9,0,4l0,0
		C98.7,101.8,100.5,101.8,101.6,100.7z"/>
	<path class="st7" d="M193.1,187.9H75.5c-2.7,0-4.8-2.2-4.8-4.8v-1.7c0-2.7,2.2-4.8,4.8-4.8h117.6c2.7,0,4.8,2.2,4.8,4.8v1.7
		C197.9,185.8,195.7,187.9,193.1,187.9z"/>
	<path class="st8" d="M195.5,208.7H73.4c-5.5,0-10-4.5-10-10v-1.5c0-5.5,4.5-10,10-10h122.1c5.5,0,10,4.5,10,10v1.5
		C205.5,204.2,201,208.7,195.5,208.7z"/>
	<path class="st6" d="M64.5,159.1l-15.5,3c-1.7,0.3-3.4-0.8-3.8-2.6l-0.2-1c-0.3-1.7,0.8-3.4,2.6-3.8l15.5-3
		c1.7-0.3,3.4,0.8,3.8,2.6l0.2,1C67.4,157.1,66.3,158.8,64.5,159.1z"/>
	<path class="st6" d="M62.8,127.1l-14.9-3c-1.7-0.4-2.9-2.1-2.5-3.8l0.2-1c0.4-1.7,2.1-2.9,3.8-2.5l14.9,3c1.7,0.4,2.9,2.1,2.5,3.8
		l-0.2,1C66.2,126.3,64.5,127.4,62.8,127.1z"/>
	<path class="st6" d="M82.6,85L71.8,74.3c-1.2-1.2-1.2-3.3,0-4.5l0.7-0.7c1.2-1.2,3.3-1.2,4.5,0l10.7,10.7c1.2,1.2,1.2,3.3,0,4.5
		L87.1,85C85.9,86.3,83.8,86.3,82.6,85z"/>
	<path class="st6" d="M95.4,75l-19-28.7c-1-1.5-0.6-3.5,0.9-4.5l0.4-0.3c1.5-1,3.5-0.6,4.5,0.9l18.9,28.7c1,1.5,0.6,3.5-0.9,4.5
		l-0.4,0.3C98.3,76.9,96.3,76.5,95.4,75z"/>
	<path class="st6" d="M73.5,98.4L45.1,79.7c-1.5-1-1.9-3-0.9-4.5l0.6-0.9c1-1.5,3-1.9,4.5-0.9l28.4,18.7c1.5,1,1.9,3,0.9,4.5
		L78,97.5C76.9,98.9,74.9,99.4,73.5,98.4z"/>
	<path class="st6" d="M62.2,143.8H28.4c-1.8,0-3.2-1.4-3.2-3.2v-1c0-1.8,1.4-3.2,3.2-3.2h33.8c1.8,0,3.2,1.4,3.2,3.2v1
		C65.4,142.4,64,143.8,62.2,143.8z"/>
	<path class="st6" d="M204.4,155.9l15.5,3c1.7,0.3,3.4-0.8,3.8-2.6l0.2-1c0.3-1.7-0.8-3.4-2.6-3.8l-15.5-3c-1.7-0.3-3.4,0.8-3.8,2.6
		l-0.2,1C201.5,153.9,202.7,155.6,204.4,155.9z"/>
	<path class="st6" d="M206.1,123.9l14.9-3c1.7-0.4,2.9-2.1,2.5-3.8l-0.2-1c-0.4-1.7-2.1-2.9-3.8-2.5l-14.9,3
		c-1.7,0.4-2.9,2.1-2.5,3.8l0.2,1C202.7,123.1,204.4,124.2,206.1,123.9z"/>
	<path class="st6" d="M186.4,81.8l10.7-10.7c1.2-1.2,1.2-3.3,0-4.5l-0.7-0.7c-1.2-1.2-3.3-1.2-4.5,0l-10.7,10.7
		c-1.2,1.2-1.2,3.3,0,4.5l0.7,0.7C183.1,83,185.1,83,186.4,81.8z"/>
	<path class="st6" d="M173.6,71.8l18.9-28.7c1-1.5,0.6-3.5-0.9-4.5l-0.4-0.3c-1.5-1-3.5-0.6-4.5,0.9L167.8,68
		c-1,1.5-0.6,3.5,0.9,4.5l0.4,0.3C170.6,73.7,172.6,73.3,173.6,71.8z"/>
	<path class="st6" d="M195.5,95.1l28.4-18.7c1.5-1,1.9-3,0.9-4.5l-0.6-0.9c-1-1.5-3-1.9-4.5-0.9l-28.4,18.7c-1.5,1-1.9,3-0.9,4.5
		l0.6,0.9C192,95.7,194,96.1,195.5,95.1z"/>
	<path class="st6" d="M206.7,140.6h33.8c1.8,0,3.2-1.4,3.2-3.2v-1c0-1.8-1.4-3.2-3.2-3.2h-33.8c-1.8,0-3.2,1.4-3.2,3.2v1
		C203.5,139.1,204.9,140.6,206.7,140.6z"/>
	<path class="st6" d="M153.6,63.3l3-15.5c0.3-1.7-0.8-3.4-2.6-3.8l-1-0.2c-1.7-0.3-3.4,0.8-3.8,2.6l-3,15.5
		c-0.3,1.7,0.8,3.4,2.6,3.8l1,0.2C151.5,66.2,153.2,65.1,153.6,63.3z"/>
	<path class="st6" d="M121.5,61.6l-3-14.9c-0.4-1.7-2.1-2.9-3.8-2.5l-1,0.2c-1.7,0.4-2.9,2.1-2.5,3.8l3,14.9
		c0.4,1.7,2.1,2.9,3.8,2.5l1-0.2C120.7,65,121.9,63.3,121.5,61.6z"/>
	<path class="st6" d="M138.2,61V27.2c0-1.8-1.4-3.2-3.2-3.2h-1c-1.8,0-3.2,1.4-3.2,3.2V61c0,1.8,1.4,3.2,3.2,3.2h1
		C136.8,64.2,138.2,62.8,138.2,61z"/>
</g>
</svg>
