<?xml version="1.0" encoding="utf-8"?>
<!-- Generator: Adobe Illustrator 22.1.0, SVG Export Plug-In . SVG Version: 6.00 Build 0)  -->
<svg version="1.1" id="Layer_1" xmlns="http://www.w3.org/2000/svg" xmlns:xlink="http://www.w3.org/1999/xlink" x="0px" y="0px"
	 viewBox="0 0 268 268" style="enable-background:new 0 0 268 268;" xml:space="preserve">
<style type="text/css">
	.st0{fill:#FBB040;}
	.st1{fill:#2D221A;}
	.st2{fill:#30231A;}
	.st3{fill:#2E251D;}
	.st4{fill:#34271E;}
	.st5{fill:#2C251E;}
	.st6{fill:#382A24;}
	.st7{fill:#322921;}
	.st8{fill:#342A23;}
	.st9{fill:#32281E;}
	.st10{fill:#A87C51;}
	.st11{fill:#A97B54;}
	.st12{fill:#9C8264;}
	.st13{fill:#A08D7B;}
	.st14{fill:#9E7D5E;}
	.st15{fill:#A17B4F;}
	.st16{fill:#7C654B;}
	.st17{fill:#A27C5E;}
	.st18{fill:#B79E84;}
	.st19{fill:#B3977E;}
	.st20{fill:#B79F89;}
	.st21{fill:#9C846D;}
	.st22{fill:#A38467;}
	.st23{fill:#B09985;}
	.st24{fill:#CAAE97;}
	.st25{fill:#A77B54;}
	.st26{fill:#422B1E;}
	.st27{fill:#9E7D61;}
	.st28{fill:#A37F5E;}
	.st29{fill:#A27D60;}
	.st30{fill:#9C7A63;}
	.st31{fill:#9A7C68;}
	.st32{fill:#9E7D66;}
	.st33{fill:#533D29;}
	.st34{fill:#8F735C;}
	.st35{fill:#654C35;}
	.st36{fill:#9B7A5E;}
	.st37{fill:#A67D56;}
	.st38{fill:#7A5E46;}
	.st39{fill:#B49C85;}
	.st40{fill:#A37C5E;}
	.st41{fill:#A77D59;}
	.st42{fill:#BBA18A;}
	.st43{fill:#97816C;}
	.st44{fill:#7A5A3D;}
	.st45{fill:#C6A188;}
	.st46{fill:#BFA391;}
	.st47{fill:#5C4B38;}
	.st48{fill:#453829;}
	.st49{fill:#312315;}
	.st50{fill:#A77D52;}
	.st51{fill:#A17D59;}
	.st52{fill:#A17C5B;}
	.st53{fill:#594C3C;}
	.st54{fill:#927555;}
	.st55{fill:#806C57;}
	.st56{fill:#9E7B5D;}
	.st57{fill:#9C7A5B;}
	.st58{fill:#BFA387;}
	.st59{fill:#BDA089;}
	.st60{fill:#BDA58D;}
	.st61{fill:#BD9C7D;}
	.st62{fill:#B69B7E;}
	.st63{fill:#C2A488;}
	.st64{fill:#EAE0D4;}
	.st65{fill:#A87D4E;}
	.st66{fill:#A77D50;}
	.st67{fill:#A87D4C;}
	.st68{fill:#A57D57;}
	.st69{fill:#AC7B4D;}
	.st70{fill:#A77D4C;}
	.st71{fill:#A77E4E;}
	.st72{fill:#AA7C4D;}
	.st73{fill:#A57C53;}
	.st74{fill:#AE7A4B;}
	.st75{fill:#A77D57;}
	.st76{fill:#A07C59;}
	.st77{fill:#AA7B58;}
	.st78{fill:#A87C4E;}
	.st79{fill:#A97D4C;}
	.st80{fill:#AC7B4C;}
	.st81{fill:#A27E5C;}
	.st82{fill:#A57857;}
	.st83{fill:#A57D56;}
	.st84{fill:#AB7C4E;}
	.st85{fill:#A77D4D;}
	.st86{fill:#A67F56;}
	.st87{fill:#A87C58;}
	.st88{fill:#A77C56;}
	.st89{fill:#AC7A52;}
	.st90{fill:#A37C57;}
	.st91{fill:#A17B52;}
	.st92{fill:#9F7B56;}
	.st93{fill:#A67E58;}
	.st94{fill:#A77C4B;}
	.st95{fill:#AC7C4C;}
	.st96{fill:#A97A50;}
	.st97{fill:#AA7C5A;}
	.st98{fill:#4E3219;}
	.st99{fill:#AB7B4A;}
	.st100{fill:#9D7E60;}
	.st101{fill:#A47E58;}
	.st102{fill:#AD7851;}
	.st103{fill:#AC7A4B;}
	.st104{fill:#5D3D27;}
	.st105{fill:#523419;}
	.st106{fill:#A07D49;}
	.st107{fill:#A37E5A;}
	.st108{fill:#53331C;}
	.st109{fill:#9D7B5B;}
	.st110{fill:#A37B59;}
	.st111{fill:#A0805F;}
	.st112{fill:#A17B58;}
	.st113{fill:#59361D;}
	.st114{fill:#A07E50;}
	.st115{fill:#A57E48;}
	.st116{fill:#A87847;}
	.st117{fill:#AA7D5B;}
	.st118{fill:#A67646;}
	.st119{fill:#A1805D;}
	.st120{fill:#A87D42;}
	.st121{fill:#AA795D;}
	.st122{fill:#A17E61;}
	.st123{fill:#56331C;}
	.st124{fill:#A57C5A;}
	.st125{fill:#9C7045;}
	.st126{fill:#613F1F;}
	.st127{fill:#B0794F;}
	.st128{fill:#714722;}
	.st129{fill:#A68161;}
	.st130{fill:#A88360;}
	.st131{fill:#A27C5C;}
	.st132{fill:#9A795A;}
	.st133{fill:#4D2C18;}
	.st134{fill:#A57D48;}
	.st135{fill:#AA795E;}
	.st136{fill:#3B200E;}
	.st137{fill:#AE7959;}
	.st138{fill:#977D61;}
	.st139{fill:#AA8262;}
	.st140{fill:#95683E;}
	.st141{fill:#93683C;}
	.st142{fill:#AF7B47;}
	.st143{fill:#93663B;}
	.st144{fill:#AF8160;}
	.st145{fill:#92673B;}
	.st146{fill:#AD775C;}
	.st147{fill:#593617;}
	.st148{fill:#91683A;}
	.st149{fill:#5A3215;}
	.st150{fill:#9B7C65;}
	.st151{fill:#784D23;}
	.st152{fill:#AA7546;}
	.st153{fill:#6F451C;}
	.st154{fill:#9E754E;}
	.st155{fill:#A78468;}
	.st156{fill:#8A5F33;}
	.st157{fill:#AF835A;}
	.st158{fill:#906339;}
	.st159{fill:#5C3D22;}
	.st160{fill:#634020;}
	.st161{fill:#906439;}
	.st162{fill:#86603D;}
	.st163{fill:#9B764F;}
	.st164{fill:#8E643E;}
	.st165{fill:#9A714B;}
	.st166{fill:#8D693F;}
	.st167{fill:#AA7C4C;}
	.st168{fill:#AB7B54;}
	.st169{fill:#9A7A63;}
	.st170{fill:#9E7F52;}
	.st171{fill:#9F8957;}
	.st172{fill:#97683B;}
	.st173{fill:#462D18;}
	.st174{fill:#5D3C1F;}
	.st175{fill:#835D3B;}
	.st176{fill:#A57C4B;}
	.st177{fill:#5E4A35;}
	.st178{fill:#624A31;}
	.st179{fill:#8C7B6A;}
	.st180{fill:#8B7D75;}
	.st181{fill:#4A4030;}
	.st182{fill:#5A4A3F;}
	.st183{fill:#3D3630;}
	.st184{fill:#3D372E;}
	.st185{fill:#90673A;}
	.st186{fill:#221A16;}
	.st187{fill:#766F67;}
	.st188{fill:#E2D7C9;}
	.st189{fill:#8D643F;}
	.st190{fill:#664322;}
	.st191{fill:#010101;}
</style>
<g>
	<circle class="st0" cx="134.9" cy="134.3" r="129.7"/>
	<g>
		<path class="st1" d="M94,195.7c2,10.3,3.6,20.7,5.2,31.2c0.5,0.8,1.1,1.6,1.6,2.4c0.4,0.6,0.9,1.3,1.3,2c0.7,0.4,1.5,0.8,2.3,1.2
			c-1.6-11.1-3.1-22.2-5.3-33.1c-1.6-8.2-4.8-14.3-12.3-18.1c-1.7-1.2-3.6-2.2-5.7-2.9c-1.4-0.5-3.3-0.5-3-2.7
			c-3-2.1-5.6-2.9-6.7,1.8c4.9,2.8,9.9,5.6,14.8,8.5C90,188.2,93.1,190.9,94,195.7z"/>
		<path class="st2" d="M110.1,48.6c-2.5-9.9,0.4-16.1,8.2-18.4c3.9-1.1,6.4-0.1,7.3,3.8c1,4.3,2.3,8.7,2.4,13.1
			c0.1,4.9,2.6,3.9,5.5,3.1c16.5-4,31.8-1.4,45.6,8.7c0.5,0.9,0,1.5-0.7,2.1c-1.7,0.8-3.2,0.2-4.8-0.5c-0.7-0.4-1.4-0.8-2-1.2
			c-3.8-2.4-8.1-3.9-12.4-5.3c-1.5-0.7-3.1-0.6-4.6-1.1c-7.8-1-15.2,1.1-22.7,2.3c-6.6,1.4-13.1,2.9-19.4,5.2
			c-2.1,0.7-4.3,1.9-6.6,0.4c-0.6-0.8-0.6-1.6,0-2.4c1.5-1,2.9-2.1,4.9-2.4c2.6-0.4,2.3-2.2,1.2-4C110.4,51.3,110.8,49.7,110.1,48.6
			z"/>
		<path class="st3" d="M77.9,177.5c-2.1-3.9-4.3-2.4-6.4,0c-5.9-0.7-11.7-1.2-17.5-2.2c-4.9-0.8-9.4-2.5-10.5-8.3
			c0.2-1.9,0.4-1.9,2.8-0.6c0.4,0.3,0.7,0.6,1,0.9c0.9,1.3,2,2.4,3.6,2.8c1.3,0.6,2.8,0.6,4.1,1c0.7,0.2,1.4,0.4,2.1,0.5
			c4.6,0.6,4.7,0.5,3.3-3.9c-2.6-8.1-5.7-16.1-5.4-24.9c0.1-1.7-0.1-3.4,1-4.9c0.4-0.5,1-0.6,1.6-0.5c0.8,0.5,1.3,1.2,1.6,2
			c2.2,7.1,2.8,14.7,5.3,21.8c0.6,1.9,1.4,3.7,1.9,5.5c1.3,4.8,4.2,6.7,9,6c0.9-0.1,1.8,0,2.7,0.1c4.2,0.4,8.4-0.3,12.6-0.3
			c2.7-0.4,5.3-1,8.1-1c3.6-0.3,6.7-2,9.9-3.6c2.4-0.8,4.3-3,7.1-2.6c1,0.6,1.6,1.4,1.3,2.7c-2.6,4.3-7.2,5.7-11.5,7.4
			c-4.7,1.2-9.4,2.2-14.3,2.4c-0.8,0-1.7,0-2.5,0c-3.1,0-6.1,0-9.2,0C78.9,178,78.3,177.8,77.9,177.5z"/>
		<path class="st4" d="M177.6,60.5c0.5-0.5,0.9-1.1,1.4-1.6c2.1-0.4,2.5-2.3,3.3-3.9c2.1-3.9,4-8,6.3-11.8c1.8-3,4.2-5.7,8-5.3
			c4,0.4,5.8,3.6,7.1,7.1c3.6,9.4,0.4,17-6.2,23.8c-1.1,1.1-2.4,2.1-3.6,3.2c0.6,1.1,0.5,2.1-0.4,2.9c-0.7,0.5-1.4,0.8-2.2,1
			c-1.1,0.3-2.1,0.6-3.2,0.5c-1.5-0.3-2.5-1-2.4-2.7c1.4-3.3,5.2-3.9,7.2-6.5c2.7-2.7,6-4.9,7-8.9c1.4-4,1.5-7.9-0.1-11.8
			c-0.7-1.9-1.6-3.5-3.9-3.7c-1.4,0.3-2.4,1.2-3.3,2.3c-1.1,1.3-1.7,2.9-2.5,4.3c-2.8,4-4.3,8.6-6.4,12.9c-1.3,2.6-3,5.3-5.7,7
			c-4.5-0.7-2.6-3.3-1.7-5.7C177,62.7,177.3,61.5,177.6,60.5z"/>
		<path class="st5" d="M39.3,156c-5.4-16.2-7.8-32.8-6.3-49.9c0.4-4.6,2.8-8.4,6.3-11.5c4.5-4,9.1-8.1,14.6-10.7
			c1-0.4,2.1-0.7,2.8,0.6c-0.1,3.2-3.1,4-5,5.6c-1.1,0.7-2.2,1.2-3.3,1.8c-3.6,3.6-7.9,6.7-10.3,11.5c-0.5,1.3-0.8,2.6-1.1,4
			c-0.4,1.5-0.1,3.1-0.2,4.7c-0.6,1.9,1,3.6,0.6,5.5c-1.2,2-0.8,4.1-0.2,6.2c-0.1,4.4,1,8.6,1.3,12.9c0.1,1,0.3,2.1,0.4,3.1
			c-0.2,4.6,2.2,8.7,2.7,13.2c0.1,1,0.4,2,0.2,3C41.1,157.9,40.2,157.5,39.3,156z"/>
		<path class="st6" d="M56.4,85c-0.8-0.4-1.7-0.7-2.5-1.1C70,73,87.5,64.8,105.8,58.3c0,0.8,0,1.6,0.1,2.5c-0.3,2.4-2.4,2.8-4.1,3.4
			c-3.1,1-6.1,2.5-9.1,3.8c-1.2,0.4-2.3,0.9-3.5,1.4c-3.3,1.5-6.6,3.1-9.8,5.1c-4.2,2.1-8.7,3.7-12.7,6.4
			C63.3,82.2,60.6,85.5,56.4,85z"/>
		<path class="st7" d="M198.2,78.9c5.1,6.6,7.7,14.6,11.6,21.9c3.1,5.8,6,11.6,9,17.4c0.3,2.7-1.5,1.4-2.6,1.4
			c-2.1-0.9-3.2-2.7-4.1-4.6c-1.1-2.7-2.8-5.2-4.1-7.8c-0.5-1.6-1.2-3.1-2.1-4.4c-0.9-1.4-1.4-3-2-4.5c-0.6-2.3-1.9-4.2-3.2-6.1
			c-0.9-1.4-1.7-2.8-2.3-4.4c-0.2-0.4-0.3-0.9-0.4-1.4c-0.2-1.9-1.9-3.3-1.4-5.4C196.7,80,197.4,79.4,198.2,78.9z"/>
		<path class="st8" d="M238.1,148.1c1.6,1.2,2.9,2.9,5,2.8c0.5-0.9,1.1-1.8,1.6-2.6c-10.1-8.8-18.4-19.1-26-30.1
			c-0.6,1.2-1.5,0.5-2.3,0.3c-1.6,4.7,3.1,6.6,4.5,10C226.1,135.5,231.6,142.2,238.1,148.1z"/>
		<path class="st9" d="M39.3,156c0.7,0.2,1.5,1,2.1-0.2c4.1,2.9,5.6,7.2,4.3,12c-0.9,0.1-1-2.2-2.4-0.8
			C41.1,163.7,40,159.9,39.3,156z"/>
		<path class="st4" d="M198.2,78.9c-0.1,0.9-0.4,1.6-1.3,2c-2.1-0.1-2.5-1.7-2.8-3.4c0.2-1.1,0.3-2.2,1.9-2.1
			C196.7,76.6,197.5,77.7,198.2,78.9z"/>
		<path class="st7" d="M196,75.5c-0.3,0.7-0.6,1.4-1,2.1c-2.4,0.2-2.6-1.3-2.3-3.1c1-0.5,1.2-1.5,1.4-2.5
			C194.7,73.1,196,73.9,196,75.5z"/>
		<path class="st10" d="M239.7,151.9c-0.9-0.4-1.8-0.8-2.9-0.4c-0.9,3-3.1,3.4-5.7,3c-5.2,2.4-10.4,4.1-15.5-0.3
			c-0.3-0.3-1-0.1-1.5-0.1c-4.8,2.1-9.7,1.3-14.6,0.6c-5.7-0.8-6-1-5.4-7.1c0.4-1.5-0.5-3.2,0.3-4.9c0.5,1.4,0.6,2.7,1.3,3.8
			c3.9,5.2,7.2,5.9,12.9,2.8c0.7-1.9-0.5-2.8-1.9-3.8c-1.9-1.3-2.5-2.9-0.7-4.8c1.1-0.2,1.9,0.6,2.9,0.9c0.4,0.1,0.8,0.1,1.3,0
			c1.3-0.6,2.5,0.1,3.8,0.2c0.7,0,1.4-0.2,1.9-0.8c0.6-0.9-0.9-3.9,2.3-2.2c2.7,1.4,5.2,3,6.9,5.6c1.3,2,2.9,3.7,5.7,2.2
			c0.5-3.1-1.8-4.9-3.5-6.8c-2.9-3.4-5.6-6.8-7.6-10.8c-3.6-6.2-7.3-12.4-10.2-19.1c-0.2-0.4-0.5-0.9-0.7-1.3c-1-1.6-1.5-3.6-3.1-5
			c-1.6-0.9-1.7-3.6-4.2-3.5c-1.1,0.8-2.3,1.5-3.8,1.6c-0.9,0.2-1.7,0.5-2.5,0.9c-0.6,0.2-1.2,0.4-1.8,0.4
			c-6.2-5.3-6.4-6.6-1.8-12.6c2.2-2.8,0.8-6.4,2.1-9.4c0.1-2.6-1.1-4.5-3-6.1c-0.7,0.3-1.4,0.6-2.2,0.9c-1.4,1.2-2.5-0.2-3.7-0.5
			c-3.2,0.2-5.1-3.4-8.5-2.9c-1.5,1.1-1.1,2.3-0.4,3.6c0.1,0.2,0.2,0.3,0.4,0.3c0.6-0.3-0.2,0.6-0.5-0.2c-1.1-2.6-4.2-3.5-5.6-5.9
			c-1.7-3,1.4-1.7,2.1-2.1c1.9-1,4.3-1.4,3.2-4.4c-0.4-0.9-1-1.7-1.8-2.4c-0.9-0.5-1.7-1.1-2.6-1.5c-4.4-2.6-8.9-5-13.7-6.7
			c-0.6-0.7-2,0.7-2.2-0.9c-8.2-1.9-16,0.3-23.9,2.1c-0.7,1.7-2,2.2-3.7,2.5c-4.7,0.8-9.2,2.3-13.9,3.4c-7.6,1.8-14.3,5.9-22,7.4
			c-1.1,0.4-2.2,0.9-3.2,1.3c-3.3,2.8-6.2,6.1-10.6,7.2c-1.9,1.1-4.9,0-5.8,3.1c2,2.5,5.3,1.1,8.1,2.7c-3.2,0.5-6.2,0.8-9.1,1.4
			c-2.6,1.1-5-0.9-7.5-0.3c-2,1-4.9,1.8-4.1,4.6c0.7,2.4,3.6,1.7,5.6,1.8c0.7,0,1.4,0.1,2.1-0.1c7.3-2,14.3-0.4,21.4,1.1
			c0.3-0.1,0.6-0.3,0.9-0.4c-0.8,0.9,0.2,1.7,0.8,2.5c0.8,1.1,2,2,1.9,3.6c-0.4,1.8-1.7,2.6-3.1,3.5c-0.3,0.4-0.6,0.8-0.8,1.2
			c-0.4,2.3-1.7,3.7-3.9,4.4c-3.2,2.1-5.9,4.6-7.9,8c-0.7,2.6-1.9,4.8-5,4.9c-2.5,1.1-4.7,2.5-5.9,5.1c-0.8,3.5-3.1,4.7-6.5,4.8
			c-4.6,0.1-9.2-0.4-13.6,1.1c-1.8,1.7-2,3.1,0.8,3.7c1.6,0.4,3.2-0.3,4.8-0.2c3.6,0.1,7.4-0.5,11.6,1.1c-2.4,1.8-4.6,0.9-5.8,2.6
			c-0.3,0.8-0.2,1.5,0.4,2.2c0.1,0.7,0.2,1.4,0.2,2c2.1,0.6,2.3,2.3,2.7,4.1c1.6,6.9,2,14.1,4.8,20.8c3.7,8.9,3.5,8.9,13,9
			c4.1,0.4,8.3-0.5,12.4,0.1c3,0.7,5.7-1.3,8.7-1c0.5-2.4,5.1-1.9,4-5.5c-2.4-3.3-6.4-3.9-9.7-5.9c-1.4-0.8-3.5-1.3-2.5-3.1
			c1.3-2.2,2.5,0.1,3.7,0.8c0.3,0.4,0.7,0.7,1.1,1c2.9,1.8,6.2,2.5,9.5,3.6c0.3-0.2,0.5-0.4,0.7-0.5c-0.1,0.2-0.2,0.4-0.4,0.6
			c0.3,2.4,2.1,3.1,4.2,3.4c1.1-0.2,1.7-1,2.3-1.8c0.4-0.6,0.6-1.3,0.8-2c0.2-1.3,0.5-2.5,2.3-2.2c1.3,0.1,2.7,0,4-0.3
			c0.9-0.2,1.7-0.7,2.1-1.6c0.2-0.4,0.2-0.9,0.2-1.4c0-2.7,1.8-2.7,3.7-2.5c1.8-0.3,2.4-1.6,2.5-3.1c-0.1-0.7-0.5-1.3-1-1.8
			c-0.4-0.3-0.7-0.5-1.2-0.7c-0.9-0.5-1.2-1.3-1.3-2.2c-0.1-0.4-0.2-0.8-0.4-1.3c-0.3-0.5-0.6-0.9-1.1-1.2c-0.3,0-0.3,0.1-0.4,0.1
			c0,0,0-0.1-0.1-0.2c-0.2-0.4,0-0.6,0.4-0.4c0.9-0.4,1.5-1.2,1.8-2.1c1.4-1.1,2.1,1.1,3.3,0.8c1.1,0.1,2-0.1,2.9-0.8
			c0.7-0.9,0.8-1.8,0.6-2.9c-0.2-0.9-0.8-1.6-1.4-2.4c-0.4-0.5-0.6-1-0.7-1.6c0-0.6,0.2-1.2,0.4-1.7c2.9-1.9,4.8-0.9,6.1,2
			c1.1,1.3,1.5,2.8,0.8,4.5c0.8,2.2,2.3,3.6,4.5,4.5c3.7,0.1,5.1,2,4.2,5.6c-0.2,0.5-0.3,0.9-0.3,1.4c0,1,0.8,1.8,0.5,2.9
			c-0.2-0.5-0.5-0.9-1-1.1c-0.5-0.1-1-0.1-1.4,0.1c-0.7,0.5-1,1.2-1.2,2c-0.2-1.4,0.6-3.3-2-3c-1.6,1-3,2.3-3.4,4
			c-2.1,6.9-7.5,10.5-13.4,13.5c-0.5,0.4-0.9,1.1-1.5,1c-0.5-0.1-0.2-0.8-0.2-1.2c1.3-2.7,4.1-3.1,6.5-4.2c1.8-0.9,4.5-1.5,2.2-4.5
			c-2.2-0.5-4.3,0.8-6.5,0.7c-3.1,1.1-5.9,2.6-7.1,6c-3.2,2.8-7.1,4.5-10.7,6.5c-4.5,3.5-9.8,2.2-14.9,2.5c-0.7-0.1-1.4-0.1-2.1-0.2
			c-0.4,0.3-0.8,0.7-0.9,1.3c0,0.5,0.1,1,0.3,1.5c3.9,3.2,8.8-0.3,12.6,2.2c-1.7,1.1-4.4,0.4-6,2.5c1.3,3.8,2.6,7.7,3.2,11.7
			c0.4,2.8,0.8,5.6,1.6,8.3c0.3,1.3,1.1,2.3,2.4,0.6c0.1-0.2,0-0.5,0.2-0.7c-0.1,0.5-0.1,1.1-0.1,1.6c0.5,2.6,0.1,6.4,4.6,3
			c1.4-4.4,5.7-3.1,8.6-4.5c0.3-0.5,1-0.8,0.4-1.5c0.7,0.6,0.2,1.2,0.2,1.8c0,0.7,0.2,1.3,0.3,2c0.6,2.7,1.2,5.3,2,7.9
			c0.2,0.9,0.3,1.8,0.6,2.7c0.5,1.3,0.2,2.5-0.4,3.7c-0.1,0.5-0.2,1.1-0.6,1.4c-1,0.8-1,0.1-1.1-0.6c-0.3-1.9,0.8-3.8,0.3-5.8
			c-1.5-1.4-0.3-5-3.8-4.9c-1.9,2.3-1.5,5.1-1.2,7.6c0.4,3.5-0.8,4.5-4,3.8c-3.4,1.2-5.4,2.2-4.3,7.2c0.2,1,0.5,2.1,0.7,3.1
			c0,0,0,0,0.1,0c0.8,0.4,1.7,0.8,2.5,1.2c0.3,0.1,4.5,2.3,1.7,0.8c-2.7-1.5,1.2,0.4,1.8,0.7c1.2,0.4,2.4,0.8,3.6,1.2
			c0.3,0.1,1.6,0.3,2.5,0.5c0.2,0,0.5,0.1,0.7,0.1c2.1,0.1,4.2,0.3,6.3,0.4c0.3,0,0.8,0,1.3-0.1c0.4-0.1,0.7-0.2,0.9-0.3
			c2.2-0.8,4.5-1.1,6.6-1c12-6.2,23.9-12.7,35.4-19.8c9.3-5.7,18.5-11.7,27.3-18.2c1.3-0.9,2.5-1.9,3.7-2.8c0.1-0.1,0.2-0.1,0.3-0.2
			c2-1.6,3.9-3.1,5.8-4.7c4.2-3.5,8.3-7,12.3-10.7c7.9-7.3,15.5-15.1,22.5-23.4c0-0.1,0.1-0.1,0.1-0.2c0.1-0.2,0.2-0.3,0.4-0.6
			c0.5-0.7,1-1.5,1.5-2.2C241,152.7,240.3,152.3,239.7,151.9z M94.7,103c2.9-1.9,5.2-3.8,5.7-6.1C100,99.6,98.2,101.8,94.7,103z
			 M99.6,93.3c-1.4-2.4-3.4-4.5-6.1-4.7c3.1-0.3,5.4,0.9,6.3,3.4c0.5,1.4,0.7,2.8,0.7,4.1C100.5,95.2,100.2,94.3,99.6,93.3z
			 M142.4,156.6c-0.1-0.1-0.2-0.2-0.3-0.4C142.7,156.1,142.4,157.2,142.4,156.6z"/>
		<path class="st10" d="M100.5,96.5c0-0.1,0-0.1,0-0.2C100.5,96.4,100.5,96.4,100.5,96.5z"/>
		<path class="st11" d="M85.4,181.9c4.3,3.8,9.6,6,11.1,12.9c2.6,12.2,4.4,24.5,6.2,36.8c0.6,0.3,1.1,0.6,1.7,0.9
			c0.4,0.2,0.8,0.4,1.2,0.5c-0.3-2.2-0.5-4.4-1.4-6.5c-1-2.4,4.1-1,3.9-3.9c0.4-0.3,0.7-0.7,1-1.2c1-2.7,0.3-5.6,0.8-8.4
			c0.5-3.2,1.8-5.2,5.4-4.8c0.5-0.3,0.8-0.6,1.1-1.1c0.4-1.4,0.3-2.7-0.9-3.8c-3.7,0.2-8.3-1.6-9.5,4.3c-0.6,1.7-1.5,3.4-1.7,4.9
			c-0.2-2.2-1.2-4.6-1.6-7c-0.3-1.9,0.6-4-0.8-6c-1.2,1.6,0.9,3.5-1.1,4.6c-0.6-2.6-0.9-5.3-1.5-7.8c-1.1-4.2,0.8-9.5-4.1-12.4
			c-0.7-2.2-2.5-2.8-4.5-3.2c-1.2-0.2-2.7-0.2-1.9-2.2c0-0.4,0-0.8,0-1.2c-1.6-0.8-3.3-0.4-5-0.3C81.7,179.6,85.1,180.2,85.4,181.9z
			"/>
		<path class="st12" d="M83.3,177.8c0.9,1.3,2.3,2.3,2.1,4.1c-1.7-1-3.4-1.9-5.1-2.9c0.1-1.2,1.1-1.5,2-1.9
			C82.8,177,83.1,177.3,83.3,177.8z"/>
		<path class="st13" d="M82.1,177.8c-0.6,0.4-1.2,0.8-1.9,1.3c-1-0.3-2.2-0.1-2.4-1.5c0.4,0,0.7,0,1.1,0
			C80.1,176.9,81.2,176.5,82.1,177.8z"/>
		<path class="st14" d="M131.5,53.7c0.9,2.4,1,4.1-2.4,4.3c-10.1,0.6-19.6,3.6-28.9,7.3c-2.6,1-5.1,3.6-8.3,1.6
			c4.7-2.1,9.3-4.1,14-6.2C114.4,58.4,122.6,54.9,131.5,53.7z"/>
		<path class="st15" d="M113.2,37.8c0.2-1.4,0.8-2.5,2.3-2.9c1.6,0.3,3.1-1.8,4.8-0.3c0.3,0.4,0.6,0.8,0.8,1.3
			c0.9,3.5,2.6,7,0.1,10.5c-4.3,0.4-4.4-4.4-7.3-5.8C113.4,39.7,112.8,38.9,113.2,37.8z"/>
		<path class="st16" d="M113.2,37.8c0.4,0.7,0.8,1.5,1.2,2.2c1,1.3,1.4,2.9,1.6,4.4c0.6,4.1,2.8,6.3,7.1,6.2c0.8,0.2,1.4,0.7,2,1.2
			c-3.1,1-6.2,3.9-9.5,0.5C111.7,48.2,110.9,42.6,113.2,37.8z"/>
		<path class="st17" d="M120.9,46.4c1-3.7-0.4-7.3-1-10.8c3.8,0,2.8,3.7,4.3,5.5c1.4,2.4,0.9,5,0.8,7.5c-0.9,0.5-1.6,1.4-2.8,1.3
			C120.9,49.1,120.1,48.1,120.9,46.4z"/>
		<path class="st18" d="M171.4,60.2c-5.5-1-9.3-5.2-14.2-7.2c0.8-0.7,1.8-0.6,2.7-0.2c4.4,1.2,8.7,2.8,12.5,5.5
			C172.4,59.1,172.1,59.7,171.4,60.2z"/>
		<path class="st19" d="M124.2,41c-2.1-1.3-2-4.3-4.3-5.5c0-0.3,0-0.6-0.1-0.9c-0.6-0.7-0.6-1.4,0-2.1
			C125.2,33.3,123.3,37.9,124.2,41z"/>
		<path class="st20" d="M174.6,63.5c-0.4-0.7-0.7-1.4-1.1-2.1c-0.7-0.8-0.6-1.6,0.1-2.3c1.3,0.5,2.7,0.9,4,1.4c1,1,1,2.1,0,3.1
			C176.6,64.4,175.6,64.5,174.6,63.5z"/>
		<path class="st21" d="M119.8,32.6c0,0.7,0,1.4,0,2.1c-1.4-0.3-2.7,1.6-4.2,0.2C116.8,33.8,118.2,32.9,119.8,32.6z"/>
		<path class="st22" d="M123,49.7c0-1.6,0.7-1.8,2-1.1c0,1.1,0,2.1,0.1,3.2c-0.6,0-1.2,0-1.9,0C122.3,51.1,122.8,50.4,123,49.7z"/>
		<path class="st23" d="M159.9,52.7c-0.9,0.1-1.8,0.1-2.7,0.2c-1-0.2-2.2,0.5-3-0.6c0.4-0.2,0.8-0.5,1.2-0.7
			C157,51.7,158.6,51.5,159.9,52.7z"/>
		<path class="st24" d="M173.6,59.1c0,0.8-0.1,1.6-0.1,2.3c-1,0-1.7-0.3-2.1-1.2c0.3-0.6,0.6-1.3,1-1.9
			C172.8,58.5,173.2,58.8,173.6,59.1z"/>
		<path class="st25" d="M57.5,135.6c0,0.7,0,1.5,0,2.2c-0.3,0-0.6,0-0.9,0.1c-1.2,1.7-0.8,3.5-0.2,5.3c-0.1,9.1,3.4,17.3,6,25.8
			c0.5,1.6,2.7,3.1,0.9,4.7c-1.3,1.2-3.3,0.7-5-0.1c-1.3-0.6-2.6-0.9-4-1.4c-0.1-1.9-3.7-1.9-2.4-4.5c3.7-3.2,3.9-3.7,3-9.4
			c-0.1-0.9-0.6-1.7-0.9-2.5c-0.8-2.2-1.6-4.4-0.9-6.9c0.3-1.6,0.1-3.2,0.2-4.6c-0.2,1.3,0.4,2.9-0.9,4.2c-4.2,0-5-3.2-5.6-6.3
			c-0.6-2.7,0.9-4.7,3.6-5.6c1.4-0.5,2.4-1.4,3.1-2.7c0.9-0.9,1.7-2.4,3.3-1.5C57.7,133.2,58.1,134.3,57.5,135.6z"/>
		<path class="st26" d="M144.4,153.9c-0.3-0.1-0.5-0.2-0.8-0.3c-1.4-0.5-2.1-1.9-3.2-2.7c-1.9-2-3-0.1-4.2,0.9
			c-1.4,1.2-2.7,2.7-3.6,4.3c-0.4,0.6-1,1.1-1.5,1.6c-2.5,1.2-4,4-6.9,4.7c-2.5,1.8-5,3.6-7.5,5.4c-0.3-0.7-0.7-1.4-1-2
			c0-0.2,0-0.5,0-0.7c0.5-1.4,1.5-2.4,2.6-3.3c1.2-0.7,2.5-1.3,3.5-2.3c2-3,6-4.2,7.1-8c1.6-1.6,2.7-3.7,4.1-5.5
			c0.5-0.7,0.7-1.5,0.4-2.4c-1-1.5-1.7-3.2-2.7-4.7c-0.7-0.4-1.3-0.9-2-1.3c0.2-2.5,2.1-2,3.6-2.2c0.5,0,1.1,0.2,1.6,0.4
			c1.8,0.8,3.2,1.9,3.4,4.1c1.4,1.4,2.8,2.8,4.2,4.2c3.1,1.1,4.7,3.2,4.5,6.6c-0.1,0.3-0.1,0.6-0.2,0.9
			C146.1,152.8,146.5,154,144.4,153.9z"/>
		<path class="st27" d="M57.7,139.8c2.4-1.4,3.7-0.5,4,2.1c0.5,3.5,1.4,7,1.5,10.5c0.1,6.6,4.4,11.9,5.2,18.2c0.3,2,1.8,2.5,3.6,2.5
			c2,0,3.9,0,5.9,0c0.4,0.2,0.5,0.4,0.4,0.6c-0.1,0.2-0.2,0.3-0.4,0.3c-12.5,0.3-9.6,1.6-14-9.7C60.7,156.6,59.7,148.1,57.7,139.8z"
			/>
		<path class="st28" d="M52.1,167.8c0.1,1.2,0.7,1.9,2,2.1c3,0.5,0,1.5,0.1,2.3c-1.5-0.1-3.1,0.3-4.4-0.9c-1.1-1.2-2.3-2.2-3.3-3.5
			c-0.3,0-0.5-0.1-0.8-0.1c-0.8-4.2-2.4-8.1-4.3-12c-0.3-0.7-0.5-1.3-0.8-2c0.3-1.2,0.2-2.8,2.2-2.6c3.7,2.7,2.8,7.3,4.5,10.8
			c0.4,0.6,0.7,1.1,1.1,1.7c0.4,0.5,0.8,1,1.2,1.5c0.6,0.8,1.5,1.4,2.2,2.1C51.9,167.5,52,167.7,52.1,167.8z"/>
		<path class="st29" d="M99.3,172.9c0.3-1.1-4.6-4.4,1.4-3.1c1.3,0.3,1.8-0.8,2-1.9c2.2-1.8,4.1-0.9,6.1,0.4
			c0.2,0.2,0.3,0.5,0.5,0.7C106.2,171.1,103,172.7,99.3,172.9z"/>
		<path class="st30" d="M105.8,174.3c0,1.7-0.4,3.3-2.5,3.1c-4.1-0.2-8.3,0.8-12.4-0.7C95.9,175.9,100.8,175.1,105.8,174.3z"/>
		<path class="st31" d="M77.9,174.2c0-0.3,0-0.6,0-1c4.2,0.3,8.5-0.8,12.7,0.7C86.4,173.7,82.2,175.6,77.9,174.2z"/>
		<path class="st32" d="M110.1,166.8c0.4-0.7,0.7-1.4,1.1-2.1c1.6-0.7,3.3-2,4.2,0.8l0.2,0.4c-2.2,0.9-3.8,3.1-6.4,3.2l-0.1-0.1
			C108.5,167.7,109.3,167.2,110.1,166.8z"/>
		<path class="st33" d="M82.1,177.8c-1-0.1-2.1-0.2-3.1-0.3c3.1-2,6.5-0.8,9.8-0.9c-0.1,0.3-0.2,0.6-0.2,0.9
			c-1.8,0.1-3.6,0.2-5.3,0.4C82.9,177.8,82.5,177.8,82.1,177.8z"/>
		<path class="st34" d="M46.5,167.9c1.7,0.6,2.8,1.7,3.3,3.5C48.1,170.8,47,169.7,46.5,167.9z"/>
		<path class="st35" d="M56.3,143.2c-1.1-1.8-1.6-3.6,0.2-5.3C56.5,139.7,56.4,141.4,56.3,143.2z"/>
		<path class="st36" d="M177.5,68.8c5.5-5.9,7.1-13.9,11.6-20.3c0.4-0.3,0.9-0.4,1.4-0.2c1.2,1.4,0.3,2.7-0.4,3.7
			c-1.7,2.5,0.8,2.2,1.8,2.9c0.7,3.4-2.6,4.7-3.8,7.1c-0.9,1.7-1.9,3.3-2.8,5c-0.7,1.4-1.5,2.7-2.7,3.8c-1.4,1.1-2.8,1.5-4.3,0.1
			C177.8,70.3,177.5,69.6,177.5,68.8z"/>
		<path class="st37" d="M191.7,55c-1.4,0.6-2.8,1.2-4.6,1.9c-0.3-3.6,2.2-5.7,3.6-8.3c-0.3-1.7,0.7-3.1,1-4.6
			c0.8-1.3,1.6-2.6,3.2-2.9c2.4,1.3,5.1,2.5,3.8,6.1c-3.1,1.2-2.6,3.1-0.9,5.2c0.2,0.7,0.2,1.5-0.2,2.2c-0.3,0.4-0.7,0.7-1.1,0.9
			C194.9,55.7,193.3,55.4,191.7,55z"/>
		<path class="st38" d="M193.9,68.1c-1.7,2.9-4.8,3.7-7.4,5.2c-0.4,0.4-0.9,0.6-1.4,0.8c-0.9,0.1-1.6-0.1-2.2-0.7
			c-1.2-2.1,0-3.4,1.4-4.7c1.9-0.4,2.5-1.6,2.2-3.4c0.8-2.8,2.2-5,4.9-6.3c2.8,0.6,2.3,3.5,3.7,5.1
			C195.9,65.7,194.5,66.8,193.9,68.1z"/>
		<path class="st39" d="M198.2,47.5c0.6-3-2.3-4.2-3.3-6.4c3.1-1.1,4.7,0.9,5.7,3.3c2.2,4.8,2.8,9.8,0.5,14.8
			c-2.6-0.3-2.1-2.4-2.3-4.1c-0.2-1.8,0-3.6-0.7-5.3C197.9,49.1,197.8,48.3,198.2,47.5z"/>
		<path class="st40" d="M199.3,48.6c2.7,3.2-0.4,7.4,1.9,10.6c-1.4,3.8-4.2,6.5-7.3,8.9c-0.4-1.1,1-2.3,0-3.4
			c-0.7-2.1,1.5-2.7,2-4.1c1-1.5,1-3.2,1.1-4.9c0-0.2,0-0.5,0-0.7c0-0.7,0-1.4,0-2.1C198.1,51.6,197.6,49.6,199.3,48.6z"/>
		<path class="st41" d="M177.5,68.8c0.4,0.4,0.9,0.9,1.3,1.3c-1.7,1.7-4,0.7-5.9,1.2c-1.4,0-2.7-0.2-3.7-1.2
			c-0.9-0.7-1.9-1.3-4.2-2.9c4.1,0.7,6.1-1.2,8.6-1.4c1.7-0.2,1.2-1.3,1-2.3c1,0,2,0.1,3.1,0.1C177.5,65.3,174.5,66.9,177.5,68.8z"
			/>
		<path class="st42" d="M193,80.7c-0.8-2-1.5-4.1-2.3-6.1c0.6-0.1,1.3-0.1,1.9-0.2c0.8,1,1.6,2.1,2.3,3.1c0.6,1.1,1.3,2.2,1.9,3.3
			c0.4,1.9,2.3,3.2,2.3,5.3c-1.3,1.1-2.4,0.5-3.5-0.3C194.2,84.5,193,82.9,193,80.7z"/>
		<path class="st43" d="M191.7,44c0.2,1.7-0.2,3.2-1,4.6c-0.5-0.1-1-0.1-1.5-0.2C190,47,190.9,45.5,191.7,44z"/>
		<path class="st44" d="M185.2,73.3c0.4,0,0.8,0,1.3,0c-0.2,1.5,0.7,2.1,2.1,2.2c-1.1,1.4-2.2,1.2-3.3,0
			C184.6,74.8,184.7,74,185.2,73.3z"/>
		<path class="st45" d="M240.9,154.3c0.5-0.7,1-1.4,1.4-2.1c0.2-0.3,0.4-0.6,0.6-0.9c-1.1-0.8-2.4-1.4-4.1-0.7
			c-0.5,0.8-0.4,1.6,0.2,2.3C239.7,153.3,240.3,153.8,240.9,154.3z"/>
		<path class="st46" d="M239,150.6c1.3,0.1,2.3,0.8,3.3,1.5c0.4-0.6,0.8-1.2,1.1-1.8c-1.4-1-2.8-2-4.3-3c-1-0.3-1.6,0.1-1.7,1.1
			C237.4,149.5,238.1,150.2,239,150.6z"/>
		<path class="st47" d="M35.9,107.7c0.1-1.5-0.3-3.1,1.1-4.3c0.9-0.8,1.9-1,3-0.8c4,1.9,7.4,2.2,9.3-3.1c0.8-2.3,3.1-3.1,5.3-1.6
			c3.9,2.7,8.2,1.5,12.4,1.3c-2.7-0.9-5.4-1.5-8.2-1.9c-2.7-0.4-4.6-1.6-4.4-4.8c5.3-2.9,10.8-4,16.7-2.8c0.8,0.6,0.8,1.3,0.3,2.1
			c-0.4,0.3-0.9,0.5-1.3,0.9c-1.3,1.2,0.4,0.7,0.5,0.8c2,0.8,4.1,0.9,6.2,1.3c3.1,1.6,4.7-1.2,6.8-2.5c2.6,0.4,4.5,1.5,5,4.3
			c-0.3,3-2.5,4.6-4.5,6.4c-3.3,2.9-7.6,4.1-10.9,6.9c-0.7,0.5-1.4,1-2.1,1.3c-8.6,4.1-17.4,6.3-26.8,3
			C40.7,113,36.7,112.3,35.9,107.7z"/>
		<path class="st48" d="M35.9,107.7c9.1,8,19.3,7.7,29.9,3.8c1.8-0.7,3.5-1.8,5.6-1.7c1.6,1.4,1.5,3.1,1,5
			c-2.3,4.3-6.3,6.4-10.7,8.1c-4.6,1-9.2-1.4-13.8,0.5c-6.3-0.9-11.4-5.7-12-11.4C36.3,110.5,34.2,109.1,35.9,107.7z"/>
		<path class="st49" d="M61.8,121.6c3.6-1.6,6.5-4.2,9.7-6.5c1.2-2,2.2-4.1,3.7-5.9c2.4-2.7,5.6-4.4,8.1-6.9
			c1.4-1.8,2.9-3.6,4.3-5.3c0.8-0.8,0.3-2.6,2.2-2.5c0.8,0.3,1.3,0.8,1.6,1.5c0.4,1.5-0.2,2.5-1.5,3.1c-0.1,0.3-0.1,0.6-0.2,0.9
			c-1.1,2.2-2.4,4.1-4.6,5.4c-2.4,2.6-4.8,5.1-7.2,7.7c-1.5,2-2.8,4.3-5.4,5.3c-1.8,1.4-3.6,2.8-5.4,4.2c-4.6,5.5-14.7,7.3-22,3.7
			c-1.8-0.9-3.5-1.8-4.9-3.2c-1.5-1.6-3.4-2.9-3.2-5.4c-0.1-1.9-3.5-3.3-1-5.7c2.4,5.3,6.4,8.8,11.8,10.7
			C52.5,122.6,57.3,124.1,61.8,121.6z"/>
		<path class="st50" d="M54.3,134.5c-0.1,1.3-0.7,2.3-1.8,3c-5.7,3.4-5.8,4.3-1.9,9.6c0.4,0.5,1.1,0.9,1.6,1.3
			c0.7-0.6,1.4-0.6,2.1,0c-0.3,2.6,0.5,5,1.1,7.5c-0.1,2.2,0.4,5.1-2.9,5.2c-3.8,0.2-4.8-2.8-5.4-5.9c-0.3-1.6,1.8-2.8,0.8-4.6
			c-2.9-3-3.8-6.6-3.5-10.8c-1.2,1.5-2.6,1.5-4.1,1.3c-0.8-0.2-1.5-0.7-2-1.3c-0.9-0.6-0.9-1.4-0.7-2.3c0.3-1.7-0.2-3.5,0.3-5.2
			C43.4,132.5,48.9,133.1,54.3,134.5z"/>
		<path class="st51" d="M90.8,95.8c-0.4-0.3-0.8-0.6-1.2-0.9c-9.7-7-20.4-6-31.3-3.8c-1.2,0.3-2.5,0.4-3.7,0.4
			c-1.7,0.1-3-0.4-3.5-2.1c1.1-2.3,3.7-2.8,5.3-4.5c3.2-1.7,6.5-3.5,9.7-5.2c0.4-0.5,0.9-0.5,1.4,0c0.9,2.4-0.9,2.7-2.4,3.3
			c-1.6,1-3.7,1.3-4.7,4.1c3.3,0.1,6.2,0.1,9.4-0.4c6.9-1.1,13.7-0.8,20,2.7l0,0c1.3,2.3,5.9,2.2,4.3,6.4
			C92.9,96.6,91.9,96.8,90.8,95.8z"/>
		<path class="st52" d="M38.1,132.4c-0.2,1.7,0.4,3.5-0.6,5.2c-1-4.9-1.9-9.8-1.8-14.8c1-2.2,2.6-2.3,4.5-1.2c8.7,6.7,17.7,7,26.9,1
			c0.2,4.4-2.7,6.1-6.3,6.4c-5,0.4-10.1,0.1-15.2,0.2c-0.6,0.6-1.3,0.7-2.1,0.4c-1.4-0.7-1.8-2.6-3.5-3.1c-0.9,1.2-0.2,2.7-0.7,4
			C39.2,131.2,38.7,131.9,38.1,132.4z"/>
		<path class="st53" d="M40.3,103.4c-1.1,0-2.2,0-3.3,0c1.4-6.2,7.1-8.7,10.9-12.8c0.9,0.3,2,0.1,2.4,1.3c0.4,2.8-0.7,5.2-3.1,6.3
			C44.5,99.5,43.4,102.8,40.3,103.4z"/>
		<path class="st54" d="M38.2,139.9c0.7,0,1.4,0,2.1,0c2.4,3.6,4.7,7.3,2.2,11.8c-0.6,0.7-1.2,1.4-1.8,2.1
			C40.6,149,36.4,145,38.2,139.9z"/>
		<path class="st52" d="M40.2,121.6c-1.5,0.4-3,0.8-4.5,1.2c-0.2-1.8-0.5-9.9,1.2-5.1C38,119,39.1,120.3,40.2,121.6z"/>
		<path class="st55" d="M49.9,91.7c-0.6-0.4-1.3-0.8-1.9-1.1c1-0.4,2.1-0.8,3.1-1.2c1.1,0.4,2.1,0.7,3.2,1.1c0.1,2.2-1.5,2-2.9,2
			C50.8,92.5,50.3,92.2,49.9,91.7z"/>
		<path class="st56" d="M88.7,68.3c-2,4.2-4.8,7.4-9.7,8.3c-1-1.1-0.7-2.2,0-3.3C81.8,70.8,85.3,69.6,88.7,68.3z"/>
		<path class="st57" d="M78.9,73.2c0,1.1,0,2.2,0,3.3c-1.9,1.6-4.7,0.3-6.5,2.1c-0.3,1.2-1.2,1.8-2.3,2.1c-1.2,0.2-2.2-0.2-3-1
			c-0.4,0-0.7,0-1.1-0.1C70,76.8,74.4,74.9,78.9,73.2z"/>
		<path class="st58" d="M218.5,129.4c-4.4-6-7.6-12.7-10.5-19.5c4-1.3,2.8,3.6,5.1,4.3c1.1,1.4,1.5,3.5,3.4,4.3
			c1.8,3.2,3.6,6.4,5.4,9.6C221.2,129.8,219.9,129.6,218.5,129.4z"/>
		<path class="st59" d="M205.1,97.9c0.6,1.4,1.3,2.8,1.9,4.1c0.5,1.8-0.7,1.9-1.9,1.8c-2.8-4.4-7.1-8-8-13.5c0.2-1.4-0.1-3.1,2.1-3
			c0.8,1.3,1.5,2.7,2.3,4C202.1,93.8,203.6,95.9,205.1,97.9z"/>
		<path class="st60" d="M213,114.1c-2.8-0.2-2.2-4.2-5.1-4.3c-0.1-0.3-0.1-0.7-0.1-1c-0.6-1.2-0.8-2.2,1.1-2.2
			C210.7,108.9,212.4,111.2,213,114.1z"/>
		<path class="st61" d="M208.9,106.7c-0.4,0.7-0.7,1.4-1.1,2.2c-1.1-1.5-2.1-2.9-3.2-4.4c-0.4-0.3-0.5-0.5-0.3-0.8
			c0.1-0.2,0.3-0.3,0.4-0.3c1,0,1.8-0.4,2.3-1.3C208,103.4,209.1,104.8,208.9,106.7z"/>
		<path class="st62" d="M199.2,87.3c-1.1,0.8-0.9,2.1-1,3.2c-1.4,0.4-2.2-0.4-2.8-1.4c-0.6-1.5-0.6-2.9,0.7-4c1,0.4,2.1,0.7,3.1,1.1
			C199.2,86.6,199.2,86.9,199.2,87.3z"/>
		<path class="st42" d="M205.1,97.9c-2.4-1.5-3.8-3.6-3.6-6.6C203.2,93.2,204.5,95.4,205.1,97.9z"/>
		<path class="st63" d="M218.5,129.4c1.1-0.4,2.3-0.9,3.4-1.3c5.8,6.4,11,13.3,17.4,19.2c-1.8,1-0.7,2.2-0.2,3.3c0,0.7,0,1.5,0,2.2
			c-0.7-0.4-1.4-0.7-2.1-1.1c-2.8-1-5.4-2.2-6.3-5.4C226.8,140.5,220.7,136.3,218.5,129.4z"/>
		<path class="st64" d="M172.9,84.4c0.1,0.9-0.1,1.8,1,2.5c0.9,1.5,1.7,3,0.8,4.7c-0.2,0.3-0.3,0.7-0.5,1c-0.7,1.1-1.6,2.2-2.7,3.2
			c-1.9,1.9-4.6,3-7.8,3.6c-2,0.3-4,0.3-6-0.1c-5.2-1.8-9-4.2-9.1-8.3c0.1-1.3,0.1-2.6,0-3.9c-0.2-2,1-3.6,3-5
			c2.3-1,3.5-2.8,6.4-3.4c1.6-0.4,3.3-0.4,4.9-0.2c2.7,0.3,4.9,1.4,6.8,2.6C171,82.1,172.7,83,172.9,84.4z"/>
		<path class="st65" d="M230.6,146.3c2.1,1.8,4.8,2.9,6.3,5.4c-0.2,3.8-1.5,5.6-5.4,3.2c-0.2-0.1-0.4-0.3-0.6-0.4
			c-0.7-0.8-0.9-1.9-1.6-2.6c-1.3-1.3-2-1-2.2,0.8c-2.5,5-3.9,5.1-8,0.9c-0.1-0.5-0.1-1,0-1.5c1.2-3.2,0.3-5.8-2.5-7.8
			c-1.1-0.8-2.6-1.5-1.3-3.3c-0.6-1.8-2.2-3.2-1.7-6.1c4.5,3.2,10.6,3.3,12.8,9.4C227.1,145.8,228.9,146.3,230.6,146.3z"/>
		<path class="st66" d="M214.3,154.9c-2.8,2.6-6.2,2.4-9.6,2c-2.3-0.2-4.6-0.7-6.8-0.9c-6-0.4-7.3-2.5-5.1-8.6
			c0.9-1,1.9-1.4,3.2-1.1c6.2,2.7,8.1,3,11.8,2.2c2.4-0.2,4,1.3,6,2.2C214.9,152,215.6,153.4,214.3,154.9z"/>
		<path class="st67" d="M130.5,157.1c0.3-0.4,0.7-0.7,1-1.1c2-1.8,3.9-3.7,5.7-5.7c1.3-1.5,2.6-2.1,3.6,0.3c0.3,0.8,0.1,1.6-0.5,2.2
			c-3.8,7.9-7.2,16.2-17.2,18.3c-1.3,0.3-2.4,0-3.2-1.1c0.7-3.8,3.6-4.6,6.7-5.5c1.4-0.4,4.4,0.2,3-3.1
			C126.3,159.1,130.3,158.6,130.5,157.1z"/>
		<path class="st68" d="M167.8,216.1c0.4-0.2,0.7-0.4,1.1-0.7c-0.7-0.6-1.6-0.9-2.9-0.8c-2.9,0.2-4.3,2.6-4.8,5.5
			C163.4,218.8,165.6,217.4,167.8,216.1z"/>
		<path class="st69" d="M43.5,129.2c0.7,0,1.4,0,2.1,0c-0.3,1-0.6,2.6,1.1,1.9c4.2-1.8,8.4-0.1,12.6-0.7c2.4-0.3,5.5-0.1,5.4,3.4
			c-0.1,4-3.1,2-5.2,1.9c-0.7,0-1.4,0-2.1,0c-0.7-1.5-1.3-3.4-3.2-1.1c-5.6,0.7-11,0.7-16.1-2.2c0-0.7,0-1.4,0-2.1
			C40,130.5,41.7,129.5,43.5,129.2z"/>
		<path class="st70" d="M173.7,96.9c0-0.4,0-0.7,0.1-1.1c2.4-1.1,0.5-3.9,2.1-5.3c0.8,0.5,1.7,2.3,2.5,1.1c1.2-1.7,3.4-1.7,4.6-3.3
			c0.5-0.6,1.2-0.5,1.9-0.2c1.1,0.5,0.9,1.4,0.5,2.2c-1.7,3.8-3,7.6,0.8,11.1c0.6,0.5-0.1,1.7-0.9,2.2c-1.4,1-2.7,0.7-3.7-0.6
			c-1.5-2.1-2.8-4.2-5.9-2.9c-0.8-0.1-1.3-0.5-1.7-1.2C173.8,98.3,174,97.6,173.7,96.9z"/>
		<path class="st71" d="M110.1,166.8c-0.4,0.7-0.7,1.4-1.1,2.1c-2.1-0.3-4.3-0.7-6.4-1c-3.5-2-6.8-4.4-10.9-4.8
			c-2.5-0.2-2-2.1-2.6-3.3c-0.6-1.3-0.6-2.7,0.9-3.8c1.3-0.9,2.6-0.9,3.8,0.2c0.8,0.7,1.6,1.3,2.4,2c-0.4,0.2-0.5,0.4-0.4,0.8
			c0,0.1,0.2,0.2,0.5,0.2c3.1,1.7,7.2,1.1,9.6,4.3l0,0C107.2,164.6,108.7,165.7,110.1,166.8z"/>
		<path class="st72" d="M89.7,89.4c2.7-3.7,6.6-2.4,9.8-1.6c3.1,0.8,1.8,4.2,2,6.5c0.1,0.9,0,1.8,0,2.7c0,7.9-1.8,9.1-9.8,6.4
			c2.2-3.2,9.1-3.2,7.2-8.8C97.7,91,93.9,89.2,89.7,89.4L89.7,89.4z"/>
		<path class="st73" d="M196.1,89.3c0.7,0.4,1.4,0.8,2,1.2c2.2,4.3,4.4,8.6,6.5,12.8c0,0.4,0,0.7-0.1,1.1c-2.2-0.6-1.7-3.2-3.3-4.3
			c-0.7,2.1-3.7-0.2-4.3,2.1c-0.6,0.4-1.2,0.7-1.8,1.1c-3.2-1.7-3.9-4.9-5.1-7.9c0.3-1.6,1.3-3,1.8-4.5c0.2-0.4,0.5-0.7,0.9-1
			c0.8-0.4,1.7-0.6,2.6-0.6C195.7,89.4,195.9,89.3,196.1,89.3z"/>
		<path class="st74" d="M66.7,159.6c-0.9-6.4-2-12.8-3.4-19c-0.2-1,0.1-1.9,1.2-2c1.3-0.1,3,0.6,3.1,1.7
			C67.9,146.6,71.1,153.2,66.7,159.6z"/>
		<path class="st75" d="M214.3,154.9c-0.4-1.4-0.7-2.9-1.1-4.3c0.1-0.7,0.5-1.2,1.1-1.6c0.6-0.3,1.3-0.3,2-0.1
			c0.4,0.2,0.8,0.4,1.1,0.7c0.9,0.9,1.3,2.2,2.3,3.1c2.7,2.8,5.2,4.7,6.4-1.1c3.5-1.8,4,1.5,5.4,3.2l0,0
			C225.8,160,220.1,160,214.3,154.9z"/>
		<path class="st76" d="M147.6,190.5c4.3-0.6,5.9,1.4,5.5,5.5c-0.2,2.3-0.1,4.7,0,7c0.1,3.1-1,4.8-4.3,4.6
			c-2.6-3.3-1.1-7.3-1.6-10.9C147.2,194.6,145.9,192.4,147.6,190.5z"/>
		<path class="st77" d="M170.7,112.5c1.5,0.5,3.2,0.3,3.7,2c0.3,1.2,0.4,2.5-0.6,3.5c-1.1,1-2.1,0.9-3.7,0.4c-2.9-0.9-6.1-0.7-9.2-1
			c-1.1-0.1-2.9,0.4-2.8-1.5c0.1-1.2,1.3-1.6,2.4-1.6C164,114.1,167.6,114.4,170.7,112.5z"/>
		<path class="st78" d="M188.5,165.7c-0.4,2.3,1.1,5.1-1.6,6.9c-0.6,0.4-1.5,0.2-1.9-0.5c-1.5-2.3-0.9-4.8-0.4-7.2
			c0.3-1.7,0.6-3.5,0.6-5.3c0.1-2.8,1.8-3.6,4.3-3.6C191.5,159.5,190.9,162.7,188.5,165.7z"/>
		<path class="st79" d="M108,222.6c0-0.4,0-0.7,0-1.1c1.1-3.5,0.5-7.3,1.5-10.9c0.8-2.8,1.7-3.2,3.9-1.5c0.4,0.5,0.4,1.1,0,1.7
			c0,3,0.1,6,0.1,9c0,1.6,2.1,3.4-0.4,4.6C110.9,225.5,109.4,224.1,108,222.6z"/>
		<path class="st80" d="M95.1,184c-2-1-4-1.9-6.2-2.4c-2-0.5-3.5-1.7-0.2-3c3.9,1.9,8.1-0.8,12.1,1c0.9,0.4,2.1,0,2.9,0.9
			C101.3,183.9,101.3,183.9,95.1,184z"/>
		<path class="st81" d="M214.3,149.9c-0.4,0.3-0.7,0.5-1.1,0.8c-2.9,2-3.9-0.8-5.4-2.2c-3.9-2-6.7-4.5-3.9-9.3
			c0.4-0.6,0.9-1.1,1.7-0.6c0.9,1.1,1.9,2.1,3,3.1C211.1,144.1,214.5,145.8,214.3,149.9z"/>
		<path class="st82" d="M198.8,195.1c0.1-0.1,0.2-0.1,0.3-0.2c0.3-0.2,0.6-0.5,0.9-0.7c-0.5-3.2-1.5-6.3-3-8c-0.7,0.7-0.9,1.5-1,2.5
			c-0.7,2.9-0.6,5.9-0.3,8.8C196.8,196.6,197.8,195.9,198.8,195.1z"/>
		<path class="st83" d="M179.7,127.1c3.4-0.7,6.1,3.6,9.9,1.6c0.7-0.4,1.3,1.5,0.8,1.9c-1.5,1.1,1.4,4.1-1.1,3.8s-1.4,2.2-2.8,2.3
			c-1.3,0-2.1-0.9-3-1.6c-0.9-0.8-1.7-1.6-2.5-2.5C179.9,130.9,178.5,129.3,179.7,127.1z"/>
		<path class="st84" d="M70.4,79.8c0.7-0.4,1.4-0.7,2.1-1.1c3.2-0.1,6.4-0.1,9.4,1c1,0.4,2.2,0.5,2,1.9s-1.5,1.3-2.5,1.4
			c-3.3,0.4-6.6,0.7-10,1.1C70,82.9,69,81.6,70.4,79.8z"/>
		<path class="st85" d="M209,176.4c-0.2,2.6-0.1,5.2-2.4,4.8c-2.8-0.5-5.2-2.8-5.7-5.6c-0.4-2.8,2.4-2.3,4.2-2.4
			C208.3,172.9,209.3,174.5,209,176.4z"/>
		<path class="st86" d="M215.4,141c3.2,2.4,5.7,5.3,6.6,9.3c0.2,0.8,1.1,1.7-0.3,2c-0.6,0.2-1.3-0.4-2-0.6c-1.5-0.1-2.3-1.2-3.3-2.2
			l0,0c-2.3-1.8-4.8-3.4-5.2-6.7c0.2-1.1,0.4-2.3,2-1.9C214,141,214.7,141,215.4,141z"/>
		<path class="st87" d="M192.8,90.5c-0.2,1.7,0.6,3.8-2,4.3c-1.2,2.1,1.2,3,1.5,4.5c0.4,1.7,2.9,2.8,1.6,5.1
			c-8-2.9-9.5-9.6-3.3-14.9C191.2,90.1,192.1,90.2,192.8,90.5z"/>
		<path class="st69" d="M116.2,64c4.4-3.6,8.7-3.6,13.1-3.4c0.9,0,1.7,0.7,1.7,1.7c0,0.9-0.8,1-1.5,1.2
			C125.5,64.8,121.4,65.2,116.2,64z"/>
		<path class="st88" d="M131.2,69.5c-6.5,1-11.7,0.6-17.1,0.5C117.2,66.1,124.7,65.7,131.2,69.5z"/>
		<path class="st89" d="M188.5,165.7c0.4-3.2,0.7-6.4,1.1-9.7c1.2,0.2,2.1,0.8,2.1,2.1c-0.1,3.6,0.6,7.1,1.1,10.6
			c0.2,1.5,0.3,3.8-1.8,3.9c-2.1,0.1-1.2-2.1-1.4-3.4C189.5,167.9,189.7,166.6,188.5,165.7z"/>
		<path class="st90" d="M144.5,206.5c0.5-5.4-2.1-11.2,2.3-16.1c1.2,3.5,0.6,7.3,1.4,10.8c0,2.1,0.6,4.3-0.4,6.3c-0.7,0-1.4,0-2.2,0
			C145.1,207.4,145.3,206.4,144.5,206.5z"/>
		<path class="st91" d="M185.2,73.3c0,0.7,0,1.4,0,2.1c-4.2,2.5-5.7-2.1-8.6-3.2c-1.9,0.6-2.8-0.5-3.2-2.2c1.8-1.8,3.6,0.7,5.4,0
			c1,1.5,2,0.5,3,0c1.5,0.6,0.2,2.3,1.2,3.1C183.8,73.2,184.5,73.3,185.2,73.3z"/>
		<path class="st92" d="M195.1,197.9c0.5-0.4,1-0.7,1.5-1.1c-0.1-0.6-0.1-1.2-0.1-1.7c-0.9-1.8,0.2-4.2-1.6-5.7c-1-0.3-0.6-2-1.8-2
			c-1.4,4.2-2.4,8.2,0.9,11.3C194.4,198.4,194.7,198.1,195.1,197.9z"/>
		<path class="st93" d="M215.8,173c2.2,0.1,4.1,1.2,6,2.2c0.9-0.9,1.8-1.8,2.7-2.7c-1.7-1.2-3.9-1.7-5.9-2.5c-1.4,0.3-3.4-0.7-4,1.5
			C214.5,172.2,215,173,215.8,173z"/>
		<path class="st94" d="M173.5,70.1c1.1,0.7,2.1,1.4,3.2,2.2c-2.2,2.4,2.9,5.1,0.5,6.2c-2.3,1.2-1.3-4-4.4-4.3
			c-1.7-0.2-3.2-2-3.6-4.1C170.6,70.1,172.1,70.1,173.5,70.1z"/>
		<path class="st95" d="M82.2,117.2c-0.6-1-3.2,0.7-2.7-2.2c0.5-2.6,2-2.8,4.2-2.8c1.9,0,2.8,0.9,2.6,2.6
			C86,117.2,84.1,117.4,82.2,117.2z"/>
		<path class="st96" d="M192.8,90.5c-1.2,0.5-2.2,0.7-2.1-1.1c1.8-2.6-1-6.4,2.3-8.7c1.6,1,2.2,2.8,3.1,4.4c0,1.4,0.1,2.8,0.1,4.2
			l-0.1,0.1C195,89.7,193.5,88.9,192.8,90.5L192.8,90.5z"/>
		<path class="st69" d="M196.1,146.3c-0.8,1.2-2,1.1-3.2,1.1c-0.3-1.7-0.8-3.4-1-5.2c-0.1-1.2-0.4-2.7,1.3-3.1
			c1.8-0.4,2.6,0.8,2.8,2.4C196.1,143.2,196,144.8,196.1,146.3z"/>
		<path class="st83" d="M186.4,137.7c-5.6,1.6-7.9,0.6-9.7-4.3c0.8-0.9,1.7-1.7,3.1-1.6c0.7,0.2,1.3,0.6,1.8,1.1
			c1,0.9,1.8,2,2.9,2.9C185.2,136.4,185.7,137.1,186.4,137.7z"/>
		<path class="st97" d="M118.8,220.4c0.2,1.1,2.4,1.4,1.2,3c-0.7,0.9-2,0.2-2.7,0.3c-2,0.4-1.5-0.9-2-1.8c-1.2-2.4,0.1-3.9,1.2-5.6
			c0.4-0.3,0.8-0.3,1.3-0.2c0.8,0.6,1.1,1.5,1.5,2.4C119.5,219.2,119.3,219.8,118.8,220.4z"/>
		<path class="st98" d="M223.7,173.4c0.5-0.5,1-1,1.5-1.5c-0.6-0.3-1.1-0.7-1.7-1c-1.4-0.7-2.7-3.2-4.8-0.9
			C219.9,171.6,221.9,172.4,223.7,173.4z"/>
		<path class="st99" d="M175.2,163.1c1.2,3.4,1.9,5.2,2.5,7c0.6,1.9-0.4,2.5-2.2,2.7c-2,0.2-2.1-1.2-1.9-2.4
			C173.8,168.4,174.4,166.6,175.2,163.1z"/>
		<path class="st100" d="M145.8,150.6c-1.5-2.2-3-4.4-4.5-6.6c5.2-2.5,4.9,2.9,6.5,5C149.2,150.7,146.8,150.3,145.8,150.6z"/>
		<path class="st101" d="M71,145c-1-0.7-1.5-0.9-1.4-1.1c0.4-2.9-2.4-5.6-0.2-8.5c0.2-0.3,1.3-0.3,1.4-0.1
			C72.1,138.3,71.4,141.4,71,145z"/>
		<path class="st102" d="M123,147.4c0-0.4,0-0.7,0-1.1c1-1.3,1.1-2.8,1.1-4.3c-0.3-1.1-1.5-2-0.2-4.1c1.2,1.5,2.3,2.8,3.5,4.1
			c0.8,1.2,1.2,2.6,1.6,4c0.1,0.5,0.1,1,0,1.4c-0.5,1.4-1.2,2.6-2.7,3.2c-0.3,0-0.7,0-1,0C123.8,150,124.2,148.2,123,147.4z"/>
		<path class="st103" d="M141.6,139.7c2.4-1.5,4.7-0.8,7-0.7c1.1,0.1,2.2,0.8,1.8,2.1c-0.3,1.1-1.5,1.7-2.6,1.3
			C145.7,141.7,143.8,140.7,141.6,139.7z"/>
		<path class="st104" d="M212.1,143.3c0.6,2.7,4,3.4,4.4,6.3c-0.7,0.1-1.5,0.2-2.2,0.3c-2.2-2.6-4.3-5.2-6.5-7.8
			c-0.3-1.1,0.1-1.5,1.2-1.2c0.3,0.1,0.7,0.1,1,0C211.4,141.2,211.5,142.4,212.1,143.3z"/>
		<path class="st105" d="M181,133.5c-0.4-0.3-0.8-0.7-1.2-1c-0.6-0.4-1.4-0.5-1.9-1.1c-2.1-1.7-2-4.5-3.4-6.5
			c3.1-2.3,3.2,1.9,5.1,2.3c0.9,1.7,1.7,3.4,2.6,5.1C182.6,133.3,182.1,133.6,181,133.5z"/>
		<path class="st106" d="M70.4,79.8c0.4,1.4,0.7,2.8,1.1,4.3C68.9,85.9,67,84.4,65,83c0.7-1.1,2.2-1.6,2.2-3.2
			C68.2,79.8,69.3,79.8,70.4,79.8z"/>
		<path class="st107" d="M128.4,147.4c0-0.4,0-0.7,0-1.1c0-1.8,0.9-3.1,2.1-4.3c0-1.1,0-2.1,0-3.2c1.9,0.9,3.5,2.1,4.2,4.2
			c-0.6,0.8-0.2,1.8-0.8,2.6c-1.1,0.9-2,2.1-3.5,2.4C129.6,148.2,128.9,148,128.4,147.4z"/>
		<path class="st108" d="M180,165.7c-0.1-0.4-0.1-0.7-0.2-1.1c-0.9-2.1-2.5-3.9-2.2-6.4c-0.2-0.7-0.4-1.4-0.6-2.1
			c0.4-0.7,1-0.9,1.8-0.8c0.5,0.1,0.8,0.4,1,0.9l0,0c1.1,0.8,1.9,1.9,2.4,3.2c1,2.1,0.8,4.2,0,6.4c-0.1,0.4-0.1,0.7-0.2,1.1
			C180.9,167.4,180.4,166.5,180,165.7z"/>
		<path class="st11" d="M117.5,216.2c-0.3,0-0.6,0-0.9,0c-3.5-0.4-1.1-4.2-3.2-5.4c0-0.4,0-0.7,0-1.1c0.2-1.2,1.3-1.5,2.1-2.1
			l0.2-0.2c0.5-0.2,1-0.1,1.4,0.4c0.8,2,0.6,4.3,1.5,6.3C118.5,215,118.2,215.7,117.5,216.2z"/>
		<path class="st109" d="M129.6,151.8c-1.5,3.8-4.7,6-7.7,8.4c-0.5-0.2-0.8-0.5-1-1c0-0.3,0-0.7,0-1c0.5-2.3,2-3.3,4.3-3.2
			c0.7-1.1,1.4-2.2,2.1-3.2c0.3-0.3,0.7-0.5,1.2-0.6C128.9,151.2,129.3,151.4,129.6,151.8z"/>
		<path class="st110" d="M127.3,133.5c5.3-3.5,7.3-3,9.6,2.2c-0.6,0.6-1.4,0.8-2.2,0.6C132.5,134.6,129.4,135.3,127.3,133.5z"/>
		<path class="st111" d="M130.5,157.1c0.6,1.7-2.2,2.5-1.1,4.3c-1.7,0.9-3.2,2.8-5.4,1C125.9,160.3,127.3,157.6,130.5,157.1z"/>
		<path class="st112" d="M182.3,165.6c-0.4-2.1-0.9-4.2-1.3-6.3c0.1-1.2,0.1-2.4,1.1-3.3C186.3,159.2,184.2,162.4,182.3,165.6z"/>
		<path class="st113" d="M194,104.4c-0.7-3.6-4.9-5.6-4.5-9.7c0-0.1,0.3-0.3,0.4-0.3c0.3,0.1,0.6,0.2,1,0.4c1.6,2.8,3.8,5.3,4.5,8.6
			C194.9,103.7,194.4,104,194,104.4z"/>
		<path class="st114" d="M115.4,165.4c-1.2-1.2-2.7-0.7-4.2-0.8c0.4-0.4,0.7-0.7,1.1-1.1c0.8-1.4,2.8-1.5,3.2-3.2
			c1.1,0.3,2.1-1.1,3.2,0c0.8,0.7,0,1.5,0,2.2C117.8,163.8,117,165.1,115.4,165.4z"/>
		<path class="st115" d="M125.2,154.9c-1.4,1.1-2.9,2.2-4.3,3.2c-2.2-1.2-2-2.4,0.1-3.2C122.3,154.5,123.8,151,125.2,154.9z"/>
		<path class="st116" d="M105.8,207.6c0.3,2.7-0.9,5-1.5,8.1c-1.5-3.7-2-6.9-1.8-10.2C104.5,204.9,102.1,210.8,105.8,207.6z"/>
		<path class="st117" d="M180,165.7c0.7,0.3,1.4,0.7,2.1,1c0,1.2-0.1,2.5,0.1,3.7c0.3,1.9-0.9,1.5-2,1.7c-2.3,0.2-0.9-1.2-0.8-1.8
			C179.3,168.7,178.9,167.1,180,165.7z"/>
		<path class="st118" d="M197.1,102.3c0-0.9,0-1.8,0.1-2.7c0.1-1.1,0.7-2.4,1.9-2.2c1.7,0.3,0.2,1.7,0.5,2.6
			c0.4,1.1,1.2,0.2,1.8,0.2C201.8,104.4,199,102.4,197.1,102.3z"/>
		<path class="st119" d="M174.6,124.8c2.4,1.5,3,4.3,4.4,6.5c-0.7,0.7-1.4,0.7-2.2,0.1C173,130.2,175.2,127,174.6,124.8z"/>
		<path class="st120" d="M115.5,160.3c1,3.2-1.7,2.6-3.2,3.2c-0.4-1.2-1.7-2.5-0.4-3.7C113.1,158.8,114.4,159.1,115.5,160.3z"/>
		<path class="st121" d="M130.5,142c0.1,1.8-0.2,3.5-2.1,4.3c-2.2-1-2.2-2.5-1.1-4.3C128.4,142.1,129.5,142.1,130.5,142z"/>
		<path class="st122" d="M127.3,133.5c2.6,0.3,5.7-1.1,7.5,2.1c-0.1,0.6-0.5,1-1.1,1.1c-0.3,0-0.7,0-1-0.1c-1.2-1.3-3.3,0.4-4.3-1.3
			C128,134.7,127.7,134.1,127.3,133.5z"/>
		<path class="st123" d="M117.7,214c-1.3-1.9-1.2-4.2-1.3-6.3c-0.4-1.2-0.8-2.3,1.1-2.2c0.6,2.8,1.2,5.7,1.9,8.5
			C118.8,214.6,118.3,214.7,117.7,214z"/>
		<path class="st124" d="M173.5,105.5c0-0.9-0.2-1.7-1.1-2.1c-0.5-2.1,0.7-3.2,2.2-4.3c0.3,0.4,0.7,0.7,1,1.1
			C178.1,103.2,176.2,104.5,173.5,105.5z"/>
		<path class="st125" d="M87.4,138.6c0,1.4-0.5,2.1-1.5,2.1c-1.3-0.1-1.6-1.1-1.5-2.2c0.1-0.9,0.6-1.6,1.7-1.4
			C87.3,137.2,87.3,138.1,87.4,138.6z"/>
		<path class="st126" d="M147.6,201.3c-1.6-3.5-0.7-7.2-0.8-10.9c0.3,0,0.5,0,0.8,0c0.4,1.8,0.7,3.6,1.1,5.4
			C147.6,197.6,149.1,199.8,147.6,201.3z"/>
		<path class="st127" d="M119.8,170c1.2,0,2.4-0.1,3.2,1.1c-0.2,1.4-0.4,3.1-2.5,2.4C118.3,172.7,119.2,171.3,119.8,170z"/>
		<path class="st128" d="M195.9,194.8c-1.2-1.7-0.6-3.7-0.9-5.5c0.3-1.5-0.6-3.1,0.6-4.4c0.1-0.1,1,0.7,1.5,1.2c0,0.7,0,1.5-0.1,2.2
			C195.8,190.4,197.6,192.9,195.9,194.8z"/>
		<path class="st129" d="M133.7,136.7c0.4-0.4,0.7-0.8,1.1-1.1c0.7,0,1.4,0,2.1,0c0.4,1.4,3.2,2.7,0.2,4.2
			C136,138.8,134.9,137.8,133.7,136.7z"/>
		<path class="st130" d="M140.2,152.8c0-0.7,0-1.4,0.1-2.1c0.3-0.6,0.7-0.6,1.1-0.1c1.4,0.5,2.1,1.6,2.2,3.1c-0.5,1.1-1,2.1-1.7,3.7
			C140.8,155.8,141.8,153.7,140.2,152.8z"/>
		<path class="st131" d="M177.5,158.2c1.2,2,2.8,3.8,2.2,6.4C177.9,162.8,174.9,161.5,177.5,158.2z"/>
		<path class="st132" d="M72.5,118.4c1.4-2.1,3.2-3.9,5.4-5.3C77.3,116,76.8,119.1,72.5,118.4z"/>
		<path class="st133" d="M195.9,197.3c0.5-0.4,1-0.7,1.5-1.1c0.1-2.6-0.4-5.2-0.4-7.8c-1.9,1.9-0.5,4.4-1.2,6.5
			C195.9,195.7,195.9,196.5,195.9,197.3z"/>
		<path class="st134" d="M128.4,151.7c-0.4,0-0.7,0-1.1,0c-0.4-0.4-0.7-0.7-1.1-1.1c0-1.5,0.8-2.6,2.2-3.2c0.7,0,1.4,0,2.1,0
			C132.1,150,129.7,150.6,128.4,151.7z"/>
		<path class="st135" d="M105.8,163.5c0.4-1.3-0.9-3.3,1.5-3.7c0.4-0.1,1.2,0.8,1.4,1.3C109.2,163.6,107.4,163.4,105.8,163.5
			L105.8,163.5z"/>
		<path class="st136" d="M147.6,201.3c0.6-1.8-0.5-3.9,1.1-5.4c0,3.9,0.1,7.8,0.1,11.7h-0.5h-0.5
			C147.7,205.5,147.6,203.4,147.6,201.3z"/>
		<path class="st137" d="M111.7,157c1.6-1.4,3.2-1,5-0.6C114.5,158,114.5,158,111.7,157z"/>
		<path class="st138" d="M85.1,105.4c1.1-2.2,2.3-4.2,4.6-5.4C89.8,103.2,88.6,105.3,85.1,105.4z"/>
		<path class="st139" d="M90.8,95.8c1.1,0,2.1,0,3.2,0c-1.2,1.3-0.8,4.7-4.2,3.2C90.1,98,90.5,96.9,90.8,95.8z"/>
		<path class="st140" d="M94.4,149.3c-0.8-0.1-1.3-0.6-1.3-1.3c0-1,0.6-1.6,1.7-1.3c0.8,0.2,1.1,0.8,1,1.5
			C95.8,149,95.2,149.2,94.4,149.3z"/>
		<path class="st141" d="M122,145.3c-0.8,0.9-1.7,1.3-2.7,0.4c-0.6-0.6-0.6-1.3,0-1.9c1-1,1.9-0.5,2.7,0.4c0.3,0.2,0.4,0.5,0.3,0.7
			C122.2,145.2,122.1,145.3,122,145.3z"/>
		<path class="st142" d="M122,145.3c0-0.4,0-0.7,0-1.1c0.7-0.7,1.4-1.4,2.1-2.1c1.5,1.9,1.8,3.5-1.1,4.3
			C122.7,146,122.3,145.6,122,145.3z"/>
		<path class="st143" d="M113.1,135c-0.1,0.7-0.4,1.3-1.2,1.4c-1,0.1-1.6-0.5-1.5-1.6c0.1-0.8,0.7-1.2,1.4-1.2
			C112.6,133.7,113,134.3,113.1,135z"/>
		<path class="st144" d="M212.1,143.3c-1.1-0.5-1.8-1.2-2.1-2.4c1.1-3.2,2.2-1.6,3.2,0C212.4,141.5,212.2,142.4,212.1,143.3z"/>
		<path class="st145" d="M108.5,143.8c-1.2-0.1-1.4-0.8-1.3-1.5c0.1-0.8,0.7-1.1,1.4-1.1c0.9,0,1.3,0.6,1,1.3
			C109.4,143.1,108.8,143.5,108.5,143.8z"/>
		<path class="st146" d="M123,147.4c2.1,0.2,2.2,1.7,2.2,3.2C121.7,151.4,123.5,148.7,123,147.4z"/>
		<path class="st147" d="M144.4,153.9c1-0.5,1.1-1.4,1.3-2.4c1.5,1.7,1.2,3.6,0.8,5.6C144.7,156.7,144.8,155.2,144.4,153.9z"/>
		<path class="st148" d="M96.2,159.2c-0.3,1-0.4,2.2-1.9,1.5c-0.6-0.3-1.1-0.9-0.8-1.7c0.5-1.2,1.7-0.9,2.7-0.9
			C96.1,158.6,96.2,158.9,96.2,159.2z"/>
		<path class="st149" d="M117.7,214c0.6,0,1.2,0,1.7,0c0.2,1.1,0.3,2.1,0.5,3.2c0.2,1.1-0.3,1.4-1.3,1.3c-0.4-0.8-0.8-1.5-1.2-2.3
			C117.5,215.5,117.6,214.8,117.7,214z"/>
		<path class="st150" d="M118.7,162.5c-1-0.7-0.1-1.5,0-2.2c0.7-0.4,1.4-0.7,2.1-1.1c0.3,0.3,0.7,0.6,1,1
			C120.8,160.9,119.8,161.7,118.7,162.5z"/>
		<path class="st151" d="M178.9,156c-0.7,0-1.3,0.1-1.9,0.1c-0.5-1-1.9-2.1-1.1-3.1c1-1.1,1.6,1.3,2.8,1.1
			C179.5,154.6,179.5,155.3,178.9,156z"/>
		<path class="st152" d="M160.6,72.2h-0.5h-0.5c-0.6-0.1-1.6-0.1-1.2-1.1c0.3-0.9,1.3-1.2,2.2-0.8C161.6,70.8,161.4,71.5,160.6,72.2
			z"/>
		<path class="st153" d="M117.6,205.5c-0.4,0.7-0.8,1.5-1.1,2.2c-0.3-0.1-0.5-0.2-0.8-0.2c-0.1-1.4-0.2-2.8-0.3-4.2
			c0.2-0.4,0.5-0.8,0.7-1.2C116.5,203.2,117,204.4,117.6,205.5z"/>
		<path class="st154" d="M144.5,206.5c0.2-0.4,0.4-0.8,0.6-1.1c0.1,0.7,0.3,1.5,0.4,2.2c-0.1,0.7-0.2,1.3-0.4,2
			C143.9,208.8,144.7,207.5,144.5,206.5z"/>
		<path class="st155" d="M182.1,156c0,1.2,0.1,2.5-1.1,3.3c-1.1-0.8-0.9-2.1-1.1-3.2C180.6,156.1,181.3,156.1,182.1,156z"/>
		<path class="st156" d="M107.7,154.6c-0.2,0.2-0.5,0.5-0.8,0.9c-0.3-0.3-0.9-0.6-0.9-1s0.4-1,0.7-1.1
			C107.3,153.2,107.7,153.7,107.7,154.6z"/>
		<path class="st157" d="M178.9,156c-0.1-0.6-0.1-1.3-0.2-1.9c0.4-0.7,1.1-2,1.7-1.4c1.3,1.2-0.2,2.4-0.6,3.5
			C179.5,156.2,179.2,156.1,178.9,156z"/>
		<path class="st158" d="M83.4,151.3c-0.5,0.4-0.9,0.6-1.3,0.9c-0.3-0.4-0.8-0.8-0.7-1.2c0-0.4,0.6-0.7,0.9-1
			C82.6,150.5,82.9,150.8,83.4,151.3z"/>
		<path class="st159" d="M128.4,135.3c1.5,0.4,3.1,0,4.3,1.3c-1.4,0.1-3-0.4-4.2,0.9C127,136.9,127.5,136.1,128.4,135.3z"/>
		<path class="st160" d="M209,140.9c-0.4,0.4-0.8,0.8-1.2,1.2c-1.3-0.8-2.2-1.8-2.2-3.5C207.3,138.7,208.4,139.5,209,140.9z"/>
		<path class="st161" d="M98.7,135c-0.3,0.1-0.7,0.4-1.2,0.4c-0.6,0-1.1-0.4-0.8-1c0.2-0.3,0.8-0.6,1.2-0.6
			C98.5,133.7,99,134,98.7,135z"/>
		<path class="st162" d="M186.4,137.7c-0.9,0-1.7-0.2-2.1-1.1c-0.6-0.8-0.7-1.5,0.1-2.2c0.7,0.7,1.4,1.5,2.1,2.2
			C186.4,137,186.4,137.4,186.4,137.7z"/>
		<path class="st163" d="M176.8,131.4c0.7,0,1.5,0,2.2-0.1c0.3,0.4,0.6,0.8,0.9,1.1c-1,0.3-2.1,0.7-3.1,1
			C176.7,132.8,176.7,132.1,176.8,131.4z"/>
		<path class="st164" d="M118.6,218.5c0.4-0.4,0.9-0.8,1.3-1.3c1.3,1.7,1.2,2.8-1.2,3.1C118.7,219.8,118.7,219.1,118.6,218.5z"/>
		<path class="st165" d="M151,79.7c0,0.9-0.3,1.7-1.1,2.2c0.1-1,0.1-2.1,0.3-3.1c0-0.2,0.7-0.4,1.1-0.6
			C151.1,78.7,151,79.2,151,79.7z"/>
		<path class="st10" d="M115.4,207.6c-0.7,0.7-1.4,1.4-2.1,2.1c-2.1-1.1-2.7-0.6-3.4,1.8c-0.9,3.3,0,6.9-2,10
			c0.2-3.3,0.1-6.7,0.5-10C109,206.3,111.4,205.9,115.4,207.6z"/>
		<path class="st166" d="M123,49.7c1.1,0.6,0.1,1.4,0.2,2.1c-7.1,0.1-9.5-3.1-8.7-11.8c3.8,0.5,3.9,4.7,6.4,6.5
			C121.6,47.5,122.3,48.6,123,49.7z"/>
		<path class="st167" d="M42.4,151.7c0.5-4.2-2.6-7.7-2.2-11.8c3.2-0.4,6-0.6,5.7,4.3c-0.2,2.5,1.5,4.9,4,6.4
			c-0.6,1.1-2,1.8-2.1,3.2c0.2,0.7,0.2,1.4,0.5,2c1,1.7,1.1,4.3,3.9,4.3c2.8,0.1,1.5-3.2,3.2-4.2c1.8,3.2,1.5,6.7,1.1,10.1
			c-0.3,2.9-3.2,0.2-4.3,1.7l0,0c-1-0.9-2.4-1.1-3.2-2.2c-0.4-0.3-0.7-0.7-1.1-1c0-0.8-0.3-1.2-1.1-1.1
			C44,160,44.8,155.3,42.4,151.7z"/>
		<path class="st168" d="M54.2,148.5c-0.7,0-1.4,0-2.1,0c-0.2-1.7-0.1-3.5-0.5-5.2c-0.4-1.6-0.9-3.6,1.2-3.8c2.1-0.2,1.3,2,1.4,3.2
			C54.3,144.7,54.2,146.6,54.2,148.5z"/>
		<path class="st169" d="M141.3,150.6c-0.4,0-0.7,0.1-1.1,0.1c-1.4-1.6-1.9-0.1-2.7,0.8c-1.7,1.8-3,4.4-6,4.5c0.7-3,3.4-4.4,5.1-6.6
			C139,146.3,140.6,147,141.3,150.6z"/>
		<path class="st170" d="M128.4,151.7c0.7-1.5,2.3-2.4,2.2-4.3c1.1-0.7,2.1-1.4,3.2-2.1c0.3,0.3,0.4,0.6,0.4,0.9
			c-0.1,0.3-0.2,0.5-0.3,0.5c-1.2,1.9-1.5,4.5-4.2,5.2C129.2,151.8,128.8,151.7,128.4,151.7z"/>
		<path class="st171" d="M133.8,146.6c0-0.4-0.1-0.9-0.1-1.3c-0.5-1.1-0.9-2.1,1-2.2C136.1,144.7,136.4,146,133.8,146.6z"/>
		<path class="st172" d="M46.7,163.5c0.2-1.1,0.5-2.1,2-1.8c0.4,0.1,0.9,0.6,1,1c0.3,1.4-0.8,1.7-1.8,2
			C47.4,164.3,47.1,163.9,46.7,163.5z"/>
		<path class="st25" d="M48.9,165.7c1.5,0,2.6,0.7,3.2,2.2C50.5,167.9,49,167.8,48.9,165.7z"/>
		<path class="st173" d="M191.8,59.4c-1.7,1.9-3.6,3.7-4.5,6.2c-0.4,1.3-0.7,2.5-2.3,2.7c-0.8-0.3-1.4-0.6-0.9-1.6
			c1.4-4.6,5.1-7.7,7.6-11.7c1.5-1.2,2.9-1.8,4.4,0C195.5,57.4,194.1,58.8,191.8,59.4z"/>
		<path class="st174" d="M184.1,66.7c0.4,0.4,0.8,0.8,1.2,1.2c0.2,0.2,0.3,0.5,0.2,0.7s-0.1,0.3-0.2,0.3c-1.7,0.9-2.2,2.5-2.2,4.3
			c-1.2-0.7-1-2-1.2-3.1C182.6,68.9,183.3,67.8,184.1,66.7z"/>
		<path class="st175" d="M191.8,59.4c0.9-1.9,2.5-3.3,4.2-4.4c0.4,0,0.7,0,1.1,0l0,0c0.9,2.1,0.8,4.3,0,6.4
			c-1.1,1.1-2.1,2.2-3.2,3.2C191.1,63.8,193.4,60.8,191.8,59.4z"/>
		<path class="st176" d="M199.3,48.6c-0.2,1.7,0.6,3.9-2.1,4.3c-1.4-1.3-4.1-1.7-2.9-4.8c1.1-2.9,2.4-2.5,4-0.6
			C198.6,47.9,198.9,48.3,199.3,48.6z"/>
		<path class="st44" d="M185.2,68.9c0-0.3,0-0.7,0-1c0.7-0.8,1.4-1.5,2.1-2.3c0.4,1.1,1.5,2.1,0.5,3.4C187,70,186.1,70,185.2,68.9z"
			/>
		<path class="st37" d="M197.2,61.5c0-2.1,0-4.3,0-6.4C200,57.2,197.9,59.3,197.2,61.5z"/>
		<path class="st177" d="M49.9,91.7c0.4,0,0.8-0.1,1.1-0.1c0.8,1.1,2.1,1.4,3.2,2c4.1,3,9,2.8,13.7,3.4c1.3,0.2,2.7,0.1,3,1.6
			c0.3,1.7-1.3,2.1-2.5,2c-5-0.2-10.2,2.9-14.9-1.9c-2-2-3.3,0.7-3.5,2.8c-0.2,1.9-0.7,3.9-2.9,3.8c-2.3-0.1-5.5,1.9-6.8-2
			c1.3-2.6,2.3-5.1,5.8-5.8C48.8,97,48.3,93.5,49.9,91.7z"/>
		<path class="st178" d="M54.3,93.7c-0.9,0.3-1.3,2.1-2.5,1.4s-0.6-2.3-0.7-3.4c1.1-0.2,2.4,0,3.2-1.1c7.2-0.9,14.3-2.7,21.7-2.2
			c5.3,0.4,10.8,0.9,13.7,6.5c-0.7,0.7-1.4,1.4-2,2.1c-0.3-2.6-3.4-2.4-4.4-4.3c-4.1,0.6-8-0.1-11.7-2.2
			C65.6,90.7,59.7,91.2,54.3,93.7z"/>
		<path class="st179" d="M71.5,90.5c4,0,8,0.1,11.7,2.2c-0.2,5-3.1,4.7-6.6,3.3c-0.5-1.7-2-1-3.1-1.2c-1.7-0.4-3.7-0.5-3.1-3.2
			C70.7,91.2,71.1,90.9,71.5,90.5z"/>
		<path class="st180" d="M70.4,91.6c1.2,2.8,4,1.7,6,2.5c0.8,0.3,3,0.8,0.3,1.8c-3.9,0.1-7.6-1-11.2-2.5
			C66.7,90.9,68.7,91.7,70.4,91.6z"/>
		<path class="st181" d="M83.2,102.3c-1.7,3.3-4.6,5.4-7.5,7.6c-1.5,0.7-2.5,0.1-3.3-1.1C75.4,105.5,79.7,104.5,83.2,102.3z"/>
		<path class="st182" d="M55.1,103.4c3-1.3,6.1-1.5,10.4,0C61.2,104.9,58.2,104.6,55.1,103.4z"/>
		<path class="st183" d="M72.5,108.7c1.1,0.4,2.2,0.8,3.3,1.1c-0.4,2.6-2.3,4-4.3,5.3c0-1.8,0-3.6,0-5.4
			C71.8,109.4,72.1,109.1,72.5,108.7z"/>
		<path class="st184" d="M61.8,121.6c-4.4,3.8-9,4.2-14,1.1c2.2-2.5,4.8-2.1,7.7-1.3C57.5,121.9,59.7,121.6,61.8,121.6z"/>
		<path class="st185" d="M47.8,153.8c-1.5-2.5-0.3-3.3,2.1-3.2C51.8,153.3,48.7,152.8,47.8,153.8z"/>
		<path class="st50" d="M43.5,129.2c-1.5,1.9-3,3.4-5.4,1.1c0-2.1,0-4.2,0-6.9C41,124.8,43.6,125.7,43.5,129.2z"/>
		<path class="st186" d="M171.7,87c0.3,5.2-2.6,8.4-7.6,8.9c-9.3,1.1-12.9-6-10.5-10.1c2.3-4,5.5-5.3,10.7-4.3
			c0.1,0.1,0.2,0.2,0.2,0.3C162.9,87.9,162.9,87.9,171.7,87z"/>
		<path class="st187" d="M171.7,87c-2.5,1-4.7,3.4-8,1.4c-3.7-2.2-2.3-4.7,0.6-6.9C168.8,82.2,170.7,84.3,171.7,87z"/>
		<path class="st188" d="M150.8,95.3c-1.3-2.4-1.3-4.9,0-7.3C150.8,90.4,150.8,92.8,150.8,95.3z"/>
		<path class="st10" d="M231.5,154.9c-2-0.8-2.9-3.3-5.4-3.2c-0.4-3.6,1.1-3.5,3.5-1.9C231.4,151.1,231.7,153,231.5,154.9z"/>
		<path class="st189" d="M216.5,149.6c1.5,0.1,2.6,0.8,3.3,2.2c0,0.4-0.1,0.7-0.1,1.1C217.7,152.7,216.5,151.7,216.5,149.6z"/>
		<path class="st87" d="M192.8,90.5c0.1-1.2-0.3-2.8,1-3.2c1.7-0.6,1,1.9,2.2,2.2C195.8,92.1,193.9,90.2,192.8,90.5z"/>
		<path class="st190" d="M184.3,134.5c0,0.7,0,1.5-0.1,2.2c-1.4-0.7-2.5-1.8-3.2-3.2c0.4-0.4,0.8-0.9,1.3-1.3
			C183,132.9,183.6,133.7,184.3,134.5z"/>
	</g>
	<g>
		<path class="st191" d="M18.8,138.1c0.4-0.9,0.3-2,0.7-3c0.4,0.7,0.5,1.4,0.8,2.1c0.3,0.7,0.6,1.4,1.2,1.8c0.4-0.7,0.4-1.5,1.1-2.1
			c0.1,0.5,0.2,1,0.3,1.4c0.6,2.4,2.8,3.5,5.1,2.6c1.3-0.5,2.2-1.4,2.9-2.5c1-1.4,1.7-3,2.5-4.6c1.2-2.4,2.5-4.7,4.8-6.4
			c2.5-1.9,5.5-2.3,8.5-2c2.3,0.3,4.6,0.6,6.7,1.7c0.4,0.2,0.7,0,1-0.1c2.9-1.3,5.9-1.8,9.1-1.7c3.8,0.2,6.6,2,8.8,5
			c1,1.4,1.7,3,2.5,4.6s1.5,3.1,2.7,4.5c0.8,0.9,1.7,1.6,2.9,1.7c2.8,0.3,4.2-1.1,4.6-4.2c0.6,0.4,0.7,1,0.8,1.5
			c0.2,0.8,0.5,0.6,0.8,0.1c0.7-0.9,0.9-1.9,1.3-3c0-0.1,0.1-0.2,0.1-0.4c0.5,0.5,0.4,1.2,0.5,1.7c0.4,2.4,0.4,4.8-0.1,7.1
			c-0.8,3.6-3.3,5.5-6.8,6.3c-5.5,1.2-10.7,0.2-15.8-2.2c-4.2-2-8-4.6-11.3-7.8c-0.6-0.6-0.9-0.5-1.4,0c-3.8,3.7-8.1,6.6-13,8.6
			c-4.6,1.9-9.3,2.5-14.2,1.4c-4.1-1-6.4-3.6-6.9-7.8c0-0.2,0.1-0.4-0.2-0.5c0-0.2,0-0.5,0-0.7c0.2-0.9,0.2-1.7,0-2.6
			C18.8,138.5,18.8,138.3,18.8,138.1z"/>
		<g>
			<path class="st191" d="M196,126c-0.1-1.1-0.6-2-1.4-2.7c-1.3-1-2.8-0.9-4.3-0.5c0-1.1-0.1-2.1-0.6-2.9c-0.6-0.9-1.5-1.3-2.4-1.7
				c2.6-2.2,2.6-4.5-0.1-7c1.7-0.6,2.9-1.7,2.9-3.7c0.1-2.5-1.5-3.4-3.6-4c1.7-1.7,2.1-3.3,1.2-4.9c-1.2-2.2-3.2-2.5-5.4-1.7
				c3.2-12.1-2.1-23.6-12.9-28.3c-10.6-4.6-23.1-0.6-29.1,9.2s-3.8,22.8,5.1,30c5.6,4.5,12,6.2,19,4.9c7.1-1.3,12.3-5.4,16.1-11.6
				c0.6,2,2,2.7,3.7,3c-2.5,2.6-2.3,4.9,0.5,6.9c-2,0.5-3.1,1.8-3.2,3.7c-0.1,2,1.1,3.3,3,3.9c-2,2.2-2.3,3.8-1.3,5.5
				c1,1.6,2.6,2,5.2,1.3c0.1,3.1,1.5,4.9,3.9,4.7C194.5,129.9,196.2,128,196,126z M160.2,109.4c-11,0-19.7-8.7-19.7-19.7
				c0-10.7,8.7-19.3,19.5-19.3c10.6,0,19.4,8.7,19.4,19.4C179.5,100.5,170.8,109.4,160.2,109.4z"/>
		</g>
	</g>
	<g>
		<g>
			<path d="M149.6,79.9c-5.6,4.8-6.7,13.1-2.7,19.3c1,1.6,3.6,0.1,2.6-1.5c-3.3-5.1-2.3-11.7,2.3-15.6
				C153.1,80.7,151,78.6,149.6,79.9L149.6,79.9z"/>
		</g>
	</g>
	<g>
		<g>
			<path d="M199,131.3c5.1,0,5.2-8,0-8C193.9,123.3,193.9,131.3,199,131.3L199,131.3z"/>
		</g>
	</g>
	<g>
		<g>
			<path d="M206,131.1c5.1,0,5.2-8,0-8C200.8,123.1,200.8,131.1,206,131.1L206,131.1z"/>
		</g>
	</g>
	<g>
		<g>
			<path d="M212.8,129.4c5.1,0,5.2-8,0-8C207.7,121.4,207.7,129.4,212.8,129.4L212.8,129.4z"/>
		</g>
	</g>
	<g>
		<g>
			<path d="M219.3,126.6c5.1,0,5.2-8,0-8S214.1,126.6,219.3,126.6L219.3,126.6z"/>
		</g>
	</g>
</g>
</svg>
