<?xml version="1.0" encoding="utf-8"?>
<!-- Generator: Adobe Illustrator 22.1.0, SVG Export Plug-In . SVG Version: 6.00 Build 0)  -->
<svg version="1.1" id="Layer_1" xmlns="http://www.w3.org/2000/svg" xmlns:xlink="http://www.w3.org/1999/xlink" x="0px" y="0px"
	 viewBox="0 0 25.1 14.6" style="enable-background:new 0 0 25.1 14.6;" xml:space="preserve">
<g>
	<path d="M12.5,10.2c0.2-0.2,0.2-0.4,0.3-0.5c2.9-2.9,5.8-5.8,8.7-8.8c0.5-0.6,1.2-0.8,1.9-0.5c1.2,0.4,1.6,1.8,0.8,2.8
		c-0.1,0.1-0.1,0.2-0.2,0.2c-3.4,3.4-6.8,6.8-10.2,10.2c-0.9,0.9-1.9,0.9-2.7,0C7.7,10.3,4.3,6.9,0.9,3.5C0.4,3,0.2,2.4,0.4,1.6
		c0.3-1.3,1.9-1.7,2.9-0.8c0.5,0.5,1,1,1.5,1.5c2.4,2.4,4.9,4.9,7.3,7.3C12.2,9.8,12.3,10,12.5,10.2z"/>
</g>
</svg>
