<?xml version="1.0" encoding="utf-8"?>
<!-- Generator: Adobe Illustrator 22.1.0, SVG Export Plug-In . SVG Version: 6.00 Build 0)  -->
<svg version="1.1" id="Layer_1" xmlns="http://www.w3.org/2000/svg" xmlns:xlink="http://www.w3.org/1999/xlink" x="0px" y="0px"
	 viewBox="0 0 25.1 14.6" style="enable-background:new 0 0 25.1 14.6;" xml:space="preserve">
<g>
	<path d="M12.5,4.5c-0.2,0.2-0.2,0.4-0.3,0.5c-2.9,2.9-5.8,5.8-8.7,8.8c-0.5,0.6-1.2,0.8-1.9,0.5c-1.2-0.4-1.6-1.8-0.8-2.8
		c0.1-0.1,0.1-0.2,0.2-0.2C4.3,7.8,7.7,4.4,11.1,1C12,0.1,13,0.1,13.9,1c3.4,3.4,6.8,6.8,10.2,10.2c0.5,0.5,0.8,1.1,0.6,1.8
		c-0.3,1.3-1.9,1.7-2.9,0.8c-0.5-0.5-1-1-1.5-1.5c-2.4-2.4-4.9-4.9-7.3-7.3C12.8,4.9,12.7,4.7,12.5,4.5z"/>
</g>
</svg>
