<?xml version="1.0" encoding="utf-8"?>
<!-- Generator: Adobe Illustrator 22.1.0, SVG Export Plug-In . SVG Version: 6.00 Build 0)  -->
<svg version="1.1" id="Layer_1" xmlns="http://www.w3.org/2000/svg" xmlns:xlink="http://www.w3.org/1999/xlink" x="0px" y="0px"
	 viewBox="0 0 39.5 29.8" style="enable-background:new 0 0 39.5 29.8;" xml:space="preserve">
<style type="text/css">
	.st0{fill:#EB353B;}
</style>
<g>
	<path class="st0" d="M38.9,28.2c-0.2,0.5-0.5,0.8-1,0.9c-0.5,0.1-0.8-0.1-1.2-0.4c-1.5-1.3-3.1-2.4-4.8-3.3c-2.9-1.6-6-2.6-9.3-3.1
		c-2.5-0.4-5-0.3-7.5-0.4c-0.3,0-0.2,0.2-0.2,0.3c0,1.9,0,3.7,0,5.6c0,0.8-0.6,1.3-1.3,1.3c-0.4,0-0.6-0.2-0.9-0.5
		c-1.8-2-3.7-4.1-5.5-6.1C5.1,20.2,3,17.9,1,15.7c-0.6-0.7-0.6-1.3,0-2C4.9,9.4,8.8,5.1,12.7,0.8c0.6-0.7,1.4-0.7,1.9-0.1
		c0.2,0.3,0.3,0.6,0.3,0.9c0,1.8,0,3.7,0,5.5c0,0.3,0.1,0.4,0.4,0.4c1.2,0,2.5,0,3.7,0c4.8,0.1,9.1,1.8,12.7,4.9
		c3.2,2.8,5.4,6.2,6.5,10.3c0.3,1.1,0.5,2.3,0.6,3.5c0,0.1,0,0.2,0.1,0.2C38.9,27,38.9,27.6,38.9,28.2z"/>
	<path class="st0" d="M12.5,24.7c-1.4-1.5-2.7-2.9-4-4.4c-1.7-1.8-3.3-3.6-5-5.5c-0.1-0.2-0.2-0.2,0-0.4c2.9-3.2,5.9-6.5,8.8-9.7
		c0,0,0-0.1,0.1-0.1c0,0,0.1,0,0.1,0c0,0.1,0,0.2,0,0.4c0,1.2,0,2.4,0,3.6c0,0.8,0.5,1.3,1.3,1.3c1.5,0,3.1,0,4.6,0
		c4.9,0,9.2,1.7,12.7,5.2c2.7,2.7,4.5,5.9,5.1,9.7c0,0.1,0.1,0.3,0,0.4c-0.8-0.6-1.6-1.1-2.5-1.6c-3.4-2-7.1-3.2-11-3.8
		c-1.5-0.2-2.9-0.3-4.4-0.3c-1.5,0-3,0-4.6,0c-0.8,0-1.3,0.5-1.3,1.3C12.5,22,12.5,23.3,12.5,24.7z"/>
</g>
</svg>
