<?xml version="1.0" encoding="utf-8"?>
<!-- Generator: Adobe Illustrator 22.1.0, SVG Export Plug-In . SVG Version: 6.00 Build 0)  -->
<svg version="1.1" id="Layer_1" xmlns="http://www.w3.org/2000/svg" xmlns:xlink="http://www.w3.org/1999/xlink" x="0px" y="0px"
	 viewBox="0 0 38.1 38" style="enable-background:new 0 0 38.1 38;" xml:space="preserve">
<style type="text/css">
	.st0{fill:#010101;}
</style>
<path d="M37.2,14.4c-1.6-7-7.5-12.5-14.5-13.9C16.4-0.6,10.3,1.3,5.9,5.6C1.5,10-0.4,16.1,0.7,22.2C2,29.6,7.8,35.5,15.2,37
	c3.7,0.8,7.5,0.4,10.9-1c0.4-0.2,1-0.3,1.6-0.1l5.2,1.6c0.3,0.1,0.5,0.1,0.8,0.1c0.7,0,1.3-0.2,1.8-0.7c0.7-0.6,1.1-1.6,0.9-2.6
	l-1.1-5.6c-0.1-0.6,0.1-1.2,0.3-1.5v0C37.7,23.2,38.2,18.8,37.2,14.4z M33.7,26.2L33.7,26.2c-0.5,0.9-0.6,1.9-0.5,2.9l1.1,5.6
	c0.1,0.3-0.1,0.5-0.2,0.5c-0.1,0.1-0.3,0.2-0.6,0.1l-5.2-1.6c-0.4-0.1-0.8-0.2-1.3-0.2c-0.6,0-1.2,0.1-1.8,0.4
	c-3,1.3-6.4,1.6-9.7,0.9C9.1,33.5,4,28.3,2.9,21.9C1.9,16.4,3.5,11,7.4,7.2c3.9-3.9,9.3-5.5,14.8-4.5C28.5,3.9,33.6,8.8,35,14.9
	C35.9,18.8,35.5,22.7,33.7,26.2z"/>
<circle class="st0" cx="12.7" cy="18.2" r="1.4"/>
<circle class="st0" cx="19.4" cy="18.2" r="1.4"/>
<circle class="st0" cx="26.1" cy="18.2" r="1.4"/>
</svg>
