<?xml version="1.0" encoding="utf-8"?>
<!-- Generator: Adobe Illustrator 22.1.0, SVG Export Plug-In . SVG Version: 6.00 Build 0)  -->
<svg version="1.1" id="Layer_1" xmlns="http://www.w3.org/2000/svg" xmlns:xlink="http://www.w3.org/1999/xlink" x="0px" y="0px"
	 viewBox="0 0 36.5 36.4" style="enable-background:new 0 0 36.5 36.4;" xml:space="preserve">
<g>
	<path d="M35.2,36.2c-0.2-0.2-0.5-0.4-0.7-0.6c-3.4-3.4-6.8-6.8-10.2-10.2c-0.1-0.1-0.2-0.2-0.3-0.3c-3.8,3.2-8.2,4.4-13,3.3
		c-3.5-0.8-6.3-2.8-8.3-5.8c-4-5.9-3.2-13.9,2.6-18.8C10.5-0.9,18.2-1,23.6,3.5c3.1,2.6,4.8,5.9,5.1,9.9c0.3,4-1,7.5-3.6,10.5
		c0.1,0.1,0.2,0.2,0.3,0.3c3.4,3.4,6.8,6.8,10.2,10.2c0.2,0.2,0.4,0.5,0.7,0.8c0,0.3,0,0.7,0,1C35.9,36.2,35.5,36.2,35.2,36.2z
		 M1.7,14.5c0,7,5.6,12.7,12.7,12.7c7.1,0,12.7-5.6,12.7-12.7c0-7.1-5.7-12.7-12.7-12.7C7.5,1.7,1.8,7.4,1.7,14.5z"/>
</g>
<g>
	<path d="M15.7,7.6c5.5-0.1,7.7,6.2,7,10.7c-0.1,0.6,0.9,0.9,1,0.3c0.8-5.2-1.8-12-8-12C15.1,6.6,15.1,7.6,15.7,7.6L15.7,7.6z"/>
</g>
</svg>
